# Rest-skin points; MuJoCo computes the convex hull.
v -0.06103146 0.02832099 -0.15021283
v -0.05991546 0.04468099 -0.14942683
v -0.05958046 0.03202699 -0.17665083
v -0.05951146 0.02513799 -0.12330283
v -0.05901646 0.04209599 -0.12243083
v -0.05823046 0.01176199 -0.15101483
v -0.05790246 0.04740999 -0.17579983
v -0.05765646 0.01578299 -0.17735283
v -0.05627746 0.03557999 -0.20288083
v -0.05621146 0.00834599 -0.12433383
v -0.05544446 0.01984699 -0.20348583
v -0.05534746 0.02221799 -0.09591883
v -0.05511946 0.03907299 -0.09460683
v -0.05436246 0.06050099 -0.14855183
v -0.05381546 0.05886299 -0.12144683
v -0.05374246 0.04981599 -0.20179983
v -0.05295346 0.03754199 -0.22851583
v -0.05270846 0.02274299 -0.22876183
v -0.05229646 0.00540999 -0.09748583
v -0.05229346 0.06164899 -0.17459683
v -0.05153246 0.00030599 -0.17798483
v -0.05139246 -0.00344001 -0.15184283
v -0.05040546 0.05560599 -0.09325983
v -0.05038346 0.01922299 -0.06964183
v -0.05029246 0.00427899 -0.20383983
v -0.05006246 0.03706199 -0.25310183
v -0.04992046 0.02374999 -0.25287483
v -0.04980746 0.05067099 -0.22782283
v -0.04973546 0.03516399 -0.06777983
v -0.04938446 -0.00681601 -0.12551883
v -0.04831346 0.00768599 -0.22869983
v -0.04818146 0.00295399 -0.07169583
v -0.04811546 0.06247499 -0.19948883
v -0.04715446 0.03488199 -0.27627383
v -0.04705346 0.02311299 -0.27580383
v -0.04693646 0.04853999 -0.25322383
v -0.04622246 -0.00989801 -0.09925583
v -0.04607046 0.00985099 -0.25241483
v -0.04597446 0.01593199 -0.04620083
v -0.04594946 0.02030299 -0.39027783
v -0.04544046 0.05057299 -0.06578483
v -0.04484146 0.03233599 -0.29852483
v -0.04471346 0.02153499 -0.29802883
v -0.04470046 0.00069199 -0.04834883
v -0.04443046 0.03050199 -0.04414883
v -0.04429646 0.01214899 -0.02535683
v -0.04422046 0.04501099 -0.27669583
v -0.04383646 0.00775899 -0.00606983
v -0.04369646 0.02443199 -0.38176183
v -0.04369546 0.02443099 -0.38175483
v -0.04365846 0.01070399 -0.27515283
v -0.04341346 0.01145799 -0.38425483
v -0.04341346 0.01145899 -0.38426183
v -0.04298646 -0.01218901 -0.07395683
v -0.04287046 -0.00232501 -0.02733383
v -0.04280146 0.02987299 -0.32024783
v -0.04262846 0.01956099 -0.31991983
v -0.04215346 0.04182899 -0.29890583
v -0.04208046 0.07434899 -0.14757783
v -0.04186246 0.06351899 -0.22590083
v -0.04172846 0.02567199 -0.36245683
v -0.04162546 0.01023699 -0.29732883
v -0.04149046 0.02766399 -0.34165883
v -0.04130946 -0.00531501 -0.38866783
v -0.04130846 -0.00531601 -0.38866183
v -0.04128046 0.07380999 -0.12017683
v -0.04126446 0.07345199 -0.17316483
v -0.04120946 -0.01171201 -0.17843983
v -0.04120546 -0.00630801 -0.00797983
v -0.04112046 0.01444899 -0.36347683
v -0.04107846 0.02558499 -0.02342983
v -0.04103146 0.01738299 -0.34175583
v -0.04088346 -0.01501801 -0.15251183
v -0.04074146 0.00308599 0.01172917
v -0.04065646 -0.01401901 -0.05063983
v -0.04049646 -0.00799001 -0.20395683
v -0.04039146 0.03916399 -0.32042783
v -0.04023646 0.05803699 -0.25397783
v -0.03998646 0.02069799 -0.00447283
v -0.03988446 0.00886299 -0.31930183
v -0.03985846 -0.00127801 0.03006417
v -0.03983646 0.04444999 -0.04183583
v -0.03940546 -0.01822501 -0.12658683
v -0.03940346 -0.00455401 -0.22840583
v -0.03915946 0.07216799 -0.19594883
v -0.03911246 -0.01075701 0.01037217
v -0.03906446 0.03476899 -0.38040583
v -0.03906346 0.03476799 -0.38039883
v -0.03905246 0.03703599 -0.34148183
v -0.03895346 -0.01654601 -0.02940383
v -0.03838646 0.07009599 -0.09163283
v -0.03827246 0.00683099 -0.34140283
v -0.03823746 0.05317099 -0.27730983
v -0.03817246 -0.00192701 -0.25178283
v -0.03815146 0.01536999 0.01289417
v -0.03810046 0.03523699 -0.36171083
v -0.03809146 0.00279499 -0.36387883
v -0.03787246 -0.01531101 0.02909617
v -0.03772746 0.01142699 0.03079517
v -0.03705846 -0.02135701 -0.10092783
v -0.03673346 0.07099499 -0.21213883
v -0.03671046 -0.00019101 -0.27434983
v -0.03668746 0.04958199 -0.29925183
v -0.03668346 -0.02055701 -0.00982383
v -0.03545346 0.04710899 -0.32052783
v -0.03540246 0.00010299 -0.29644783
v -0.03534046 -0.01467901 -0.38153083
v -0.03533946 -0.01468001 -0.38152383
v -0.03477946 0.03783399 -0.02142083
v -0.03446246 0.04550699 -0.34131783
v -0.03436246 0.06385299 -0.06382083
v -0.03430446 -0.02341601 -0.07615783
v -0.03417346 -0.00074401 -0.31835583
v -0.03374546 -0.02509501 0.00891417
v -0.03346846 -0.00681601 -0.36199283
v -0.03310046 -0.00254701 -0.34031383
v -0.03273346 0.04379199 -0.36115183
v -0.03197346 -0.02494601 -0.05293583
v -0.03175846 0.03119499 -0.00326183
v -0.03150146 0.04268699 -0.37942183
v -0.03150046 0.04268599 -0.37941483
v -0.03148546 -0.02953001 0.02801217
v -0.03040746 0.02556399 0.01371617
v -0.02995446 0.02208099 0.03123717
v -0.02984546 0.06395299 -0.25614783
v -0.02977246 0.05676599 -0.03948483
v -0.02933846 0.05856999 -0.27808283
v -0.02928246 -0.02691701 -0.03145783
v -0.02920446 0.06942299 -0.23428383
v -0.02873146 -0.03324201 -0.01178083
v -0.02864846 0.05483699 -0.29949283
v -0.02813846 -0.02088701 -0.38157183
v -0.02808146 -0.01815301 -0.17854383
v -0.02804046 0.05293299 -0.32049183
v -0.02800646 -0.02143201 -0.15279283
v -0.02787346 -0.01989701 -0.37825283
v -0.02787246 -0.01989801 -0.37824583
v -0.02769746 -0.01453001 -0.20378483
v -0.02757846 0.05244699 -0.34103283
v -0.02732946 -0.01133901 -0.22797883
v -0.02729646 -0.02451601 -0.12722283
v -0.02721346 0.07369299 -0.21473383
v -0.02719846 -0.00891401 -0.25113083
v -0.02687646 -0.00707201 -0.27355683
v -0.02662346 0.05203299 -0.36051683
v -0.02631146 -0.00653301 -0.29556383
v -0.02611346 0.07683099 -0.19495383
v -0.02578546 -0.03804101 0.00739017
v -0.02558446 -0.01278301 -0.36024083
v -0.02555246 -0.02722301 -0.10211383
v -0.02551846 0.05167399 -0.37819183
v -0.02551746 0.05167299 -0.37818483
v -0.02548246 -0.00713601 -0.31738383
v -0.02521146 0.04906999 -0.01916983
v -0.02491146 0.07947799 -0.17234383
v -0.02490546 -0.00896101 -0.33915083
v -0.02391146 -0.04283901 0.02668717
v -0.02311946 -0.02890101 -0.07788683
v -0.02299746 0.08128299 -0.14686883
v -0.02210746 0.04132499 -0.00163783
v -0.02149646 0.08118899 -0.11922483
v -0.02096546 -0.02277601 -0.38089183
v -0.02075746 0.03546599 0.01480917
v -0.02053646 -0.03018401 -0.05478083
v -0.01999946 0.03246399 0.03190717
v -0.01958846 0.07748299 -0.09039783
v -0.01891746 0.05648299 -0.29940083
v -0.01888946 -0.02227501 -0.37702383
v -0.01888846 -0.02227601 -0.37701683
v -0.01873446 0.05510499 -0.32021183
v -0.01862146 -0.03460001 -0.03323183
v -0.01858746 0.05998399 -0.27836583
v -0.01830746 0.05533799 -0.34053983
v -0.01774446 0.05625899 -0.35968883
v -0.01752046 0.06492399 -0.25725083
v -0.01735146 0.05742199 -0.37689183
v -0.01735046 0.05742099 -0.37688583
v -0.01715546 -0.04103901 -0.01322283
v -0.01680746 0.07044799 -0.06265283
v -0.01615746 -0.01537801 -0.35934183
v -0.01611246 -0.00838701 -0.29491683
v -0.01608146 -0.00872801 -0.27295883
v -0.01576946 0.06946399 -0.23637583
v -0.01552446 -0.00926801 -0.31671983
v -0.01536046 -0.01025601 -0.25061983
v -0.01510446 -0.01147501 -0.33842883
v -0.01497246 -0.04707701 0.00609017
v -0.01464146 -0.01232001 -0.22756883
v -0.01454746 -0.01514401 -0.20345883
v -0.01452646 -0.02178901 -0.15259883
v -0.01452146 -0.01856401 -0.17834083
v -0.01442046 -0.02476701 -0.12727483
v -0.01381146 0.06273099 -0.03851583
v -0.01352846 0.07272999 -0.21598383
v -0.01338646 -0.02364801 -0.38233283
v -0.01329546 -0.02731901 -0.10265583
v -0.01317746 -0.05261601 0.02562117
v -0.01134546 -0.02933001 -0.07893283
v -0.01113746 0.05532999 -0.01792083
v -0.01055646 0.07543299 -0.19507083
v -0.00940546 0.04796999 -0.00035283
v -0.00928746 0.05253599 -0.31963483
v -0.00916846 0.05383399 -0.29880883
v -0.00896846 0.04337099 0.01589717
v -0.00892446 -0.03185101 -0.05603683
v -0.00889946 0.05232999 -0.33990883
v -0.00867146 -0.02147401 -0.37812883
v -0.00867146 -0.02147401 -0.37812183
v -0.00844346 0.05288799 -0.35900583
v -0.00842946 0.04174799 0.03276317
v -0.00805646 0.05397599 -0.37629783
v -0.00805546 0.05397499 -0.37629083
v -0.00795146 0.05674799 -0.27772083
v -0.00679646 -0.00565801 -0.29462383
v -0.00654346 -0.03716201 -0.03415783
v -0.00645946 0.07788299 -0.17212583
v -0.00637546 -0.00545601 -0.27261783
v -0.00623446 -0.01423801 -0.35928083
v -0.00619746 -0.00720901 -0.31643883
v -0.00606146 -0.02256801 -0.38447383
v -0.00561646 0.06068299 -0.25660483
v -0.00557946 -0.00997101 -0.33812483
v -0.00479346 -0.00637201 -0.25022283
v -0.00419846 -0.04388801 -0.01386083
v -0.00342646 -0.00791401 -0.22709183
v -0.00303246 0.06405799 -0.23586483
v -0.00299546 -0.01042801 -0.20296083
v -0.00290646 -0.01958701 -0.12679383
v -0.00259246 -0.01372101 -0.17787983
v -0.00256146 -0.01680301 -0.15208883
v -0.00216946 0.04489399 -0.37631583
v -0.00216846 0.04489399 -0.37630883
v -0.00213946 0.07972599 -0.14665483
v -0.00210946 -0.02236801 -0.10260983
v -0.00202246 0.04468099 -0.35847083
v -0.00176946 -0.05070001 0.00552617
v -0.00176546 0.04513899 -0.33919883
v -0.00170846 0.04603999 -0.31883683
v -0.00125346 0.04736699 -0.29779683
v -0.00036446 0.07952099 -0.11897983
v -0.00021946 0.06651799 -0.21569683
v -0.00013246 -0.02554801 -0.07947583
v 0.00020854 0.07595299 -0.09024083
v 0.00031954 0.00074399 -0.29467583
v 0.00060654 0.04954899 -0.27626183
v 0.00062354 -0.05665001 0.02520117
v 0.00068054 -0.01777601 -0.38827283
v 0.00093854 -0.00094401 -0.31651283
v 0.00114554 0.00122099 -0.27254783
v 0.00134654 0.06881599 -0.06316083
v 0.00203854 -0.00374201 -0.33812583
v 0.00251154 -0.02919501 -0.05677583
v 0.00281254 0.06150099 -0.03908283
v 0.00286454 -0.01527401 -0.38391983
v 0.00300254 -0.00803101 -0.35973283
v 0.00306754 0.03626899 -0.33854483
v 0.00320754 0.03739499 -0.31803283
v 0.00338054 0.03565199 -0.35801783
v 0.00360354 0.00051799 -0.24998683
v 0.00387554 0.03862299 -0.29672583
v 0.00389254 0.05218299 -0.25432583
v 0.00392754 0.06842199 -0.19491283
v 0.00397554 0.05477999 -0.01807083
v 0.00440954 0.04871399 0.00014717
v 0.00442854 0.03614899 -0.37632583
v 0.00442954 0.03614899 -0.37631883
v 0.00459654 0.04574599 0.01650817
v 0.00476654 0.00943799 -0.29499283
v 0.00507454 0.00813499 -0.31677083
v 0.00554754 -0.03485401 -0.03448183
v 0.00564554 0.04482499 0.03301517
v 0.00584254 0.02796499 -0.31744583
v 0.00595454 -0.00122901 -0.22669583
v 0.00605254 0.04000399 -0.27465083
v 0.00619054 0.00982999 -0.27276683
v 0.00630254 0.02691799 -0.33814483
v 0.00632654 0.02897199 -0.29594983
v 0.00635854 0.00608599 -0.33809783
v 0.00653854 0.01813099 -0.31708183
v 0.00666454 0.01911199 -0.29544183
v 0.00712354 -0.00407101 -0.20244683
v 0.00719654 0.05460499 -0.23284483
v 0.00751154 -0.01379101 -0.12647983
v 0.00752254 0.01683899 -0.33805183
v 0.00780854 -0.01619101 -0.10239183
v 0.00805754 -0.00775901 -0.17744083
v 0.00813954 0.02629899 -0.35789083
v 0.00822154 -0.01116301 -0.15182083
v 0.00850054 0.02971399 -0.27366483
v 0.00855954 0.01952899 -0.27315983
v 0.00878254 0.00326899 -0.35908983
v 0.00920854 -0.04272501 -0.01414283
v 0.00956954 0.00908599 -0.24998183
v 0.00960954 0.06986599 -0.17206783
v 0.00966354 -0.01912101 -0.07969583
v 0.01012154 0.05712499 -0.21386083
v 0.01013454 0.04115799 -0.25136783
v 0.01023454 0.01551799 -0.35827583
v 0.01150354 0.02669899 -0.37658783
v 0.01150354 0.02669999 -0.37659483
v 0.01162654 0.00037899 -0.37979083
v 0.01162754 0.00037799 -0.37978283
v 0.01235954 -0.04869701 0.00571717
v 0.01260854 0.01895399 -0.25008983
v 0.01289854 0.02969699 -0.25028283
v 0.01300354 0.00702599 -0.22638783
v 0.01311554 -0.02328301 -0.05721483
v 0.01459854 0.05791999 -0.19449383
v 0.01496354 0.01440899 -0.37757283
v 0.01496454 0.01440799 -0.37756583
v 0.01507954 0.07105099 -0.14674583
v 0.01533354 0.00362099 -0.20195983
v 0.01534254 -0.05386101 0.02559817
v 0.01561154 0.04174699 -0.22397483
v 0.01585654 0.06120099 -0.06491583
v 0.01604354 0.06698999 -0.09142983
v 0.01614154 0.04881299 -0.21096883
v 0.01638554 -0.02816301 -0.03390583
v 0.01642354 0.01854299 -0.38964583
v 0.01646054 -0.00924301 -0.10205983
v 0.01646754 0.05468199 -0.04095283
v 0.01656054 -0.00673401 -0.12603683
v 0.01673154 0.07043499 -0.11945483
v 0.01694454 0.01683899 -0.22601883
v 0.01717454 0.04881299 -0.01961883
v 0.01719254 -0.00053301 -0.17698283
v 0.01719254 0.04363199 -0.00085283
v 0.01759654 -0.00409001 -0.15152883
v 0.01771254 -0.01181201 -0.07979583
v 0.01793554 0.02790499 -0.22544483
v 0.01797754 0.04188499 0.01591817
v 0.01998854 0.04196099 0.03225117
v 0.02047954 0.05769899 -0.17213583
v 0.02066054 0.01305899 -0.20133283
v 0.02075054 0.04662099 -0.19526983
v 0.02149654 -0.01538401 -0.05715883
v 0.02186354 -0.03516901 -0.01314683
v 0.02298454 0.03543799 -0.19843383
v 0.02304754 0.02385099 -0.20041283
v 0.02308354 -0.00018601 -0.10141383
v 0.02346754 0.00238599 -0.12534483
v 0.02375654 0.00867599 -0.17635483
v 0.02395554 -0.00266301 -0.07932483
v 0.02468754 0.00507399 -0.15099183
v 0.02527854 0.04963699 -0.06788083
v 0.02552254 0.05740399 -0.14716983
v 0.02572154 0.05376799 -0.09380583
v 0.02596754 -0.04072501 0.00663417
v 0.02619354 0.04435199 -0.17292483
v 0.02623954 0.04464099 -0.04401683
v 0.02666154 0.05634999 -0.12070883
v 0.02719954 0.01954199 -0.17548883
v 0.02728454 -0.00548601 -0.05645283
v 0.02729354 -0.02043501 -0.03351183
v 0.02746454 0.01115699 -0.10034883
v 0.02800354 0.01350199 -0.12444883
v 0.02800954 0.03150399 -0.17429883
v 0.02817554 0.04027499 -0.02245483
v 0.02818154 0.00883499 -0.07803783
v 0.02844154 -0.04458401 0.02652817
v 0.02889254 0.01610699 -0.15017183
v 0.02945154 0.03612399 -0.07175083
v 0.02955454 0.03896499 -0.09639583
v 0.02957554 0.02446299 -0.09864583
v 0.02975754 0.04251299 -0.14799083
v 0.02991054 0.04091499 -0.12211283
v 0.03011354 0.02644299 -0.12334283
v 0.03013554 0.02213799 -0.07545383
v 0.03027454 0.03779499 -0.00324883
v 0.03047654 0.02863499 -0.14909983
v 0.03141354 0.00627699 -0.05518083
v 0.03176154 0.03259099 -0.04813183
v 0.03201854 0.03763299 0.01376117
v 0.03335754 0.01937899 -0.05233283
v 0.03341454 -0.02472801 -0.01182483
v 0.03443154 0.03781799 0.03022217
v 0.03575354 -0.00985901 -0.03287883
v 0.03654354 -0.02773601 0.00855117
v 0.03669054 0.02949599 -0.02619183
v 0.03864154 -0.03122201 0.02779517
v 0.03987954 0.00304499 -0.03190783
v 0.04041754 0.01649499 -0.02971483
v 0.04187854 0.02820399 -0.00676283
v 0.04331854 -0.01325801 -0.01115483
v 0.04430054 0.02807799 0.01075217
v 0.04613354 -0.01494701 0.00904117
v 0.04651554 -0.01722601 0.02803917
v 0.04834354 0.01476399 -0.00967083
v 0.04873354 0.00033699 -0.01090083
v 0.05189154 0.01390999 0.00867317
v 0.05247354 -0.00128701 0.00837817
v 0.05256154 -0.00316301 0.02656417
