# Rest-skin points; MuJoCo computes the convex hull.
v -0.03047349 0.02866177 -0.14909768
v -0.03011049 0.02646977 -0.12334068
v -0.02990749 0.04094177 -0.12211068
v -0.02975449 0.04253977 -0.14798868
v -0.02957249 0.02448977 -0.09864368
v -0.02888949 0.01613377 -0.15016968
v -0.02800649 0.03153077 -0.17429668
v -0.02800049 0.01352877 -0.12444668
v -0.02746149 0.01118377 -0.10034668
v -0.02719649 0.01956877 -0.17548668
v -0.02665849 0.05637677 -0.12070668
v -0.02619049 0.04437877 -0.17292268
v -0.02551949 0.05743077 -0.14716768
v -0.02468449 0.00510077 -0.15098968
v -0.02375349 0.00870277 -0.17635268
v -0.02346449 0.00241277 -0.12534268
v -0.02308049 -0.00015923 -0.10141168
v -0.02304449 0.02387777 -0.20041068
v -0.02298149 0.03546477 -0.19843168
v -0.02074749 0.04664777 -0.19526768
v -0.02065749 0.01308577 -0.20133068
v -0.02047649 0.05772577 -0.17213368
v -0.01793249 0.02793177 -0.22544268
v -0.01759349 -0.00406323 -0.15152668
v -0.01718949 -0.00050623 -0.17698068
v -0.01703049 0.01051377 -0.37541568
v -0.01694149 0.01686577 -0.22601668
v -0.01676249 0.01069677 -0.38769368
v -0.01672849 0.07046177 -0.11945268
v -0.01655749 -0.00670723 -0.12603468
v -0.01645749 -0.00921623 -0.10205768
v -0.01613849 0.04883977 -0.21096668
v -0.01560849 0.04177377 -0.22397268
v -0.01533049 0.00364777 -0.20195768
v -0.01507649 0.07107777 -0.14674368
v -0.01459549 0.05794677 -0.19449168
v -0.01451549 0.01468677 -0.36893968
v -0.01300049 0.00705277 -0.22638568
v -0.01289549 0.02972377 -0.25028068
v -0.01287249 0.02300877 -0.37849568
v -0.01260549 0.01898077 -0.25008768
v -0.01246649 -0.00381523 -0.38769468
v -0.01152049 0.02696277 -0.36813968
v -0.01076049 0.00126877 -0.37259668
v -0.01023149 0.01554477 -0.35827368
v -0.01013149 0.04118477 -0.25136568
v -0.01011849 0.05715177 -0.21385868
v -0.00960649 0.06989277 -0.17206568
v -0.00956649 0.00911277 -0.24997968
v -0.00877949 0.00329577 -0.35908768
v -0.00855649 0.01955577 -0.27315768
v -0.00849749 0.02974077 -0.27366268
v -0.00821849 -0.01113623 -0.15181868
v -0.00813649 0.02632577 -0.35788868
v -0.00805449 -0.00773223 -0.17743868
v -0.00780549 -0.01616423 -0.10238968
v -0.00751949 0.01686577 -0.33804968
v -0.00750849 -0.01376423 -0.12647768
v -0.00719349 0.05463177 -0.23284268
v -0.00712049 -0.00404423 -0.20244468
v -0.00666149 0.01913877 -0.29543968
v -0.00653549 0.01815777 -0.31707968
v -0.00635549 0.00611277 -0.33809568
v -0.00632349 0.02899877 -0.29594768
v -0.00629949 0.02694477 -0.33814268
v -0.00618749 0.00985677 -0.27276468
v -0.00604949 0.04003077 -0.27464868
v -0.00595149 -0.00120223 -0.22669368
v -0.00584749 0.03385577 -0.38235268
v -0.00583949 0.02799177 -0.31744368
v -0.00507149 0.00816177 -0.31676868
v -0.00476349 0.00946477 -0.29499068
v -0.00452049 0.03542977 -0.36841568
v -0.00392449 0.06844877 -0.19491068
v -0.00388949 0.05220977 -0.25432368
v -0.00387249 0.03864977 -0.29672368
v -0.00382449 -0.01273423 -0.38491468
v -0.00360049 0.00054477 -0.24998468
v -0.00347749 -0.01259623 -0.38005568
v -0.00337749 0.03567877 -0.35801568
v -0.00320449 0.03742177 -0.31803068
v -0.00306449 0.03629577 -0.33854268
v -0.00299949 -0.00800423 -0.35973068
v -0.00203549 -0.00371523 -0.33812368
v -0.00114249 0.00124777 -0.27254568
v -0.00093549 -0.00091723 -0.31651068
v -0.00060349 0.04957577 -0.27625968
v -0.00031649 0.00077077 -0.29467368
v 1.51e-06 0.04464877 -0.38490368
v 0.00022251 0.06654477 -0.21569468
v 0.00036751 0.07954777 -0.11897768
v 0.00125651 0.04739377 -0.29779468
v 0.00171151 0.04606677 -0.31883468
v 0.00176851 0.04516577 -0.33919668
v 0.00202551 0.04470777 -0.35846868
v 0.00208651 0.04370777 -0.36868268
v 0.00211251 -0.02234123 -0.10260768
v 0.00214251 0.07975277 -0.14665268
v 0.00256451 -0.01677623 -0.15208668
v 0.00259551 -0.01369423 -0.17787768
v 0.00290951 -0.01956023 -0.12679168
v 0.00299851 -0.01040123 -0.20295868
v 0.00303551 0.06408477 -0.23586268
v 0.00311251 -0.01803723 -0.38194368
v 0.00342951 -0.00788723 -0.22708968
v 0.00479651 -0.00634523 -0.25022068
v 0.00558251 -0.00994423 -0.33812268
v 0.00561951 0.06070977 -0.25660268
v 0.00620051 -0.00718223 -0.31643668
v 0.00623751 -0.01421123 -0.35927868
v 0.00637851 -0.00542923 -0.27261568
v 0.00646251 0.07790977 -0.17212368
v 0.00666251 -0.01884923 -0.37314368
v 0.00679951 -0.00563123 -0.29462168
v 0.00795451 0.05677477 -0.27771868
v 0.00806051 0.05366577 -0.36901368
v 0.00844651 0.05291477 -0.35900368
v 0.00890251 0.05235677 -0.33990668
v 0.00917151 0.05386077 -0.29880668
v 0.00929051 0.05256277 -0.31963268
v 0.00967251 -0.02131223 -0.37940968
v 0.01055951 0.07545977 -0.19506868
v 0.01329851 -0.02729223 -0.10265368
v 0.01353151 0.07275677 -0.21598168
v 0.01442351 -0.02474023 -0.12727268
v 0.01452451 -0.01853723 -0.17833868
v 0.01452951 -0.02176223 -0.15259668
v 0.01455051 -0.01511723 -0.20345668
v 0.01464451 -0.01229323 -0.22756668
v 0.01510751 -0.01144823 -0.33842668
v 0.01536351 -0.01022923 -0.25061768
v 0.01552751 -0.00924123 -0.31671768
v 0.01577251 0.06949077 -0.23637368
v 0.01608451 -0.00870123 -0.27295668
v 0.01611551 -0.00836023 -0.29491468
v 0.01616051 -0.01535123 -0.35933968
v 0.01636951 -0.01997323 -0.37117468
v 0.01649751 -0.02190423 -0.37735568
v 0.01752351 0.06495077 -0.25724868
v 0.01774751 0.05628577 -0.35968668
v 0.01831051 0.05536477 -0.34053768
v 0.01832651 0.05715677 -0.36978568
v 0.01859051 0.06001077 -0.27836368
v 0.01873751 0.05513177 -0.32020968
v 0.01892051 0.05650977 -0.29939868
v 0.02149951 0.08121577 -0.11922268
v 0.02260051 0.05397077 -0.38807368
v 0.02300051 0.08130977 -0.14686668
v 0.02328551 -0.02002723 -0.37618368
v 0.02420551 -0.02535223 -0.38255368
v 0.02490851 -0.00893423 -0.33914868
v 0.02491451 0.07950477 -0.17234168
v 0.02515551 -0.01736523 -0.37234568
v 0.02548551 -0.00710923 -0.31738168
v 0.02555551 -0.02719623 -0.10211168
v 0.02558751 -0.01275623 -0.36023868
v 0.02611651 0.07685777 -0.19495168
v 0.02631451 -0.00650623 -0.29556168
v 0.02662651 0.05205977 -0.36051468
v 0.02663551 0.05004477 -0.37076468
v 0.02687951 -0.00704523 -0.27355468
v 0.02695251 0.04711277 -0.38783468
v 0.02720151 -0.00888723 -0.25112868
v 0.02721651 0.07371977 -0.21473168
v 0.02729951 -0.02448923 -0.12722068
v 0.02733251 -0.01131223 -0.22797668
v 0.02758151 0.05247377 -0.34103068
v 0.02770051 -0.01450323 -0.20378268
v 0.02800951 -0.02140523 -0.15279068
v 0.02804351 0.05295977 -0.32048968
v 0.02808451 -0.01812623 -0.17854168
v 0.02865151 0.05486377 -0.29949068
v 0.02920751 0.06944977 -0.23428168
v 0.02934151 0.05859677 -0.27808068
v 0.02953651 -0.01753923 -0.37693968
v 0.02984851 0.06397977 -0.25614568
v 0.03039851 -0.02265623 -0.38406568
v 0.03273651 0.04381877 -0.36114968
v 0.03309251 0.04141177 -0.37192868
v 0.03310351 -0.00252023 -0.34031168
v 0.03341751 -0.01335923 -0.37538268
v 0.03347151 -0.00678923 -0.36199068
v 0.03417651 -0.00071723 -0.31835368
v 0.03446551 0.04553377 -0.34131568
v 0.03460351 0.04192177 -0.38644268
v 0.03500651 -0.01304823 -0.37996768
v 0.03540551 0.00012977 -0.29644568
v 0.03545651 0.04713577 -0.32052568
v 0.03669051 0.04960877 -0.29924968
v 0.03671351 -0.00016423 -0.27434768
v 0.03673651 0.07102177 -0.21213668
v 0.03706151 -0.02133023 -0.10092568
v 0.03809451 0.00282177 -0.36387668
v 0.03810351 0.03526377 -0.36170868
v 0.03817551 -0.00190023 -0.25178068
v 0.03824051 0.05319777 -0.27730768
v 0.03827551 0.00685777 -0.34140068
v 0.03905551 0.03706277 -0.34147968
v 0.03916251 0.07219477 -0.19594668
v 0.03940651 -0.00452723 -0.22840368
v 0.03940851 -0.01819823 -0.12658468
v 0.03946151 -0.00479623 -0.38334468
v 0.03988751 0.00888977 -0.31929968
v 0.03996251 0.03360677 -0.37326868
v 0.04023951 0.05806377 -0.25397568
v 0.04039451 0.03919077 -0.32042568
v 0.04049951 -0.00796323 -0.20395468
v 0.04088651 -0.01499123 -0.15250968
v 0.04103451 0.01740977 -0.34175368
v 0.04112351 0.01447577 -0.36347468
v 0.04121251 -0.01168523 -0.17843768
v 0.04126751 0.07347877 -0.17316268
v 0.04128351 0.07383677 -0.12017468
v 0.04149351 0.02769077 -0.34165668
v 0.04156651 0.03424177 -0.38423568
v 0.04162851 0.01026377 -0.29732668
v 0.04173151 0.02569877 -0.36245468
v 0.04186551 0.06354577 -0.22589868
v 0.04189751 0.01015277 -0.37747468
v 0.04208351 0.07437577 -0.14757568
v 0.04215651 0.04185577 -0.29890368
v 0.04263151 0.01958777 -0.31991768
v 0.04280451 0.02989977 -0.32024568
v 0.04315651 0.00178877 -0.38747168
v 0.04366151 0.01073077 -0.27515068
v 0.04391151 0.02307677 -0.37500868
v 0.04422351 0.04503777 -0.27669368
v 0.04471651 0.02156177 -0.29802668
v 0.04484451 0.03236277 -0.29852268
v 0.04549251 0.01138077 -0.39036768
v 0.04607351 0.00987777 -0.25241268
v 0.04622551 -0.00987123 -0.09925368
v 0.04693951 0.04856677 -0.25322168
v 0.04705651 0.02313977 -0.27580168
v 0.04715751 0.03490877 -0.27627168
v 0.04811851 0.06250177 -0.19948668
v 0.04831651 0.00771277 -0.22869768
v 0.04938751 -0.00678923 -0.12551668
v 0.04981051 0.05069777 -0.22782068
v 0.04992351 0.02377677 -0.25287268
v 0.05006551 0.03708877 -0.25309968
v 0.05029551 0.00430577 -0.20383768
v 0.05040851 0.05563277 -0.09325768
v 0.05139551 -0.00341323 -0.15184068
v 0.05153551 0.00033277 -0.17798268
v 0.05229651 0.06167577 -0.17459468
v 0.05229951 0.00543677 -0.09748368
v 0.05271151 0.02276977 -0.22875968
v 0.05295651 0.03756877 -0.22851368
v 0.05374551 0.04984277 -0.20179768
v 0.05381851 0.05888977 -0.12144468
v 0.05436551 0.06052777 -0.14854968
v 0.05512251 0.03909977 -0.09460468
v 0.05535051 0.02224477 -0.09591668
v 0.05544751 0.01987377 -0.20348368
v 0.05621451 0.00837277 -0.12433168
v 0.05628051 0.03560677 -0.20287868
v 0.05765951 0.01580977 -0.17735068
v 0.05790551 0.04743677 -0.17579768
v 0.05823351 0.01178877 -0.15101268
v 0.05901951 0.04212277 -0.12242868
v 0.05951451 0.02516477 -0.12330068
v 0.05958351 0.03205377 -0.17664868
v 0.05991851 0.04470777 -0.14942468
v 0.06103451 0.02834777 -0.15021068
