# Rest-skin points; MuJoCo computes the convex hull.
v -0.03336392 -0.01257376 -0.00100478
v -0.03133992 -0.00841076 -0.00792178
v -0.03093792 0.00203624 -0.00254778
v -0.03056192 -0.02144576 -0.03083278
v -0.03052092 -0.00694676 -0.03192778
v -0.03047692 -0.02385976 -0.00312478
v -0.03029392 -0.02261876 -0.02007078
v -0.03022792 -0.00792076 -0.01910178
v -0.03010592 -0.00687576 -0.04389478
v -0.02997492 0.00708524 -0.04627778
v -0.02984592 0.00689524 -0.03546478
v -0.02971392 -0.02042576 -0.03967178
v -0.02960292 0.00418824 -0.02284878
v -0.02950992 0.02040724 -0.04871278
v -0.02935792 -0.03646276 -0.02263878
v -0.02928792 -0.02341176 -0.01044578
v -0.02906592 0.01972824 -0.03848378
v -0.02885492 0.01892324 -0.05841078
v -0.02875992 0.00659924 -0.05680378
v -0.02872192 -0.03537476 -0.03177878
v -0.02742392 -0.00634476 -0.05498178
v -0.02710392 -0.03488776 -0.04019778
v -0.02707192 0.01699324 -0.02876878
v -0.02639592 -0.03690276 -0.01247378
v -0.02567492 -0.01925776 -0.05038178
v -0.02528992 0.03125224 -0.05193778
v -0.02490992 0.03165424 -0.04059678
v -0.02485892 -0.05101276 -0.03407278
v -0.02478592 -0.05246876 -0.02761578
v -0.02469092 0.01270324 -0.00672278
v -0.02447092 -0.04984976 -0.04152278
v -0.02436692 0.01777324 -0.06521978
v -0.02429692 0.02925924 -0.03082578
v -0.02405892 0.02732324 -0.06217878
v -0.02382092 -0.09692576 -0.04938078
v -0.02341192 -0.06792976 -0.03752478
v -0.02340392 -0.03294476 -0.04843178
v -0.02339392 0.00865924 -0.06510978
v -0.02311892 -0.08272576 -0.04782078
v -0.02282192 -0.06929276 -0.03163378
v -0.02278792 -0.11352976 -0.05264278
v -0.02258192 -0.03596776 -0.00128078
v -0.02256692 -0.06597276 -0.04398478
v -0.02154792 -0.08331476 -0.03922978
v -0.02101892 -0.12954376 -0.05681178
v -0.02091092 -0.00490176 -0.06340078
v -0.02090892 0.02259124 -0.06795878
v -0.02035692 -0.05369676 -0.01787678
v -0.02018692 -0.11177076 -0.06472778
v -0.02017792 -0.04800976 -0.04938578
v -0.01985892 -0.08194376 -0.03462878
v -0.01967192 -0.09506676 -0.06075078
v -0.01962592 0.02508124 -0.00870178
v -0.01916992 -0.07002676 -0.02477578
v -0.01883892 -0.01843076 -0.05864778
v -0.01871292 -0.09755176 -0.03870178
v -0.01836792 -0.12878476 -0.06824978
v -0.01815492 -0.05475076 -0.01193978
v -0.01814592 -0.08113776 -0.05716478
v -0.01803592 -0.12914476 -0.04718878
v -0.01797792 -0.14143776 -0.05854478
v -0.01790192 -0.06430076 -0.05188078
v -0.01779192 0.04138024 -0.05440578
v -0.01767992 -0.08388376 -0.03084078
v -0.01715992 0.03687924 -0.06411778
v -0.01699892 0.04224124 -0.04236578
v -0.01681992 -0.11471576 -0.04175978
v -0.01663192 0.01088324 -0.06921878
v -0.01632692 -0.03219176 -0.05519878
v -0.01629092 0.04139124 -0.03249078
v -0.01595792 -0.06958876 -0.01875578
v -0.01537092 -0.05541976 -0.00550978
v -0.01522292 -0.14787276 -0.05896978
v -0.01521892 -0.14060176 -0.05072678
v -0.01501892 -0.04409476 0.00240422
v -0.01366992 0.02761324 -0.07053478
v -0.01362492 0.03607424 -0.01070778
v -0.01359792 -0.15161176 -0.05921578
v -0.01344092 -0.14173176 -0.06887778
v -0.01342892 -0.04698076 -0.05546278
v -0.01335092 -0.00325276 -0.06930878
v -0.01320492 -0.08412676 -0.02509878
v -0.01291192 -0.14731976 -0.05241778
v -0.01268392 0.03494024 0.00484922
v -0.01209492 -0.15252576 -0.05374578
v -0.01197992 -0.15652176 -0.05982978
v -0.01188592 -0.14915976 -0.06644078
v -0.01154192 -0.16320976 -0.06143978
v -0.01146092 -0.15151176 -0.06577478
v -0.01125492 -0.16294276 -0.06678878
v -0.01114792 -0.09707276 -0.03034478
v -0.01112792 -0.15682276 -0.06671578
v -0.01073292 -0.16992476 -0.06080378
v -0.01065692 -0.01725276 -0.06515478
v -0.01036592 -0.16911476 -0.06864978
v -0.01012692 -0.15722776 -0.05483378
v -0.01003492 -0.12752876 -0.04147178
v -0.01000692 -0.09439876 -0.06816578
v -0.00968792 -0.06220776 -0.05852378
v -0.00962392 -0.06988576 -0.01223678
v -0.00935992 0.01410124 -0.07191478
v -0.00894992 -0.16297076 -0.05555878
v -0.00879992 -0.13974376 -0.04588378
v -0.00879992 -0.11201376 -0.07263878
v -0.00853392 -0.17677976 -0.06057978
v -0.00841792 -0.11293476 -0.03644978
v -0.00839492 -0.04767676 0.00592522
v -0.00835592 -0.14733576 -0.04837378
v -0.00827492 -0.07841776 -0.06253178
v -0.00826392 -0.05557676 0.00041622
v -0.00778992 -0.17733976 -0.06746878
v -0.00740492 -0.03115476 -0.06234678
v -0.00730092 -0.08408276 -0.02006378
v -0.00713392 -0.12868776 -0.07478378
v -0.00684592 0.04422124 -0.05452878
v -0.00657992 -0.15226676 -0.04982378
v -0.00646392 0.04547024 -0.04299078
v -0.00640892 -0.16975676 -0.05515178
v -0.00636992 0.04511324 -0.03369878
v -0.00632992 0.04008224 -0.06501378
v -0.00537292 -0.00103376 -0.07211478
v -0.00506592 -0.15682776 -0.05146278
v -0.00500592 -0.09709476 -0.02662178
v -0.00486192 -0.18513476 -0.05976378
v -0.00480692 0.03094424 -0.07129678
v -0.00442092 0.03957424 -0.01139878
v -0.00412992 0.03766824 0.00409322
v -0.00398292 -0.14478776 -0.07234978
v -0.00394192 -0.06940176 -0.00836678
v -0.00346192 -0.18627576 -0.06555178
v -0.00346092 -0.16053476 -0.05154478
v -0.00292192 -0.17732876 -0.05566578
v -0.00286092 -0.04513076 -0.06231978
v -0.00277592 -0.01560376 -0.06966678
v -0.00276092 -0.14967676 -0.07019878
v -0.00255792 -0.15156076 -0.06978678
v -0.00251592 -0.15605576 -0.07198078
v -0.00171992 -0.18383676 -0.05607978
v -0.00167092 -0.17765076 -0.05576178
v -0.00151292 -0.11236576 -0.03386278
v -0.00142792 -0.16073276 -0.07273278
v -0.00131592 0.01724724 -0.07310778
v -0.00130392 -0.04777376 0.00840322
v -0.00100092 -0.17813376 -0.05575478
v -0.00097992 -0.18365276 -0.05673478
v -0.00097392 -0.16723076 -0.05151378
v -0.00089192 -0.17823476 -0.05547878
v -0.00069392 -0.18353476 -0.05637578
v -0.00065092 -0.16666476 -0.07423678
v -0.00056192 -0.18348976 -0.05611678
v -0.00028192 -0.08392076 -0.01728178
v 0.00015608 -0.05471776 0.00185822
v 0.00031508 -0.19118476 -0.06217578
v 0.00031708 -0.17875276 -0.05494078
v 0.00059308 -0.19198676 -0.05763078
v 0.00064408 -0.12600876 -0.03901978
v 0.00068908 -0.17316376 -0.05384878
v 0.00073508 -0.06013376 -0.06349978
v 0.00078508 -0.13820576 -0.04348778
v 0.00085408 -0.18428076 -0.05486878
v 0.00087308 -0.02925176 -0.06642478
v 0.00098508 -0.07544176 -0.06638378
v 0.00101508 -0.14636976 -0.04676378
v 0.00112008 -0.18924276 -0.05575878
v 0.00134408 -0.17457376 -0.07261778
v 0.00135708 -0.15108276 -0.04829778
v 0.00147108 -0.18911176 -0.05597878
v 0.00155208 -0.19019476 -0.05544478
v 0.00163708 -0.17599876 -0.05426878
v 0.00164808 -0.19010276 -0.05602578
v 0.00165408 -0.19088076 -0.05566078
v 0.00168008 -0.09114776 -0.06990478
v 0.00176908 -0.19074376 -0.05566278
v 0.00206308 -0.17601776 -0.05412378
v 0.00210208 -0.17598376 -0.05435178
v 0.00247308 -0.18958776 -0.05441678
v 0.00250808 -0.19101076 -0.05526378
v 0.00263708 -0.19107076 -0.05590878
v 0.00290408 -0.17857176 -0.05418078
v 0.00291908 -0.18916076 -0.05446478
v 0.00302208 -0.19070076 -0.05452278
v 0.00307808 -0.09647276 -0.02493278
v 0.00312108 0.00197424 -0.07316678
v 0.00312208 -0.06824176 -0.00613678
v 0.00318208 -0.19035176 -0.05524378
v 0.00331108 -0.15577276 -0.04969078
v 0.00333508 -0.19128176 -0.05481178
v 0.00354108 -0.19135876 -0.05561578
v 0.00356108 -0.19263376 -0.05987478
v 0.00363508 0.04034724 -0.06484878
v 0.00370608 0.03636224 -0.01300978
v 0.00371108 -0.19288576 -0.05734778
v 0.00385608 -0.19092176 -0.05490878
v 0.00390008 -0.18348676 -0.07028578
v 0.00393508 -0.19164776 -0.05526378
v 0.00398808 0.03352424 -0.06980278
v 0.00419608 -0.16030976 -0.05044378
v 0.00424008 -0.12849376 -0.07561578
v 0.00426708 -0.11048476 -0.07429778
v 0.00433808 0.04479624 -0.05451078
v 0.00442808 -0.18423076 -0.05351378
v 0.00496608 0.04495124 -0.04313178
v 0.00542508 -0.18985376 -0.06574778
v 0.00553008 -0.18890176 -0.05322478
v 0.00554108 0.04183424 -0.03413878
v 0.00567608 -0.18782776 -0.05607278
v 0.00571808 -0.16605076 -0.05114478
v 0.00573508 -0.14455676 -0.07415578
v 0.00582008 -0.13680076 -0.04518178
v 0.00583508 -0.15121876 -0.06848778
v 0.00602608 -0.14830676 -0.06935378
v 0.00640708 -0.19069976 -0.05337178
v 0.00643008 -0.19020876 -0.05366278
v 0.00644608 -0.08245376 -0.01549578
v 0.00647208 -0.12613676 -0.04062078
v 0.00647908 -0.14364776 -0.04844078
v 0.00654008 -0.05427276 0.00288522
v 0.00659508 -0.18995976 -0.05438578
v 0.00661108 -0.15404376 -0.06867878
v 0.00664408 -0.04415676 -0.06641778
v 0.00665908 -0.19136076 -0.05398178
v 0.00666308 -0.19113876 -0.05342778
v 0.00670408 -0.07771776 -0.06810678
v 0.00688208 0.02066424 -0.07264478
v 0.00690508 -0.19231076 -0.06103778
v 0.00694108 -0.15053576 -0.05125178
v 0.00707408 -0.17477876 -0.05453678
v 0.00721908 -0.17233976 -0.05362578
v 0.00722008 -0.17424776 -0.05496978
v 0.00722708 -0.13136876 -0.07396678
v 0.00735008 -0.01340076 -0.07221478
v 0.00743808 -0.19297976 -0.05753578
v 0.00748708 -0.19152276 -0.05470478
v 0.00757208 -0.17373876 -0.05447478
v 0.00761008 -0.11128876 -0.03350678
v 0.00766108 -0.15567976 -0.05212878
v 0.00823608 -0.14603376 -0.05212078
v 0.00826208 -0.17659776 -0.05470878
v 0.00848008 -0.07511876 -0.06815078
v 0.00850408 -0.15807276 -0.07077778
v 0.00889108 -0.15185076 -0.05462878
v 0.00891208 0.02888124 -0.01306378
v 0.00893508 -0.08899676 -0.07067778
v 0.00908908 -0.12729776 -0.07433778
v 0.00939108 -0.16396876 -0.07260278
v 0.00942908 -0.12754676 -0.04146678
v 0.00949608 -0.15181276 -0.06091778
v 0.00950008 -0.14327476 -0.07143078
v 0.00961708 -0.15963076 -0.05360178
v 0.00967608 -0.15028876 -0.05941978
v 0.00968408 -0.15575876 -0.05566678
v 0.00984408 -0.18214776 -0.05458878
v 0.00987608 -0.06718076 -0.00498178
v 0.01008708 -0.17302876 -0.07215178
v 0.01036608 -0.13764476 -0.04646778
v 0.01042408 -0.14135676 -0.04937578
v 0.01044208 -0.15388076 -0.06233178
v 0.01044608 -0.14397376 -0.05195578
v 0.01048908 -0.09476476 -0.02355878
v 0.01056708 -0.14673576 -0.06750778
v 0.01081708 -0.17571776 -0.05628078
v 0.01090908 -0.02695676 -0.07023678
v 0.01098008 -0.18717576 -0.05445378
v 0.01104208 0.03162424 -0.06827078
v 0.01105608 -0.18695476 -0.05427978
v 0.01126308 -0.17534776 -0.05652778
v 0.01129008 -0.10870976 -0.07224678
v 0.01134508 -0.19037776 -0.05582778
v 0.01136208 -0.16554176 -0.05491178
v 0.01139508 -0.14857376 -0.05860578
v 0.01140308 -0.17479176 -0.05678278
v 0.01142008 -0.18195176 -0.06949778
v 0.01160608 -0.15956176 -0.05709778
v 0.01161908 -0.17396776 -0.05710078
v 0.01164908 -0.18870476 -0.05424878
v 0.01170308 -0.19179976 -0.05820878
v 0.01173008 0.00535524 -0.07278078
v 0.01173708 -0.18917776 -0.05463778
v 0.01178608 -0.19118176 -0.06143178
v 0.01180308 -0.18820776 -0.05453278
v 0.01191508 -0.18829976 -0.06552278
v 0.01195908 -0.18913676 -0.05430278
v 0.01214308 -0.05861676 -0.06823278
v 0.01218908 -0.18918176 -0.05479978
v 0.01228708 -0.12420676 -0.03978178
v 0.01242108 -0.18018376 -0.05691778
v 0.01242808 -0.05194676 0.00037922
v 0.01257708 -0.15749776 -0.06275478
v 0.01269808 -0.17256676 -0.05638778
v 0.01279208 -0.18511776 -0.05615678
v 0.01295008 0.03540224 -0.06383578
v 0.01301508 -0.17920476 -0.05845778
v 0.01309408 -0.18705376 -0.05606878
v 0.01310308 -0.14872976 -0.05737178
v 0.01315408 -0.18522676 -0.05633178
v 0.01323908 -0.18910376 -0.05656978
v 0.01328908 -0.14573276 -0.05128978
v 0.01330208 -0.17887776 -0.05887378
v 0.01334808 -0.18651276 -0.05610878
v 0.01340208 -0.18623476 -0.05682478
v 0.01341508 -0.17862576 -0.05887178
v 0.01341908 -0.18734976 -0.05718778
v 0.01342208 -0.14412076 -0.07114078
v 0.01358508 -0.18713176 -0.05633178
v 0.01360808 -0.18381976 -0.05755578
v 0.01375408 -0.18419576 -0.05764478
v 0.01377508 -0.18982376 -0.05846878
v 0.01379208 -0.13405476 -0.04433478
v 0.01397608 -0.18615276 -0.05769878
v 0.01399808 -0.18490276 -0.05798478
v 0.01402008 -0.18953976 -0.06060778
v 0.01404608 -0.18604676 -0.05711578
v 0.01414708 -0.08026376 -0.01466178
v 0.01418408 -0.18752276 -0.05654278
v 0.01419208 -0.18491176 -0.05743478
v 0.01423108 -0.18407776 -0.05757978
v 0.01428008 -0.14950576 -0.06484278
v 0.01438108 -0.16417776 -0.05908678
v 0.01443708 -0.15174176 -0.05604578
v 0.01453708 -0.12586876 -0.07610078
v 0.01479608 0.02173024 -0.01081778
v 0.01485808 -0.18043176 -0.05688478
v 0.01491608 0.03517524 -0.03427078
v 0.01497808 -0.16255976 -0.06627378
v 0.01499908 -0.15595776 -0.05181778
v 0.01503208 -0.14288276 -0.04790978
v 0.01506408 -0.08708976 -0.07114378
v 0.01506608 -0.14934076 -0.05137378
v 0.01510208 0.02403624 -0.07012978
v 0.01543408 -0.11007376 -0.03210278
v 0.01553708 -0.15165276 -0.06112178
v 0.01553708 -0.06400576 -0.00765178
v 0.01557008 -0.18765676 -0.05887078
v 0.01559408 -0.18690576 -0.06241578
v 0.01560208 -0.15656776 -0.05618478
v 0.01571508 0.03968924 -0.05431078
v 0.01607008 -0.16897476 -0.06905778
v 0.01610408 -0.17100276 -0.06000178
v 0.01613108 0.03822724 -0.04368578
v 0.01644808 -0.04157676 -0.07048078
v 0.01653108 -0.01013676 -0.07235978
v 0.01660708 -0.15694376 -0.06159078
v 0.01666808 -0.03931676 0.00471122
v 0.01693408 -0.18041676 -0.05943878
v 0.01697108 -0.16246376 -0.05769278
v 0.01707308 -0.18078776 -0.06520378
v 0.01756308 -0.14890476 -0.04805978
v 0.01762108 -0.16314676 -0.05417478
v 0.01768208 -0.07254576 -0.07002078
v 0.01769408 -0.09237376 -0.02344778
v 0.01776308 -0.15554476 -0.04839478
v 0.01780108 -0.12210476 -0.03628878
v 0.01803808 -0.16108476 -0.06307778
v 0.01805208 -0.16780776 -0.06152278
v 0.01830708 -0.04826376 -0.00183878
v 0.01881308 -0.16512276 -0.06663178
v 0.01886008 -0.13246576 -0.04226078
v 0.01892208 -0.10530876 -0.07400878
v 0.01917008 -0.16941776 -0.05773978
v 0.01918308 -0.14349376 -0.07282178
v 0.01965908 -0.17829176 -0.06493378
v 0.01984308 -0.14826176 -0.06642478
v 0.01989108 -0.15194776 -0.06425878
v 0.01989708 -0.08521776 -0.07117678
v 0.01989708 -0.07781976 -0.01683978
v 0.02006308 -0.16383976 -0.05191178
v 0.02024608 -0.17712776 -0.06143478
v 0.02038208 -0.12442576 -0.07502878
v 0.02074808 0.00840524 -0.07078178
v 0.02105008 -0.03298776 -0.00031078
v 0.02139308 -0.15559076 -0.06507678
v 0.02147308 -0.17949076 -0.06739978
v 0.02148908 0.02718324 -0.06328378
v 0.02149408 0.02512624 -0.03463878
v 0.02157108 -0.14244176 -0.04610478
v 0.02157808 -0.06048776 -0.00991778
v 0.02161408 -0.17032176 -0.05483878
v 0.02162208 -0.17220176 -0.07141578
v 0.02165208 -0.18070276 -0.06317878
v 0.02174508 -0.02465876 -0.07198278
v 0.02211008 -0.15915176 -0.06573378
v 0.02212508 -0.14708776 -0.04694478
v 0.02224308 -0.17754376 -0.05873978
v 0.02233808 -0.05475976 -0.07132678
v 0.02244808 -0.12065176 -0.03940278
v 0.02251408 0.01243124 -0.01164678
v 0.02253808 -0.10790876 -0.03384478
v 0.02280808 0.01423524 -0.02011078
v 0.02290408 0.02839524 -0.04364178
v 0.02324208 -0.16182376 -0.06830178
v 0.02326108 -0.15359176 -0.04657578
v 0.02334608 0.01454024 -0.00403478
v 0.02337608 -0.17708676 -0.05914578
v 0.02340208 -0.12597176 -0.07333878
v 0.02344208 -0.17730476 -0.05910978
v 0.02345608 -0.17662776 -0.05944478
v 0.02366008 -0.17982276 -0.06161178
v 0.02368008 -0.08613676 -0.07189678
v 0.02373008 -0.17841376 -0.06081578
v 0.02382308 -0.17769076 -0.07055378
v 0.02391008 -0.13159676 -0.04411878
v 0.02394708 -0.17873076 -0.06092978
v 0.02395708 -0.09029876 -0.02519178
v 0.02401608 -0.17875576 -0.06075178
v 0.02409908 0.02921924 -0.05362478
v 0.02420308 -0.18142076 -0.06701478
v 0.02431408 -0.10341976 -0.07396278
v 0.02462908 -0.17745976 -0.05942378
v 0.02470608 -0.16247876 -0.05008678
v 0.02473908 -0.18052976 -0.06160678
v 0.02475408 -0.18272076 -0.06471378
v 0.02494008 -0.12351876 -0.07407978
v 0.02495408 -0.02555176 -0.00516578
v 0.02497508 -0.14190776 -0.06996778
v 0.02502308 -0.17928376 -0.06015078
v 0.02505208 -0.18020776 -0.06159978
v 0.02510208 -0.18114676 -0.06181678
v 0.02510308 -0.04236076 -0.00562178
v 0.02511208 -0.18089176 -0.06214178
v 0.02514708 -0.18090876 -0.06165278
v 0.02540208 -0.18138076 -0.06224378
v 0.02549808 -0.00662276 -0.06959178
v 0.02553408 -0.16892076 -0.07172078
v 0.02555808 -0.15064376 -0.06301878
v 0.02561408 -0.12254276 -0.04264778
v 0.02563908 -0.18161376 -0.06240878
v 0.02566408 -0.18185076 -0.06204878
v 0.02575808 -0.14715176 -0.06307978
v 0.02579608 -0.18137676 -0.06111778
v 0.02587708 0.01344324 -0.03122878
v 0.02588908 -0.16991276 -0.05450678
v 0.02595508 -0.18143376 -0.06195278
v 0.02597308 -0.18075176 -0.06101378
v 0.02602108 -0.18166876 -0.06799278
v 0.02607708 -0.18204376 -0.06158878
v 0.02612708 -0.03815076 -0.07150878
v 0.02613608 -0.18191876 -0.06243478
v 0.02616108 -0.18223476 -0.06188478
v 0.02616808 -0.18142676 -0.06167978
v 0.02637508 -0.13979676 -0.04790478
v 0.02648408 -0.15465876 -0.06323178
v 0.02659408 -0.08303576 -0.07181678
v 0.02663408 -0.07475976 -0.01909478
v 0.02671508 -0.17449076 -0.05837878
v 0.02677308 -0.17455376 -0.05791878
v 0.02678008 -0.17427776 -0.05794478
v 0.02679608 -0.14738576 -0.04907178
v 0.02682108 0.00160224 -0.01242778
v 0.02686608 -0.18151576 -0.06195378
v 0.02692408 -0.17435876 -0.05754778
v 0.02705208 -0.18243076 -0.06361778
v 0.02716308 -0.06669076 -0.07178878
v 0.02726408 -0.13242976 -0.04628778
v 0.02732908 -0.01326276 -0.00742178
v 0.02736308 -0.17623476 -0.05903578
v 0.02740308 -0.14145576 -0.06843978
v 0.02766508 -0.15821476 -0.06388078
v 0.02788308 -0.05617276 -0.01359378
v 0.02791008 -0.17557376 -0.07157578
v 0.02794408 0.00104824 -0.01930778
v 0.02796208 -0.13584576 -0.04926178
v 0.02812008 0.00279524 -0.00101178
v 0.02815508 -0.11891176 -0.04037178
v 0.02824008 -0.16168576 -0.06691778
v 0.02836708 -0.14401976 -0.06254378
v 0.02839708 -0.12141176 -0.07462478
v 0.02855508 -0.17936976 -0.05948878
v 0.02864708 -0.14884576 -0.05767578
v 0.02881308 -0.14580976 -0.05785878
v 0.02886108 -0.15302576 -0.04956078
v 0.02894808 -0.15459376 -0.05964278
v 0.02896708 0.01528224 -0.04220878
v 0.02907208 -0.14757376 -0.05365778
v 0.02909008 -0.18037376 -0.06044978
v 0.02916108 -0.15777276 -0.06112878
v 0.02917608 -0.10595976 -0.03370978
v 0.02919308 -0.18100676 -0.06101078
v 0.02924408 -0.14376476 -0.05277478
v 0.02926008 -0.14389376 -0.05813378
v 0.02935808 -0.18125276 -0.06039378
v 0.02941408 -0.18138776 -0.06129778
v 0.02941508 -0.18109976 -0.06846878
v 0.02943108 -0.14263076 -0.05444678
v 0.02943708 0.01210024 -0.06339278
v 0.02945908 -0.13877676 -0.07018678
v 0.02952208 -0.18120276 -0.06172478
v 0.02958208 -0.18192576 -0.06104878
v 0.02962408 -0.18196576 -0.06159078
v 0.02965808 -0.18209276 -0.06123478
v 0.02966508 -0.18228676 -0.06419178
v 0.02977808 -0.16080976 -0.05240078
v 0.02994708 0.00036524 -0.02966578
v 0.03005108 -0.12902676 -0.04403878
v 0.03007308 -0.01286676 -0.01894978
v 0.03009008 -0.08864176 -0.02754978
v 0.03021708 -0.15349976 -0.05406878
v 0.03027008 -0.10090876 -0.07445078
v 0.03029008 -0.02137876 -0.06926578
v 0.03035408 -0.14333076 -0.05370678
v 0.03058408 0.01484724 -0.05365178
v 0.03062908 -0.16856576 -0.07076678
v 0.03068908 -0.17474176 -0.05992478
v 0.03073608 -0.17525076 -0.05977078
v 0.03073908 -0.17441476 -0.06011478
v 0.03080108 -0.16806876 -0.05619378
v 0.03090508 -0.15876876 -0.05633178
v 0.03098408 -0.16233676 -0.06405278
v 0.03099108 -0.05041776 -0.07167078
v 0.03116508 -0.17384976 -0.06036378
v 0.03119708 -0.14530776 -0.05670178
v 0.03122908 -0.17411976 -0.05998878
v 0.03125408 -0.13833176 -0.04891678
v 0.03129108 -0.14536976 -0.05488878
v 0.03144608 -0.15751776 -0.06309778
v 0.03150408 -0.17686676 -0.06067978
v 0.03151008 -0.03626376 -0.01055978
v 0.03153208 -0.17608076 -0.06144378
v 0.03155308 -0.14393176 -0.06254778
v 0.03156008 -0.14589576 -0.05804978
v 0.03163408 -0.15407476 -0.06120878
v 0.03163708 -0.17582176 -0.06173678
v 0.03167308 -0.17832376 -0.06134478
v 0.03179808 -0.17538476 -0.06170778
v 0.03185108 -0.11759976 -0.03887678
v 0.03185408 -0.11935676 -0.07372678
v 0.03188308 -0.17893676 -0.06190478
v 0.03189408 -0.14997276 -0.06132878
v 0.03201408 -0.16306576 -0.06531978
v 0.03209008 -0.17894576 -0.06204678
v 0.03209408 -0.17760576 -0.06211378
v 0.03214908 -0.16392376 -0.05986778
v 0.03216508 -0.17879476 -0.06142478
v 0.03218008 -0.17960476 -0.06256378
v 0.03218108 -0.17737476 -0.06215978
v 0.03220308 -0.17932676 -0.06216278
v 0.03220608 -0.17513576 -0.07091478
v 0.03237908 -0.17960076 -0.06170578
v 0.03239608 -0.17776776 -0.06250278
v 0.03240408 -0.17875176 -0.06250678
v 0.03242808 -0.17983876 -0.06202078
v 0.03244008 -0.14540776 -0.06176278
v 0.03247308 -0.15643476 -0.06717578
v 0.03249808 -0.03317776 -0.01867578
v 0.03250808 -0.17739676 -0.06214378
v 0.03256408 -0.14964576 -0.05530378
v 0.03256508 -0.17895376 -0.06219178
v 0.03257608 -0.15293376 -0.06477878
v 0.03260908 -0.17797876 -0.06223278
v 0.03261908 -0.17680176 -0.06120178
v 0.03262608 -0.00288276 -0.06375178
v 0.03263508 -0.17985676 -0.06777678
v 0.03271108 -0.14126476 -0.04929178
v 0.03284708 -0.18048176 -0.06404278
v 0.03306208 -0.05234576 -0.01872378
v 0.03307508 -0.16185276 -0.06909278
v 0.03316708 -0.07102276 -0.02195778
v 0.03318008 -0.17852576 -0.06275078
v 0.03319408 -0.14843676 -0.06443978
v 0.03320108 -0.15501576 -0.05646478
v 0.03333008 -0.15862576 -0.05743678
v 0.03346108 0.00153524 -0.04303878
v 0.03356108 -0.09949276 -0.07478578
v 0.03375508 -0.13559776 -0.07123978
v 0.03381308 -0.16924276 -0.06151478
v 0.03394808 -0.16783576 -0.06650478
v 0.03395408 -0.17853276 -0.06660178
v 0.03405808 -0.16468076 -0.05967978
v 0.03406108 -0.16932276 -0.06534678
v 0.03407408 -0.17890776 -0.06411978
v 0.03409108 -0.08000276 -0.07324778
v 0.03409208 -0.14724576 -0.04999878
v 0.03427808 -0.12683076 -0.04326378
v 0.03430508 -0.03452776 -0.06911378
v 0.03442708 -0.01419676 -0.03423878
v 0.03445608 -0.16661076 -0.06913578
v 0.03473708 -0.16820376 -0.06116778
v 0.03482708 -0.17543076 -0.06298278
v 0.03492508 -0.16943976 -0.06573578
v 0.03494808 -0.10439076 -0.03644778
v 0.03501908 -0.17485676 -0.06684678
v 0.03509608 -0.11978676 -0.07245178
v 0.03514508 0.00051224 -0.05425278
v 0.03571708 -0.11608476 -0.04210578
v 0.03580408 -0.14118076 -0.06550778
v 0.03580808 -0.06276876 -0.07201778
v 0.03591508 -0.17021576 -0.06315978
v 0.03600808 -0.14295076 -0.06385378
v 0.03604508 -0.15438876 -0.05234278
v 0.03605808 -0.08544776 -0.02999578
v 0.03616108 -0.16963976 -0.06691978
v 0.03617508 -0.04983676 -0.02704378
v 0.03620408 -0.11589176 -0.07369278
v 0.03634808 -0.01881376 -0.06438878
v 0.03638108 -0.03017476 -0.02877478
v 0.03666808 -0.14678776 -0.06575778
v 0.03668308 -0.16030076 -0.05541578
v 0.03674508 -0.15439376 -0.06953678
v 0.03674908 -0.16619476 -0.06051278
v 0.03681408 -0.15066376 -0.06694378
v 0.03689708 -0.16419876 -0.05918678
v 0.03695208 -0.16302476 -0.05810578
v 0.03699308 -0.16721176 -0.05987278
v 0.03707508 -0.16865076 -0.06132978
v 0.03714708 -0.13589476 -0.04702578
v 0.03723308 -0.16905276 -0.06177978
v 0.03724108 -0.16923476 -0.06152078
v 0.03724508 -0.16932976 -0.06183378
v 0.03724508 -0.16403976 -0.05904578
v 0.03728308 -0.16420876 -0.05909178
v 0.03733208 -0.06835176 -0.02717378
v 0.03733308 -0.16646176 -0.06043078
v 0.03733308 -0.13335376 -0.06980278
v 0.03735708 -0.13916676 -0.04749678
v 0.03739608 -0.16893976 -0.06153078
v 0.03746408 -0.16973076 -0.06215678
v 0.03752908 -0.16985276 -0.06179878
v 0.03753508 -0.16831376 -0.06125278
v 0.03759208 -0.03049276 -0.03798878
v 0.03767108 -0.16061676 -0.07151278
v 0.03781108 -0.16706276 -0.05994978
v 0.03783908 -0.17002376 -0.06227078
v 0.03784008 -0.16930676 -0.06098578
v 0.03785208 -0.16505576 -0.05923678
v 0.03786108 -0.16956576 -0.06182878
v 0.03791608 -0.17020576 -0.06174778
v 0.03792108 -0.16998676 -0.06147178
v 0.03807008 -0.01480076 -0.04675678
v 0.03811308 -0.12558276 -0.04586278
v 0.03814008 -0.16557976 -0.07087278
v 0.03814508 -0.17096476 -0.06385678
v 0.03815608 -0.16954476 -0.06180378
v 0.03817908 -0.16884476 -0.06108278
v 0.03862008 -0.13806476 -0.06414378
v 0.03866508 -0.17011776 -0.06229578
v 0.03867108 -0.11738676 -0.04499378
v 0.03882608 -0.16918976 -0.06865578
v 0.03902208 -0.14531976 -0.04781378
v 0.03922008 -0.14052876 -0.06321178
v 0.03937008 -0.01551876 -0.05596678
v 0.03938508 -0.04706876 -0.06957278
v 0.03942508 -0.11254776 -0.07477378
v 0.03998408 -0.17135676 -0.06557478
v 0.03999808 -0.06647076 -0.03313478
v 0.04000508 -0.14535676 -0.06523078
v 0.04019208 -0.15398076 -0.05141878
v 0.04035508 -0.04703776 -0.03414578
v 0.04048708 -0.03219976 -0.06397578
v 0.04052808 -0.17056176 -0.06343878
v 0.04054508 -0.11427376 -0.04235778
v 0.04055408 -0.13030576 -0.06904578
v 0.04061908 -0.17079676 -0.06287778
v 0.04064508 -0.16229676 -0.05841278
v 0.04066008 -0.15026176 -0.06730978
v 0.04066608 -0.10131376 -0.03664978
v 0.04066708 -0.16249076 -0.05872878
v 0.04068708 -0.16970876 -0.06202078
v 0.04068808 -0.16222076 -0.05857478
v 0.04078308 -0.09517676 -0.07394878
v 0.04079308 -0.16385976 -0.05933178
v 0.04081508 -0.17019176 -0.06208878
v 0.04084308 -0.15411076 -0.06966378
v 0.04088108 -0.17071576 -0.06239878
v 0.04088208 -0.15918176 -0.05514078
v 0.04088608 -0.16124576 -0.05748678
v 0.04089708 -0.16733776 -0.06019778
v 0.04090808 -0.16962676 -0.06117878
v 0.04091008 -0.17055376 -0.06181478
v 0.04092808 -0.17080676 -0.06204378
v 0.04117808 -0.08220876 -0.03406078
v 0.04163608 -0.12575276 -0.04834278
v 0.04192208 -0.13250376 -0.05019678
v 0.04194308 -0.15991676 -0.07143078
v 0.04198008 -0.03034376 -0.04936978
v 0.04202408 -0.12756376 -0.07079778
v 0.04209008 -0.13673776 -0.05087578
v 0.04211808 -0.16472376 -0.07070978
v 0.04220808 -0.16780976 -0.06863978
v 0.04223408 -0.14812876 -0.06473178
v 0.04228908 -0.07673776 -0.07293178
v 0.04230908 -0.04586176 -0.04170178
v 0.04242208 -0.13862276 -0.06015078
v 0.04266708 -0.16976276 -0.06592578
v 0.04275608 -0.16895976 -0.06316678
v 0.04281108 -0.13373476 -0.06402678
v 0.04291608 -0.12864076 -0.05135278
v 0.04303408 -0.03078176 -0.05741778
v 0.04303808 -0.13424976 -0.06013878
v 0.04305408 -0.16826776 -0.06320578
v 0.04317008 -0.16851376 -0.06364578
v 0.04322008 -0.16748676 -0.06239778
v 0.04335008 -0.16798676 -0.06319778
v 0.04340208 -0.16863576 -0.06314178
v 0.04340508 -0.16402776 -0.06078278
v 0.04341308 -0.16673376 -0.06329878
v 0.04342708 -0.16837176 -0.06287478
v 0.04343408 -0.14939676 -0.06867678
v 0.04348608 -0.16764176 -0.06256978
v 0.04353508 -0.16654276 -0.06323278
v 0.04361508 -0.16780976 -0.06367978
v 0.04361808 -0.16651476 -0.06819178
v 0.04363208 -0.14248776 -0.06471478
v 0.04364008 -0.16578376 -0.06179578
v 0.04365608 -0.13181176 -0.05559378
v 0.04369508 -0.16486076 -0.06241878
v 0.04370308 -0.12313576 -0.04682478
v 0.04371908 -0.14299076 -0.05108678
v 0.04373108 -0.16296076 -0.06115478
v 0.04373208 -0.16791076 -0.06337278
v 0.04374108 -0.10875176 -0.07289278
v 0.04375508 -0.16472376 -0.06264578
v 0.04381008 -0.16693276 -0.06376678
v 0.04381108 -0.13341876 -0.05582578
v 0.04384908 -0.16271276 -0.06123078
v 0.04387308 -0.16776176 -0.06350578
v 0.04389808 -0.13721876 -0.05528578
v 0.04393308 -0.16294876 -0.06111778
v 0.04395908 -0.16452576 -0.06303678
v 0.04400108 -0.14277976 -0.06388778
v 0.04400308 -0.16709976 -0.06351078
v 0.04400808 -0.16660976 -0.06342678
v 0.04412508 -0.14942276 -0.06652378
v 0.04426708 -0.13819076 -0.05545678
v 0.04436408 -0.06314476 -0.04076478
v 0.04439708 -0.05942576 -0.06940678
v 0.04441108 -0.16532176 -0.06252878
v 0.04444108 -0.15383276 -0.06724878
v 0.04445108 -0.16808376 -0.06580478
v 0.04453108 -0.11273276 -0.04007678
v 0.04457508 -0.13314476 -0.05992778
v 0.04459608 -0.14114176 -0.06093178
v 0.04460208 -0.15828676 -0.05747278
v 0.04461608 -0.15171076 -0.05380278
v 0.04464308 -0.12311276 -0.07148778
v 0.04466008 -0.15003976 -0.05993678
v 0.04469208 -0.04529376 -0.06478978
v 0.04473408 -0.16137376 -0.06017378
v 0.04479808 -0.14482476 -0.07072678
v 0.04483508 -0.16462076 -0.06861978
v 0.04488908 -0.14023876 -0.06799778
v 0.04504708 -0.13744676 -0.06013178
v 0.04506308 -0.13455376 -0.05911678
v 0.04509808 -0.14403776 -0.05709878
v 0.04516508 -0.15011176 -0.05905078
v 0.04517308 -0.15336876 -0.06289178
v 0.04527408 -0.13353576 -0.06011078
v 0.04529808 -0.14490076 -0.05928478
v 0.04531208 -0.16052676 -0.06918878
v 0.04532308 -0.13297276 -0.05511278
v 0.04533208 -0.15181976 -0.06976878
v 0.04550208 -0.14210076 -0.05869978
v 0.04576608 -0.13494676 -0.05506778
v 0.04576808 -0.14920076 -0.07164778
v 0.04580808 -0.12953576 -0.05104978
v 0.04587708 -0.05865976 -0.04440778
v 0.04595208 -0.13204576 -0.06357278
v 0.04605208 -0.15569676 -0.06105978
v 0.04626208 -0.16525876 -0.06566278
v 0.04626708 -0.04530876 -0.05119478
v 0.04629908 -0.13742676 -0.06464278
v 0.04640908 -0.10881176 -0.07244778
v 0.04646108 -0.13444576 -0.06344978
v 0.04647208 -0.15424776 -0.06631178
v 0.04652808 -0.04481176 -0.05804578
v 0.04653508 -0.15159876 -0.07089678
v 0.04659308 -0.15994776 -0.06352978
v 0.04664608 -0.13276076 -0.06224278
v 0.04682308 -0.09794576 -0.04060878
v 0.04690308 -0.15091176 -0.06407878
v 0.04698908 -0.07869776 -0.03878178
v 0.04712208 -0.15090076 -0.06407578
v 0.04712808 -0.15274676 -0.06494878
v 0.04713508 -0.15139076 -0.06379878
v 0.04719108 -0.15091676 -0.06397578
v 0.04724608 -0.15333776 -0.06509078
v 0.04725408 -0.15303176 -0.06485678
v 0.04726408 -0.15310476 -0.06527078
v 0.04730608 -0.12115676 -0.04591178
v 0.04731808 -0.15250776 -0.06474878
v 0.04740608 -0.15379176 -0.06550078
v 0.04742808 -0.15401476 -0.06529378
v 0.04742908 -0.15381176 -0.06476178
v 0.04744408 -0.13949276 -0.06974678
v 0.04752508 -0.14965676 -0.06208978
v 0.04758808 -0.14982076 -0.06223978
v 0.04761008 -0.14991876 -0.06233678
v 0.04766808 -0.15417276 -0.06567978
v 0.04767108 -0.15425976 -0.06514178
v 0.04767708 -0.15372276 -0.06484378
v 0.04769708 -0.15443376 -0.06534378
v 0.04771108 -0.15375576 -0.06545078
v 0.04771508 -0.10583176 -0.07270878
v 0.04771808 -0.14447576 -0.07206378
v 0.04771908 -0.15179776 -0.06386278
v 0.04774808 -0.15483676 -0.06733578
v 0.04776808 -0.13352476 -0.05205578
v 0.04786908 -0.13858876 -0.05356678
v 0.04791008 -0.14965076 -0.06172978
v 0.04794708 -0.09159476 -0.07296578
v 0.04794908 -0.15367976 -0.06501678
v 0.04800108 -0.15338076 -0.06491278
v 0.04818708 -0.15040576 -0.06246978
v 0.04823008 -0.14719376 -0.05924078
v 0.04825908 -0.14874476 -0.07244878
v 0.04825908 -0.10995176 -0.04500278
v 0.04831108 -0.12862076 -0.06595878
v 0.04845308 -0.15430276 -0.06518878
v 0.04847708 -0.13627476 -0.06711478
v 0.04851508 -0.14383376 -0.05648978
v 0.04880308 -0.15175976 -0.07177278
v 0.04893608 -0.05885976 -0.04988878
v 0.04896108 -0.12987976 -0.06468478
v 0.04904408 -0.13347576 -0.06588978
v 0.04928208 -0.05780676 -0.06467878
v 0.04943108 -0.07299876 -0.06972678
v 0.04964108 -0.11905776 -0.06955978
v 0.04993008 -0.12762076 -0.04957278
v 0.05026408 -0.15476676 -0.06923978
v 0.05041908 -0.15028876 -0.06252878
v 0.05047808 -0.14928776 -0.06160578
v 0.05049108 -0.15476176 -0.06669878
v 0.05056708 -0.14944876 -0.06215078
v 0.05057108 -0.15271676 -0.06368378
v 0.05057408 -0.14931976 -0.06213278
v 0.05058308 -0.15459076 -0.06599178
v 0.05062808 -0.14903876 -0.06179178
v 0.05069608 -0.15431476 -0.06475378
v 0.05072608 -0.15503376 -0.06580878
v 0.05073308 -0.15499576 -0.06531578
v 0.05077008 -0.15514376 -0.06551978
v 0.05077308 -0.05786276 -0.05764378
v 0.05079908 -0.15457776 -0.06551178
v 0.05081508 -0.15401676 -0.06516278
v 0.05086908 -0.11082776 -0.04918078
v 0.05119908 -0.11869576 -0.04929178
v 0.05134208 -0.13732476 -0.06917878
v 0.05136608 -0.13212076 -0.05090278
v 0.05143308 -0.12700276 -0.06548978
v 0.05149008 -0.13971176 -0.07035278
v 0.05151808 -0.14842076 -0.07231278
v 0.05153508 -0.15111576 -0.07174478
v 0.05157408 -0.14461076 -0.07210678
v 0.05162808 -0.07503976 -0.04749078
v 0.05163108 -0.11726176 -0.06907378
v 0.05171208 -0.14661676 -0.05926778
v 0.05178408 -0.12715876 -0.06397378
v 0.05210708 -0.13681576 -0.06776878
v 0.05215708 -0.12470076 -0.06390378
v 0.05245808 -0.10243276 -0.07295278
v 0.05247908 -0.13272576 -0.06524078
v 0.05257108 -0.10684776 -0.04683978
v 0.05259908 -0.12095376 -0.06073978
v 0.05261308 -0.12454076 -0.06748178
v 0.05263008 -0.15381876 -0.06903778
v 0.05263708 -0.13929076 -0.06966878
v 0.05265008 -0.12395376 -0.06316678
v 0.05269008 -0.13833476 -0.05255478
v 0.05275208 -0.12699376 -0.06932778
v 0.05276508 -0.12204176 -0.06642778
v 0.05279608 -0.15025576 -0.06351778
v 0.05280508 -0.15399876 -0.06647878
v 0.05291208 -0.14299976 -0.05655978
v 0.05293508 -0.09407776 -0.04342478
v 0.05295508 -0.12807176 -0.06520078
v 0.05296508 -0.15263376 -0.06555278
v 0.05297408 -0.15344976 -0.06673178
v 0.05297808 -0.15056576 -0.07077578
v 0.05304208 -0.15137176 -0.06488478
v 0.05304608 -0.12408976 -0.06185178
v 0.05305008 -0.14970876 -0.06362678
v 0.05305108 -0.11599276 -0.06900278
v 0.05308408 -0.12104176 -0.06069778
v 0.05313008 -0.15300276 -0.06625078
v 0.05313008 -0.14949076 -0.06366278
v 0.05313108 -0.15331476 -0.06645278
v 0.05318908 -0.15279076 -0.06563578
v 0.05320108 -0.15073576 -0.06550078
v 0.05320508 -0.15364076 -0.06634778
v 0.05322308 -0.15343876 -0.06604478
v 0.05326608 -0.15209876 -0.06642078
v 0.05327708 -0.15061876 -0.06564378
v 0.05331608 -0.15279676 -0.06665978
v 0.05334708 -0.11962676 -0.06456878
v 0.05335608 -0.15195276 -0.06632178
v 0.05340808 -0.14939976 -0.06367078
v 0.05345008 -0.13113876 -0.06680378
v 0.05345608 -0.15295076 -0.06642578
v 0.05349708 -0.15204876 -0.06653978
v 0.05352508 -0.13037676 -0.07042078
v 0.05353608 -0.15028676 -0.06552178
v 0.05366308 -0.12631376 -0.06184478
v 0.05369908 -0.15220876 -0.06635478
v 0.05371008 -0.15180676 -0.06619478
v 0.05382108 -0.11957276 -0.05801378
v 0.05385508 -0.12432876 -0.05276978
v 0.05400108 -0.15247776 -0.06854878
v 0.05400908 -0.15267876 -0.06705078
v 0.05403308 -0.12536176 -0.05956378
v 0.05411508 -0.11747276 -0.05287078
v 0.05414808 -0.15108776 -0.06537978
v 0.05421008 -0.13463776 -0.06444778
v 0.05421808 -0.14792076 -0.06303278
v 0.05435508 -0.14851576 -0.07101278
v 0.05437608 -0.11801376 -0.06563378
v 0.05443408 -0.12591576 -0.07174178
v 0.05450408 -0.12079376 -0.05833378
v 0.05451608 -0.12227476 -0.06943578
v 0.05454308 -0.12300076 -0.05793278
v 0.05456008 -0.13320676 -0.07074678
v 0.05460008 -0.11862576 -0.05507778
v 0.05474808 -0.07114376 -0.06502078
v 0.05480108 -0.12892376 -0.06121278
v 0.05483608 -0.08871176 -0.07115578
v 0.05495908 -0.13061276 -0.05346978
v 0.05523308 -0.13131276 -0.06271678
v 0.05533408 -0.14524976 -0.06032278
v 0.05539108 -0.11907276 -0.06850778
v 0.05540308 -0.12971576 -0.07276178
v 0.05540908 -0.11327376 -0.06856678
v 0.05557408 -0.14553376 -0.06976678
v 0.05582908 -0.14995876 -0.06779678
v 0.05583108 -0.14181376 -0.05900078
v 0.05587708 -0.12723176 -0.05797378
v 0.05588008 -0.07120576 -0.05694778
v 0.05591608 -0.13564276 -0.06517378
v 0.05596008 -0.14165976 -0.06763178
v 0.05596908 -0.11411676 -0.05219178
v 0.05605808 -0.13718076 -0.05483178
v 0.05607108 -0.13737976 -0.06466778
v 0.05622908 -0.12921876 -0.06255578
v 0.05628708 -0.14203776 -0.06580078
v 0.05634808 -0.14046876 -0.06532278
v 0.05635208 -0.14023876 -0.06550578
v 0.05638908 -0.14175876 -0.06552078
v 0.05641408 -0.13993576 -0.06499078
v 0.05641508 -0.13557176 -0.07086678
v 0.05646408 -0.14111376 -0.06567878
v 0.05647208 -0.13921176 -0.06462178
v 0.05649708 -0.13981276 -0.06506678
v 0.05652808 -0.14083676 -0.06539878
v 0.05653108 -0.14633676 -0.06564578
v 0.05653308 -0.11654376 -0.06662678
v 0.05656408 -0.13228576 -0.07301878
v 0.05663308 -0.14090276 -0.06505178
v 0.05664008 -0.10462476 -0.04554178
v 0.05685508 -0.11857276 -0.05563278
v 0.05692608 -0.14260276 -0.06473578
v 0.05716108 -0.13619476 -0.06644778
v 0.05722008 -0.13856676 -0.06294078
v 0.05727708 -0.09003376 -0.04927878
v 0.05766408 -0.13402676 -0.05981278
v 0.05793808 -0.13574376 -0.06521978
v 0.05794508 -0.13321376 -0.06388378
v 0.05796508 -0.10022676 -0.07047578
v 0.05807008 -0.12443676 -0.05552478
v 0.05813208 -0.13329076 -0.06414678
v 0.05818208 -0.13439376 -0.06469978
v 0.05819708 -0.13325976 -0.06400478
v 0.05820608 -0.13702676 -0.06800778
v 0.05839508 -0.13498476 -0.06072178
v 0.05849708 -0.13149776 -0.06223778
v 0.05863708 -0.13142876 -0.06254078
v 0.05864208 -0.12841576 -0.05746178
v 0.05866108 -0.13575776 -0.06562178
v 0.05869408 -0.13350476 -0.06377878
v 0.05872608 -0.13492676 -0.07272578
v 0.05872908 -0.13582276 -0.06538878
v 0.05881208 -0.13479776 -0.06467878
v 0.05892608 -0.13167576 -0.06300078
v 0.05896008 -0.13620276 -0.06588578
v 0.05896608 -0.13183576 -0.06298878
v 0.05897408 -0.13599276 -0.06578478
v 0.05899408 -0.11000276 -0.06767978
v 0.05916508 -0.13205576 -0.06283578
v 0.05948708 -0.12929876 -0.07351378
v 0.05977808 -0.11288276 -0.05185978
v 0.06027508 -0.11709076 -0.06834478
v 0.06031108 -0.13708476 -0.06933478
v 0.06042108 -0.11516176 -0.06686178
v 0.06055808 -0.13191976 -0.07343378
v 0.06058508 -0.12432976 -0.07250278
v 0.06062908 -0.13369176 -0.06410978
v 0.06085108 -0.08572176 -0.06582578
v 0.06086308 -0.10066576 -0.05148578
v 0.06095008 -0.13169176 -0.06274078
v 0.06098708 -0.13449476 -0.07256378
v 0.06100408 -0.13087276 -0.06209578
v 0.06100908 -0.13119576 -0.06226078
v 0.06103608 -0.13105976 -0.06235278
v 0.06105808 -0.12011876 -0.06991078
v 0.06110508 -0.13543576 -0.06509678
v 0.06124008 -0.13683176 -0.06697078
v 0.06126808 -0.13608976 -0.06635178
v 0.06128908 -0.13061776 -0.06149778
v 0.06132908 -0.13541376 -0.06581578
v 0.06140908 -0.13617176 -0.06572678
v 0.06143708 -0.13586876 -0.06603578
v 0.06144608 -0.13634276 -0.06618178
v 0.06146508 -0.13634776 -0.06590978
v 0.06158908 -0.11765276 -0.05357578
v 0.06164508 -0.08618776 -0.05757878
v 0.06233108 -0.13392076 -0.07198778
v 0.06243308 -0.12978476 -0.06004478
v 0.06245908 -0.13591976 -0.06950278
v 0.06247108 -0.13519776 -0.06661078
v 0.06250108 -0.13455476 -0.06606078
v 0.06256908 -0.13623576 -0.06719978
v 0.06262108 -0.12260976 -0.05458978
v 0.06263608 -0.13296476 -0.06572278
v 0.06264608 -0.12706676 -0.05709678
v 0.06266808 -0.13426476 -0.06662178
v 0.06271508 -0.13327876 -0.06526578
v 0.06272108 -0.13208476 -0.06378878
v 0.06275908 -0.13294476 -0.06598578
v 0.06276908 -0.13186376 -0.06410878
v 0.06280408 -0.13415876 -0.06657978
v 0.06288408 -0.13175276 -0.06441078
v 0.06289008 -0.13494376 -0.06656678
v 0.06289608 -0.13538276 -0.06700878
v 0.06293708 -0.13467076 -0.06607978
v 0.06303808 -0.13496876 -0.06697578
v 0.06307508 -0.13525576 -0.06641178
v 0.06309808 -0.13277176 -0.06602478
v 0.06310208 -0.13547776 -0.06666078
v 0.06310308 -0.13181076 -0.07209578
v 0.06311108 -0.13443576 -0.06690878
v 0.06313908 -0.13535076 -0.06663878
v 0.06314008 -0.13162976 -0.06416178
v 0.06314408 -0.10890076 -0.06441578
v 0.06318008 -0.09860076 -0.06598978
v 0.06319108 -0.13503376 -0.06675278
v 0.06328508 -0.13502876 -0.06924978
v 0.06329908 -0.13455476 -0.06674178
v 0.06331508 -0.11030176 -0.05434778
v 0.06332208 -0.13421576 -0.06662278
v 0.06353208 -0.13436776 -0.06646978
v 0.06356308 -0.13154776 -0.06429578
v 0.06376208 -0.11403176 -0.06491778
v 0.06383108 -0.12922076 -0.07217078
v 0.06424808 -0.09838776 -0.05848278
v 0.06450108 -0.13378876 -0.06894678
v 0.06484908 -0.11478776 -0.05551778
v 0.06516408 -0.12472376 -0.07045878
v 0.06518908 -0.10951776 -0.05980178
v 0.06543508 -0.11643776 -0.06573678
v 0.06567708 -0.13112176 -0.06794878
v 0.06585208 -0.11332976 -0.06032178
v 0.06609908 -0.12832276 -0.06257378
v 0.06627808 -0.12066876 -0.06730778
v 0.06678008 -0.11942176 -0.05759378
v 0.06711008 -0.12664876 -0.06609278
v 0.06711808 -0.11799476 -0.06183578
v 0.06717308 -0.12458676 -0.05964478
v 0.06839408 -0.12233576 -0.06328878
