# Rest-skin points; MuJoCo computes the convex hull.
v -0.06839601 -0.12259955 -0.06355958
v -0.06721801 -0.12493355 -0.05996858
v -0.06715901 -0.11834755 -0.06198458
v -0.06704701 -0.12686455 -0.06644058
v -0.06688701 -0.11976755 -0.05776358
v -0.06627201 -0.12081355 -0.06745958
v -0.06608601 -0.12863355 -0.06298258
v -0.06594901 -0.11380755 -0.06040858
v -0.06551301 -0.13137155 -0.06818458
v -0.06545301 -0.11674255 -0.06582258
v -0.06526801 -0.11013355 -0.05982358
v -0.06514101 -0.12487055 -0.07049258
v -0.06497401 -0.11528155 -0.05563358
v -0.06443801 -0.09952355 -0.05843358
v -0.06437901 -0.13412255 -0.06920458
v -0.06408601 -0.12946455 -0.07240058
v -0.06385201 -0.11439155 -0.06493958
v -0.06356001 -0.13504255 -0.06688958
v -0.06354701 -0.13222755 -0.06486258
v -0.06344801 -0.11094155 -0.05449458
v -0.06334101 -0.13488755 -0.06703458
v -0.06329801 -0.13521055 -0.06716658
v -0.06328001 -0.09966255 -0.06586358
v -0.06323701 -0.10942555 -0.06435558
v -0.06316901 -0.13567955 -0.06720158
v -0.06315201 -0.13533155 -0.06954258
v -0.06314601 -0.13192055 -0.07218458
v -0.06311701 -0.13232955 -0.06473458
v -0.06311001 -0.13508355 -0.06732858
v -0.06310501 -0.13599855 -0.06710758
v -0.06310401 -0.13351555 -0.06642358
v -0.06306101 -0.13612155 -0.06713458
v -0.06304601 -0.13592455 -0.06688458
v -0.06301201 -0.13560055 -0.06741858
v -0.06296001 -0.13539755 -0.06653558
v -0.06286801 -0.13560955 -0.06702658
v -0.06286801 -0.13249055 -0.06496158
v -0.06285001 -0.13600555 -0.06747358
v -0.06282701 -0.13486155 -0.06699958
v -0.06277501 -0.13368755 -0.06643658
v -0.06277301 -0.12752955 -0.05747658
v -0.06276801 -0.13411055 -0.06572058
v -0.06274601 -0.13260255 -0.06466958
v -0.06273601 -0.12298455 -0.05476358
v -0.06269301 -0.13282755 -0.06435458
v -0.06268201 -0.13496255 -0.06705158
v -0.06265901 -0.13373655 -0.06618458
v -0.06254001 -0.13531355 -0.06652058
v -0.06246701 -0.13685055 -0.06762158
v -0.06245901 -0.13023955 -0.06067558
v -0.06242901 -0.13586155 -0.06709458
v -0.06231501 -0.13620255 -0.06979258
v -0.06220601 -0.13395855 -0.07204958
v -0.06214901 -0.08775655 -0.05754958
v -0.06173601 -0.11809555 -0.05369658
v -0.06138701 -0.13703855 -0.06637858
v -0.06135501 -0.13656855 -0.06650258
v -0.06135301 -0.13698155 -0.06666158
v -0.06133201 -0.13615455 -0.06632558
v -0.06131201 -0.13686955 -0.06621358
v -0.06129701 -0.13130455 -0.06218258
v -0.06128601 -0.08712755 -0.06577558
v -0.06117401 -0.13621155 -0.06562458
v -0.06116601 -0.13670655 -0.06683758
v -0.06110801 -0.13730955 -0.06746858
v -0.06105501 -0.12013855 -0.07003758
v -0.06105101 -0.13170555 -0.06320658
v -0.06104401 -0.13185655 -0.06311558
v -0.06102901 -0.13151855 -0.06288758
v -0.06096101 -0.13238255 -0.06352558
v -0.06093801 -0.10185855 -0.05170458
v -0.06083801 -0.13458455 -0.06472158
v -0.06082601 -0.13443655 -0.07258058
v -0.06080201 -0.12447255 -0.07258458
v -0.06055901 -0.13193755 -0.07348958
v -0.06045401 -0.11534755 -0.06679958
v -0.06033901 -0.11717855 -0.06843958
v -0.06013101 -0.13718955 -0.06970858
v -0.05991501 -0.11337955 -0.05210158
v -0.05971001 -0.12942555 -0.07369358
v -0.05935301 -0.13270055 -0.06357058
v -0.05915901 -0.13247455 -0.06369458
v -0.05911601 -0.13231155 -0.06369658
v -0.05904901 -0.11032355 -0.06743458
v -0.05890601 -0.13646655 -0.06622658
v -0.05890001 -0.13542655 -0.06515758
v -0.05888501 -0.13664555 -0.06632858
v -0.05888101 -0.13418855 -0.06437358
v -0.05883001 -0.13203655 -0.06317758
v -0.05882601 -0.13603055 -0.06581458
v -0.05877501 -0.12899255 -0.05772258
v -0.05875001 -0.13586455 -0.06553958
v -0.05868301 -0.13632955 -0.06581758
v -0.05868101 -0.13206455 -0.06282758
v -0.05860501 -0.13622255 -0.06604858
v -0.05857901 -0.13476655 -0.07277158
v -0.05847001 -0.13525055 -0.06117558
v -0.05837001 -0.13389155 -0.06456558
v -0.05832501 -0.13500555 -0.06511758
v -0.05830001 -0.13391255 -0.06469258
v -0.05824401 -0.12486255 -0.05563658
v -0.05809401 -0.13383455 -0.06443658
v -0.05808001 -0.10100155 -0.07034158
v -0.05805301 -0.13722855 -0.06840958
v -0.05794101 -0.13618955 -0.06563158
v -0.05773401 -0.13432355 -0.06022658
v -0.05767101 -0.09203355 -0.04945358
v -0.05723401 -0.13879755 -0.06347658
v -0.05710101 -0.13657055 -0.06684558
v -0.05700901 -0.11893955 -0.05572358
v -0.05680901 -0.14296355 -0.06541458
v -0.05667201 -0.10590155 -0.04610958
v -0.05655001 -0.14115155 -0.06562458
v -0.05654501 -0.11645355 -0.06634858
v -0.05650501 -0.13214255 -0.07291958
v -0.05646501 -0.07321455 -0.05694858
v -0.05644301 -0.13998355 -0.06557558
v -0.05643601 -0.13935255 -0.06510358
v -0.05642301 -0.14657855 -0.06648458
v -0.05636301 -0.14010755 -0.06550358
v -0.05631801 -0.13537755 -0.07092858
v -0.05627201 -0.14066055 -0.06584658
v -0.05626601 -0.14041355 -0.06601058
v -0.05626201 -0.14199855 -0.06609458
v -0.05626101 -0.13784455 -0.05538858
v -0.05624601 -0.13641055 -0.06966158
v -0.05623801 -0.12959755 -0.06271858
v -0.05613701 -0.14226655 -0.06636758
v -0.05604401 -0.11461855 -0.05243858
v -0.05603201 -0.13749955 -0.06508158
v -0.05596001 -0.13593155 -0.06546758
v -0.05593901 -0.12747255 -0.05811058
v -0.05580401 -0.14260155 -0.05985858
v -0.05570201 -0.14174155 -0.06807358
v -0.05558901 -0.15004755 -0.06880758
v -0.05554101 -0.11337155 -0.06844458
v -0.05544401 -0.07283455 -0.06505558
v -0.05540901 -0.14619455 -0.06153258
v -0.05539101 -0.12960855 -0.07263258
v -0.05535001 -0.11893655 -0.06821258
v -0.05521401 -0.14541255 -0.07022058
v -0.05519601 -0.08979455 -0.07105658
v -0.05519001 -0.13108255 -0.05378758
v -0.05515101 -0.13152855 -0.06281458
v -0.05476301 -0.12911255 -0.06121958
v -0.05474801 -0.13502655 -0.06845058
v -0.05454401 -0.11891655 -0.05520758
v -0.05452301 -0.13305755 -0.07073158
v -0.05451201 -0.12210355 -0.06927558
v -0.05449401 -0.12304655 -0.05796458
v -0.05447701 -0.14912655 -0.06421958
v -0.05445601 -0.12582655 -0.07159358
v -0.05441101 -0.15170255 -0.06640958
v -0.05435101 -0.12069655 -0.05832758
v -0.05423701 -0.11780155 -0.06523258
v -0.05408901 -0.11798055 -0.05308258
v -0.05407801 -0.13480055 -0.06479058
v -0.05407101 -0.12553255 -0.05952758
v -0.05402701 -0.12493455 -0.05300958
v -0.05392301 -0.15285955 -0.06818358
v -0.05388901 -0.14828055 -0.07149858
v -0.05385901 -0.15067055 -0.06479058
v -0.05384401 -0.15109355 -0.06659058
v -0.05380401 -0.15220055 -0.06733058
v -0.05375301 -0.15256755 -0.06751658
v -0.05374801 -0.11950155 -0.05802458
v -0.05365501 -0.12634855 -0.06157458
v -0.05364101 -0.15145655 -0.06668658
v -0.05363101 -0.15233555 -0.06961958
v -0.05361201 -0.15083055 -0.06478558
v -0.05360101 -0.15162255 -0.06652558
v -0.05354101 -0.15106355 -0.06474458
v -0.05353501 -0.15236955 -0.06585758
v -0.05351901 -0.15236455 -0.06768458
v -0.05351701 -0.13025255 -0.07032158
v -0.05349901 -0.13120655 -0.06680358
v -0.05347601 -0.15330755 -0.06766558
v -0.05342101 -0.15232555 -0.06748358
v -0.05336901 -0.15167255 -0.06459458
v -0.05333701 -0.15335755 -0.06688758
v -0.05330801 -0.15245055 -0.06759358
v -0.05329801 -0.15309655 -0.06787458
v -0.05328801 -0.15391755 -0.06736258
v -0.05321701 -0.15404155 -0.06767158
v -0.05320001 -0.15346955 -0.06754158
v -0.05313801 -0.15367855 -0.06773258
v -0.05313801 -0.15323855 -0.06679758
v -0.05309401 -0.11594455 -0.06871658
v -0.05305301 -0.11931955 -0.06428358
v -0.05302601 -0.14403955 -0.05752558
v -0.05299801 -0.12811655 -0.06512858
v -0.05295201 -0.09640155 -0.04401158
v -0.05292401 -0.15374755 -0.06802258
v -0.05290901 -0.13923755 -0.05296758
v -0.05288701 -0.12402755 -0.06168058
v -0.05281701 -0.12685855 -0.06913758
v -0.05277301 -0.15433355 -0.06780358
v -0.05273101 -0.12075655 -0.06056758
v -0.05264801 -0.12436355 -0.06728458
v -0.05261801 -0.10292855 -0.07284358
v -0.05252501 -0.12392755 -0.06295858
v -0.05248501 -0.10814955 -0.04756458
v -0.05243601 -0.15019255 -0.07130658
v -0.05242501 -0.07731755 -0.04746358
v -0.05224201 -0.12065655 -0.06060958
v -0.05220701 -0.13278355 -0.06531258
v -0.05220201 -0.12239955 -0.06658258
v -0.05218801 -0.15350655 -0.07007858
v -0.05204901 -0.14803455 -0.06073758
v -0.05195101 -0.12465555 -0.06350058
v -0.05182101 -0.13691855 -0.06790358
v -0.05174601 -0.13298455 -0.05117358
v -0.05162401 -0.11721855 -0.06880158
v -0.05159401 -0.06073555 -0.05774358
v -0.05130401 -0.11968155 -0.04964358
v -0.05124701 -0.12714055 -0.06330058
v -0.05124001 -0.15084655 -0.06316258
v -0.05113501 -0.15121455 -0.06348458
v -0.05113301 -0.13973755 -0.07041958
v -0.05111501 -0.15136355 -0.06349758
v -0.05106901 -0.14439955 -0.07223658
v -0.05106501 -0.15109455 -0.06297858
v -0.05106201 -0.11203955 -0.04948958
v -0.05093701 -0.15479455 -0.06644858
v -0.05092401 -0.14805755 -0.07254058
v -0.05091401 -0.15065455 -0.07217058
v -0.05089601 -0.15415855 -0.06472458
v -0.05089001 -0.15236955 -0.06375658
v -0.05083401 -0.15515655 -0.06690358
v -0.05083001 -0.15517655 -0.06598858
v -0.05082001 -0.12709055 -0.06505958
v -0.05079301 -0.15566355 -0.06695058
v -0.05075201 -0.15557855 -0.06671458
v -0.05072901 -0.15546055 -0.06721858
v -0.05057001 -0.15497755 -0.06737858
v -0.05038801 -0.15495155 -0.06801458
v -0.05035001 -0.12845555 -0.05004758
v -0.05016901 -0.06027455 -0.06474158
v -0.05010401 -0.07444955 -0.06975858
v -0.04987201 -0.15430855 -0.07014758
v -0.04972701 -0.06199955 -0.05002758
v -0.04961101 -0.11905255 -0.06938058
v -0.04879401 -0.13368155 -0.06591658
v -0.04866401 -0.13003055 -0.06463358
v -0.04864701 -0.14490255 -0.05725058
v -0.04864001 -0.14857455 -0.06039458
v -0.04860901 -0.15508655 -0.06626158
v -0.04854301 -0.15205455 -0.06372758
v -0.04836901 -0.11155855 -0.04543058
v -0.04829101 -0.09236855 -0.07288558
v -0.04826501 -0.15129955 -0.06307058
v -0.04823601 -0.15123055 -0.07210258
v -0.04822701 -0.13646555 -0.06711358
v -0.04816801 -0.15433855 -0.06580858
v -0.04814401 -0.15310955 -0.06450958
v -0.04812901 -0.15459455 -0.06594358
v -0.04807201 -0.13440455 -0.05223058
v -0.04802201 -0.13944255 -0.05383658
v -0.04802001 -0.12874755 -0.06586658
v -0.04797301 -0.15144155 -0.06356058
v -0.04795001 -0.15134755 -0.06347658
v -0.04791001 -0.10617855 -0.07262258
v -0.04788601 -0.15118255 -0.06334458
v -0.04788001 -0.15506055 -0.06607358
v -0.04787201 -0.15451655 -0.06634158
v -0.04787101 -0.15515555 -0.06628158
v -0.04785801 -0.15463155 -0.06573958
v -0.04784301 -0.12269855 -0.04580358
v -0.04781801 -0.15478355 -0.06657058
v -0.04772201 -0.14834855 -0.07245658
v -0.04771701 -0.15480455 -0.06800658
v -0.04759301 -0.15214755 -0.06483658
v -0.04759201 -0.15359855 -0.06550858
v -0.04757301 -0.08143555 -0.03904758
v -0.04756901 -0.15476555 -0.06615158
v -0.04756601 -0.15477855 -0.06563058
v -0.04752801 -0.15254755 -0.06451458
v -0.04752601 -0.15211255 -0.06492958
v -0.04752201 -0.15450855 -0.06633158
v -0.04752101 -0.04814255 -0.05827258
v -0.04747001 -0.15403255 -0.06566658
v -0.04741501 -0.15423155 -0.06586558
v -0.04741301 -0.15395555 -0.06597958
v -0.04735401 -0.15367455 -0.06567158
v -0.04731001 -0.15207355 -0.06494358
v -0.04725801 -0.14430455 -0.07191258
v -0.04718501 -0.04910755 -0.05157258
v -0.04714201 -0.13961755 -0.06964858
v -0.04681601 -0.10040955 -0.04137958
v -0.04672401 -0.06199655 -0.04459458
v -0.04659701 -0.10907555 -0.07236658
v -0.04649501 -0.15456155 -0.06675058
v -0.04640901 -0.16048955 -0.06302458
v -0.04634101 -0.13308755 -0.06251858
v -0.04628401 -0.13053555 -0.05131358
v -0.04619801 -0.16560655 -0.06510558
v -0.04615401 -0.13482355 -0.06374058
v -0.04609901 -0.15619855 -0.06081858
v -0.04609001 -0.15116455 -0.07104358
v -0.04606101 -0.13776455 -0.06474458
v -0.04600401 -0.13529355 -0.05537058
v -0.04564701 -0.04842055 -0.06489658
v -0.04563101 -0.16066455 -0.06877958
v -0.04552501 -0.13224255 -0.06363458
v -0.04550001 -0.14568455 -0.05957558
v -0.04549301 -0.14272155 -0.05889558
v -0.04540601 -0.15054455 -0.05908458
v -0.04539201 -0.15363855 -0.06314058
v -0.04537001 -0.14887555 -0.07152858
v -0.04530401 -0.13355955 -0.05522658
v -0.04524301 -0.14450855 -0.05717958
v -0.04519701 -0.06157755 -0.06944858
v -0.04518801 -0.13371255 -0.06026558
v -0.04514401 -0.06625355 -0.04093558
v -0.04505801 -0.16468055 -0.06821258
v -0.04503901 -0.13473055 -0.05932258
v -0.04503501 -0.15152155 -0.06988858
v -0.04498501 -0.13786255 -0.06020458
v -0.04491701 -0.15049155 -0.05997158
v -0.04477001 -0.11465055 -0.04029758
v -0.04465501 -0.14044355 -0.06783858
v -0.04463401 -0.15393955 -0.06743558
v -0.04460601 -0.12320555 -0.07144158
v -0.04458801 -0.15216455 -0.05385458
v -0.04457201 -0.12484155 -0.04651958
v -0.04453001 -0.14159055 -0.06104758
v -0.04449201 -0.14482655 -0.07044958
v -0.04444401 -0.13328955 -0.06003858
v -0.04443101 -0.13866955 -0.05560058
v -0.04438701 -0.16822655 -0.06563458
v -0.04430401 -0.16528655 -0.06259058
v -0.04427001 -0.15873255 -0.05740658
v -0.04415701 -0.14979355 -0.06643258
v -0.04404501 -0.13772455 -0.05543858
v -0.04400101 -0.16188755 -0.06001558
v -0.04397101 -0.14316355 -0.06388458
v -0.04396101 -0.10902255 -0.07284258
v -0.04394101 -0.03448855 -0.05779358
v -0.04379401 -0.16644755 -0.06799758
v -0.04379301 -0.13382755 -0.05598258
v -0.04375101 -0.14371155 -0.05115958
v -0.04361501 -0.16763455 -0.06357558
v -0.04350501 -0.14288855 -0.06466658
v -0.04349201 -0.13227255 -0.05574458
v -0.04344801 -0.16537955 -0.06206958
v -0.04343701 -0.04984855 -0.04214458
v -0.04332101 -0.14944555 -0.06853958
v -0.04327501 -0.16843655 -0.06316058
v -0.04327001 -0.16804255 -0.06294658
v -0.04324101 -0.16540055 -0.06198358
v -0.04323301 -0.13006155 -0.05121558
v -0.04322701 -0.16727655 -0.06286958
v -0.04321201 -0.16837255 -0.06330558
v -0.04320001 -0.16798555 -0.06306358
v -0.04318101 -0.16720255 -0.06250158
v -0.04317901 -0.03459255 -0.05000758
v -0.04316401 -0.16722355 -0.06267758
v -0.04311201 -0.16564855 -0.06183658
v -0.04292001 -0.13447455 -0.06018958
v -0.04290201 -0.07787355 -0.07299958
v -0.04286601 -0.16351755 -0.06074758
v -0.04279101 -0.16363355 -0.06090758
v -0.04273301 -0.16393755 -0.06085558
v -0.04272601 -0.16920055 -0.06296158
v -0.04267301 -0.16895455 -0.06262358
v -0.04263501 -0.13391255 -0.06404758
v -0.04258201 -0.16908655 -0.06325058
v -0.04252101 -0.16444255 -0.07065058
v -0.04250501 -0.16816155 -0.06208458
v -0.04248901 -0.16880555 -0.06291258
v -0.04246201 -0.16957255 -0.06609658
v -0.04245801 -0.16653555 -0.06133058
v -0.04240501 -0.15980855 -0.07127658
v -0.04240301 -0.13901355 -0.06015758
v -0.04239801 -0.16750155 -0.06880758
v -0.04236401 -0.16855255 -0.06264058
v -0.04235801 -0.16886755 -0.06305358
v -0.04235301 -0.16480855 -0.06063758
v -0.04235001 -0.14830055 -0.06483458
v -0.04232401 -0.16924155 -0.06367758
v -0.04224501 -0.12770255 -0.04786758
v -0.04209901 -0.13770455 -0.05093758
v -0.04197501 -0.12766655 -0.07077558
v -0.04186401 -0.13398255 -0.05022258
v -0.04162601 -0.05109155 -0.03458158
v -0.04141701 -0.08513855 -0.03461458
v -0.04137301 -0.03550255 -0.06413258
v -0.04125501 -0.15410855 -0.06958358
v -0.04114001 -0.09574055 -0.07394358
v -0.04101501 -0.11636855 -0.04227558
v -0.04088101 -0.15033955 -0.06729058
v -0.04074501 -0.10377355 -0.03746458
v -0.04065001 -0.06943955 -0.03364358
v -0.04050601 -0.13042755 -0.06904858
v -0.04045201 -0.02039855 -0.05672558
v -0.04041201 -0.17094755 -0.06218758
v -0.04039901 -0.04970955 -0.06966358
v -0.04038701 -0.17081955 -0.06189158
v -0.04033901 -0.15962655 -0.05527758
v -0.04031901 -0.17009455 -0.06124358
v -0.04031301 -0.17065555 -0.06257258
v -0.04026801 -0.17037955 -0.06224958
v -0.04020301 -0.16191355 -0.05771058
v -0.04014901 -0.17005655 -0.06219158
v -0.04013401 -0.17028155 -0.06299258
v -0.04013001 -0.14546855 -0.06522358
v -0.04010301 -0.16799055 -0.06015258
v -0.04008801 -0.17036955 -0.06390558
v -0.04001601 -0.15440755 -0.05176058
v -0.03984101 -0.16331955 -0.05923158
v -0.03981601 -0.16333855 -0.05933758
v -0.03981201 -0.16485155 -0.05959558
v -0.03977101 -0.16359055 -0.05932358
v -0.03972401 -0.17053255 -0.06614558
v -0.03964901 -0.11270955 -0.07473358
v -0.03934101 -0.02033555 -0.04819758
v -0.03925101 -0.14062455 -0.06314558
v -0.03920401 -0.11946855 -0.04465958
v -0.03908201 -0.03546455 -0.03879358
v -0.03907001 -0.14603455 -0.04785958
v -0.03885301 -0.16857355 -0.06934658
v -0.03862001 -0.13817055 -0.06408758
v -0.03849901 -0.16503255 -0.07120158
v -0.03847101 -0.12731555 -0.04582558
v -0.03830701 -0.03495255 -0.02979958
v -0.03815201 -0.17039555 -0.06283758
v -0.03813601 -0.16033755 -0.07163758
v -0.03791301 -0.16996555 -0.06235958
v -0.03790001 -0.16961655 -0.06194658
v -0.03779201 -0.17092655 -0.06457958
v -0.03776601 -0.16997255 -0.06231958
v -0.03772601 -0.16939355 -0.06134558
v -0.03770601 -0.17026655 -0.06195558
v -0.03769201 -0.07127755 -0.02787258
v -0.03765201 -0.17051455 -0.06230958
v -0.03762401 -0.17033055 -0.06271958
v -0.03752501 -0.16752255 -0.06038558
v -0.03740101 -0.16561755 -0.05967258
v -0.03739701 -0.14006755 -0.04764558
v -0.03732501 -0.13345255 -0.06979158
v -0.03730701 -0.02277055 -0.06452258
v -0.03722101 -0.05352855 -0.02768858
v -0.03715601 -0.13699555 -0.04719358
v -0.03707001 -0.15434355 -0.06961858
v -0.03706501 -0.17012955 -0.06235558
v -0.03705301 -0.17002655 -0.06258258
v -0.03698601 -0.15072755 -0.06701558
v -0.03698101 -0.16960355 -0.06221458
v -0.03695201 -0.16970655 -0.06204558
v -0.03692701 -0.16460855 -0.05955358
v -0.03692601 -0.16878255 -0.06164258
v -0.03692401 -0.16886355 -0.06178558
v -0.03690301 -0.16451555 -0.05942858
v -0.03690201 -0.16485455 -0.05963058
v -0.03686301 -0.16874355 -0.06147458
v -0.03673701 -0.14685555 -0.06581458
v -0.03664701 -0.16693255 -0.06055558
v -0.03663501 -0.16935655 -0.06232058
v -0.03657301 -0.06428855 -0.07207558
v -0.03651001 -0.16683455 -0.06062558
v -0.03647701 -0.01982255 -0.03642958
v -0.03644701 -0.00566855 -0.05541158
v -0.03643301 -0.11597155 -0.07369658
v -0.03626401 -0.16344755 -0.05859158
v -0.03622501 -0.16904655 -0.06773358
v -0.03620701 -0.16078555 -0.05573658
v -0.03612901 -0.08832855 -0.03063958
v -0.03603201 -0.11810155 -0.04211758
v -0.03594201 -0.15493955 -0.05259658
v -0.03592601 -0.14289955 -0.06357358
v -0.03587201 -0.16711355 -0.06075958
v -0.03565301 -0.14117355 -0.06521158
v -0.03558101 -0.17018355 -0.06389858
v -0.03554201 -0.00467655 -0.04544358
v -0.03527501 -0.03726555 -0.06920558
v -0.03527401 -0.11983755 -0.07246258
v -0.03504801 -0.16905055 -0.06643158
v -0.03499501 -0.17492355 -0.06698258
v -0.03498101 -0.10663055 -0.03725158
v -0.03491301 -0.17555055 -0.06314658
v -0.03481301 -0.16595155 -0.06963158
v -0.03469601 -0.08085555 -0.07337858
v -0.03440101 -0.12830255 -0.04349658
v -0.03434101 -0.16898255 -0.06219658
v -0.03433001 -0.16836655 -0.06177358
v -0.03427701 -0.14788755 -0.05012658
v -0.03415301 -0.17899855 -0.06429958
v -0.03394901 -0.09988955 -0.07482358
v -0.03393601 -0.17860355 -0.06671558
v -0.03379201 -0.16758655 -0.06665558
v -0.03377701 -0.00809855 -0.06414658
v -0.03375701 -0.13566255 -0.07113858
v -0.03372501 -0.05583755 -0.01967458
v -0.03357701 -0.03757355 -0.02053758
v -0.03356001 -0.16488355 -0.06017358
v -0.03338001 -0.16150055 -0.06959458
v -0.03326201 -0.07395455 -0.02277058
v -0.03325901 -0.14860855 -0.06458558
v -0.03317501 -0.16711355 -0.06565058
v -0.03317201 0.00832845 -0.05542158
v -0.03314301 -0.17835155 -0.06293858
v -0.03314201 -0.15548655 -0.05673258
v -0.03312601 -0.15895155 -0.05787158
v -0.03302501 -0.17622355 -0.06181658
v -0.03288301 -0.14194355 -0.04953558
v -0.03286801 -0.18057555 -0.06422658
v -0.03270801 -0.15635655 -0.06746758
v -0.03268001 -0.15305655 -0.06501758
v -0.03261901 -0.15029755 -0.05533258
v -0.03260101 -0.17993255 -0.06781958
v -0.03254201 -0.17938055 -0.06269558
v -0.03252601 -0.14586955 -0.06176258
v -0.03246401 -0.17891355 -0.06245358
v -0.03242201 -0.17932155 -0.06280158
v -0.03238701 -0.17785755 -0.06225958
v -0.03234401 -0.04055855 -0.01268158
v -0.03233601 -0.00534455 -0.03365658
v -0.03233401 -0.17884255 -0.06255258
v -0.03223001 -0.17784155 -0.06192858
v -0.03222001 -0.16295155 -0.06572458
v -0.03221401 -0.17781555 -0.06210358
v -0.03209701 -0.17523055 -0.07102158
v -0.03209501 -0.11932155 -0.07369658
v -0.03206901 -0.16384855 -0.05995358
v -0.03204101 -0.18016255 -0.06246858
v -0.03201201 -0.17612255 -0.06143858
v -0.03199201 -0.11931555 -0.03938258
v -0.03197401 -0.05229155 -0.07171058
v -0.03195201 -0.15034555 -0.06151458
v -0.03193601 -0.17984655 -0.06300558
v -0.03186401 -0.17985055 -0.06213058
v -0.03179301 -0.14666155 -0.05802558
v -0.03177901 -0.18004355 -0.06268658
v -0.03174201 -0.17602555 -0.06142058
v -0.03170601 -0.17623455 -0.06131058
v -0.03168901 0.00959645 -0.04510858
v -0.03164801 -0.14433855 -0.06246558
v -0.03164401 -0.17887955 -0.06156058
v -0.03161301 -0.15436555 -0.06152158
v -0.03158601 -0.15779955 -0.06351158
v -0.03151001 -0.14618555 -0.05472858
v -0.03149501 -0.14613755 -0.05663758
v -0.03147101 -0.17935455 -0.06232158
v -0.03145401 -0.17966355 -0.06235758
v -0.03143301 -0.17327055 -0.06022558
v -0.03142601 -0.13915055 -0.04914258
v -0.03141701 -0.02459055 -0.06913258
v -0.03139801 -0.01817755 -0.02314558
v -0.03136201 -0.17922055 -0.06208058
v -0.03131601 0.00564645 -0.06401858
v -0.03124601 -0.17724055 -0.06083458
v -0.03113501 -0.00086055 -0.01012758
v -0.03098101 -0.16229755 -0.06421658
v -0.03089101 -0.15896955 -0.05637258
v -0.03086901 -0.16817855 -0.05635458
v -0.03068801 -0.10123455 -0.07449758
v -0.03058701 -0.14424455 -0.05364658
v -0.03051101 -0.16875755 -0.07068458
v -0.03049801 -0.17538955 -0.06003158
v -0.03045401 -0.17427755 -0.06004458
v -0.03036801 -0.17456455 -0.06018258
v -0.03029001 -0.17442955 -0.06013158
v -0.03021901 -0.15411755 -0.05410258
v -0.03008701 -0.13013655 -0.04444458
v -0.02994401 -0.09122055 -0.02833958
v -0.02981401 -0.16115755 -0.05239358
v -0.02965701 -0.14379355 -0.05429158
v -0.02960101 -0.00422255 -0.02510258
v -0.02960001 -0.18229755 -0.06424258
v -0.02947801 -0.13883855 -0.07007058
v -0.02946901 -0.18198355 -0.06157558
v -0.02943001 -0.18127455 -0.06834358
v -0.02939301 -0.18123555 -0.06229458
v -0.02938701 -0.18178055 -0.06189658
v -0.02936801 -0.18176755 -0.06134758
v -0.02935701 -0.14502755 -0.05805858
v -0.02926501 -0.10810455 -0.03451458
v -0.02910901 -0.14500355 -0.05257858
v -0.02907901 -0.15784255 -0.06116058
v -0.02905401 -0.18105555 -0.06169058
v -0.02905301 -0.18090255 -0.06074458
v -0.02903301 -0.14860255 -0.05352258
v -0.02900801 -0.15482755 -0.05963258
v -0.02900201 -0.00309655 -0.01952358
v -0.02898801 -0.18074155 -0.06165958
v -0.02889801 0.00850645 -0.03529758
v -0.02887601 -0.18053655 -0.06135558
v -0.02879101 -0.15367655 -0.04956858
v -0.02866501 -0.12126955 -0.07452358
v -0.02862701 -0.17916855 -0.05981158
v -0.02862101 -0.14698355 -0.05776258
v -0.02860401 -0.14962255 -0.05769558
v -0.02850701 -0.14446555 -0.06243058
v -0.02827201 -0.12037955 -0.04105858
v -0.02822101 -0.16179755 -0.06702158
v -0.02808401 -0.05951355 -0.01476258
v -0.02805801 -0.13674255 -0.04951458
v -0.02791601 -0.06780755 -0.07193858
v -0.02785201 -0.01810855 -0.01352458
v -0.02784501 -0.17582755 -0.07150458
v -0.02765401 -0.15832555 -0.06402558
v -0.02749201 0.02282945 -0.05550458
v -0.02746201 -0.17588155 -0.05915658
v -0.02745001 -0.14153955 -0.06832858
v -0.02734601 -0.04023055 -0.07160258
v -0.02733601 -0.13340055 -0.04664058
v -0.02723801 -0.08367555 -0.07200758
v -0.02722501 -0.01324055 -0.00602258
v -0.02718101 -0.17499055 -0.05912558
v -0.02713001 -0.17410855 -0.05799358
v -0.02711901 -0.17477455 -0.05864858
v -0.02710301 -0.17473455 -0.05880958
v -0.02702401 -0.01066355 -0.06969758
v -0.02696401 -0.18165455 -0.06232258
v -0.02686901 -0.18258055 -0.06425458
v -0.02683501 -0.14816155 -0.04900358
v -0.02672901 -0.18109855 -0.06167758
v -0.02653901 -0.18140255 -0.06181758
v -0.02650201 -0.18093755 -0.06143958
v -0.02648601 0.02296345 -0.04638058
v -0.02647601 -0.15488555 -0.06327858
v -0.02644901 -0.07756355 -0.01989858
v -0.02641601 -0.14066655 -0.04804858
v -0.02630201 0.01252045 -0.01219158
v -0.02625801 -0.18204955 -0.06229058
v -0.02623301 -0.18236855 -0.06181458
v -0.02619601 -0.18211155 -0.06150158
v -0.02610001 -0.17002855 -0.05476058
v -0.02606601 -0.18195055 -0.06778958
v -0.02595801 -0.18115455 -0.06101358
v -0.02585401 -0.04639955 -0.00766558
v -0.02580701 -0.14752455 -0.06307258
v -0.02563101 -0.12375555 -0.04332958
v -0.02562901 -0.15091155 -0.06301858
v -0.02562801 -0.02968555 -0.00904058
v -0.02556501 -0.18177355 -0.06225958
v -0.02556301 -0.18197355 -0.06197958
v -0.02546301 -0.16915155 -0.07174458
v -0.02543801 -0.18124655 -0.06189958
v -0.02536201 -0.17943255 -0.06013758
v -0.02532501 -0.18145055 -0.06172858
v -0.02521801 -0.12327055 -0.07394658
v -0.02508501 -0.18136855 -0.06237258
v -0.02508401 -0.18059555 -0.06157858
v -0.02503701 -0.14198755 -0.06989658
v -0.02502001 -0.18048455 -0.06139758
v -0.02500301 -0.17720755 -0.05927058
v -0.02492401 -0.18054555 -0.06124658
v -0.02478701 -0.10362955 -0.07403258
v -0.02467501 -0.16286555 -0.05018958
v -0.02465301 0.01014745 -0.02579458
v -0.02461701 0.02070245 -0.03810358
v -0.02460701 -0.17663855 -0.05931358
v -0.02452501 -0.17883155 -0.06049558
v -0.02451701 0.00943245 -0.01868258
v -0.02450801 -0.18229455 -0.06421158
v -0.02444501 0.02054245 -0.06427958
v -0.02440401 -0.17663355 -0.05913258
v -0.02438901 -0.17885755 -0.06056758
v -0.02436901 -0.02313155 -0.00167058
v -0.02434901 -0.08666055 -0.07209958
v -0.02425001 0.01214645 -0.00119058
v -0.02421701 -0.17915055 -0.06067858
v -0.02419301 -0.18166255 -0.06676858
v -0.02412301 -0.17678655 -0.05892458
v -0.02395901 -0.13251355 -0.04448958
v -0.02388701 -0.17809055 -0.07035358
v -0.02367001 -0.12569055 -0.07318258
v -0.02350501 -0.09248655 -0.02615058
v -0.02338701 -0.17985655 -0.06134958
v -0.02329601 -0.05609355 -0.07150858
v -0.02327101 -0.02704855 -0.07212958
v -0.02323701 -0.15410555 -0.04663458
v -0.02318001 -0.16201955 -0.06837358
v -0.02292101 0.00318545 -0.07092858
v -0.02258101 -0.10962355 -0.03480358
v -0.02250701 -0.12183455 -0.04023558
v -0.02244001 -0.17773555 -0.05862158
v -0.02213701 -0.14769055 -0.04697658
v -0.02207901 -0.15932555 -0.06576958
v -0.02172601 -0.17054355 -0.05496058
v -0.02160501 -0.17957055 -0.06713158
v -0.02159501 -0.17242755 -0.07139258
v -0.02159001 -0.18076255 -0.06316258
v -0.02156301 -0.14308655 -0.04625858
v -0.02138201 -0.15573355 -0.06510658
v -0.02130401 -0.06360055 -0.01124458
v -0.02126701 -0.03704155 -0.00398158
v -0.02070401 -0.12408855 -0.07487958
v -0.02061601 -0.08571955 -0.07140758
v -0.02037301 0.03356945 -0.04653958
v -0.02033701 -0.17710055 -0.06141158
v -0.02019101 0.03400345 -0.05634458
v -0.01990901 -0.16407355 -0.05203458
v -0.01989601 -0.15207755 -0.06427958
v -0.01987001 -0.14834655 -0.06642758
v -0.01945301 -0.10541155 -0.07411458
v -0.01926201 -0.16962455 -0.05780058
v -0.01926001 -0.14350355 -0.07281958
v -0.01924001 -0.08031855 -0.01792558
v -0.01922401 -0.17563755 -0.06549058
v -0.01888001 -0.13323155 -0.04260958
v -0.01879001 -0.16530155 -0.06671158
v -0.01860201 -0.05217855 -0.00405858
v -0.01847101 -0.07328555 -0.07024058
v -0.01843901 -0.01299055 -0.07229458
v -0.01843701 0.03162245 -0.03769258
v -0.01807401 -0.16121955 -0.06316658
v -0.01804201 -0.16798355 -0.06164558
v -0.01802301 0.01792845 -0.07039058
v -0.01779901 -0.12293955 -0.03743458
v -0.01777401 -0.15584455 -0.04847758
v -0.01775901 -0.04313655 -0.07069558
v -0.01760101 -0.14930655 -0.04814358
v -0.01759101 -0.16330255 -0.05432758
v -0.01729501 0.02930845 -0.06514658
v -0.01700101 -0.18047355 -0.05972058
v -0.01699101 -0.16256155 -0.05784958
v -0.01692601 -0.09418055 -0.02452158
v -0.01674601 0.01993445 -0.00179558
v -0.01671001 -0.18097855 -0.06576958
v -0.01665101 -0.15703755 -0.06166058
v -0.01651601 -0.04345655 0.00127642
v -0.01647001 0.02024445 -0.01671958
v -0.01630601 -0.17104755 -0.06842658
v -0.01625401 -0.17103455 -0.06040458
v -0.01586001 -0.08747255 -0.07142758
v -0.01560901 -0.15667955 -0.05631558
v -0.01557801 -0.15174655 -0.06118058
v -0.01555301 -0.18767955 -0.05902158
v -0.01540901 -0.18700355 -0.06262158
v -0.01519101 -0.11121155 -0.03333358
v -0.01517201 0.02573745 -0.06925158
v -0.01510201 -0.14960055 -0.05145158
v -0.01504201 -0.14333555 -0.04806058
v -0.01501301 -0.15616455 -0.05191258
v -0.01488501 -0.12551655 -0.07611858
v -0.01475701 -0.16268055 -0.06662858
v -0.01469501 -0.06688155 -0.00907558
v -0.01448301 -0.18582755 -0.05746658
v -0.01446201 -0.15186455 -0.05613058
v -0.01442101 -0.16424655 -0.05936058
v -0.01436601 -0.17973555 -0.05775858
v -0.01431001 -0.14955155 -0.06489258
v -0.01420901 0.00149245 -0.07258158
v -0.01420401 -0.18687955 -0.05655558
v -0.01410801 -0.18687555 -0.05674358
v -0.01402001 -0.18599355 -0.05682258
v -0.01397401 -0.18959255 -0.06069558
v -0.01391701 -0.18604155 -0.05695258
v -0.01382901 -0.18987455 -0.05856258
v -0.01375101 -0.13471455 -0.04458558
v -0.01372801 -0.18433555 -0.05737758
v -0.01363101 -0.18778755 -0.05651058
v -0.01361101 -0.18774555 -0.05611858
v -0.01349201 -0.18411155 -0.05729758
v -0.01346001 -0.14409655 -0.07115158
v -0.01337101 -0.18371355 -0.05709858
v -0.01334901 -0.18920755 -0.05677458
v -0.01332401 -0.14599755 -0.05144658
v -0.01322701 -0.18683455 -0.05599558
v -0.01317601 -0.05959055 -0.06843758
v -0.01313201 -0.14881655 -0.05744058
v -0.01300401 -0.08236155 -0.01603858
v -0.01294801 -0.18705255 -0.05634458
v -0.01294301 -0.18711955 -0.05644058
v -0.01284901 -0.02859055 -0.07086558
v -0.01284001 -0.17973255 -0.05731558
v -0.01276101 -0.17246155 -0.05653758
v -0.01273201 -0.18639655 -0.05655158
v -0.01261101 -0.18468455 -0.05607658
v -0.01252801 -0.15748855 -0.06299158
v -0.01248801 -0.17967355 -0.05746158
v -0.01238801 -0.17975855 -0.05727758
v -0.01216201 -0.12473055 -0.04096158
v -0.01196901 -0.05550055 -0.00226558
v -0.01182701 -0.10869055 -0.07229458
v -0.01180201 -0.18078955 -0.05642758
v -0.01178001 -0.18905555 -0.05527758
v -0.01176801 -0.19176155 -0.05821258
v -0.01173001 -0.19123455 -0.06141458
v -0.01171401 -0.18900955 -0.05485458
v -0.01161801 -0.18845055 -0.06561758
v -0.01161301 -0.15956455 -0.05722458
v -0.01144401 -0.16546455 -0.05498558
v -0.01144301 -0.19031755 -0.05599258
v -0.01142601 -0.14862655 -0.05866958
v -0.01117201 -0.18794455 -0.05480058
v -0.01105001 -0.18865855 -0.05540258
v -0.01093401 0.02803245 -0.01803458
v -0.01091701 -0.17524855 -0.05661958
v -0.01091101 -0.17555655 -0.05687858
v -0.01077101 -0.17668855 -0.05622558
v -0.01068501 -0.17570055 -0.05688458
v -0.01068101 -0.18590655 -0.05455858
v -0.01065501 -0.18815055 -0.05532058
v -0.01061701 -0.18217655 -0.06964558
v -0.01055601 -0.14672655 -0.06756658
v -0.01051301 -0.18761955 -0.05546058
v -0.01048401 -0.04729755 0.00443442
v -0.01047001 -0.14419955 -0.05207858
v -0.01045301 -0.15388355 -0.06246458
v -0.01040401 -0.14171955 -0.04953658
v -0.01037301 0.01584145 -0.07281758
v -0.01034601 -0.13814355 -0.04664758
v -0.01033701 0.04305045 -0.04661958
v -0.00998001 0.04178345 -0.05720558
v -0.00991001 0.04050045 -0.03758758
v -0.00983301 -0.18204555 -0.05458658
v -0.00981401 -0.08932655 -0.07096358
v -0.00969801 -0.15031055 -0.05948958
v -0.00968401 -0.01532355 -0.07252458
v -0.00966701 -0.15574455 -0.05573658
v -0.00956101 -0.15964655 -0.05357558
v -0.00952101 -0.14323455 -0.07147958
v -0.00951401 -0.15182255 -0.06100158
v -0.00948901 -0.09628855 -0.02459258
v -0.00947601 -0.07561155 -0.06845658
v -0.00943001 -0.12699455 -0.07437558
v -0.00933401 -0.12801955 -0.04237558
v -0.00926001 0.03615045 -0.06701358
v -0.00904801 0.02528445 -0.00210158
v -0.00886501 -0.15186455 -0.05464558
v -0.00877701 0.02858945 -0.07058358
v -0.00843201 -0.16415155 -0.07293658
v -0.00831701 -0.17338355 -0.07219558
v -0.00824801 -0.14618655 -0.05219058
v -0.00818701 -0.06957855 -0.00686958
v -0.00817601 -0.15810855 -0.07098158
v -0.00816501 -0.17611455 -0.05455658
v -0.00808301 -0.04517755 -0.06683258
v -0.00773301 -0.07816855 -0.06843858
v -0.00758801 -0.15568855 -0.05205858
v -0.00746801 -0.13111755 -0.07392658
v -0.00745601 -0.19124155 -0.05508658
v -0.00745201 -0.19287155 -0.05746258
v -0.00717801 -0.11219055 -0.03451958
v -0.00711001 -0.17196455 -0.05355158
v -0.00708401 -0.17424655 -0.05482258
v -0.00690201 -0.18956155 -0.05501558
v -0.00688401 -0.15058155 -0.05124058
v -0.00684401 -0.19233255 -0.06083958
v -0.00680801 -0.19067055 -0.05457158
v -0.00680301 -0.17409655 -0.05482958
v -0.00676801 -0.19060655 -0.05410058
v -0.00676601 -0.17384455 -0.05447358
v -0.00668001 -0.18865755 -0.05506958
v -0.00666701 -0.18950355 -0.05459358
v -0.00649201 -0.18998755 -0.05395958
v -0.00647401 -0.15402155 -0.06879458
v -0.00643601 -0.14388955 -0.04852458
v -0.00629701 -0.12664455 -0.04137158
v -0.00611601 0.03592745 -0.01763658
v -0.00600501 -0.00073355 -0.07345858
v -0.00595801 -0.14827455 -0.06942258
v -0.00575101 -0.13723255 -0.04536758
v -0.00573601 -0.15119055 -0.06856358
v -0.00573401 -0.14451555 -0.07418958
v -0.00569301 -0.18832355 -0.05348058
v -0.00563401 -0.16580255 -0.05107658
v -0.00515101 -0.19005055 -0.06550558
v -0.00506001 0.03295345 -0.00179858
v -0.00497001 -0.05728255 -0.00023358
v -0.00481701 -0.08411455 -0.01704658
v -0.00481601 -0.11040655 -0.07435458
v -0.00454101 -0.12827755 -0.07561958
v -0.00445601 -0.18397255 -0.05339658
v -0.00400501 -0.18958655 -0.05506558
v -0.00396101 -0.18958355 -0.05530858
v -0.00394501 -0.18901255 -0.05520158
v -0.00391101 -0.16030555 -0.05015558
v -0.00378401 -0.19098255 -0.05572658
v -0.00368401 -0.19038555 -0.05518958
v -0.00363101 -0.19250155 -0.05721458
v -0.00354701 -0.19041055 -0.05480158
v -0.00346901 -0.19259455 -0.05950958
v -0.00344601 -0.18981055 -0.05453158
v -0.00329301 -0.18369555 -0.07002458
v -0.00326601 -0.04940455 0.00571442
v -0.00302301 -0.15575855 -0.04946558
v -0.00295301 -0.03020955 -0.06730558
v -0.00277901 -0.18867055 -0.05434158
v -0.00263301 -0.19014055 -0.05543258
v -0.00263301 -0.09142655 -0.07017058
v -0.00255501 -0.19016855 -0.05520258
v -0.00249301 -0.18944255 -0.05536058
v -0.00233801 -0.17789155 -0.05389358
v -0.00228701 -0.07583855 -0.06688858
v -0.00222501 -0.18954555 -0.05516958
v -0.00221901 0.01387345 -0.07338658
v -0.00205501 -0.06064355 -0.06409658
v -0.00188301 -0.09776455 -0.02582258
v -0.00170401 -0.18809955 -0.05552858
v -0.00169001 -0.17508555 -0.05427958
v -0.00157001 -0.18815155 -0.05559658
v -0.00155801 -0.17541555 -0.05413958
v -0.00153601 -0.17457955 -0.05409758
v -0.00142401 -0.18818355 -0.05533358
v -0.00115401 -0.18906955 -0.05602458
v -0.00115401 -0.15106955 -0.04821558
v -0.00097501 -0.18396255 -0.05470758
v -0.00089701 -0.14643255 -0.04678858
v -0.00084001 -0.07021855 -0.00831458
v -0.00066801 -0.13848355 -0.04364358
v -0.00053401 -0.19113755 -0.05753858
v -0.00049201 -0.17472855 -0.07225858
v -0.00038101 -0.12646655 -0.03954258
v -0.00030601 -0.17261255 -0.05369858
v -0.00020801 -0.19125855 -0.06165958
v -0.00017101 0.02762445 -0.07241658
v 0.00011099 -0.17869155 -0.05452658
v 0.00022699 -0.01667255 -0.07036058
v 0.00031599 0.03786445 -0.06761358
v 0.00049699 -0.18361755 -0.05587158
v 0.00050799 -0.18350955 -0.05588558
v 0.00064599 -0.18370755 -0.05573558
v 0.00066899 -0.17842655 -0.05502258
v 0.00073699 -0.17825555 -0.05507158
v 0.00093899 0.04388545 -0.05800258
v 0.00120399 -0.17788655 -0.05497658
v 0.00123299 -0.16697655 -0.05134958
v 0.00123399 -0.16673555 -0.07407658
v 0.00127999 -0.04570555 -0.06310458
v 0.00148499 0.04617345 -0.04690258
v 0.00173499 -0.16075255 -0.07261958
v 0.00194299 0.04071045 -0.01615158
v 0.00194699 -0.18365355 -0.05597658
v 0.00211999 -0.08526455 -0.01880658
v 0.00213399 -0.11313355 -0.03442658
v 0.00216799 0.03869645 -0.00152058
v 0.00231099 -0.05716555 -0.00176658
v 0.00234499 0.04598645 -0.03774258
v 0.00243499 -0.00257155 -0.07275258
v 0.00270199 -0.15155555 -0.06976558
v 0.00275699 -0.15606255 -0.07192458
v 0.00287599 -0.14966655 -0.07018458
v 0.00327699 -0.17695755 -0.05551258
v 0.00367899 -0.18636655 -0.06516658
v 0.00375799 -0.16049055 -0.05129758
v 0.00401499 -0.14476755 -0.07235958
v 0.00408699 -0.05039355 0.00428442
v 0.00490299 -0.18507655 -0.05953958
v 0.00524499 -0.15676155 -0.05133858
v 0.00533499 -0.03163955 -0.06351258
v 0.00583599 0.01217345 -0.07270058
v 0.00625399 -0.09798655 -0.02765458
v 0.00644799 -0.16960055 -0.05505158
v 0.00656999 -0.07084155 -0.01092158
v 0.00663599 -0.07865355 -0.06320158
v 0.00671699 -0.15220155 -0.04977858
v 0.00690199 -0.12867655 -0.07483458
v 0.00807599 -0.17736155 -0.06707858
v 0.00821599 -0.01775555 -0.06654958
v 0.00822099 -0.06247455 -0.05957058
v 0.00828399 -0.11211455 -0.07289258
v 0.00845099 -0.14733055 -0.04838258
v 0.00860799 -0.17674255 -0.06035858
v 0.00870599 0.02599445 -0.07198858
v 0.00891099 -0.13985555 -0.04599058
v 0.00894199 -0.09458655 -0.06876858
v 0.00902699 -0.08505355 -0.02175358
v 0.00910399 -0.16294255 -0.05514058
v 0.00911499 -0.11354555 -0.03694858
v 0.01027799 -0.15720555 -0.05446058
v 0.01033899 -0.12786055 -0.04170158
v 0.01033999 -0.00376155 -0.07046058
v 0.01059599 -0.16910055 -0.06830658
v 0.01080399 -0.16986855 -0.06054958
v 0.01099199 0.03728645 -0.00105358
v 0.01132899 -0.15682155 -0.06643658
v 0.01139999 0.03652545 -0.06721958
v 0.01152999 -0.16294555 -0.06639858
v 0.01156399 -0.15150255 -0.06565858
v 0.01166899 -0.04719255 -0.05690358
v 0.01169699 -0.16321055 -0.06081658
v 0.01183399 0.03891645 -0.01598558
v 0.01189699 -0.05752955 -0.00345658
v 0.01192199 -0.07085555 -0.01509958
v 0.01196399 -0.14915955 -0.06635658
v 0.01210999 -0.15650355 -0.05942358
v 0.01213899 -0.15245255 -0.05365658
v 0.01216299 -0.04964055 0.00151942
v 0.01233099 -0.09778155 -0.03138958
v 0.01292199 0.04237945 -0.05832258
v 0.01296199 -0.14729355 -0.05244158
v 0.01315799 0.01034945 -0.07081258
v 0.01321999 0.04473245 -0.04698358
v 0.01339399 0.04389145 -0.03714958
v 0.01342299 -0.14174555 -0.06891258
v 0.01365199 -0.15157555 -0.05901858
v 0.01415899 -0.03225655 -0.05717758
v 0.01467099 -0.08492255 -0.02681258
v 0.01525099 -0.14784555 -0.05892458
v 0.01529499 -0.14064155 -0.05086558
v 0.01636599 -0.01820255 -0.06091958
v 0.01638499 -0.06456055 -0.05348458
v 0.01651599 -0.08124855 -0.05858958
v 0.01688699 0.02259545 -0.07080558
v 0.01715399 0.02772545 -0.00039558
v 0.01732999 -0.11504155 -0.04243458
v 0.01758699 -0.07012055 -0.02187258
v 0.01799399 -0.14144955 -0.05866258
v 0.01823099 -0.12884955 -0.06853958
v 0.01823399 -0.12928255 -0.04757358
v 0.01824799 -0.00459255 -0.06599858
v 0.01852699 -0.08447555 -0.03273258
v 0.01853099 -0.04808155 -0.05157558
v 0.01860799 0.02938945 -0.01535958
v 0.01866499 -0.05666855 -0.00967058
v 0.01871399 -0.09516055 -0.06185058
v 0.01875899 -0.04468255 -0.00299758
v 0.01938899 -0.09792055 -0.03988258
v 0.01976899 -0.11187455 -0.06537958
v 0.02001799 -0.07033955 -0.02785958
v 0.02019199 0.02824445 -0.06610158
v 0.02041599 -0.08242955 -0.03664458
v 0.02061899 -0.05536555 -0.01612258
v 0.02075599 0.00909445 -0.06857358
v 0.02103199 -0.12961155 -0.05716858
v 0.02115499 0.01837345 -0.06885258
v 0.02130899 -0.03268455 -0.05137658
v 0.02141999 -0.05364655 -0.02232458
v 0.02161499 -0.08369955 -0.04122958
v 0.02172399 -0.06627855 -0.04655658
v 0.02212699 0.01852945 -0.00037758
v 0.02225299 -0.08296655 -0.04977458
v 0.02249999 0.03344345 -0.05677658
v 0.02257499 0.01830345 -0.01606058
v 0.02279299 -0.11365455 -0.05343858
v 0.02296499 -0.06956855 -0.03447058
v 0.02317599 -0.06817155 -0.04041958
v 0.02338099 0.03498445 -0.04608358
v 0.02342799 0.03293245 -0.03635358
v 0.02356599 -0.04992055 -0.04481258
v 0.02371699 -0.09708655 -0.05072358
v 0.02383099 -0.01882555 -0.05424358
v 0.02478099 -0.05097355 -0.03797858
v 0.02512099 -0.03498555 -0.00775258
v 0.02517099 -0.05235755 -0.03180558
v 0.02536499 -0.00531755 -0.05862158
v 0.02565399 -0.03187755 -0.00011758
v 0.02585099 -0.03454455 -0.04430358
v 0.02616099 0.02058145 -0.06296158
v 0.02643099 0.00795545 -0.06110858
v 0.02666199 0.02080145 -0.03530058
v 0.02725199 -0.03571755 -0.01891758
v 0.02760899 0.00869245 -0.01485658
v 0.02810199 0.02300245 -0.04452858
v 0.02819499 0.02271945 -0.05421458
v 0.02838199 -0.01949155 -0.04484758
v 0.02845399 -0.03469155 -0.03683158
v 0.02876999 0.00990945 -5.258e-05
v 0.02882199 -0.00526955 -0.04919658
v 0.02886199 -0.00446755 -0.02783158
v 0.02897199 0.00827145 -0.03109558
v 0.02927999 0.00908945 -0.05182258
v 0.02942199 0.00983645 -0.04196758
v 0.02967899 -0.00316055 -0.01943658
v 0.02989599 -0.03560455 -0.02852458
v 0.02994499 -0.00476655 -0.03871458
v 0.03010699 -0.02078855 -0.02731158
v 0.03019099 -0.02077955 -0.01904258
v 0.03028099 -0.02022155 -0.03702658
v 0.03086599 -0.02030755 -0.01254258
v 0.03172599 -0.00679255 -0.01346158
v 0.03196999 -0.01998355 -0.00557258
v 0.03370399 -0.00291455 -0.00935458
