# Rest-skin points; MuJoCo computes the convex hull.
v -0.02925127 -0.04754892 -0.03620628
v -0.02923527 -0.04996592 -0.03329128
v -0.02911127 -0.05849992 -0.03930028
v -0.02884127 -0.05795192 -0.03576528
v -0.02876127 -0.05504192 -0.04204928
v -0.02869627 -0.03934092 -0.02985028
v -0.02855427 -0.07789392 -0.06138128
v -0.02852827 -0.05200692 -0.03103028
v -0.02851827 -0.07574292 -0.05848728
v -0.02851127 -0.07413992 -0.06281928
v -0.02848327 -0.06308792 -0.04407628
v -0.02839827 -0.07347092 -0.05552528
v -0.02835027 -0.07814692 -0.06987028
v -0.02810427 -0.06832892 -0.04958128
v -0.02787927 -0.05941192 -0.04638528
v -0.02770827 -0.07206392 -0.06016628
v -0.02769027 -0.03234892 -0.02523528
v -0.02767627 -0.04246292 -0.02472728
v -0.02762227 -0.08126392 -0.06813628
v -0.02744427 -0.07008992 -0.05766928
v -0.02725327 -0.07649992 -0.05328728
v -0.02724127 -0.06046492 -0.03449128
v -0.02723927 -0.08016892 -0.07486428
v -0.02723227 -0.06356192 -0.03828528
v -0.02721427 -0.07927292 -0.05692028
v -0.02716027 -0.04706392 -0.02589828
v -0.02709027 -0.04497792 -0.04049328
v -0.02701427 -0.06476992 -0.05202228
v -0.02697627 -0.06717392 -0.04219228
v -0.02695527 -0.07198792 -0.04780328
v -0.02685627 -0.08105892 -0.06006028
v -0.02682027 -0.05197592 -0.04423328
v -0.02679627 -0.05475892 -0.02879928
v -0.02678927 -0.03692692 -0.01989428
v -0.02655627 -0.02589592 -0.02096628
v -0.02655227 -0.03743692 -0.03599128
v -0.02629527 -0.05667592 -0.04812628
v -0.02620527 -0.08290192 -0.07956428
v -0.02609527 -0.07468492 -0.07117328
v -0.02594627 -0.07069992 -0.06414928
v -0.02556827 -0.08356392 -0.07378228
v -0.02544327 -0.08310892 -0.06656628
v -0.02522727 -0.03091692 -0.01503328
v -0.02516827 -0.04901992 -0.02421528
v -0.02511127 -0.08462292 -0.07811028
v -0.02501327 -0.07876492 -0.05178828
v -0.02500727 -0.04638992 -0.02162628
v -0.02499727 -0.06771492 -0.05911628
v -0.02496927 -0.07741792 -0.07617528
v -0.02485527 -0.02999392 -0.03224928
v -0.02484027 -0.06232392 -0.05358928
v -0.02483727 -0.06945192 -0.06139928
v -0.02478027 -0.05087492 -0.04603928
v -0.02477827 -0.08147592 -0.05573428
v -0.02471127 -0.01944892 -0.01649528
v -0.02467227 -0.05452592 -0.04806528
v -0.02458027 -0.07419292 -0.04644028
v -0.02442627 -0.08444492 -0.07470928
v -0.02439427 -0.07009292 -0.04125128
v -0.02438427 -0.08304892 -0.05911128
v -0.02436427 -0.08439692 -0.07470428
v -0.02426427 -0.08632192 -0.08210128
v -0.02424227 -0.08498592 -0.08297328
v -0.02422927 -0.06674092 -0.03721128
v -0.02421427 -0.08478292 -0.07782528
v -0.02413927 -0.06295092 -0.03317328
v -0.02413827 -0.08462092 -0.07249228
v -0.02404927 -0.04403792 -0.04344228
v -0.02400727 -0.08479592 -0.07805028
v -0.02397027 -0.08496292 -0.07791628
v -0.02390327 -0.08024992 -0.08028828
v -0.02383127 -0.02545092 -0.01035028
v -0.02376827 -0.08472092 -0.07324128
v -0.02376327 -0.08529992 -0.07467328
v -0.02374527 -0.08479992 -0.07328028
v -0.02372327 -0.08659792 -0.08177528
v -0.02370227 -0.08626392 -0.08100928
v -0.02363127 -0.08498892 -0.07326028
v -0.02360827 -0.08585392 -0.08108828
v -0.02357827 -0.04121092 -0.01713128
v -0.02357227 -0.08679092 -0.08156928
v -0.02353427 -0.08630092 -0.08176528
v -0.02348427 -0.08619692 -0.07775028
v -0.02323027 -0.08756292 -0.08212828
v -0.02319127 -0.08541592 -0.07376628
v -0.02317227 -0.08705092 -0.08239928
v -0.02316327 -0.08747192 -0.08109328
v -0.02314227 -0.08437292 -0.06587628
v -0.02311627 -0.08687892 -0.08130028
v -0.02304727 -0.02266092 -0.02819728
v -0.02298027 -0.08729392 -0.08238228
v -0.02296327 -0.08806592 -0.08177928
v -0.02294027 -0.05801092 -0.02744828
v -0.02293427 -0.08703692 -0.08187828
v -0.02293227 -0.08234392 -0.08235028
v -0.02290527 -0.08728592 -0.08209428
v -0.02285627 -0.08818892 -0.08212828
v -0.02273227 -0.08747292 -0.08247828
v -0.02261127 -0.08580092 -0.08372728
v -0.02220827 -0.07968792 -0.05126328
v -0.02219827 -0.03652892 -0.01235128
v -0.02213027 -0.08568992 -0.07162828
v -0.02206327 -0.03683292 -0.04055328
v -0.02200727 -0.01373892 -0.01170328
v -0.02198027 -0.05514892 -0.04948428
v -0.02189427 -0.08554592 -0.07210428
v -0.02185327 -0.08562492 -0.07212628
v -0.02184727 -0.07258192 -0.07177328
v -0.02184527 -0.08219992 -0.05531628
v -0.02181727 -0.08444192 -0.08352728
v -0.02180727 -0.07483692 -0.04583628
v -0.02178227 -0.08608292 -0.07327528
v -0.02175127 -0.08582892 -0.07213528
v -0.02173927 -0.08683792 -0.07511528
v -0.02165627 -0.05065792 -0.04788328
v -0.02159627 -0.08801692 -0.07785928
v -0.02155227 -0.06917292 -0.06471128
v -0.02154027 -0.01931292 -0.00566428
v -0.02147827 -0.08810092 -0.08078528
v -0.02147227 -0.08869892 -0.08043628
v -0.02144927 -0.08823892 -0.08215928
v -0.02135027 -0.05284692 -0.02284028
v -0.02134927 -0.08367392 -0.05885328
v -0.02129927 -0.08846992 -0.08179128
v -0.02125827 -0.08845692 -0.08139628
v -0.02120927 -0.07581392 -0.07680928
v -0.02108427 -0.07084492 -0.04092428
v -0.02107927 -0.01620592 -0.02390228
v -0.02106527 -0.08651192 -0.08424528
v -0.02105327 -0.08921692 -0.08141628
v -0.02104627 -0.06641192 -0.06002228
v -0.02102127 -0.08891992 -0.08201828
v -0.02094827 -0.08931292 -0.08168528
v -0.02079527 -0.06848392 -0.06203928
v -0.02069527 -0.03125392 -0.00763728
v -0.02062127 -0.00162292 0.00855172
v -0.02061727 -0.06114892 -0.05508628
v -0.02056427 -0.07911392 -0.08085828
v -0.02053327 -0.06786992 -0.03689528
v -0.02050227 -0.08389192 -0.08388228
v -0.02030427 0.00086408 0.00477972
v -0.02015127 -0.08491692 -0.06570728
v -0.02011927 -0.04974792 -0.01991628
v -0.02011827 -0.08185792 -0.08303828
v -0.02010827 -0.02991392 -0.03724828
v -0.02005827 -0.06469592 -0.03289228
v -0.01988927 -0.08624292 -0.07191328
v -0.01988527 -0.08611792 -0.07122228
v -0.01983927 -0.08592992 -0.07176628
v -0.01980427 -0.08601392 -0.07179928
v -0.01964627 -0.04444392 -0.04581428
v -0.01956327 0.00370108 0.00170372
v -0.01954527 -0.00980792 -0.00549828
v -0.01954127 -0.00869692 0.00901872
v -0.01936327 -0.01378592 -0.00064228
v -0.01913227 -0.08673792 -0.07274328
v -0.01909027 -0.04518492 -0.01583228
v -0.01898527 -0.00689292 0.00316972
v -0.01875027 -0.02478892 -0.00288028
v -0.01869527 -0.05580892 -0.05083028
v -0.01854227 -0.00452092 -0.00138528
v -0.01852027 -0.07976092 -0.05135228
v -0.01846727 0.00738108 -0.00111728
v -0.01841127 -0.07484792 -0.04611928
v -0.01829027 -0.06069892 -0.02767628
v -0.01824827 -0.08753692 -0.07427228
v -0.01818027 -0.00717492 -0.01125228
v -0.01811827 -0.00992292 -0.01990228
v -0.01798827 -0.02282592 -0.03397228
v -0.01796927 -0.08894192 -0.08003628
v -0.01796227 -0.08207392 -0.05505628
v -0.01788727 -0.00942892 0.01505772
v -0.01781027 -0.08860392 -0.07684228
v -0.01775427 -0.08940692 -0.07961628
v -0.01769927 -0.08625592 -0.07196228
v -0.01769627 -0.08649992 -0.07253528
v -0.01763227 -0.07075592 -0.04135428
v -0.01757627 -0.08582492 -0.07178328
v -0.01757327 -0.08590592 -0.07187128
v -0.01750627 -0.08604492 -0.07116628
v -0.01750327 -0.04047192 -0.01139328
v -0.01749527 -0.08919892 -0.08053728
v -0.01749227 -0.08919392 -0.08095328
v -0.01748927 -0.05198092 -0.04902828
v -0.01746027 -0.08333492 -0.05877228
v -0.01735127 -0.00171792 -0.00505728
v -0.01735027 -0.03749692 -0.04370228
v -0.01727427 -0.08976792 -0.08050428
v -0.01715627 -0.08913292 -0.08138028
v -0.01705527 -0.08982992 -0.08072828
v -0.01696227 -0.08951392 -0.08101128
v -0.01679927 -0.08478892 -0.06556428
v -0.01659327 -0.07007892 -0.06408728
v -0.01653627 -0.08636492 -0.07362028
v -0.01649127 -0.05568092 -0.02378128
v -0.01636727 -0.06790792 -0.03723528
v -0.01635027 -0.08649492 -0.08322828
v -0.01632027 -0.07340192 -0.07101628
v -0.01626527 -0.06978192 -0.06151728
v -0.01622727 -0.01766592 0.00412472
v -0.01616727 -0.08581992 -0.07308728
v -0.01616027 -0.08808592 -0.07940928
v -0.01610427 -0.07663792 -0.07605328
v -0.01608727 -0.08828492 -0.08045628
v -0.01605527 -0.08236692 -0.08231728
v -0.01603627 -0.01653592 -0.03056728
v -0.01597527 -0.08558592 -0.07293428
v -0.01596627 -0.08476492 -0.08293728
v -0.01594927 -0.08820292 -0.08003828
v -0.01590927 -0.08838892 -0.07925228
v -0.01589127 -0.08742992 -0.07621528
v -0.01588727 -0.08823292 -0.08093328
v -0.01585327 -0.08807092 -0.08079528
v -0.01580627 -0.06802792 -0.05929428
v -0.01577527 -0.08871692 -0.08002028
v -0.01570027 -0.08873492 -0.08044528
v -0.01566227 -0.07981592 -0.07988628
v -0.01561027 -0.08656992 -0.07623328
v -0.01555027 -0.06568892 -0.03368928
v -0.01550027 -0.08741292 -0.07919628
v -0.01545827 -0.08755292 -0.07959928
v -0.01543527 -0.08640292 -0.07631728
v -0.01542027 -0.08740792 -0.07943928
v -0.01542027 -0.07801192 -0.05226028
v -0.01541527 -0.08784792 -0.08027928
v -0.01533027 -0.08635892 -0.07602728
v -0.01532327 0.00203508 -0.00798528
v -0.01531327 -0.08819292 -0.08002828
v -0.01530727 -0.03533592 -0.00671428
v -0.01527227 -0.05303092 -0.02106128
v -0.01526227 -0.08781192 -0.07937228
v -0.01524427 -0.08550692 -0.07229028
v -0.01521927 -0.07326392 -0.04712328
v -0.01520427 -0.08758492 -0.07889328
v -0.01513427 -0.06343392 -0.05410428
v -0.01505827 -0.08512992 -0.08228628
v -0.01488027 -0.08592892 -0.08192328
v -0.01478527 -0.08006392 -0.05605228
v -0.01472827 -0.04691292 -0.04797528
v -0.01459627 -0.08631492 -0.07594128
v -0.01444427 -0.08705392 -0.07971328
v -0.01438427 -0.00339792 -0.01558728
v -0.01434827 -0.03071292 -0.04091028
v -0.01380627 -0.08355992 -0.08109728
v -0.01377627 -0.08114992 -0.05956628
v -0.01371727 -0.06916092 -0.04252028
v -0.01371427 -0.05935792 -0.05036428
v -0.01371127 -0.08542892 -0.08070028
v -0.01356227 -0.07232592 -0.06016028
v -0.01338427 -0.02792792 -0.00183628
v -0.01337327 -0.07035092 -0.05729228
v -0.01331227 -0.07466992 -0.05458228
v -0.01323727 -0.08315992 -0.06631528
v -0.01318127 -0.06247492 -0.02992228
v -0.01312227 -0.01048092 -0.02694428
v -0.01305927 -0.07329692 -0.06301728
v -0.01299527 -0.08157992 -0.07873228
v -0.01284527 0.00701208 -0.00927228
v -0.01278827 -0.07643992 -0.05804828
v -0.01275927 -0.05058892 -0.01657228
v -0.01275127 -0.07887292 -0.07468628
v -0.01267127 -0.07036592 -0.04922228
v -0.01261527 -0.07644892 -0.06972428
v -0.01257227 -0.06726792 -0.05212228
v -0.01245827 -0.05702792 -0.04926028
v -0.01218827 -0.02115592 0.00410672
v -0.01214827 -0.06534592 -0.03535628
v -0.01200227 -0.07748992 -0.06130628
v -0.01199727 -0.06600592 -0.03838328
v -0.01193127 -0.08379192 -0.07706328
v -0.01193027 -0.02393992 -0.03770728
v -0.01183227 -0.06234492 -0.04874528
v -0.01166227 -0.08197392 -0.07285028
v -0.01145227 -0.04007792 -0.04558228
v -0.01144627 -0.07997692 -0.06794028
v -0.01134627 -0.05890392 -0.02618428
v -0.01120827 -0.04568492 -0.01212328
v -0.01095527 -0.01962692 0.00856072
v -0.01093427 -0.06645392 -0.04521628
v -0.01075927 -0.06464792 -0.04730528
v -0.01048227 -0.06249092 -0.04749228
v -0.01047027 -0.05930392 -0.04788128
v -0.01012227 0.00415508 -0.01552728
v -0.01005827 -0.01288992 0.01901072
v -0.00985527 -0.00528192 -0.02419228
v -0.00979727 0.01272008 -0.01000128
v -0.00957327 -0.06312692 -0.03266928
v -0.00947327 -0.06113992 -0.04641228
v -0.00946127 -0.06433892 -0.04241728
v -0.00942627 -0.05687392 -0.02407428
v -0.00942027 -0.05167792 -0.04899728
v -0.00925427 -0.06330892 -0.04498928
v -0.00909327 -0.01803592 -0.03465028
v -0.00890727 -0.04009992 -0.00691328
v -0.00879727 -0.06245392 -0.03478128
v -0.00860627 -0.06038192 -0.02921128
v -0.00822427 -0.00090692 -0.02283628
v -0.00819227 -0.03365292 -0.04327128
v -0.00795127 -0.06172592 -0.03824728
v -0.00775127 -0.05554092 -0.04797628
v -0.00741827 -0.03230892 -0.00032328
v -0.00740727 -0.05434092 -0.02135528
v -0.00736427 -0.06144392 -0.04238628
v -0.00709727 -0.05889492 -0.04560228
v -0.00674427 -0.02599092 0.00615572
v -0.00661027 0.01085608 -0.01535628
v -0.00658627 0.00271208 -0.02245228
v -0.00651227 -0.04409692 -0.04732728
v -0.00619327 -0.01245292 -0.03200528
v -0.00555327 0.01814308 -0.01036028
v -0.00547627 -0.06075992 -0.03551428
v -0.00529927 -0.05977392 -0.02884828
v -0.00517827 -0.02756792 -0.04015528
v -0.00504727 -0.01987092 0.01195372
v -0.00449727 -0.00827492 -0.03014828
v -0.00444527 -0.05102092 -0.01776428
v -0.00441827 0.00858408 -0.02114128
v -0.00412327 -0.04984192 -0.04881628
v -0.00409827 -0.06151892 -0.04207928
v -0.00395527 -0.05877492 -0.02739328
v -0.00377527 -0.05794692 -0.04649128
v -0.00328627 -0.00491392 -0.02998528
v -0.00299827 -0.03846692 -0.04463228
v -0.00259627 -0.02198292 -0.03777528
v -0.00246227 -0.06098392 -0.03365128
v -0.00239527 -0.00072392 -0.02993728
v -0.00187827 0.01680308 -0.01450528
v -0.00169527 -0.05692092 -0.02524128
v -0.00164327 0.01431808 -0.01964228
v -0.00143527 -0.06279792 -0.04100728
v -0.00126827 -0.01220192 0.02050372
v -0.00101127 -0.05969192 -0.04692928
v -0.00096527 -0.04434792 -0.01187428
v -0.00059127 0.00585608 -0.02937128
v -0.00036227 -0.05240592 -0.04931428
v -0.00035127 -0.01873792 -0.03671728
v -0.00029927 -0.03306892 -0.00239528
v -8.627e-05 -0.04257592 -0.04633328
v 0.00014373 -0.02472092 0.00561772
v 0.00033673 -0.03328092 -0.04208428
v 0.00050273 -0.06376992 -0.04028628
v 0.00053873 0.02214308 -0.00935828
v 0.00109073 -0.01801092 0.01332872
v 0.00124273 -0.06193492 -0.03194428
v 0.00130273 -0.06117592 -0.04654028
v 0.00144473 -0.02271992 -0.03842228
v 0.00150573 -0.02690092 -0.03984328
v 0.00235973 0.01163608 -0.02878028
v 0.00281973 -0.05494392 -0.02228828
v 0.00319573 -0.03774192 -0.04425028
v 0.00320773 -0.04689392 -0.04846728
v 0.00350773 0.01927708 -0.01694028
v 0.00411673 -0.05655892 -0.04964728
v 0.00417873 -0.01612392 -0.03718628
v 0.00448173 -0.06473792 -0.04361728
v 0.00451673 0.02068908 -0.01247628
v 0.00452673 -0.01108492 -0.03718728
v 0.00469173 -0.00549092 -0.03812528
v 0.00507973 -0.03072992 -0.04167928
v 0.00544373 -0.02466792 -0.03954028
v 0.00573073 -0.06032292 -0.02898828
v 0.00576473 -0.00844792 0.01949072
v 0.00582073 -0.06499592 -0.03791428
v 0.00591573 -0.06290592 -0.04856728
v 0.00593373 -0.02266492 0.00604172
v 0.00597973 0.00137408 -0.03901728
v 0.00653173 -0.03047392 -0.00161728
v 0.00668773 -0.04184992 -0.04688328
v 0.00684773 -0.01455292 0.01297372
v 0.00685073 -0.04075592 -0.01049328
v 0.00701073 -0.05193592 -0.05075228
v 0.00701873 0.02365508 -0.00760328
v 0.00723673 0.01706908 -0.02632228
v 0.00770273 -0.06044292 -0.05223428
v 0.00786573 0.00817308 -0.03820328
v 0.00858373 -0.04994892 -0.01920628
v 0.00930273 -0.03542492 -0.04468728
v 0.00944573 -0.06459392 -0.03505128
v 0.01011373 -0.06831392 -0.04925928
v 0.01021873 -0.06670892 -0.05288128
v 0.01044673 -0.05736192 -0.02697628
v 0.01049573 -0.05608892 -0.05402728
v 0.01056773 -0.04626292 -0.04969328
v 0.01089673 -0.06463192 -0.05641628
v 0.01090573 -0.01880492 0.00518772
v 0.01113873 -0.00349292 0.01682672
v 0.01131473 -0.02958592 -0.04351528
v 0.01136673 -0.06953292 -0.04434228
v 0.01149673 0.01358008 -0.03606928
v 0.01182773 0.02128408 -0.00998728
v 0.01183073 -0.01010492 0.01139772
v 0.01209573 0.01930608 -0.02211928
v 0.01226473 -0.01695992 -0.04228328
v 0.01242273 -0.02295992 -0.04254628
v 0.01260573 -0.06953792 -0.05662128
v 0.01262073 -0.01125592 -0.04363328
v 0.01274573 -0.06048692 -0.05803028
v 0.01289073 -0.00464892 -0.04530428
v 0.01310973 -0.07123892 -0.05366928
v 0.01315073 -0.02616692 -0.00182328
v 0.01316273 -0.06769492 -0.05965528
v 0.01324373 -0.04035192 -0.04851928
v 0.01367673 0.02201608 -0.00400028
v 0.01367873 -0.06313992 -0.03288028
v 0.01374773 -0.06956792 -0.04133228
v 0.01380373 -0.07041292 -0.05782228
v 0.01382373 -0.03526892 -0.00979828
v 0.01385673 -0.05075092 -0.05455728
v 0.01414073 0.00269008 -0.04595828
v 0.01448573 -0.06401992 -0.06158028
v 0.01475673 -0.01577692 0.00371672
v 0.01479173 -0.07247992 -0.05599928
v 0.01480673 -0.04506192 -0.01785228
v 0.01481673 -0.07047992 -0.06096228
v 0.01538273 -0.07278392 -0.04859128
v 0.01547273 -0.03432392 -0.04747828
v 0.01550373 0.00210308 0.01318672
v 0.01594773 -0.00492092 0.00893072
v 0.01599573 -0.07136292 -0.04467428
v 0.01615873 0.01642408 -0.03177128
v 0.01629773 -0.05476792 -0.05932028
v 0.01664573 -0.02210292 -0.00278528
v 0.01665773 -0.07376192 -0.05989128
v 0.01669873 -0.06735792 -0.06499028
v 0.01691573 -0.04486792 -0.05385628
v 0.01707573 0.00874608 -0.04425228
v 0.01707773 -0.01596092 0.00095072
v 0.01727673 -0.02808392 -0.04698228
v 0.01729673 -0.05211592 -0.02501228
v 0.01746873 -0.06794892 -0.03855128
v 0.01766373 -0.01206192 0.00302872
v 0.01775973 -0.07497892 -0.06269028
v 0.01792673 -0.05865892 -0.06345128
v 0.01796573 0.01827008 -0.01775128
v 0.01801173 -0.07483492 -0.05126628
v 0.01824673 -0.06990092 -0.06634828
v 0.01826673 -0.02244992 -0.04726728
v 0.01876473 0.01884508 0.00050072
v 0.01901773 -0.01993392 -0.00358828
v 0.01906473 0.00801308 0.00955172
v 0.01915173 -0.01644892 -0.04850428
v 0.01933073 -0.07097392 -0.06794728
v 0.01934373 -0.07192892 -0.04406828
v 0.01951173 -0.03884592 -0.05303428
v 0.01951573 -0.00776192 0.00238672
v 0.01955873 0.01729508 -0.00732428
v 0.01959373 -0.01072292 -0.05033928
v 0.01978873 -0.06246992 -0.06654328
v 0.01980473 -0.07659292 -0.05513228
v 0.01992873 0.00299708 0.00446372
v 0.01996773 -0.04967792 -0.05955928
v 0.02007673 -0.00441292 -0.05168528
v 0.02039873 -0.03051092 -0.00846128
v 0.02044773 -0.07527392 -0.07459628
v 0.02046873 -0.08057192 -0.07033928
v 0.02067473 0.01249508 -0.04068628
v 0.02069773 -0.01702092 -0.00341428
v 0.02087273 -0.07773392 -0.05836928
v 0.02090073 0.01411608 0.00545872
v 0.02095173 -0.05883192 -0.03142128
v 0.02113473 -0.02636192 -0.01117928
v 0.02120973 -0.00723492 -2.79999999964e-07
v 0.02148573 -0.05575592 -0.06442928
v 0.02160173 0.00632408 0.00258572
v 0.02167973 0.01569408 -0.02733228
v 0.02171673 -0.00425992 0.00012072
v 0.02180773 -0.03286092 -0.05287228
v 0.02183873 -0.06474092 -0.03630428
v 0.02187673 -0.03981492 -0.01683628
v 0.02207373 1.308e-05 0.00049172
v 0.02212873 0.00275908 -0.05124428
v 0.02215473 -0.01364192 -0.00373528
v 0.02234773 0.01197308 -0.00157228
v 0.02264573 -0.06559892 -0.06861628
v 0.02288773 0.01384108 -0.01186128
v 0.02299073 -0.04389292 -0.05952128
v 0.02310673 -0.05883792 -0.06698028
v 0.02323873 -0.02702292 -0.05335128
v 0.02330773 -0.05143592 -0.06410528
v 0.02331573 -0.08547892 -0.07994928
v 0.02335073 -0.08024992 -0.08272328
v 0.02341873 -0.01060592 -0.00443128
v 0.02348573 0.00348708 -0.00099928
v 0.02353273 -0.05467292 -0.06560328
v 0.02387973 -0.06947392 -0.04120928
v 0.02398173 -0.08240992 -0.06661128
v 0.02411173 -0.02301692 -0.01088128
v 0.02419973 -0.05983992 -0.03418828
v 0.02428673 -0.04667292 -0.02417728
v 0.02428873 -0.00719092 -0.00469528
v 0.02440273 -0.08710292 -0.08432028
v 0.02440873 -0.03438692 -0.01848428
v 0.02449773 -0.08210292 -0.08579128
v 0.02450573 -0.06701892 -0.07010128
v 0.02453873 -0.02101992 -0.05434328
v 0.02475773 -0.05616792 -0.06699628
v 0.02485273 -0.07248592 -0.04553728
v 0.02491473 -0.07065192 -0.07629628
v 0.02494773 -0.08365192 -0.08942228
v 0.02504573 -0.04752092 -0.06421428
v 0.02506373 0.00846608 -0.00860028
v 0.02513673 -0.01526192 -0.05553328
v 0.02514673 -0.08870092 -0.08829728
v 0.02528473 0.00708408 -0.04897528
v 0.02531373 -0.00316492 -0.00562328
v 0.02535673 -0.03767792 -0.05957928
v 0.02547073 -0.00943292 -0.05655528
v 0.02555973 -0.08610792 -0.09635428
v 0.02566273 0.00465808 -0.00681328
v 0.02575273 -0.05360392 -0.06750728
v 0.02581273 -0.07509092 -0.05114028
v 0.02583173 -0.06198492 -0.03639628
v 0.02584773 0.01251208 -0.03643928
v 0.02585973 0.00036108 -0.00661928
v 0.02611273 -0.07743392 -0.05556128
v 0.02615973 -0.06229192 -0.06832628
v 0.02623673 -0.01912292 -0.01112128
v 0.02627773 -0.09103392 -0.09481128
v 0.02670473 -0.00277592 -0.05757328
v 0.02686273 -0.08868792 -0.10370228
v 0.02699473 -0.07542092 -0.08421528
v 0.02707873 -0.09227992 -0.10192028
v 0.02709673 -0.05693192 -0.03414628
v 0.02710173 -0.01561992 -0.01235928
v 0.02715873 -0.04970692 -0.06782928
v 0.02721473 -0.08768892 -0.07766428
v 0.02729673 0.01042408 -0.02148528
v 0.02731873 -0.08970792 -0.08295728
v 0.02742173 -0.04154692 -0.06488228
v 0.02745573 -0.03173992 -0.06021028
v 0.02749873 -0.08955192 -0.10601428
v 0.02755073 -0.09029192 -0.10886228
v 0.02755173 -0.09363892 -0.10525528
v 0.02760973 -0.05279292 -0.03153628
v 0.02764673 -0.01203592 -0.01348128
v 0.02770373 -0.03025892 -0.01867828
v 0.02784873 -0.09200292 -0.11418228
v 0.02787173 -0.04131092 -0.02580128
v 0.02789273 -0.09482292 -0.10867228
v 0.02793373 -0.07742992 -0.08726028
v 0.02794873 -0.05960192 -0.06817028
v 0.02807473 -0.07912292 -0.09087428
v 0.02824673 -0.08181892 -0.06437028
v 0.02825073 -0.06576992 -0.04022228
v 0.02855173 -0.01381592 -0.06336328
v 0.02858073 -0.09609892 -0.11358228
v 0.02858973 -0.02580092 -0.06161628
v 0.02860473 -0.08187592 -0.09766328
v 0.02870573 -0.09163792 -0.08734028
v 0.02873173 -0.02032092 -0.06253028
v 0.02879973 -0.06496692 -0.06838728
v 0.02882473 -0.09327192 -0.11907328
v 0.02883273 -0.05865592 -0.03649628
v 0.02906273 -0.03721592 -0.06595528
v 0.02916173 -0.09686792 -0.11872228
v 0.02919373 -0.05696192 -0.06925128
v 0.02932673 -0.06962992 -0.07566328
v 0.02933973 0.00454208 -0.01855828
v 0.02948673 -0.04393192 -0.06859028
v 0.02950073 -0.00657492 -0.06252528
v 0.02955073 -0.09334992 -0.09386428
v 0.02959773 -0.06946492 -0.04454328
v 0.02963173 -0.08472392 -0.10431128
v 0.02967673 -0.00404692 -0.01553828
v 0.02968273 -0.00758192 -0.01372528
v 0.02971673 -0.08902692 -0.07950128
v 0.02974673 -0.09499892 -0.10054828
v 0.02981173 0.00292108 -0.05606128
v 0.02990173 -0.09449692 -0.12269928
v 0.03000273 -0.03687392 -0.02712428
v 0.03003973 7.99999999856e-08 -0.01655028
v 0.03005673 -0.08580892 -0.10631728
v 0.03010973 -0.09031392 -0.08221528
v 0.03014273 -0.03608992 -0.06734028
v 0.03023773 -0.03354692 -0.06672428
v 0.03025173 -0.07285192 -0.05023528
v 0.03025473 -0.08644292 -0.10909928
v 0.03035873 0.00792508 -0.04469428
v 0.03036873 -0.09644292 -0.10452328
v 0.03037073 -0.09784092 -0.12240828
v 0.03040373 -0.05554592 -0.03780528
v 0.03053073 -0.06198792 -0.06636828
v 0.03056873 -0.09125292 -0.08477628
v 0.03065373 -0.07475392 -0.05480628
v 0.03067573 -0.05290292 -0.07115628
v 0.03069873 -0.09747792 -0.10854728
v 0.03073973 -0.03989492 -0.06926128
v 0.03086273 -0.08629192 -0.07407928
v 0.03100673 -0.08758792 -0.11468728
v 0.03105773 -0.02939192 -0.06733228
v 0.03108773 0.00763708 -0.03121828
v 0.03110273 -0.02500292 -0.01832928
v 0.03115573 -0.07394892 -0.08352028
v 0.03128373 -0.01010292 -0.06756728
v 0.03136973 -0.01596692 -0.06896528
v 0.03145273 -0.06216192 -0.04075128
v 0.03146973 -0.09755292 -0.12419828
v 0.03149773 -0.09953292 -0.11976228
v 0.03149773 -0.02118092 -0.01993328
v 0.03150973 -0.09607992 -0.12542528
v 0.03158773 -0.02403992 -0.06831328
v 0.03159573 -0.01937692 -0.06898528
v 0.03161273 -0.09866192 -0.11371828
v 0.03174073 -0.08912792 -0.11930728
v 0.03176773 -0.03774092 -0.07003328
v 0.03189073 -0.04799292 -0.03355928
v 0.03196073 -0.07599892 -0.08733528
v 0.03215173 -0.08815192 -0.07808328
v 0.03220973 -0.01703492 -0.02170128
v 0.03222873 -0.03556092 -0.07054528
v 0.03225073 -0.01796192 -0.06986428
v 0.03231273 -0.09087992 -0.12332928
v 0.03241873 -0.09983792 -0.12379728
v 0.03242473 -0.00043492 -0.06170228
v 0.03246373 -0.07772292 -0.09130828
v 0.03252473 -0.05459092 -0.07274728
v 0.03260173 -0.07949392 -0.06456528
v 0.03265973 -0.05986492 -0.06962528
v 0.03272173 -0.09908292 -0.12484728
v 0.03293273 -0.08974792 -0.08175728
v 0.03297173 -0.05863792 -0.04256228
v 0.03297473 -0.08048192 -0.09796328
v 0.03298473 -0.09216292 -0.08878928
v 0.03309073 -0.06564392 -0.04532128
v 0.03312573 0.00172908 -0.02828928
v 0.03320873 -0.03196792 -0.07137428
v 0.03331573 -0.09100592 -0.08496728
v 0.03340073 -0.01651092 -0.07123228
v 0.03343373 -0.01216292 -0.07069628
v 0.03345173 -0.04742092 -0.07213628
v 0.03345473 -0.09541192 -0.10003228
v 0.03347073 -0.09351292 -0.09405428
v 0.03347173 -0.09942992 -0.12063828
v 0.03348673 -0.09905992 -0.12096228
v 0.03352373 -0.09908292 -0.12072328
v 0.03356673 -0.06302092 -0.06104628
v 0.03363573 -0.09910692 -0.12086228
v 0.03372573 -0.09286792 -0.12611128
v 0.03372873 -0.07116092 -0.05568528
v 0.03374673 -0.09826792 -0.11769628
v 0.03375873 -0.09951992 -0.12285228
v 0.03377173 -0.10018092 -0.12385128
v 0.03383573 -0.09832392 -0.11781528
v 0.03384273 -0.09674692 -0.10408628
v 0.03384373 -0.06886392 -0.05098728
v 0.03386273 0.00447008 -0.05248628
v 0.03390173 -0.07033792 -0.07183628
v 0.03391073 -0.01904692 -0.07171828
v 0.03394873 -0.09951992 -0.12456528
v 0.03398073 -0.02665092 -0.07200028
v 0.03398673 -0.09971892 -0.12275628
v 0.03402873 -0.09969692 -0.12350928
v 0.03403073 -0.02251992 -0.07226228
v 0.03404773 -0.00767992 -0.02427928
v 0.03408073 -0.09883892 -0.11767228
v 0.03411973 -0.09772892 -0.10777128
v 0.03412773 -0.09993192 -0.12357828
v 0.03419673 -0.08395292 -0.07289928
v 0.03426473 -0.04395092 -0.03469228
v 0.03428773 -0.06172392 -0.04734228
v 0.03431573 -0.05244792 -0.03868028
v 0.03431673 -0.06513392 -0.06071428
v 0.03431873 -0.09989692 -0.12339628
v 0.03431873 -0.09782392 -0.12625628
v 0.03433473 -0.09968392 -0.12425528
v 0.03440773 -0.00330692 -0.06608428
v 0.03443673 -0.00338492 -0.02554028
v 0.03453373 -0.06765492 -0.05791428
v 0.03459673 -0.09817192 -0.11209928
v 0.03460773 -0.08329792 -0.10405028
v 0.03463373 -0.09944992 -0.12392328
v 0.03463573 -0.09951392 -0.12415428
v 0.03464773 -0.09938392 -0.12458728
v 0.03468873 -0.09930892 -0.12323828
v 0.03469673 -0.06498792 -0.05361728
v 0.03469773 -0.08433692 -0.10690228
v 0.03472473 -0.09993092 -0.12412428
v 0.03472673 -0.08519592 -0.11010028
v 0.03487373 -0.09825692 -0.11593928
v 0.03487673 -0.09883292 -0.12085528
v 0.03496273 -0.06285292 -0.05537728
v 0.03498773 -0.09955092 -0.12332028
v 0.03501273 -0.09788892 -0.11619828
v 0.03503173 -0.01160492 -0.02173928
v 0.03506073 -0.04940492 -0.07349028
v 0.03509773 -0.07601892 -0.06524128
v 0.03516373 -0.09970792 -0.12407728
v 0.03521073 0.00489808 -0.04046928
v 0.03521273 -0.09969792 -0.12441128
v 0.03521573 -0.09823992 -0.11827928
v 0.03521773 -0.09784192 -0.11624828
v 0.03540773 -0.08608492 -0.07761128
v 0.03543373 -0.08683592 -0.11529428
v 0.03544173 -0.08999192 -0.12407728
v 0.03547273 -0.06136692 -0.05556228
v 0.03547273 -0.03158192 -0.02683828
v 0.03549373 -0.08846092 -0.11995828
v 0.03553673 -0.09172092 -0.12554628
v 0.03554173 -0.07267092 -0.06763328
v 0.03559673 -0.09777392 -0.11686528
v 0.03560973 -0.05827192 -0.08080328
v 0.03566773 -0.05963792 -0.04804428
v 0.03570773 -0.04391492 -0.07241428
v 0.03576473 -0.09842492 -0.12532628
v 0.03584173 -0.00540692 -0.06923728
v 0.03594873 -0.07536892 -0.08129128
v 0.03607973 -0.09856692 -0.12392528
v 0.03611673 -0.02118292 -0.07445728
v 0.03612073 -0.07628892 -0.08637728
v 0.03613973 -0.09489992 -0.12695028
v 0.03614973 -0.05567892 -0.04331628
v 0.03615673 -0.04098292 -0.07284028
v 0.03616073 -0.03832292 -0.07336928
v 0.03621373 -0.02754092 -0.02909528
v 0.03627373 -0.05911792 -0.04944828
v 0.03628073 -0.06192592 -0.06222928
v 0.03639073 -0.08788092 -0.08183128
v 0.03641373 -0.09873392 -0.12468428
v 0.03645973 -0.03472992 -0.07482928
v 0.03647573 -0.01360592 -0.07460328
v 0.03648173 -0.06354692 -0.07824728
v 0.03649973 0.00101308 -0.05842428
v 0.03653573 -0.09864092 -0.12440128
v 0.03671473 -0.09871992 -0.12366628
v 0.03673273 -0.09669592 -0.11566028
v 0.03677773 -0.06034092 -0.05603928
v 0.03678273 -0.09873992 -0.12497628
v 0.03679273 -0.08032392 -0.07354228
v 0.03684073 -0.09282992 -0.12628928
v 0.03689473 -0.09796692 -0.12138928
v 0.03690073 -0.09671992 -0.11568028
v 0.03692173 -0.09057892 -0.08982228
v 0.03693573 -0.09688792 -0.11647728
v 0.03697073 -0.08923492 -0.08559728
v 0.03703573 -0.09385092 -0.10041328
v 0.03710373 -0.09876792 -0.12455128
v 0.03710373 -0.08174992 -0.09733628
v 0.03710673 -0.00067692 -0.03733828
v 0.03711473 -0.07908992 -0.09048928
v 0.03715873 -0.09876592 -0.12477728
v 0.03718073 -0.09663392 -0.11503328
v 0.03718073 -0.09195592 -0.09471028
v 0.03726373 -0.09482892 -0.10438228
v 0.03728373 -0.01734892 -0.07519328
v 0.03732173 -0.09125192 -0.12466928
v 0.03735973 -0.07728692 -0.07645928
v 0.03739673 -0.05754192 -0.04853028
v 0.03744673 -0.09569992 -0.10774428
v 0.03746573 -0.02268492 -0.03062028
v 0.03748573 -0.00769492 -0.07332928
v 0.03748873 -0.09730492 -0.11822328
v 0.03750373 -0.09571792 -0.12589828
v 0.03754273 -0.07722892 -0.12997928
v 0.03758873 -0.09621992 -0.11176128
v 0.03764073 -0.07298492 -0.13014228
v 0.03764373 -0.07657192 -0.12432028
v 0.03768173 -0.03037092 -0.07555028
v 0.03772173 -0.04987592 -0.04004928
v 0.03777873 -0.09410592 -0.12589128
v 0.03785773 -0.08261692 -0.07834928
v 0.03788573 -0.07135892 -0.12474928
v 0.03789873 -0.07437592 -0.13481328
v 0.03791673 -0.07749292 -0.08246128
v 0.03792873 -0.01366292 -0.07660028
v 0.03799673 -0.08974192 -0.12095928
v 0.03801373 -0.09271692 -0.12506228
v 0.03805073 -0.07809292 -0.13403928
v 0.03805073 -0.02569092 -0.07519728
v 0.03807473 -0.08648892 -0.11021228
v 0.03814573 -0.09451392 -0.12545428
v 0.03814573 0.00220908 -0.04822228
v 0.03814973 -0.09352092 -0.12466728
v 0.03816773 -0.09433492 -0.12581328
v 0.03817173 -0.09351992 -0.12444828
v 0.03817573 -0.08488492 -0.10296028
v 0.03818373 -0.09364892 -0.12481728
v 0.03820573 -0.09386692 -0.12549728
v 0.03821673 -0.08574792 -0.10651028
v 0.03826573 -0.09602792 -0.12452728
v 0.03828573 -0.07510692 -0.11841028
v 0.03829173 -0.09442392 -0.12519128
v 0.03829273 -0.00033692 -0.06313228
v 0.03831473 -0.09601992 -0.12533728
v 0.03837073 -0.09244292 -0.12212428
v 0.03841473 -0.09437792 -0.12450128
v 0.03841673 -0.09264392 -0.12209828
v 0.03842273 -0.07817792 -0.08523428
v 0.03843073 -0.09231492 -0.12191828
v 0.03844573 -0.09588292 -0.12501228
v 0.03846573 -0.07764492 -0.13623928
v 0.03848373 -0.09195792 -0.12201428
v 0.03849073 -0.09357492 -0.12470228
v 0.03850573 -0.09334492 -0.12426528
v 0.03850673 -0.09387292 -0.12531528
v 0.03851073 -0.09433592 -0.11618228
v 0.03855073 -0.09592792 -0.12553328
v 0.03856273 -0.01183192 -0.03403728
v 0.03856873 -0.07928092 -0.08031928
v 0.03858073 -0.08794992 -0.11520128
v 0.03859773 -0.09452192 -0.11625228
v 0.03862073 -0.09538392 -0.12183928
v 0.03863573 -0.09431892 -0.12451928
v 0.03866273 -0.09352792 -0.12199328
v 0.03866773 -0.03671592 -0.07607928
v 0.03867573 -0.09199992 -0.11891528
v 0.03868273 -0.06217192 -0.08941828
v 0.03868473 -0.07939392 -0.08772728
v 0.03868573 -0.09598692 -0.12433928
v 0.03870973 -0.09226892 -0.11905028
v 0.03871173 -0.09469992 -0.11894128
v 0.03872873 -0.05382392 -0.08114128
v 0.03873673 -0.00870492 -0.07528728
v 0.03874773 -0.09277692 -0.11717228
v 0.03875473 -0.07360492 -0.11445028
v 0.03876873 -0.09296592 -0.11939328
v 0.03877773 -0.09437992 -0.12557028
v 0.03880573 -0.09447292 -0.12526728
v 0.03881273 -0.00678292 -0.03468828
v 0.03881773 -0.09595492 -0.12530828
v 0.03882273 -0.09595092 -0.12508928
v 0.03882673 -0.04531192 -0.03786228
v 0.03883673 -0.09410692 -0.11542928
v 0.03885173 -0.09444392 -0.11701128
v 0.03887073 -0.06641692 -0.08735528
v 0.03887973 -0.09317192 -0.11785528
v 0.03890973 -0.07001192 -0.11878228
v 0.03894673 -0.07607792 -0.13707728
v 0.03894973 -0.09300192 -0.11727928
v 0.03897473 -0.08411092 -0.08256828
v 0.03906373 -0.09147592 -0.11863728
v 0.03906973 -0.05314492 -0.04454828
v 0.03909073 -0.07235492 -0.11026328
v 0.03909373 -0.08021692 -0.13125428
v 0.03913873 -0.09219192 -0.11678528
v 0.03932073 -0.02332592 -0.11674528
v 0.03933173 -0.07087692 -0.10320328
v 0.03933873 -0.06902092 -0.11552028
v 0.03938373 -0.09081992 -0.10076728
v 0.03940573 -0.01584792 -0.03206828
v 0.03941073 -0.06793192 -0.11177628
v 0.03941173 -0.03758192 -0.03524528
v 0.03941773 -0.01919292 -0.11757828
v 0.03942773 -0.08008992 -0.13486428
v 0.03942873 -0.02375592 -0.11973628
v 0.03942873 -0.02019892 -0.12059728
v 0.03945173 -0.08482692 -0.09665428
v 0.03945573 -0.01511892 -0.08141428
v 0.03948373 -0.08684292 -0.09055228
v 0.03949473 -0.08854592 -0.09551628
v 0.03951073 -0.04656992 -0.07249028
v 0.03952773 -0.09336492 -0.11195328
v 0.03952873 -0.09271292 -0.10833828
v 0.03953173 -0.09175892 -0.10477628
v 0.03954873 -0.08026192 -0.08386128
v 0.03955773 -0.06821892 -0.09210628
v 0.03956373 -0.08251692 -0.09110628
v 0.03956873 -0.08536892 -0.08627328
v 0.03961273 -0.06620992 -0.10445028
v 0.03966773 -0.07944292 -0.13688528
v 0.03972273 -0.05504792 -0.04871428
v 0.03978173 -0.06945792 -0.09673428
v 0.03980173 -0.06359092 -0.09326128
v 0.03981173 -0.08760892 -0.10174928
v 0.03981273 -0.00246892 -0.06711328
v 0.03981473 -0.09033092 -0.11316728
v 0.03985973 -0.08922992 -0.10923228
v 0.03990773 -0.03163092 -0.07755328
v 0.03995873 -0.08847592 -0.10563528
v 0.03995973 -0.08126192 -0.08708528
v 0.03996573 -0.02228792 -0.11203028
v 0.03996773 -0.01880292 -0.07477928
v 0.04000173 -0.01805892 -0.11334528
v 0.04002773 -0.02355492 -0.07472628
v 0.04013173 -0.06485092 -0.09793828
v 0.04020073 -0.05081992 -0.13412128
v 0.04023073 -0.06655892 -0.07520828
v 0.04025073 -0.05019792 -0.12954128
v 0.04033973 -0.07978692 -0.12522328
v 0.04038273 -0.02429892 -0.12230528
v 0.04049273 -0.03243492 -0.03738428
v 0.04050273 -0.02076892 -0.12263628
v 0.04052373 -0.07114192 -0.13519128
v 0.04052473 -0.00448392 -0.07109628
v 0.04061573 -0.04289592 -0.03827528
v 0.04067673 -0.08051392 -0.13539328
v 0.04068373 -0.07889292 -0.11884628
v 0.04069673 -0.02101492 -0.10777028
v 0.04071773 -8.92e-06 -0.05464028
v 0.04071973 -0.01011192 -0.08173128
v 0.04072773 -0.06947692 -0.13124128
v 0.04083273 -0.01877092 -0.08000428
v 0.04086073 -0.07864992 -0.13849628
v 0.04092873 -0.04739092 -0.04086728
v 0.04093473 -0.07753592 -0.11425628
v 0.04093473 -0.05807392 -0.05552928
v 0.04097373 -0.04976192 -0.12418028
v 0.04105173 -0.08013192 -0.13660928
v 0.04105973 -0.08019692 -0.13238428
v 0.04111173 -0.02820292 -0.07634428
v 0.04111573 -0.04137792 -0.07249128
v 0.04113573 -0.01666492 -0.10852728
v 0.04113973 -0.02545592 -0.12144828
v 0.04118873 -0.00561392 -0.07463028
v 0.04120373 -0.06762092 -0.12589728
v 0.04121973 -0.07991792 -0.13274728
v 0.04128373 -0.07998292 -0.13242728
v 0.04131073 -0.04433492 -0.07013328
v 0.04131973 -0.01634192 -0.08758828
v 0.04132773 -0.02038692 -0.10546428
v 0.04133873 -0.01836492 -0.12176728
v 0.04137173 -0.02627892 -0.11985728
v 0.04137873 -0.07627592 -0.10973428
v 0.04139773 -0.07998592 -0.13265228
v 0.04142473 -0.08032392 -0.13482128
v 0.04149073 -0.04695792 -0.13481828
v 0.04149073 -0.01961992 -0.12287428
v 0.04149473 -0.02620092 -0.11684828
v 0.04153773 -0.05186992 -0.13754528
v 0.04155673 -0.06018892 -0.06088228
v 0.04159373 -0.00388092 -0.04575728
v 0.04159973 -0.01848392 -0.09769128
v 0.04160373 -0.05427792 -0.13401528
v 0.04160373 -0.01989792 -0.10363828
v 0.04161273 -0.07263092 -0.13776728
v 0.04162173 -0.08049692 -0.13547228
v 0.04166573 -0.04581892 -0.13033428
v 0.04169973 -0.01706592 -0.11924728
v 0.04170873 -0.08052592 -0.13471828
v 0.04172973 -0.08072092 -0.13553728
v 0.04174773 -0.04005492 -0.08338128
v 0.04176073 -0.05394392 -0.13013528
v 0.04180473 -0.05792692 -0.09018828
v 0.04183673 -0.08052492 -0.13630728
v 0.04188673 -0.05372392 -0.13635628
v 0.04195873 -0.08030392 -0.13675528
v 0.04196173 -0.04885992 -0.11786228
v 0.04200873 -0.08015792 -0.13604728
v 0.04202473 -0.08070992 -0.13541128
v 0.04204273 -0.01708492 -0.09235028
v 0.04205073 -0.08026492 -0.13629728
v 0.04208073 -0.02530792 -0.11203628
v 0.04210773 -0.01615592 -0.10615828
v 0.04213373 -0.07935392 -0.12966728
v 0.04213373 -0.07205292 -0.09095528
v 0.04214773 -0.08005292 -0.13537928
v 0.04215373 -0.07489692 -0.10287028
v 0.04216073 -0.02766692 -0.03965128
v 0.04218373 -0.01663892 -0.08943728
v 0.04220073 -0.07940792 -0.12977728
v 0.04221273 -0.01980092 -0.12354628
v 0.04224273 -0.01165592 -0.08799228
v 0.04228973 -0.08072692 -0.13618428
v 0.04230273 -0.00139392 -0.05967428
v 0.04230673 -0.01570192 -0.10444028
v 0.04231273 -0.07063792 -0.08567428
v 0.04231473 -0.04516492 -0.12492828
v 0.04231873 -0.01578192 -0.11502628
v 0.04232773 -0.01410292 -0.09843128
v 0.04240373 -0.07945592 -0.13803628
v 0.04240373 -0.06631192 -0.11993728
v 0.04240673 -0.07953192 -0.12929128
v 0.04242073 -0.02418092 -0.10804528
v 0.04244973 -0.02135892 -0.12435228
v 0.04246173 -0.05001092 -0.04492328
v 0.04254373 -0.02592892 -0.12229828
v 0.04255673 -0.08054192 -0.13657028
v 0.04257273 -0.04806192 -0.13814728
v 0.04259373 -0.08024392 -0.13533228
v 0.04262773 -0.04837992 -0.11502228
v 0.04265973 -0.02462692 -0.12372428
v 0.04267773 -0.08049792 -0.13621328
v 0.04270273 -0.01856192 -0.12266728
v 0.04277873 -0.01285192 -0.09287228
v 0.04288073 -0.01243292 -0.08993728
v 0.04291073 -0.06550392 -0.11658228
v 0.04291173 -0.07361792 -0.09602128
v 0.04293873 -0.05363992 -0.12432028
v 0.04295273 -0.05975892 -0.09390328
v 0.04295773 -0.07975292 -0.13288828
v 0.04298973 -0.04405592 -0.04167828
v 0.04298973 -0.02672092 -0.12045928
v 0.04300673 -0.04437392 -0.11884928
v 0.04303273 -0.03518892 -0.08537128
v 0.04303373 -0.06271692 -0.10551128
v 0.04304073 -0.06440492 -0.11301128
v 0.04310173 -0.04756392 -0.11206828
v 0.04311573 -0.04068692 -0.04277428
v 0.04316573 -0.02361192 -0.10548128
v 0.04322073 -0.01490492 -0.04258028
v 0.04324673 -0.02580792 -0.12284028
v 0.04325773 -0.06139592 -0.09874428
v 0.04326373 -0.07203492 -0.13763328
v 0.04329573 -0.02043992 -0.12381928
v 0.04329773 -0.02015292 -0.08703928
v 0.04329973 -0.07956992 -0.13705528
v 0.04332373 -0.07946692 -0.13678728
v 0.04342673 -0.07518792 -0.13961028
v 0.04346973 -0.07882692 -0.12802928
v 0.04347173 -0.04406292 -0.11596028
v 0.04347973 -0.05190692 -0.08021428
v 0.04348573 -0.07927892 -0.13030428
v 0.04351573 -0.01445092 -0.10980128
v 0.04356673 -0.02304592 -0.10285928
v 0.04358573 -0.02075892 -0.12376728
v 0.04359273 -0.04642392 -0.13760728
v 0.04361473 -0.05450892 -0.13732428
v 0.04361673 -0.01941792 -0.12311728
v 0.04363073 -0.02204792 -0.09766828
v 0.04369373 -0.01715692 -0.12037928
v 0.04369473 -0.00977792 -0.04343828
v 0.04369973 -0.05247392 -0.04915128
v 0.04372273 -0.00300292 -0.06405828
v 0.04373073 -0.07957092 -0.13731828
v 0.04374273 -0.02647392 -0.12152228
v 0.04378073 -0.07891092 -0.12829928
v 0.04381073 -0.02618592 -0.12190828
v 0.04382673 -0.07909692 -0.12699228
v 0.04385173 -0.02709392 -0.11811528
v 0.04385273 -0.02037992 -0.08919328
v 0.04385673 -0.02053592 -0.12391328
v 0.04386973 -0.03601592 -0.04416328
v 0.04387373 -0.07955692 -0.13689728
v 0.04387573 -0.04638992 -0.10537828
v 0.04388173 -0.07925192 -0.13624828
v 0.04389473 -0.02569692 -0.12268028
v 0.04390273 -0.05539492 -0.13547628
v 0.04391073 -0.02072992 -0.09202628
v 0.04391873 -0.01984492 -0.12299028
v 0.04394873 -0.07018392 -0.13629128
v 0.04395773 -0.02602592 -0.12152328
v 0.04396273 -0.02603992 -0.12199628
v 0.04396373 -0.02003092 -0.12357328
v 0.04399373 -0.02594192 -0.12265028
v 0.04399973 -0.07956892 -0.13711328
v 0.04400273 -0.02571492 -0.12305528
v 0.04407573 -0.05292292 -0.11792728
v 0.04408173 -0.02449592 -0.12389028
v 0.04408173 -0.02136592 -0.12429428
v 0.04408373 -0.01980692 -0.12308928
v 0.04408973 -0.07872892 -0.12889728
v 0.04411673 -0.00727792 -0.08125328
v 0.04413173 -0.01986892 -0.04111628
v 0.04413373 -0.01972192 -0.12283728
v 0.04414073 -0.05545492 -0.13172028
v 0.04414273 -0.04318992 -0.11299028
v 0.04415273 -0.02563192 -0.12262428
v 0.04416473 -0.07942592 -0.11848328
v 0.04419973 -0.04486692 -0.13615828
v 0.04421273 -0.07975892 -0.12350228
v 0.04421273 -0.00459292 -0.05255428
v 0.04421673 -0.02612492 -0.12146628
v 0.04423173 -0.07327892 -0.13878728
v 0.04429173 -0.07928392 -0.13593728
v 0.04429673 -0.02007092 -0.12354628
v 0.04429773 -0.02610592 -0.12200428
v 0.04430573 -0.06888192 -0.13263228
v 0.04433873 -0.01979692 -0.12306628
v 0.04434573 -0.02036492 -0.12346528
v 0.04435373 -0.01397592 -0.10698528
v 0.04436073 -0.02179692 -0.12396828
v 0.04436573 -0.02596692 -0.11988228
v 0.04437073 -0.07263792 -0.08768728
v 0.04437873 -0.02599092 -0.12263528
v 0.04438373 -0.00749292 -0.04927028
v 0.04439773 -0.02556992 -0.12223128
v 0.04440173 -0.05296492 -0.13901628
v 0.04442373 -0.01961992 -0.12273528
v 0.04442473 -0.02596192 -0.11970828
v 0.04443573 -0.02459892 -0.12348628
v 0.04445973 -0.04355192 -0.06552828
v 0.04446473 -0.02048292 -0.12383928
v 0.04449273 -0.04389292 -0.07995028
v 0.04451673 -0.04350192 -0.09217528
v 0.04452573 -0.02647892 -0.11910628
v 0.04452773 -0.02577492 -0.12304028
v 0.04452973 -0.04372092 -0.13193528
v 0.04456373 -0.02032992 -0.12299728
v 0.04458573 -0.07863692 -0.11417128
v 0.04461073 -0.07363392 -0.09051428
v 0.04461773 -0.06590492 -0.07268428
v 0.04463373 -0.01353892 -0.10518228
v 0.04464873 -0.01826292 -0.12096428
v 0.04466273 -0.02046292 -0.12361328
v 0.04466473 -0.02574792 -0.12285328
v 0.04471073 -0.02567292 -0.12226228
v 0.04472973 -0.05233592 -0.11481628
v 0.04474073 -0.05501592 -0.13608028
v 0.04475373 -0.00469292 -0.06904328
v 0.04477273 -0.02163692 -0.12401628
v 0.04477873 -0.02448092 -0.12293528
v 0.04481373 -0.02441892 -0.12327828
v 0.04485673 -0.02445292 -0.12364728
v 0.04485673 -0.02028192 -0.12301528
v 0.04485773 -0.05458592 -0.13756628
v 0.04486173 -0.02161992 -0.12372828
v 0.04488673 -0.01919092 -0.12096628
v 0.04489973 -0.02744092 -0.04367828
v 0.04492073 -0.07632392 -0.13887428
v 0.04495073 -0.01921192 -0.12079528
v 0.04495273 -0.07420792 -0.09350328
v 0.04496073 -0.06729692 -0.12694828
v 0.04497873 -0.04617692 -0.04589128
v 0.04498973 -0.04189992 -0.10623428
v 0.04506073 -0.02619392 -0.11333828
v 0.04506473 -0.07858992 -0.13338928
v 0.04509173 -0.02162292 -0.12389428
v 0.04511873 -0.01925792 -0.12072728
v 0.04511873 -0.01183792 -0.09943528
v 0.04515673 -0.05497792 -0.05512828
v 0.04516473 -0.04424892 -0.09501228
v 0.04516873 -0.07201692 -0.13751928
v 0.04517073 -0.03220792 -0.04639228
v 0.04518473 -0.02160992 -0.12376528
v 0.04519073 -0.04497892 -0.09873128
v 0.04519073 -0.02543092 -0.12014528
v 0.04519673 -0.02437792 -0.12354428
v 0.04519673 -0.01594192 -0.11629728
v 0.04521773 -0.00908292 -0.08789428
v 0.04522073 -0.02506292 -0.11749628
v 0.04523773 -0.02438092 -0.12339428
v 0.04525173 -0.05152792 -0.11138228
v 0.04525373 -0.04220092 -0.04765428
v 0.04526673 -0.02168092 -0.12346628
v 0.04529473 -0.07758192 -0.10965628
v 0.04531873 -0.05445592 -0.13691028
v 0.04534373 -0.05440592 -0.13617528
v 0.04539373 -0.05725292 -0.06075028
v 0.04540273 -0.00965092 -0.04828028
v 0.04543673 -0.02574792 -0.11647228
v 0.04544473 -0.05464792 -0.13698528
v 0.04548273 -0.02372592 -0.07123128
v 0.04548573 -0.05477892 -0.13247628
v 0.04552673 -0.05434392 -0.13780528
v 0.04553173 -0.02159492 -0.12326828
v 0.04554273 -0.07746392 -0.12772028
v 0.04554473 -0.04881892 -0.13986028
v 0.04554573 -0.01052392 -0.09396228
v 0.04554773 -0.05423992 -0.13408728
v 0.04555673 -0.00973792 -0.09063528
v 0.04556173 -0.02439592 -0.12287528
v 0.04558973 -0.03827292 -0.09296028
v 0.04558973 -0.01969192 -0.12107128
v 0.04559173 -0.02104392 -0.07796728
v 0.04559673 -0.07489592 -0.13821328
v 0.04559773 -0.05450992 -0.13613028
v 0.04560473 -0.02537492 -0.10883928
v 0.04562473 -0.07748192 -0.12842928
v 0.04562473 -0.03818992 -0.04998228
v 0.04562773 -0.07715592 -0.13782728
v 0.04563173 -0.04582692 -0.06592228
v 0.04564873 -0.05428892 -0.13382028
v 0.04564973 -0.01783192 -0.11855128
v 0.04566773 -0.04275992 -0.12668728
v 0.04567673 -0.02084692 -0.07119528
v 0.04568873 -0.01877692 -0.11861028
v 0.04569673 -0.07745892 -0.12773528
v 0.04569773 -0.05403492 -0.13767528
v 0.04571573 -0.05426192 -0.13397728
v 0.04572773 -0.07566992 -0.13791828
v 0.04575073 -0.00773092 -0.05176828
v 0.04575473 -0.05404192 -0.13793628
v 0.04575673 -0.04674992 -0.13884828
v 0.04576273 -0.05454792 -0.13688728
v 0.04576573 -0.05398192 -0.13827228
v 0.04577673 -0.07703492 -0.13752828
v 0.04580973 -0.07550092 -0.13822828
v 0.04583973 -0.06595192 -0.12127028
v 0.04584573 -0.01896192 -0.11876028
v 0.04585373 -0.07358992 -0.13738628
v 0.04586573 -0.07706492 -0.13799128
v 0.04588173 -0.04209792 -0.06099828
v 0.04588173 -0.02474592 -0.11817528
v 0.04592373 -0.02401492 -0.04423528
v 0.04595473 -0.07783392 -0.13035028
v 0.04597973 -0.04174692 -0.12043228
v 0.04598573 -0.07696992 -0.13688628
v 0.04599673 -0.05497492 -0.12585528
v 0.04600473 -0.05444292 -0.13776928
v 0.04602973 -0.05387292 -0.13685228
v 0.04605473 -0.03954092 -0.09572128
v 0.04605573 -0.07494592 -0.13784328
v 0.04607573 -0.04174392 -0.06652928
v 0.04608573 -0.07452092 -0.13705728
v 0.04609473 -0.07559892 -0.13751128
v 0.04609473 -0.07471192 -0.13720428
v 0.04610073 -0.07710792 -0.13774528
v 0.04610173 -0.07462692 -0.13686528
v 0.04610273 -0.04074792 -0.05662828
v 0.04610673 -0.07710692 -0.13752228
v 0.04612573 -0.05043192 -0.10521128
v 0.04613073 -0.04371992 -0.06074528
v 0.04615073 -0.00558592 -0.07261628
v 0.04619573 -0.07626592 -0.10320228
v 0.04621773 -0.02427192 -0.11639628
v 0.04623273 -0.04161192 -0.05517028
v 0.04623673 -0.00488592 -0.05709228
v 0.04625573 -0.07563592 -0.13693328
v 0.04625973 -0.07689692 -0.13661028
v 0.04626573 -0.07500592 -0.13763328
v 0.04629273 -0.02426392 -0.11667028
v 0.04630673 -0.01356692 -0.05035228
v 0.04631573 -0.02129792 -0.12123328
v 0.04631973 -0.07466792 -0.13707228
v 0.04633073 -0.01944292 -0.11903028
v 0.04634473 -0.07559992 -0.13784528
v 0.04634973 -0.04534592 -0.13721328
v 0.04636373 -0.07354892 -0.13458828
v 0.04636773 -0.05402492 -0.13695528
v 0.04637673 -0.05413892 -0.13793028
v 0.04638173 -0.07447492 -0.13663928
v 0.04638373 -0.07062392 -0.13363128
v 0.04638773 -0.04850192 -0.05084128
v 0.04639073 -0.02388992 -0.12064328
v 0.04639373 -0.04031592 -0.09949428
v 0.04640473 -0.04122992 -0.11728328
v 0.04641173 -0.07567592 -0.13753728
v 0.04643073 -0.06495192 -0.11715428
v 0.04643473 -0.04433892 -0.05305128
v 0.04644273 -0.05411392 -0.13825128
v 0.04646673 -0.02473792 -0.10585728
v 0.04648573 -0.02411392 -0.11710228
v 0.04649873 -0.07552192 -0.13683328
v 0.04650973 -0.07750392 -0.12618828
v 0.04652873 -0.07043792 -0.08250728
v 0.04653973 -0.04011892 -0.06096628
v 0.04654673 -0.02473792 -0.11518928
v 0.04655173 -0.07390692 -0.13443328
v 0.04655773 -0.01412992 -0.11063428
v 0.04655873 -0.05336892 -0.13891728
v 0.04656273 -0.05668692 -0.08950528
v 0.04657373 -0.07340292 -0.13429228
v 0.04657573 -0.05367392 -0.13071228
v 0.04658373 -0.04768792 -0.13921228
v 0.04661973 -0.01698292 -0.04974828
v 0.04662373 -0.03872092 -0.05546728
v 0.04662573 -0.05370492 -0.13083228
v 0.04666173 -0.06393692 -0.11295328
v 0.04667773 -0.03405192 -0.05056628
v 0.04669673 -0.07321392 -0.13441028
v 0.04669673 -0.01857492 -0.11714428
v 0.04669973 -0.02930992 -0.04734128
v 0.04671673 -0.01921192 -0.11728128
v 0.04675773 -0.07621892 -0.13415228
v 0.04676773 -0.01949892 -0.11776028
v 0.04676873 -0.01107592 -0.05037128
v 0.04677773 -0.05281492 -0.13859428
v 0.04683273 -0.01929992 -0.11729628
v 0.04685173 -0.03206792 -0.08501328
v 0.04686073 -0.05273692 -0.13789628
v 0.04688373 -0.07469392 -0.13433728
v 0.04691173 -0.05271492 -0.13836528
v 0.04693473 -0.02411692 -0.10241728
v 0.04695373 -0.05433692 -0.12939928
v 0.04696073 -0.07324992 -0.13149128
v 0.04698173 -0.07345292 -0.13160728
v 0.04698573 -0.05366092 -0.13396328
v 0.04701573 -0.05896492 -0.09409128
v 0.04701673 -0.07493692 -0.09764828
v 0.04703973 -0.04067292 -0.11357828
v 0.04706873 -0.05268492 -0.13885628
v 0.04708273 -0.02183392 -0.06596328
v 0.04708773 -0.04744192 -0.09060828
v 0.04709573 -0.06215292 -0.10587528
v 0.04710073 -0.02323592 -0.11827328
v 0.04710273 -0.04671092 -0.05891128
v 0.04710673 -0.07422392 -0.13028328
v 0.04711573 -0.02288792 -0.11607128
v 0.04712073 -0.07410692 -0.13184428
v 0.04712173 -0.04680392 -0.13800828
v 0.04712873 -0.02083092 -0.11863628
v 0.04715173 -0.04885792 -0.09804528
v 0.04715373 -0.04915092 -0.13965028
v 0.04716873 -0.01994492 -0.06585428
v 0.04717973 -0.06069692 -0.09913428
v 0.04719473 -0.02070992 -0.04919228
v 0.04719873 -0.02344992 -0.09773828
v 0.04720273 -0.02287592 -0.11608928
v 0.04720873 -0.02297192 -0.11665128
v 0.04721773 -0.07310092 -0.13114528
v 0.04722673 -0.05096792 -0.05614728
v 0.04728173 -0.04822492 -0.09439528
v 0.04729773 -0.07768692 -0.12356828
v 0.04729773 -0.07396192 -0.12968728
v 0.04733773 -0.07407892 -0.12973828
v 0.04734573 -0.02057192 -0.11638028
v 0.04734873 -0.07547592 -0.13108228
v 0.04735573 -0.05449692 -0.11964128
v 0.04735573 -0.04408792 -0.13330928
v 0.04739673 -0.05263892 -0.13867228
v 0.04741273 -0.04731592 -0.13877228
v 0.04741273 -0.00519692 -0.06130628
v 0.04741573 -0.05266592 -0.13846828
v 0.04742073 -0.07518092 -0.12854328
v 0.04742073 -0.04714292 -0.13788928
v 0.04742473 -0.05274092 -0.13760128
v 0.04742773 -0.07506092 -0.12850728
v 0.04744473 -0.02245892 -0.08872228
v 0.04744673 -0.07514992 -0.12922028
v 0.04745373 -0.04721592 -0.13805728
v 0.04745973 -0.01490392 -0.05519228
v 0.04748973 -0.04718992 -0.13769228
v 0.04749873 -0.01361492 -0.10776328
v 0.04750473 -0.04798892 -0.13894928
v 0.04751373 -0.04785492 -0.13923028
v 0.04751773 -0.04934592 -0.06380228
v 0.04753573 -0.02063892 -0.11638628
v 0.04755073 -0.07260292 -0.08652428
v 0.04756773 -0.02057392 -0.11692428
v 0.04761073 -0.05346192 -0.06146928
v 0.04766473 -0.02205292 -0.08582428
v 0.04767673 -0.03619892 -0.05555028
v 0.04777273 -0.04709492 -0.13793528
v 0.04777573 -0.02476392 -0.11243228
v 0.04777673 -0.04728592 -0.13859528
v 0.04778473 -0.04782892 -0.13851728
v 0.04778673 -0.07777692 -0.11931428
v 0.04779973 -0.02252592 -0.09199828
v 0.04782273 -0.01722192 -0.11484928
v 0.04782373 -0.07365392 -0.12878028
v 0.04784073 -0.04696192 -0.13745628
v 0.04784373 -0.01883292 -0.06035928
v 0.04784473 -0.01849492 -0.05499528
v 0.04786373 -0.06952492 -0.12817528
v 0.04791473 -0.01566192 -0.05964128
v 0.04794673 -0.01300992 -0.10519928
v 0.04795173 -0.01193492 -0.05495928
v 0.04799273 -0.04791592 -0.13784928
v 0.04800073 -0.05301392 -0.13107228
v 0.04803673 -0.04943392 -0.13906728
v 0.04806073 -0.07399192 -0.09035028
v 0.04806073 -0.05265092 -0.12910028
v 0.04806773 -0.02054192 -0.06124928
v 0.04806873 -0.02477392 -0.04783428
v 0.04806873 -0.02035392 -0.11539228
v 0.04808473 -0.07464292 -0.09395128
v 0.04810373 -0.04573692 -0.13460428
v 0.04813673 -0.01658292 -0.06482528
v 0.04814073 -0.04655992 -0.13500128
v 0.04814773 -0.03938392 -0.10751628
v 0.04814973 -0.00825192 -0.05550628
v 0.04815473 -0.00669992 -0.06652328
v 0.04815773 -0.04948292 -0.13832328
v 0.04818173 -0.04779592 -0.13865528
v 0.04819173 -0.04929092 -0.13873828
v 0.04819873 -0.04775092 -0.13897928
v 0.04821173 -0.02268192 -0.11466228
v 0.04821773 -0.04663692 -0.13498028
v 0.04824173 -0.05386892 -0.11535928
v 0.04824173 -0.05254292 -0.12916028
v 0.04826773 -0.04930992 -0.13922428
v 0.04826973 -0.02656292 -0.07300628
v 0.04829573 -0.04661192 -0.13489528
v 0.04834973 -0.04775092 -0.13780928
v 0.04836373 -0.07496492 -0.12683428
v 0.04836773 -0.03779692 -0.06089428
v 0.04839673 -0.05228092 -0.13464628
v 0.04841473 -0.05266792 -0.07747628
v 0.04842873 -0.00734392 -0.07951628
v 0.04847073 -0.07719792 -0.11515428
v 0.04848473 -0.05234192 -0.12972128
v 0.04848973 -0.02455392 -0.10946628
v 0.04851973 -0.05350392 -0.12747428
v 0.04852473 -0.03080892 -0.05113628
v 0.04852873 -0.04929992 -0.13898028
v 0.04854673 -0.04929192 -0.13874928
v 0.04855973 -0.06275092 -0.07212628
v 0.04856173 -0.04453892 -0.07697228
v 0.04865973 -0.01936192 -0.07667428
v 0.04866073 -0.04938192 -0.13804228
v 0.04873273 -0.04638992 -0.13237528
v 0.04876073 -0.02149792 -0.05984528
v 0.04878673 -0.01182492 -0.09969528
v 0.04884473 -0.04737792 -0.13505128
v 0.04886673 -0.06777992 -0.12201928
v 0.04888673 -0.04322792 -0.12828928
v 0.04893473 -0.04638192 -0.13208128
v 0.04898873 -0.05300392 -0.11134428
v 0.04899373 -0.02180992 -0.05376128
v 0.04902173 -0.04706392 -0.13252228
v 0.04902573 -0.02401792 -0.06493428
v 0.04906073 -0.00908492 -0.05972928
v 0.04907073 -0.01594792 -0.11115428
v 0.04907173 -0.00975292 -0.09049228
v 0.04909473 -0.01979492 -0.11358128
v 0.04913573 -0.01753592 -0.06925628
v 0.04913873 -0.01228892 -0.05865628
v 0.04917873 -0.00802492 -0.07095328
v 0.04919373 -0.02262792 -0.11251128
v 0.04924973 -0.04550992 -0.13127428
v 0.04926773 -0.04920692 -0.13505928
v 0.04929073 -0.07194692 -0.12579228
v 0.04932773 -0.05374792 -0.12395528
v 0.04933473 -0.04732492 -0.13096028
v 0.04933873 -0.05094892 -0.12854828
v 0.04934273 -0.05141092 -0.13139528
v 0.04935773 -0.07627092 -0.11049028
v 0.04936473 -0.01365592 -0.06442628
v 0.04937073 -0.01096592 -0.09498428
v 0.04939673 -0.00898992 -0.08661628
v 0.04941973 -0.05100092 -0.12929728
v 0.04941973 -0.03528692 -0.09351928
v 0.04942373 -0.07450692 -0.12426328
v 0.04945573 -0.05093592 -0.12859628
v 0.04951173 -0.02402092 -0.10599628
v 0.04951373 -0.02185492 -0.08647428
v 0.04952973 -0.03789092 -0.10059028
v 0.04961073 -0.02202692 -0.08816628
v 0.04969673 -0.03907292 -0.06586628
v 0.04969873 -0.02212392 -0.08987028
v 0.04975173 -0.01053192 -0.06454628
v 0.04975673 -0.03237292 -0.05581228
v 0.04978073 -0.03674992 -0.09691528
v 0.04979173 -0.06672392 -0.11729728
v 0.04980373 -0.02628192 -0.05189728
v 0.04984273 -0.02370992 -0.05863428
v 0.04984373 -0.04699792 -0.13029028
v 0.04987673 -0.04185792 -0.12234528
v 0.04992973 -0.05216492 -0.10589528
v 0.04994073 -0.04710892 -0.13027828
v 0.04999973 -0.04872692 -0.13180028
v 0.05001473 -0.04846892 -0.12985928
v 0.05004673 -0.01454592 -0.06921328
v 0.05004773 -0.02331392 -0.10244728
v 0.05020773 -0.04840692 -0.12908528
v 0.05022473 -0.02233192 -0.10983928
v 0.05026773 -0.05523592 -0.07473928
v 0.05026773 -0.04851392 -0.12906428
v 0.05027473 -0.02264292 -0.09816528
v 0.05028473 -0.06580692 -0.11266428
v 0.05029673 -0.07494192 -0.10424428
v 0.05031973 -0.01521492 -0.10790628
v 0.05032873 -0.02642892 -0.06377628
v 0.05037173 -0.05135292 -0.12669828
v 0.05038373 -0.05901692 -0.07251028
v 0.05039973 -0.04102292 -0.11804028
v 0.05044973 -0.07436392 -0.11999028
v 0.05051573 -0.01928692 -0.11062628
v 0.05055573 -0.07076992 -0.12114828
v 0.05058773 -0.04635392 -0.12906628
v 0.05063673 -0.01148992 -0.06925528
v 0.05066573 -0.05363592 -0.11957728
v 0.05067673 -0.02029192 -0.08296128
v 0.05069973 -0.02789492 -0.05658428
v 0.05071773 -0.03424792 -0.06102128
v 0.05076673 -0.06756192 -0.08149028
v 0.05079673 -0.05026092 -0.09398128
v 0.05084473 -0.02183892 -0.09311128
v 0.05089573 -0.00966992 -0.07785228
v 0.05090673 -0.05103592 -0.09932828
v 0.05095673 -0.04031692 -0.11381428
v 0.05096573 -0.06407392 -0.10580128
v 0.05097573 -0.01449792 -0.10455428
v 0.05098273 -0.07363992 -0.09896628
v 0.05102073 -0.05984892 -0.09393128
v 0.05103773 -0.02891492 -0.07027228
v 0.05111173 -0.04900992 -0.08869728
v 0.05111473 -0.05809392 -0.08836028
v 0.05124173 -0.04840492 -0.12730228
v 0.05131073 -0.07363592 -0.11570628
v 0.05131073 -0.01644892 -0.07613428
v 0.05131773 -0.02181992 -0.10649428
v 0.05138573 -0.01039292 -0.08774328
v 0.05140073 -0.07000092 -0.08623228
v 0.05141073 -0.03082192 -0.08206128
v 0.05144273 -0.01087292 -0.08997728
v 0.05147473 -0.01131392 -0.09216728
v 0.05148773 -0.01356692 -0.09978428
v 0.05151073 -0.02985292 -0.06172028
v 0.05153673 -0.05119192 -0.12394928
v 0.05153773 -0.06238892 -0.09896628
v 0.05157873 -0.02052992 -0.08532228
v 0.05159673 -0.07018292 -0.11666028
v 0.05159773 -0.05299192 -0.11587428
v 0.05171773 -0.01865892 -0.10749128
v 0.05174473 -0.07277292 -0.09488128
v 0.05175173 -0.02114992 -0.08998628
v 0.05176073 -0.02073192 -0.08765028
v 0.05185873 -0.03635292 -0.06624528
v 0.05186073 -0.04500092 -0.12610028
v 0.05194973 -0.02103692 -0.10304428
v 0.05200373 -0.07280292 -0.11101828
v 0.05203473 -0.07174892 -0.09043728
v 0.05209173 -0.01316492 -0.07634428
v 0.05216473 -0.03931492 -0.10830328
v 0.05218173 -0.01308092 -0.09552328
v 0.05222073 -0.04264492 -0.07552128
v 0.05228873 -0.01094392 -0.08400528
v 0.05232373 -0.06961292 -0.11198628
v 0.05240273 -0.02010092 -0.09884928
v 0.05240973 -0.03223492 -0.06765428
v 0.05243973 -0.01798992 -0.10413528
v 0.05251573 -0.05200392 -0.11180728
v 0.05258873 -0.04791292 -0.12467128
v 0.05266073 -0.01718392 -0.08207728
v 0.05268973 -0.07143192 -0.10512628
v 0.05270573 -0.06384592 -0.08203328
v 0.05284473 -0.06034992 -0.09045928
v 0.05290073 -0.01942792 -0.09433628
v 0.05290673 -0.01696392 -0.09961128
v 0.05301673 -0.05084592 -0.12025128
v 0.05301873 -0.01287592 -0.09218928
v 0.05302473 -0.04395092 -0.12195028
v 0.05304773 -0.06072592 -0.08451128
v 0.05304873 -0.01170692 -0.08660028
v 0.05306173 -0.06791492 -0.10580528
v 0.05306173 -0.05060692 -0.09681228
v 0.05309473 -0.06297292 -0.09641228
v 0.05309773 -0.06147992 -0.09350728
v 0.05315673 -0.05024292 -0.09385328
v 0.05317973 -0.04964292 -0.09066328
v 0.05319673 -0.01786092 -0.08511228
v 0.05320073 -0.07052492 -0.09986428
v 0.05323373 -0.01243592 -0.08947728
v 0.05333773 -0.05125792 -0.10679228
v 0.05338173 -0.01423792 -0.08238928
v 0.05341473 -0.01880892 -0.09115128
v 0.05348473 -0.01836692 -0.08817028
v 0.05353973 -0.01657892 -0.09531328
v 0.05363073 -0.06627792 -0.08695728
v 0.05381773 -0.06656592 -0.10011028
v 0.05384173 -0.06961192 -0.09570928
v 0.05386273 -0.04318092 -0.11790828
v 0.05392673 -0.05020092 -0.11689428
v 0.05399073 -0.01491792 -0.08563328
v 0.05401373 -0.04745492 -0.12110128
v 0.05406573 -0.03781192 -0.10181428
v 0.05406673 -0.06302392 -0.08876128
v 0.05408673 -0.03238692 -0.07939428
v 0.05409573 -0.01598392 -0.09181828
v 0.05411573 -0.03613292 -0.09696428
v 0.05416073 -0.06820392 -0.09134828
v 0.05418973 -0.01541792 -0.08883328
v 0.05428573 -0.05042392 -0.10123428
v 0.05437073 -0.06608792 -0.09626728
v 0.05449273 -0.06479192 -0.09265228
v 0.05450673 -0.04239492 -0.11361828
v 0.05453173 -0.03485592 -0.09207628
v 0.05456373 -0.04672792 -0.08507828
v 0.05469373 -0.03972292 -0.07530028
v 0.05480373 -0.04689892 -0.11755228
v 0.05482273 -0.04933192 -0.11274128
v 0.05535773 -0.04991092 -0.09744328
v 0.05536273 -0.04131092 -0.10865728
v 0.05537373 -0.03600292 -0.07670428
v 0.05559173 -0.04835892 -0.08941828
v 0.05559973 -0.04598492 -0.11325728
v 0.05565773 -0.04879192 -0.10788428
v 0.05578573 -0.04941892 -0.09369628
v 0.05645073 -0.03805292 -0.09920328
v 0.05659873 -0.03651292 -0.09377628
v 0.05660173 -0.04508592 -0.10840128
v 0.05661673 -0.03717092 -0.09649628
v 0.05669573 -0.04787892 -0.10265028
v 0.05673273 -0.04040992 -0.10317028
v 0.05694373 -0.04322092 -0.08393928
v 0.05711773 -0.03628492 -0.08796328
v 0.05750373 -0.04428092 -0.10339228
v 0.05757873 -0.04724792 -0.09861328
v 0.05781873 -0.03942992 -0.08486628
v 0.05784673 -0.04536892 -0.08907428
v 0.05816573 -0.04011592 -0.09935828
v 0.05826173 -0.04663192 -0.09394728
v 0.05840773 -0.03820992 -0.09199428
v 0.05859073 -0.03927792 -0.09586528
v 0.05862473 -0.04359992 -0.09916328
v 0.05898573 -0.04139092 -0.08987028
v 0.05933673 -0.04256792 -0.09475728
