# Rest-skin points; MuJoCo computes the convex hull.
v -0.0591918 -0.04372691 -0.09567303
v -0.0590958 -0.04239591 -0.09069803
v -0.0588718 -0.03911591 -0.09263703
v -0.0588538 -0.04031791 -0.09669703
v -0.0584098 -0.04128591 -0.10023703
v -0.0583248 -0.04485891 -0.10008003
v -0.0579918 -0.04020691 -0.08532503
v -0.0576008 -0.04632891 -0.08998603
v -0.0575868 -0.03699591 -0.08830703
v -0.0575778 -0.04755591 -0.09498203
v -0.0572588 -0.03721091 -0.09437203
v -0.0572428 -0.04561591 -0.10436903
v -0.0571838 -0.03791591 -0.09720903
v -0.0570638 -0.04159791 -0.10418503
v -0.0569238 -0.03896491 -0.10011403
v -0.0568798 -0.04397391 -0.08457003
v -0.0567098 -0.04828391 -0.09962203
v -0.0562388 -0.04667491 -0.10961703
v -0.0558678 -0.04259091 -0.10991903
v -0.0557738 -0.04898291 -0.10371003
v -0.0554198 -0.03643391 -0.07670903
v -0.0552428 -0.03533091 -0.09256703
v -0.0551978 -0.04768891 -0.11455103
v -0.0550468 -0.04388491 -0.11495603
v -0.0550008 -0.04906991 -0.09037203
v -0.0548218 -0.05008091 -0.09476303
v -0.0548018 -0.03663891 -0.09773703
v -0.0546918 -0.03851491 -0.10281003
v -0.0545898 -0.05010391 -0.10907103
v -0.0545568 -0.04015691 -0.07544703
v -0.0543768 -0.04473591 -0.11912203
v -0.0543668 -0.03276491 -0.07929803
v -0.0543528 -0.06744791 -0.09153403
v -0.0542958 -0.06408091 -0.09285703
v -0.0542838 -0.04865791 -0.11870503
v -0.0542548 -0.04733491 -0.08585003
v -0.0541938 -0.01550491 -0.08869003
v -0.0541758 -0.05056091 -0.09849503
v -0.0541118 -0.06533391 -0.09648303
v -0.0540908 -0.01612691 -0.09175703
v -0.0540348 -0.06879091 -0.09589803
v -0.0539428 -0.01495691 -0.08532603
v -0.0538708 -0.06240691 -0.08896403
v -0.0537838 -0.06563491 -0.08713303
v -0.0536708 -0.05081091 -0.11392303
v -0.0535278 -0.01679591 -0.09529503
v -0.0534288 -0.01843891 -0.08799203
v -0.0534228 -0.06574691 -0.10027603
v -0.0533968 -0.04550491 -0.12314803
v -0.0533908 -0.06965591 -0.10004503
v -0.0533868 -0.04914691 -0.12224103
v -0.0533418 -0.01892291 -0.09104303
v -0.0533148 -0.01423891 -0.08193703
v -0.0532958 -0.01250791 -0.08929903
v -0.0531358 -0.04011091 -0.10970103
v -0.0531138 -0.01788991 -0.08482203
v -0.0531008 -0.01298391 -0.09208903
v -0.0530478 -0.01175091 -0.08629903
v -0.0528998 -0.01726691 -0.09965303
v -0.0528778 -0.05099791 -0.10241503
v -0.0528658 -0.06024791 -0.08469803
v -0.0528348 -0.06333591 -0.08215103
v -0.0528238 -0.07052791 -0.10530703
v -0.0528098 -0.01960291 -0.09427703
v -0.0527268 -0.05166291 -0.11786603
v -0.0526418 -0.06707291 -0.10595303
v -0.0525858 -0.06094991 -0.09365803
v -0.0525818 -0.01712691 -0.08165103
v -0.0525608 -0.06238391 -0.09655703
v -0.0525158 -0.07114891 -0.09057003
v -0.0524538 -0.05012391 -0.09171403
v -0.0524538 -0.01834591 -0.10423203
v -0.0523958 -0.05985691 -0.09061403
v -0.0523318 -0.07216791 -0.09500203
v -0.0522918 -0.01323291 -0.09548103
v -0.0522818 -0.04114391 -0.11517803
v -0.0522638 -0.03235191 -0.06721603
v -0.0522628 -0.02036991 -0.09887403
v -0.0522548 -0.01095191 -0.08353303
v -0.0521338 -0.05062791 -0.09492003
v -0.0521318 -0.07189591 -0.11121103
v -0.0519748 -0.04298091 -0.07582003
v -0.0519148 -0.06875891 -0.11215603
v -0.0519018 -0.01289191 -0.07535303
v -0.0518668 -0.03102891 -0.08198603
v -0.0518288 -0.04176191 -0.11930903
v -0.0518208 -0.05089791 -0.09797603
v -0.0518198 -0.06948591 -0.08634103
v -0.0517958 -0.02135891 -0.10310203
v -0.0517578 -0.04943991 -0.12599603
v -0.0517408 -0.04654291 -0.12737003
v -0.0517158 -0.05231291 -0.12124203
v -0.0516838 -0.01911791 -0.10770703
v -0.0516678 -0.05199091 -0.10806903
v -0.0516558 -0.03639991 -0.06597003
v -0.0516478 -0.02076591 -0.08743903
v -0.0516338 -0.01378591 -0.09983403
v -0.0516308 -0.02120991 -0.08983603
v -0.0516278 -0.07302491 -0.09911003
v -0.0516058 -0.01138391 -0.09203303
v -0.0515528 -0.01090891 -0.08976203
v -0.0514748 -0.02053691 -0.08506703
v -0.0514618 -0.01040191 -0.08743803
v -0.0513868 -0.07277191 -0.11591103
v -0.0512558 -0.02971991 -0.06076503
v -0.0512438 -0.01610991 -0.07525503
v -0.0512018 -0.04259691 -0.12358703
v -0.0511708 -0.06939891 -0.11685803
v -0.0511638 -0.01478091 -0.10471803
v -0.0511078 -0.02220391 -0.10663203
v -0.0510938 -0.06714791 -0.08155303
v -0.0510778 -0.02900491 -0.06975403
v -0.0509388 -0.07423591 -0.10441803
v -0.0508278 -0.06196591 -0.09908003
v -0.0508158 -0.05279091 -0.11296703
v -0.0507298 -0.00943591 -0.07683403
v -0.0506998 -0.02191791 -0.09300003
v -0.0506238 -0.05776491 -0.08850503
v -0.0506008 -0.03678191 -0.09782203
v -0.0505858 -0.02023491 -0.08263403
v -0.0505198 -0.07363291 -0.12016103
v -0.0505088 -0.01096291 -0.06775903
v -0.0504988 -0.04927891 -0.08969003
v -0.0504958 -0.03409091 -0.06036603
v -0.0504908 -0.01559291 -0.10819203
v -0.0504498 -0.05870491 -0.07254203
v -0.0503858 -0.02733591 -0.05489603
v -0.0503578 -0.01985091 -0.11101103
v -0.0503348 -0.02616791 -0.06264803
v -0.0503138 -0.05949691 -0.09403103
v -0.0502908 -0.03532891 -0.09420103
v -0.0502348 -0.03791591 -0.10173403
v -0.0502078 -0.07013491 -0.12133703
v -0.0501598 -0.05494991 -0.07483003
v -0.0500928 -0.04761491 -0.13034003
v -0.0500898 -0.06358591 -0.10586603
v -0.0500498 -0.02279591 -0.09814803
v -0.0500408 -0.04979391 -0.12885703
v -0.0500288 -0.05250291 -0.12505103
v -0.0500088 -0.04405791 -0.12931003
v -0.0499918 -0.07550991 -0.11067603
v -0.0499298 -0.04844791 -0.13141803
v -0.0498888 -0.02275091 -0.11013803
v -0.0498618 -0.04866891 -0.13196203
v -0.0498438 -0.05375891 -0.11682803
v -0.0498428 -0.05035291 -0.09518203
v -0.0498388 -0.02294191 -0.05668503
v -0.0498298 -0.01379791 -0.06763603
v -0.0498048 -0.04996191 -0.13056403
v -0.0497288 -0.02355291 -0.10248503
v -0.0496788 -0.04994891 -0.13128303
v -0.0496708 -0.04985491 -0.13057503
v -0.0495968 -0.04646391 -0.13223903
v -0.0495768 -0.04834091 -0.13144903
v -0.0495698 -0.00983391 -0.06280503
v -0.0495488 -0.01102791 -0.09491803
v -0.0495368 -0.02214091 -0.08967303
v -0.0495258 -0.03907891 -0.06571103
v -0.0494998 -0.04841191 -0.13329503
v -0.0494928 -0.05098791 -0.10058603
v -0.0494798 -0.02203991 -0.08798303
v -0.0494778 -0.00895791 -0.08620303
v -0.0494108 -0.05030791 -0.13310103
v -0.0493918 -0.02184891 -0.08626003
v -0.0493868 -0.03193691 -0.05459403
v -0.0493538 -0.07423691 -0.12435903
v -0.0493488 -0.06533391 -0.11271303
v -0.0492738 -0.01292691 -0.06253703
v -0.0492628 -0.02342791 -0.06365803
v -0.0492238 -0.00974791 -0.09027503
v -0.0491818 -0.01645391 -0.11159003
v -0.0491568 -0.03949091 -0.10906703
v -0.0491548 -0.04861291 -0.13567603
v -0.0491518 -0.02426191 -0.10611903
v -0.0490908 -0.07160491 -0.12603903
v -0.0490758 -0.07646891 -0.11532903
v -0.0490598 -0.04771391 -0.13315003
v -0.0490018 -0.01192591 -0.09974903
v -0.0489788 -0.02550691 -0.04993703
v -0.0489558 -0.05060791 -0.13589103
v -0.0489528 -0.00768891 -0.06960203
v -0.0489478 -0.07441791 -0.09393003
v -0.0489458 -0.05440391 -0.12043003
v -0.0489438 -0.01680091 -0.06798403
v -0.0488928 -0.06627891 -0.11735803
v -0.0488228 -0.07374891 -0.09032703
v -0.0488088 -0.04787091 -0.13565803
v -0.0488018 -0.05270991 -0.12795403
v -0.0487808 -0.02081691 -0.05785703
v -0.0487788 -0.05066291 -0.13804603
v -0.0487678 -0.04906691 -0.13858203
v -0.0487648 -0.04745491 -0.13548603
v -0.0487438 -0.05054691 -0.13875403
v -0.0487338 -0.06247391 -0.07211603
v -0.0487318 -0.04680591 -0.13539703
v -0.0487178 -0.04909391 -0.13807303
v -0.0487088 -0.04903791 -0.13891203
v -0.0487048 -0.02074491 -0.11432403
v -0.0486878 -0.01914691 -0.07606603
v -0.0486778 -0.05053291 -0.13895603
v -0.0486578 -0.04754291 -0.13564203
v -0.0486528 -0.04757191 -0.13324503
v -0.0486268 -0.02327991 -0.11314203
v -0.0485808 -0.00863391 -0.05780203
v -0.0485768 -0.04863391 -0.13874703
v -0.0485738 -0.05233991 -0.13060103
v -0.0485568 -0.05224391 -0.12991503
v -0.0485168 -0.04482091 -0.13423203
v -0.0484978 -0.04823491 -0.13782603
v -0.0484808 -0.04924191 -0.13813303
v -0.0484568 -0.01194891 -0.05663503
v -0.0484548 -0.02649291 -0.07246003
v -0.0484428 -0.05054091 -0.13871203
v -0.0484388 -0.04841691 -0.13824503
v -0.0483738 -0.05051991 -0.13918203
v -0.0483718 -0.04060991 -0.11516603
v -0.0483638 -0.05225191 -0.12986803
v -0.0483628 -0.05074991 -0.13830603
v -0.0483558 -0.00718391 -0.07859403
v -0.0483208 -0.07712691 -0.11943703
v -0.0482958 -0.04914591 -0.13863803
v -0.0482898 -0.03760491 -0.06045203
v -0.0482798 -0.05279891 -0.13245903
v -0.0482598 -0.04476391 -0.07755903
v -0.0482428 -0.07495191 -0.12693203
v -0.0482308 -0.05066291 -0.13903903
v -0.0482138 -0.01315691 -0.10541203
v -0.0482058 -0.07240291 -0.08648903
v -0.0481788 -0.05212391 -0.10715803
v -0.0481748 -0.04842591 -0.13801203
v -0.0481618 -0.05249691 -0.07760803
v -0.0481578 -0.01586291 -0.06308003
v -0.0481518 -0.04850891 -0.13834603
v -0.0481408 -0.06740991 -0.12213703
v -0.0481208 -0.01983791 -0.05937803
v -0.0481158 -0.04862291 -0.13886503
v -0.0480988 -0.04908991 -0.13913503
v -0.0480988 -0.04104891 -0.11872203
v -0.0480958 -0.04838691 -0.13820103
v -0.0480708 -0.04925591 -0.13888103
v -0.0480518 -0.02479391 -0.10971003
v -0.0479318 -0.03023991 -0.04961403
v -0.0479298 -0.07475991 -0.09765203
v -0.0478908 -0.00613191 -0.06507203
v -0.0478728 -0.01789891 -0.11537903
v -0.0477488 -0.01379091 -0.10805603
v -0.0477468 -0.02108791 -0.05167003
v -0.0477108 -0.07364291 -0.12906303
v -0.0477078 -0.04793691 -0.13836203
v -0.0476608 -0.01827891 -0.05837403
v -0.0476468 -0.01521091 -0.05757103
v -0.0476378 -0.02253191 -0.09187603
v -0.0476368 -0.02115591 -0.11606303
v -0.0476318 -0.04147591 -0.12187203
v -0.0476148 -0.07732791 -0.12359303
v -0.0476138 -0.05326091 -0.06135803
v -0.0476108 -0.05029191 -0.13963003
v -0.0475308 -0.02201691 -0.08561103
v -0.0475178 -0.02346491 -0.11549303
v -0.0475038 -0.02127991 -0.11716303
v -0.0474958 -0.07535291 -0.12938603
v -0.0474838 -0.03583091 -0.05470703
v -0.0474778 -0.02115591 -0.11775703
v -0.0474698 -0.02088391 -0.06460803
v -0.0474688 -0.06928291 -0.12845803
v -0.0474448 -0.04914491 -0.06370103
v -0.0474308 -0.01149091 -0.05250303
v -0.0474288 -0.01909191 -0.06441803
v -0.0474258 -0.05324691 -0.13531303
v -0.0473888 -0.05338291 -0.13863703
v -0.0473778 -0.03201991 -0.08511803
v -0.0473288 -0.02121891 -0.11711603
v -0.0473248 -0.05341491 -0.13847503
v -0.0473158 -0.07516791 -0.12863503
v -0.0473138 -0.07530891 -0.12865803
v -0.0472928 -0.02243091 -0.08855603
v -0.0472728 -0.07417391 -0.13002903
v -0.0472598 -0.07437491 -0.13057003
v -0.0472418 -0.05353591 -0.13088103
v -0.0472368 -0.05448591 -0.12485203
v -0.0472288 -0.07399091 -0.12996403
v -0.0472218 -0.07581191 -0.13138403
v -0.0472178 -0.04889891 -0.13919003
v -0.0472028 -0.07609791 -0.10324903
v -0.0472018 -0.05288891 -0.11247403
v -0.0471978 -0.07318191 -0.13155203
v -0.0471898 -0.02519991 -0.11284303
v -0.0471818 -0.05079291 -0.05597203
v -0.0471708 -0.07429691 -0.13220703
v -0.0471378 -0.04263391 -0.12786403
v -0.0471258 -0.05342891 -0.13887803
v -0.0470728 -0.04631291 -0.13797303
v -0.0470618 -0.05354091 -0.13790303
v -0.0470588 -0.07031291 -0.08242103
v -0.0470578 -0.02084291 -0.11902703
v -0.0470348 -0.02340191 -0.11705703
v -0.0470238 -0.02343591 -0.11771103
v -0.0470038 -0.05372891 -0.13036403
v -0.0469938 -0.01981991 -0.11785003
v -0.0469838 -0.04652991 -0.05873403
v -0.0469548 -0.02348491 -0.09772203
v -0.0469158 -0.07334691 -0.13190603
v -0.0469098 -0.01997491 -0.11830503
v -0.0468938 -0.02343691 -0.11705703
v -0.0468498 -0.03971091 -0.10057003
v -0.0468158 -0.01433891 -0.11099803
v -0.0468068 -0.02323591 -0.11903803
v -0.0467818 -0.05382891 -0.13030303
v -0.0467698 -0.00802291 -0.05348203
v -0.0467688 -0.01443591 -0.05280503
v -0.0467578 -0.02411691 -0.04587703
v -0.0467128 -0.05345491 -0.13850003
v -0.0467078 -0.07510691 -0.13491203
v -0.0466998 -0.05442091 -0.12844603
v -0.0466888 -0.01976391 -0.11786103
v -0.0466828 -0.07361191 -0.13224203
v -0.0466698 -0.05352591 -0.13870803
v -0.0466628 -0.07734491 -0.12619603
v -0.0466558 -0.04722791 -0.09173903
v -0.0466358 -0.01796991 -0.05295203
v -0.0466138 -0.01913491 -0.11766803
v -0.0466118 -0.03911591 -0.09667603
v -0.0465918 -0.02419891 -0.10247703
v -0.0465828 -0.07358291 -0.13494203
v -0.0465708 -0.00485791 -0.05970803
v -0.0465678 -0.04787191 -0.09562803
v -0.0465368 -0.05350891 -0.13816903
v -0.0465018 -0.03842091 -0.05480003
v -0.0464878 -0.07376591 -0.13481303
v -0.0464768 -0.03993291 -0.06065903
v -0.0464758 -0.07684491 -0.13468703
v -0.0464558 -0.07432491 -0.13499303
v -0.0464088 -0.05408791 -0.13203603
v -0.0463978 -0.05380291 -0.11640603
v -0.0463718 -0.07595091 -0.13799603
v -0.0463528 -0.04411391 -0.05259503
v -0.0463178 -0.04770591 -0.13935103
v -0.0463158 -0.07596391 -0.13749303
v -0.0463118 -0.07389591 -0.13506103
v -0.0463108 -0.07731391 -0.10974703
v -0.0463038 -0.04833291 -0.05050903
v -0.0463028 -0.07584391 -0.13831603
v -0.0462908 -0.07486991 -0.13726103
v -0.0462808 -0.07535991 -0.13824603
v -0.0462698 -0.01978691 -0.11944903
v -0.0462678 -0.06081791 -0.09912103
v -0.0462658 -0.07062791 -0.13402603
v -0.0462648 -0.05904691 -0.09408403
v -0.0462418 -0.07509591 -0.13768603
v -0.0462278 -0.03793691 -0.09379903
v -0.0462218 -0.05384591 -0.13892503
v -0.0462158 -0.04382491 -0.13304503
v -0.0462058 -0.03357391 -0.04939903
v -0.0461888 -0.04138691 -0.05467003
v -0.0461688 -0.02447491 -0.11798303
v -0.0461578 -0.04820091 -0.09927503
v -0.0461548 -0.02096691 -0.12141903
v -0.0461298 -0.02364691 -0.12134403
v -0.0460668 -0.02477791 -0.10596903
v -0.0460618 -0.07603091 -0.13758903
v -0.0460548 -0.04052491 -0.05614803
v -0.0460388 -0.02462191 -0.11759903
v -0.0460218 -0.07525291 -0.13845503
v -0.0460138 -0.04356391 -0.06057403
v -0.0460058 -0.04173091 -0.06654203
v -0.0459828 -0.07505591 -0.13779103
v -0.0459808 -0.07796791 -0.13046403
v -0.0459758 -0.07495491 -0.13744903
v -0.0459718 -0.02005191 -0.04709403
v -0.0459698 -0.04973891 -0.14000003
v -0.0459648 -0.06226591 -0.10581903
v -0.0459608 -0.05671591 -0.08956203
v -0.0459548 -0.07486891 -0.13765303
v -0.0459448 -0.02521091 -0.11600603
v -0.0459288 -0.07589591 -0.13811103
v -0.0459288 -0.02053491 -0.07046003
v -0.0458648 -0.02472191 -0.11758603
v -0.0458568 -0.00538691 -0.07153803
v -0.0458378 -0.07748591 -0.13719403
v -0.0458298 -0.07432791 -0.09339303
v -0.0458288 -0.04191291 -0.06078603
v -0.0458068 -0.07748591 -0.13800103
v -0.0457958 -0.01942891 -0.11937703
v -0.0457938 -0.07574791 -0.13868203
v -0.0457848 -0.02344191 -0.07064003
v -0.0457828 -0.07746891 -0.13821503
v -0.0457798 -0.07744191 -0.12776303
v -0.0457708 -0.07392991 -0.13797303
v -0.0457488 -0.01919191 -0.11896403
v -0.0457468 -0.07594791 -0.13840203
v -0.0457378 -0.07752091 -0.12846603
v -0.0457368 -0.01044291 -0.09386703
v -0.0457298 -0.01820091 -0.11887203
v -0.0457068 -0.00962791 -0.09039203
v -0.0456638 -0.04116191 -0.10781203
v -0.0456568 -0.05447991 -0.13822003
v -0.0456298 -0.05456391 -0.13799203
v -0.0456278 -0.07743891 -0.12774803
v -0.0456248 -0.02879191 -0.04564603
v -0.0456228 -0.02494491 -0.11887603
v -0.0455858 -0.02100091 -0.07749803
v -0.0455778 -0.07740591 -0.13845503
v -0.0455738 -0.07836591 -0.11425303
v -0.0455698 -0.04496991 -0.13686503
v -0.0455668 -0.01628991 -0.04739503
v -0.0455568 -0.07740591 -0.13800803
v -0.0455458 -0.07754691 -0.13746303
v -0.0455328 -0.04574291 -0.06592303
v -0.0455298 -0.05451091 -0.12052403
v -0.0454988 -0.05458791 -0.13730603
v -0.0454728 -0.01972291 -0.12130503
v -0.0454588 -0.01041091 -0.04811403
v -0.0454428 -0.05709591 -0.06062403
v -0.0454118 -0.07374791 -0.09037703
v -0.0454108 -0.06406591 -0.11286603
v -0.0454078 -0.03784991 -0.04917603
v -0.0454058 -0.01618891 -0.11661103
v -0.0453918 -0.05449591 -0.13465503
v -0.0453778 -0.07751291 -0.13829103
v -0.0453348 -0.01178391 -0.09948803
v -0.0453178 -0.00895791 -0.08748703
v -0.0452958 -0.07514991 -0.13872803
v -0.0452738 -0.05493691 -0.13019103
v -0.0452498 -0.02399391 -0.12329103
v -0.0452458 -0.06509591 -0.11706303
v -0.0452298 -0.02120891 -0.12351103
v -0.0451938 -0.07228691 -0.13781703
v -0.0451468 -0.05483791 -0.05494703
v -0.0451398 -0.02541291 -0.10899003
v -0.0451358 -0.01289891 -0.04793203
v -0.0451318 -0.04362191 -0.09611403
v -0.0451178 -0.00449291 -0.05530203
v -0.0450878 -0.07273991 -0.08754203
v -0.0450848 -0.07879591 -0.13347203
v -0.0450648 -0.05449791 -0.13163603
v -0.0450568 -0.05439291 -0.13714503
v -0.0450568 -0.02114891 -0.12396303
v -0.0450498 -0.05479091 -0.13785103
v -0.0450488 -0.02309891 -0.04187603
v -0.0450388 -0.05428391 -0.13825103
v -0.0450238 -0.02597191 -0.11708003
v -0.0450168 -0.02390891 -0.12380203
v -0.0450148 -0.04193291 -0.04702803
v -0.0450128 -0.07914391 -0.11853303
v -0.0450108 -0.01926291 -0.12097403
v -0.0450018 -0.05445591 -0.13153103
v -0.0449848 -0.04241191 -0.11466403
v -0.0449788 -0.02114691 -0.12410503
v -0.0449448 -0.05437291 -0.13794903
v -0.0449448 -0.02389491 -0.12394103
v -0.0449378 -0.04409691 -0.09991203
v -0.0449238 -0.06579491 -0.07258703
v -0.0449218 -0.04653691 -0.13824403
v -0.0449208 -0.02548691 -0.12078803
v -0.0448778 -0.04955291 -0.10667103
v -0.0448748 -0.05439491 -0.13774203
v -0.0448638 -0.06608191 -0.12122803
v -0.0448628 -0.01348891 -0.10540703
v -0.0448468 -0.01921791 -0.12104903
v -0.0448378 -0.07949891 -0.12347203
v -0.0448258 -0.01925291 -0.12114803
v -0.0448138 -0.02523491 -0.11818203
v -0.0447858 -0.05491491 -0.13708803
v -0.0447468 -0.04595791 -0.04542603
v -0.0447188 -0.02116991 -0.12389203
v -0.0446848 -0.02132191 -0.12353703
v -0.0446668 -0.02405891 -0.12336803
v -0.0446348 -0.02115591 -0.12421003
v -0.0446248 -0.02396491 -0.12369003
v -0.0446218 -0.02006391 -0.12323503
v -0.0446148 -0.04300991 -0.09320603
v -0.0446128 -0.00677291 -0.04939403
v -0.0445958 -0.07659591 -0.13925603
v -0.0445878 -0.05461491 -0.13790203
v -0.0445858 -0.02397291 -0.12403403
v -0.0445798 -0.02550091 -0.12332503
v -0.0445778 -0.02630991 -0.11362003
v -0.0445748 -0.01833591 -0.12114803
v -0.0445548 -0.01388291 -0.10725403
v -0.0445508 -0.05492691 -0.13645103
v -0.0445428 -0.02550791 -0.12288803
v -0.0445228 -0.02014091 -0.12380003
v -0.0445088 -0.04305091 -0.11742003
v -0.0444908 -0.03173291 -0.04501403
v -0.0444678 -0.00432791 -0.06792303
v -0.0444668 -0.02545691 -0.12341903
v -0.0444548 -0.05493391 -0.13717903
v -0.0443788 -0.02011491 -0.12391603
v -0.0443618 -0.04349691 -0.06552403
v -0.0443498 -0.07863791 -0.12892903
v -0.0443458 -0.05475591 -0.13712603
v -0.0443438 -0.04432591 -0.08112403
v -0.0443408 -0.05490391 -0.13456003
v -0.0443228 -0.02013691 -0.12321803
v -0.0443018 -0.05479091 -0.13648703
v -0.0442548 -0.07356091 -0.13902403
v -0.0442498 -0.05492991 -0.13441603
v -0.0442488 -0.01947291 -0.12286603
v -0.0442328 -0.07887091 -0.12697603
v -0.0442268 -0.02131291 -0.12416503
v -0.0442248 -0.05305991 -0.13900203
v -0.0442188 -0.07948391 -0.13599403
v -0.0442078 -0.02414991 -0.12383603
v -0.0441938 -0.02581391 -0.12315503
v -0.0441858 -0.06739791 -0.12705803
v -0.0441818 -0.05485591 -0.13465703
v -0.0441568 -0.02659491 -0.11965503
v -0.0441508 -0.02541691 -0.12276703
v -0.0441478 -0.01959991 -0.12318803
v -0.0441458 -0.01977591 -0.12363803
v -0.0441448 -0.00710391 -0.08055903
v -0.0440968 -0.04325391 -0.12021403
v -0.0440928 -0.02652491 -0.04166003
v -0.0440868 -0.02010591 -0.12362103
v -0.0440848 -0.02604891 -0.12028903
v -0.0440818 -0.07967891 -0.13718603
v -0.0440768 -0.02596791 -0.12251603
v -0.0440528 -0.05498591 -0.12657203
v -0.0440358 -0.02601991 -0.12045403
v -0.0440198 -0.00884391 -0.04582503
v -0.0440048 -0.05060291 -0.11274803
v -0.0439818 -0.07966991 -0.13697603
v -0.0439728 -0.05474191 -0.13777603
v -0.0439658 -0.02601891 -0.12197503
v -0.0439638 -0.02545391 -0.12315203
v -0.0439568 -0.01957591 -0.12296803
v -0.0439538 -0.07879791 -0.12844903
v -0.0439218 -0.02090391 -0.12425303
v -0.0438978 -0.01961991 -0.12321103
v -0.0438918 -0.02539891 -0.12340303
v -0.0438848 -0.06909091 -0.13296103
v -0.0438478 -0.05538991 -0.13316103
v -0.0438328 -0.01971691 -0.12360103
v -0.0438258 -0.02403191 -0.12413403
v -0.0438248 -0.07863391 -0.12801903
v -0.0438198 -0.07943391 -0.13630003
v -0.0438038 -0.02576591 -0.12314203
v -0.0437848 -0.02016091 -0.12394003
v -0.0437778 -0.02059491 -0.09195103
v -0.0437618 -0.07969191 -0.13740203
v -0.0437578 -0.07396891 -0.09586703
v -0.0437518 -0.01724591 -0.12054103
v -0.0437368 -0.02590391 -0.12248603
v -0.0437338 -0.01968591 -0.12311903
v -0.0437328 -0.05522191 -0.13640303
v -0.0437288 -0.02025091 -0.08907003
v -0.0437288 -0.01435791 -0.11011303
v -0.0437078 -0.02591691 -0.12201903
v -0.0437048 -0.02551891 -0.12318203
v -0.0436868 -0.07921191 -0.13033703
v -0.0436298 -0.05234391 -0.04886103
v -0.0435978 -0.04521391 -0.10699603
v -0.0435788 -0.02605791 -0.12237603
v -0.0435728 -0.07045191 -0.13672703
v -0.0435268 -0.02038691 -0.12382103
v -0.0435258 -0.01918691 -0.12314103
v -0.0435118 -0.04783591 -0.13849603
v -0.0434898 -0.05140291 -0.11598803
v -0.0434728 -0.02637091 -0.12194603
v -0.0434478 -0.02193291 -0.09770103
v -0.0434348 -0.02714491 -0.11855503
v -0.0434228 -0.03498891 -0.08579003
v -0.0433988 -0.07961191 -0.13691203
v -0.0433848 -0.03565391 -0.04314503
v -0.0433458 -0.07969891 -0.13715303
v -0.0433188 -0.02290191 -0.10298703
v -0.0433008 -0.04386291 -0.12624503
v -0.0432078 -0.07974891 -0.13286703
v -0.0432058 -0.00643491 -0.04677303
v -0.0431928 -0.02007791 -0.12383103
v -0.0431798 -0.07530991 -0.13969203
v -0.0431638 -0.00259291 -0.06275903
v -0.0431538 -0.02002391 -0.08689303
v -0.0431228 -0.07528491 -0.10276003
v -0.0430978 -0.05195191 -0.08030403
v -0.0430578 -0.02560291 -0.12325003
v -0.0429748 -0.00373291 -0.05044503
v -0.0429488 -0.05525991 -0.13566703
v -0.0429448 -0.05425191 -0.13745603
v -0.0429408 -0.01224891 -0.08973003
v -0.0429128 -0.08034391 -0.13537803
v -0.0429118 -0.04637591 -0.11373703
v -0.0428978 -0.01266391 -0.09277103
v -0.0428828 -0.07943291 -0.12923703
v -0.0428748 -0.07091691 -0.08548803
v -0.0428738 -0.05189191 -0.11898303
v -0.0428698 -0.02344391 -0.10560403
v -0.0428278 -0.01893791 -0.03870603
v -0.0428218 -0.08052591 -0.13619603
v -0.0428038 -0.02664491 -0.12082103
v -0.0427848 -0.07243691 -0.09075403
v -0.0427788 -0.01841191 -0.12268903
v -0.0427588 -0.07207291 -0.13779103
v -0.0427028 -0.04469391 -0.13137603
v -0.0426968 -0.04038291 -0.04207903
v -0.0426828 -0.07931691 -0.12972103
v -0.0426268 -0.05563191 -0.13227803
v -0.0426188 -0.08050591 -0.13649603
v -0.0426168 -0.04385091 -0.04114803
v -0.0426128 -0.07926491 -0.12961603
v -0.0425768 -0.06189391 -0.09858203
v -0.0425378 -0.01574991 -0.11522403
v -0.0425018 -0.04706191 -0.11644603
v -0.0424568 -0.01394491 -0.09847903
v -0.0424548 -0.01549791 -0.10462403
v -0.0424488 -0.08005191 -0.13534203
v -0.0424038 -0.07666491 -0.10964603
v -0.0423938 -0.06013191 -0.09378203
v -0.0423898 -0.02423891 -0.12397603
v -0.0423688 -0.02089891 -0.12434303
v -0.0423668 -0.02582591 -0.12277903
v -0.0422958 -0.04616391 -0.13562203
v -0.0422828 -0.04987091 -0.04453003
v -0.0422748 -0.01949091 -0.12359703
v -0.0422678 -0.08059391 -0.13602203
v -0.0422648 -0.01147491 -0.08773703
v -0.0422338 -0.01594091 -0.10637203
v -0.0422258 -0.00870291 -0.04092803
v -0.0421668 -0.08009491 -0.13595603
v -0.0421338 -0.08017991 -0.13618403
v -0.0421328 -0.01645491 -0.08929603
v -0.0421288 -0.07945591 -0.13799203
v -0.0421058 -0.06343191 -0.10528703
v -0.0421058 -0.02401691 -0.10819803
v -0.0420628 -0.08052191 -0.13518703
v -0.0420158 -0.01687491 -0.09226403
v -0.0419608 -0.08003691 -0.13262803
v -0.0419448 -0.07787691 -0.11418403
v -0.0419288 -0.08018291 -0.13660803
v -0.0419258 -0.04747391 -0.11910703
v -0.0419158 -0.06518891 -0.11278103
v -0.0419008 -0.08040691 -0.13454203
v -0.0418998 -0.04016991 -0.08435603
v -0.0418518 -0.08003691 -0.13240203
v -0.0418188 -0.01699491 -0.11929803
v -0.0418068 -0.01385991 -0.04000703
v -0.0417968 -0.07998691 -0.13272703
v -0.0417948 -0.06625891 -0.11633303
v -0.0417838 -0.08036491 -0.13612803
v -0.0417438 -0.02513991 -0.11219803
v -0.0417048 -0.08052791 -0.13528903
v -0.0416788 -0.08034291 -0.13527203
v -0.0416678 -0.05241391 -0.12498003
v -0.0416418 -0.08023291 -0.13467403
v -0.0416348 -0.08027191 -0.13233503
v -0.0416328 -0.06010491 -0.06073003
v -0.0415948 -0.01942391 -0.12286303
v -0.0415838 -0.07909491 -0.11877703
v -0.0415668 -0.00086491 -0.05833803
v -0.0415538 -0.01826891 -0.09771303
v -0.0415448 -0.01963391 -0.10376703
v -0.0415348 -0.05121991 -0.13770303
v -0.0415248 -0.06701491 -0.11972303
v -0.0414608 -0.01820591 -0.12172903
v -0.0412958 -0.05295891 -0.13652903
v -0.0412828 -0.02679991 -0.03764803
v -0.0412768 -0.05829191 -0.09009303
v -0.0412688 -0.01644091 -0.10874103
v -0.0412548 -0.01615291 -0.08742603
v -0.0412498 -0.02012991 -0.10561203
v -0.0412168 -0.02601291 -0.11699203
v -0.0411728 -0.02806291 -0.07618303
v -0.0411378 -0.02609491 -0.12014003
v -0.0411368 -0.02534991 -0.12189403
v -0.0411258 -0.04426891 -0.07036103
v -0.0410888 -0.04140091 -0.07286503
v -0.0410848 -0.07989491 -0.12515103
v -0.0409958 -0.00547291 -0.07390703
v -0.0409658 -0.04796991 -0.12513903
v -0.0409638 -0.07997191 -0.13642103
v -0.0409478 -0.05799291 -0.05533703
v -0.0409118 -0.07300791 -0.13818003
v -0.0408418 -0.08055091 -0.13530903
v -0.0407538 -0.05343891 -0.13438003
v -0.0407218 -0.05285491 -0.13057403
v -0.0407088 -0.01867491 -0.07979603
v -0.0407008 -0.00993491 -0.08126103
v -0.0406758 -0.02056991 -0.12295503
v -0.0406658 -0.07843091 -0.13816203
v -0.0406258 -0.02075591 -0.10791203
v -0.0405848 -0.04723491 -0.04041503
v -0.0405348 -0.06661391 -0.07506303
v -0.0405018 -0.06817691 -0.12580103
v -0.0403558 -0.00276591 -0.04354203
v -0.0403538 -0.00426691 -0.07034703
v -0.0403478 -0.09019891 -0.10857403
v -0.0403198 -0.08953291 -0.10495903
v -0.0403148 -0.02401591 -0.12237203
v -0.0403088 -0.04856391 -0.13027803
v -0.0402728 -0.04961691 -0.13466303
v -0.0401948 -0.07024591 -0.09645103
v -0.0401578 -0.06990091 -0.13127303
v -0.0401538 -0.04264991 -0.03766703
v -0.0401338 -0.09128691 -0.11265003
v -0.0401278 -0.01784391 -0.11350403
v -0.0401128 -0.07144991 -0.13517803
v -0.0400888 -0.03154491 -0.07754403
v -0.0400678 -0.08884291 -0.10105703
v -0.0399778 -0.08249791 -0.08649703
v -0.0399658 -0.08048691 -0.13113703
v -0.0399548 -0.06566891 -0.09765203
v -0.0399028 -0.02346591 -0.07464003
v -0.0398918 -0.08001591 -0.13431603
v -0.0398848 -0.07182891 -0.10292103
v -0.0398848 -0.02201391 -0.11215003
v -0.0398828 -0.06888391 -0.09183403
v -0.0398808 -0.07913891 -0.13639803
v -0.0398548 -0.01873291 -0.07467403
v -0.0398148 -0.03185791 -0.03588403
v -0.0397308 -0.08608491 -0.09582403
v -0.0397308 -0.08367691 -0.09037403
v -0.0396998 0.00088009 -0.05308203
v -0.0396638 -0.06424691 -0.09300503
v -0.0396598 -0.05494291 -0.04843003
v -0.0396518 -0.07345991 -0.10996903
v -0.0395528 -0.00208091 -0.06633103
v -0.0395258 -0.01896191 -0.11763403
v -0.0394978 -0.08135391 -0.08338703
v -0.0394858 -0.01993991 -0.12053803
v -0.0394288 -0.06734091 -0.10409003
v -0.0394058 -0.08862391 -0.11475703
v -0.0393718 -0.07463591 -0.11421403
v -0.0393488 -0.01494291 -0.08117603
v -0.0393408 -0.02345291 -0.11968003
v -0.0393348 -0.04657091 -0.07258903
v -0.0392468 -0.02303391 -0.11678503
v -0.0392178 -0.08656291 -0.10592603
v -0.0391858 -0.09354991 -0.10779503
v -0.0391708 -0.08579591 -0.10227503
v -0.0391688 -0.06929091 -0.11139203
v -0.0391658 -0.09208991 -0.11825303
v -0.0391608 -0.09263691 -0.10421303
v -0.0391308 -0.08719891 -0.10973903
v -0.0391048 -0.06703191 -0.08707603
v -0.0390808 -0.09422091 -0.11159403
v -0.0390798 -0.09285991 -0.11628103
v -0.0390528 -0.08011791 -0.08699503
v -0.0390228 -0.07033091 -0.11515403
v -0.0389978 -0.08633291 -0.08564803
v -0.0389478 -0.07592691 -0.11822903
v -0.0389428 -0.05300391 -0.04420203
v -0.0388588 -0.03727691 -0.03412203
v -0.0388498 -0.09351791 -0.11893903
v -0.0388488 -0.09179991 -0.10021003
v -0.0388478 -0.08788391 -0.08994003
v -0.0388408 -0.08965191 -0.09489303
v -0.0388148 -0.09237591 -0.12165203
v -0.0388128 -0.09399891 -0.12163803
v -0.0388058 -0.09260391 -0.11849103
v -0.0387568 -0.07115991 -0.11847803
v -0.0387428 -0.03685091 -0.07628603
v -0.0387338 -0.07881091 -0.08461603
v -0.0387268 -0.09502291 -0.12510203
v -0.0387128 -0.09363591 -0.11679903
v -0.0386958 -0.09014091 -0.12060703
v -0.0386898 -0.09492491 -0.12543503
v -0.0386808 -0.09303291 -0.12168503
v -0.0386608 -0.09271191 -0.12160103
v -0.0386468 -0.09283091 -0.12177903
v -0.0386378 -0.09383191 -0.12406103
v -0.0386358 -0.09378291 -0.11734703
v -0.0386038 -0.09490691 -0.12435703
v -0.0386008 -0.07994791 -0.07987703
v -0.0385918 -0.08480691 -0.08195503
v -0.0385908 -0.00854091 -0.07474403
v -0.0385898 -0.09407291 -0.12452003
v -0.0385838 -0.07760191 -0.13564603
v -0.0385738 -0.09442791 -0.12514003
v -0.0385728 -0.09286091 -0.11879703
v -0.0385688 -0.09341191 -0.11667003
v -0.0385068 -0.09650791 -0.12520903
v -0.0385068 -0.06278391 -0.08914703
v -0.0384958 -0.09648991 -0.12544103
v -0.0384508 -0.09577591 -0.12151903
v -0.0384348 -0.05406791 -0.08115303
v -0.0384318 -0.04505991 -0.03730903
v -0.0384188 -0.09494591 -0.12431303
v -0.0383778 -0.09398491 -0.12424603
v -0.0383748 -0.09414891 -0.12461703
v -0.0383738 -0.09490391 -0.11517303
v -0.0383738 -0.09442891 -0.12529503
v -0.0383638 -0.09400491 -0.12445403
v -0.0383598 -0.09524491 -0.11858803
v -0.0383368 -0.09321191 -0.12475803
v -0.0383348 -0.09660491 -0.12440703
v -0.0383338 -0.09497791 -0.12503403
v -0.0383328 -0.07627091 -0.13693003
v -0.0382518 -0.09642991 -0.12564503
v -0.0382388 -0.09514891 -0.11666303
v -0.0382168 -0.07718191 -0.12417303
v -0.0382008 -0.07841291 -0.13363503
v -0.0381758 -0.09644291 -0.12508603
v -0.0381648 -0.09488391 -0.12572903
v -0.0381608 -0.07799991 -0.08195203
v -0.0381418 -0.09509991 -0.12537303
v -0.0380838 -0.08255591 -0.09644903
v -0.0380458 -0.09663991 -0.12459403
v -0.0380398 -0.09529491 -0.11596903
v -0.0380208 -0.09654791 -0.12544803
v -0.0380208 -0.01457691 -0.02953003
v -0.0379768 -0.09510591 -0.11589803
v -0.0379408 -0.02556791 -0.07510303
v -0.0379088 -0.07785691 -0.12992203
v -0.0378728 -0.07970691 -0.08983403
v -0.0378668 -0.01347691 -0.07627903
v -0.0378168 -0.09162791 -0.12449503
v -0.0378148 -0.09461891 -0.12576703
v -0.0378148 -0.07469091 -0.13443103
v -0.0377258 -0.07226791 -0.12451103
v -0.0377168 8.909e-05 -0.06217403
v -0.0377138 -0.03028491 -0.07549403
v -0.0375948 -0.08303991 -0.07789103
v -0.0374528 -0.04970291 -0.03965103
v -0.0374148 -0.07765191 -0.07608503
v -0.0374148 -0.07370091 -0.13006003
v -0.0373588 -0.00743191 -0.07282103
v -0.0373298 -0.05744791 -0.04827603
v -0.0372848 -0.09619691 -0.12603803
v -0.0371638 0.00312809 -0.04651703
v -0.0370608 -0.01719791 -0.07496803
v -0.0370398 -0.09323291 -0.12619003
v -0.0368328 -0.09664191 -0.11133803
v -0.0368188 -0.06027291 -0.05585203
v -0.0367988 -0.09762291 -0.11811803
v -0.0367618 -0.07676791 -0.08589703
v -0.0366488 -0.09620091 -0.10739203
v -0.0366348 -0.06381291 -0.07811003
v -0.0366108 -0.08056291 -0.07322703
v -0.0366078 -0.09904191 -0.12494003
v -0.0365548 -0.09811991 -0.12111703
v -0.0365538 -0.09906991 -0.12471203
v -0.0365508 -0.03473491 -0.07487603
v -0.0364948 -0.08683191 -0.11514203
v -0.0364408 -0.07572791 -0.08087803
v -0.0364008 -0.06188291 -0.06207103
v -0.0363968 -0.09704391 -0.11483903
v -0.0363878 -0.08843291 -0.11986403
v -0.0363338 -0.09539291 -0.10403603
v -0.0363278 -0.01342091 -0.07432403
v -0.0363108 -0.09007991 -0.12399603
v -0.0362358 -0.09898591 -0.12514703
v -0.0362288 -0.05905091 -0.04922203
v -0.0362278 -0.08438991 -0.10659003
v -0.0362108 -0.09244991 -0.09420003
v -0.0361458 -0.08339191 -0.10365003
v -0.0361448 -0.09905591 -0.12379903
v -0.0361388 -0.02151191 -0.02829203
v -0.0361328 -0.03846691 -0.07342003
v -0.0361078 -0.08523491 -0.10989903
v -0.0361078 -0.04117091 -0.07287203
v -0.0360838 -0.09437691 -0.10002703
v -0.0360698 -0.09502591 -0.12698303
v -0.0360628 -0.08971891 -0.08515203
v -0.0360558 -0.09185391 -0.12552203
v -0.0360178 -0.05554191 -0.04301903
v -0.0359968 -0.09896891 -0.12457403
v -0.0359958 -0.09729691 -0.11649303
v -0.0359808 -0.09717491 -0.11565803
v -0.0359388 -0.09104791 -0.08935803
v -0.0359208 -0.02106891 -0.07428103
v -0.0358638 -0.09900791 -0.12485603
v -0.0358428 -0.09714791 -0.11563503
v -0.0356498 -0.08820291 -0.08141303
v -0.0356358 0.00183009 -0.05740303
v -0.0356248 -0.00504491 -0.06872403
v -0.0356118 -0.05957691 -0.04781403
v -0.0355868 -0.04401791 -0.07239803
v -0.0355598 -0.07279391 -0.06740203
v -0.0355168 -0.05864291 -0.08070703
v -0.0355088 -0.09892791 -0.12409103
v -0.0354998 -0.06130091 -0.05537603
v -0.0352748 -0.09850791 -0.12541303
v -0.0352288 -0.03073991 -0.02459103
v -0.0351558 -0.02662191 -0.02691303
v -0.0349868 -0.06279391 -0.05519403
v -0.0349708 -0.07615391 -0.06506603
v -0.0348938 -0.04950491 -0.07346903
v -0.0348508 -0.08628391 -0.07727103
v -0.0346878 -0.06495891 -0.05344603
v -0.0346678 -0.09986391 -0.12418103
v -0.0345508 -0.09980391 -0.12450003
v -0.0345178 -0.06766091 -0.05775303
v -0.0344948 -0.09971891 -0.12340003
v -0.0344608 -0.09788091 -0.11681303
v -0.0343898 -0.06511691 -0.06055503
v -0.0343538 -0.08040391 -0.09736603
v -0.0343258 -0.09830791 -0.11820903
v -0.0343228 -0.09903891 -0.12092603
v -0.0343208 -0.09242091 -0.12608903
v -0.0342798 -0.09792791 -0.11616503
v -0.0342268 -0.09831591 -0.11585303
v -0.0342268 -0.06167691 -0.04712203
v -0.0341818 -0.09947991 -0.12331903
v -0.0341798 -0.09992991 -0.12414603
v -0.0341398 -0.09793191 -0.11607003
v -0.0341278 -0.09955091 -0.12419803
v -0.0341038 -0.09949191 -0.12395003
v -0.0340928 -0.07045491 -0.07160803
v -0.0340918 -0.05227391 -0.03830503
v -0.0340438 -0.00295691 -0.06547703
v -0.0339498 -0.09761491 -0.12631303
v -0.0339478 -0.09942691 -0.12469303
v -0.0338908 -0.02644491 -0.07172803
v -0.0338578 -0.09819291 -0.11185203
v -0.0338458 -0.02235691 -0.07201603
v -0.0338248 -0.04361591 -0.03395603
v -0.0338118 -0.08406091 -0.07264503
v -0.0338098 -0.09992291 -0.12344103
v -0.0337998 -0.06883391 -0.05080703
v -0.0337568 -0.09966491 -0.12430103
v -0.0336748 -0.01883091 -0.07142603
v -0.0336728 -0.07116591 -0.05551903
v -0.0336248 -0.06300391 -0.06082703
v -0.0335438 -0.09990391 -0.12360903
v -0.0335088 -0.09878891 -0.11757203
v -0.0334838 -0.09979591 -0.12282303
v -0.0334708 -0.07742191 -0.09085303
v -0.0334658 -0.09969091 -0.12355003
v -0.0333528 -0.09951191 -0.12466903
v -0.0333108 -0.04747591 -0.07210603
v -0.0332978 -0.09772291 -0.10761503
v -0.0332698 -0.10021891 -0.12397403
v -0.0332678 -0.09834891 -0.11775703
v -0.0332118 -0.09955691 -0.12290103
v -0.0332018 -0.01190891 -0.07037003
v -0.0331888 -0.03181591 -0.07125503
v -0.0331668 -0.09829591 -0.11765103
v -0.0331598 -0.01627991 -0.07092303
v -0.0331098 -0.09020091 -0.12335503
v -0.0330818 -0.09927991 -0.12090303
v -0.0330078 -0.06558891 -0.04508503
v -0.0329658 -0.09926291 -0.12076503
v -0.0329298 -0.09924191 -0.12101203
v -0.0328728 -0.09676891 -0.10396403
v -0.0328688 -0.09959091 -0.12067303
v -0.0328688 -0.05851891 -0.04230203
v -0.0327778 -0.05992791 -0.06951903
v -0.0327428 -0.08838391 -0.11938503
v -0.0326888 -0.07573491 -0.08702303
v -0.0324748 -0.05473591 -0.07269003
v -0.0324678 -0.09362391 -0.09386703
v -0.0324598 -0.09866891 -0.12477603
v -0.0324248 -0.09538791 -0.09992303
v -0.0323938 -0.07952491 -0.06441503
v -0.0323728 -0.09116491 -0.08476703
v -0.0322908 -0.08669491 -0.11473703
v -0.0322278 -0.09916691 -0.12342003
v -0.0322148 -0.03553191 -0.07047603
v -0.0320888 -0.08983791 -0.08156403
v -0.0320708 -0.09224391 -0.08856403
v -0.0319838 -0.01773791 -0.06950603
v -0.0317828 -0.07383391 -0.08323803
v -0.0317708 -0.08539791 -0.10907103
v -0.0317398 5.009e-05 -0.06096803
v -0.0317358 -0.03773691 -0.06998703
v -0.0316098 -0.08466891 -0.10627303
v -0.0315028 -0.04769691 -0.03292803
v -0.0314868 -0.08819291 -0.07789703
v -0.0313848 -0.09536091 -0.12550603
v -0.0313648 -0.01911391 -0.06861103
v -0.0313638 -0.02384191 -0.06797303
v -0.0313238 -0.06205191 -0.04050003
v -0.0312338 -0.09945891 -0.11968503
v -0.0312138 -0.08365091 -0.10422503
v -0.0311498 -0.09674591 -0.12399103
v -0.0311338 -0.01569791 -0.06857503
v -0.0310658 -0.00980191 -0.06712903
v -0.0309768 -0.02918891 -0.06706603
v -0.0308138 -0.09838091 -0.11389503
v -0.0306918 -0.03987891 -0.06919503
v -0.0306838 -0.06199791 -0.06629303
v -0.0306178 -0.05299391 -0.07110903
v -0.0305508 -0.07472391 -0.05465803
v -0.0303568 -0.08629791 -0.07395803
v -0.0302468 -0.05536391 -0.03748303
v -0.0302178 -0.09347591 -0.12266503
v -0.0302088 -0.03341291 -0.06655303
v -0.0301598 -0.07279891 -0.05006803
v -0.0301288 -0.09707591 -0.12229703
v -0.0301028 -0.03600791 -0.06722703
v -0.0300878 -0.03638191 -0.02516303
v -0.0300168 -0.08085191 -0.09751703
v -0.0299208 -0.09703991 -0.10866003
v -0.0297468 -0.09100791 -0.08459003
v -0.0296718 -0.06955291 -0.07553603
v -0.0295148 -0.09589091 -0.10460703
v -0.0294618 -0.06939991 -0.04434603
v -0.0294178 -0.04391891 -0.06849803
v -0.0293638 -0.09010991 -0.08207503
v -0.0293048 -0.09211191 -0.11903603
v -0.0292358 -0.05701791 -0.06920503
v -0.0291618 -0.00624291 -0.06196103
v -0.0291278 -0.09607991 -0.11863203
v -0.0290978 -0.08892091 -0.07937303
v -0.0290718 0.00351309 -0.05513003
v -0.0290148 -0.03710291 -0.06582503
v -0.0288878 -0.09443891 -0.10064003
v -0.0288858 -0.06495591 -0.06832403
v -0.0288828 -0.07822991 -0.09087703
v -0.0286728 -0.05846891 -0.03622003
v -0.0285818 -0.09293691 -0.09393203
v -0.0285508 -0.07667291 -0.08717903
v -0.0285038 -0.09066191 -0.11417703
v -0.0284138 -0.01998591 -0.06186103
v -0.0283508 -0.02550391 -0.06110603
v -0.0282868 -0.08890191 -0.10892903
v -0.0282488 -0.01346691 -0.06280103
v -0.0282298 -0.09522291 -0.11363403
v -0.0281778 -0.08816091 -0.10607903
v -0.0280808 -0.06564991 -0.03996703
v -0.0280148 -0.05963891 -0.06812803
v -0.0280108 -0.08181991 -0.06430203
v -0.0278208 -0.09116591 -0.08730103
v -0.0276178 -0.09380491 -0.10871403
v -0.0275968 -0.08723491 -0.10381103
v -0.0275248 -0.07487491 -0.08412503
v -0.0273748 -0.05247691 -0.03105703
v -0.0273618 -0.04142991 -0.06473603
v -0.0273388 -0.09255491 -0.10535503
v -0.0272918 -0.03148091 -0.06000803
v -0.0272518 -0.04080091 -0.02446103
v -0.0270938 -0.04968291 -0.06774303
v -0.0269198 -0.05665591 -0.03381003
v -0.0268658 -0.09119491 -0.10213003
v -0.0266998 -0.08934391 -0.08295503
v -0.0266398 -0.08748791 -0.07762703
v -0.0262618 -0.06226091 -0.06828703
v -0.0262328 -0.08473891 -0.09650603
v -0.0261828 -0.00234091 -0.05686103
v -0.0259908 -0.07737591 -0.05544103
v -0.0257388 -0.09010491 -0.09497103
v -0.0257228 -0.05358991 -0.06744803
v -0.0257078 -0.07501691 -0.05099703
v -0.0256478 -0.06176691 -0.03614103
v -0.0254248 -0.03745491 -0.05935103
v -0.0252878 -0.07035791 -0.07624103
v -0.0252838 -0.08256491 -0.08962003
v -0.0250318 -0.00903591 -0.05603603
v -0.0250058 -0.04744191 -0.06407603
v -0.0248308 -0.08789491 -0.08839203
v -0.0247798 -0.01485791 -0.05486403
v -0.0247778 -0.05613391 -0.06694603
v -0.0247668 -0.08121191 -0.08593403
v -0.0246348 -0.07238991 -0.04534503
v -0.0246328 -0.06687791 -0.07004803
v -0.0241788 -0.08643191 -0.08441403
v -0.0241118 -0.02061191 -0.05360803
v -0.0240208 -0.05955091 -0.03390403
v -0.0237578 -0.08226791 -0.06666103
v -0.0236338 -0.06933091 -0.04098203
v -0.0235698 -0.07949291 -0.08284503
v -0.0235278 -0.05461791 -0.06554303
v -0.0234548 -0.04602291 -0.02347503
v -0.0232718 -0.05135591 -0.06400503
v -0.0231678 -0.05877691 -0.06694403
v -0.0230698 -0.08490791 -0.08006003
v -0.0229598 -0.04367791 -0.05932503
v -0.0228428 -0.02663591 -0.05280903
v -0.0227358 -0.06548691 -0.06858203
v -0.0216128 -0.06450891 -0.03605303
v -0.0215288 -0.03248791 -0.05254703
v -0.0214968 -0.05566691 -0.06435703
v -0.0207458 -0.07764291 -0.05831503
v -0.0207448 -0.05844791 -0.03098803
v -0.0206138 -0.07469591 -0.07478003
v -0.0203338 -0.08011191 -0.07047903
v -0.0199168 -0.04949691 -0.05940803
v -0.0198508 -0.06234691 -0.06650103
v -0.0196768 -0.07649491 -0.05505203
v -0.0193688 -0.07073391 -0.06795903
v -0.0193038 -0.03848491 -0.05272603
v -0.0191328 -0.01030091 -0.04999503
v -0.0190108 -0.07174191 -0.04386603
v -0.0185998 -0.01600491 -0.04807103
v -0.0182478 -0.06971391 -0.06633603
v -0.0179318 -0.05851491 -0.06338603
v -0.0178398 -0.07472391 -0.05115603
v -0.0177248 -0.02201991 -0.04678603
v -0.0176878 -0.07485891 -0.06267703
v -0.0171428 -0.06764591 -0.03834903
v -0.0171388 -0.05134791 -0.02418803
v -0.0168988 -0.02771391 -0.04660203
v -0.0168448 -0.04454691 -0.05359803
v -0.0166818 -0.06721291 -0.06495603
v -0.0165598 -0.07368291 -0.05984103
v -0.0162528 -0.05457891 -0.05918503
v -0.0156858 -0.07108791 -0.04456703
v -0.0152748 -0.03386591 -0.04693203
v -0.0151248 -0.07262891 -0.04844903
v -0.0147498 -0.07038091 -0.06090303
v -0.0146878 -0.07235991 -0.05590403
v -0.0144358 -0.06388591 -0.06152203
v -0.0138698 -0.05045191 -0.05424103
v -0.0137108 -0.07028391 -0.05773703
v -0.0134648 -0.06271191 -0.03250703
v -0.0133158 -0.06908891 -0.04123203
v -0.0130988 -0.06754391 -0.05956303
v -0.0129858 -0.07111491 -0.05356403
v -0.0129308 -0.03983191 -0.04816503
v -0.0126818 -0.06030391 -0.05793003
v -0.0125168 -0.06942491 -0.05653403
v -0.0118798 -0.02263391 -0.04217503
v -0.0110138 -0.06908091 -0.04428303
v -0.0109428 -0.02914091 -0.04316903
v -0.0108168 -0.06442291 -0.05631003
v -0.0105198 -0.04577491 -0.04937403
v -0.0104338 -0.05581891 -0.05386503
v -0.0103838 -0.05676291 -0.02624903
v -0.0100988 -0.06654791 -0.05277703
v -0.0099168 -0.06807491 -0.04917703
v -0.0091178 -0.06424391 -0.03467303
v -0.0088708 -0.03485991 -0.04437103
v -0.0083418 -0.04891891 -0.01812403
v -0.0075908 -0.06014191 -0.05211503
v -0.0070268 -0.05154691 -0.05051003
v -0.0064168 -0.04128091 -0.04660003
v -0.0057528 -0.06260191 -0.04841403
v -0.0056178 -0.05974291 -0.02825303
v -0.0056168 -0.06473991 -0.03769203
v -0.0049108 -0.03016791 -0.04141603
v -0.0042108 -0.06460991 -0.04345303
v -0.0040058 -0.05626191 -0.04956103
v -0.0031478 -0.04627091 -0.04816803
v -0.0029888 -0.03713591 -0.04381303
v -0.0029498 -0.05392791 -0.02114203
v -0.0011828 -0.06147091 -0.03121803
v -0.0011148 -0.06099491 -0.04645603
v -0.0003208 -0.06367391 -0.03996803
v -0.0001618 -0.03267391 -0.04183303
v 0.0001032 -0.04186091 -0.04581703
v 0.0004082 -0.05197391 -0.04931903
v 0.0011532 -0.05956291 -0.04689103
v 0.0013202 -0.05583891 -0.02393403
v 0.0015702 -0.06270891 -0.04066203
v 0.0024792 -0.06056491 -0.03287503
v 0.0030672 -0.03775991 -0.04431103
v 0.0038152 -0.05784291 -0.02605903
v 0.0038362 -0.05781491 -0.04647703
v 0.0040592 -0.04924191 -0.04853503
v 0.0040862 -0.06151391 -0.04179503
v 0.0052042 -0.05884991 -0.02751503
v 0.0055012 -0.06052791 -0.03472703
v 0.0063782 -0.04332691 -0.04691703
v 0.0070282 -0.05872691 -0.04544503
v 0.0072922 -0.06132591 -0.04200403
v 0.0076112 -0.05519791 -0.04794703
v 0.0077912 -0.06151291 -0.03749203
v 0.0082742 -0.05911591 -0.02775803
v 0.0084032 -0.06176191 -0.03370603
v 0.0089962 -0.06309291 -0.04448503
v 0.0091492 -0.06382891 -0.04160503
v 0.0091922 -0.05110591 -0.04890303
v 0.0092022 -0.06199991 -0.03134503
v 0.0092932 -0.06095891 -0.04600603
v 0.0101542 -0.06224591 -0.04695303
v 0.0102582 -0.05903291 -0.04755703
v 0.0103982 -0.06417391 -0.04664603
v 0.0105702 -0.06569391 -0.04419003
v 0.0113902 -0.03943091 -0.04531803
v 0.0114372 -0.06206691 -0.04818903
v 0.0114502 -0.07993691 -0.06715903
v 0.0115332 -0.06528891 -0.03720603
v 0.0115472 -0.06425591 -0.03405203
v 0.0116192 -0.08189591 -0.07226703
v 0.0119712 -0.08375691 -0.07664603
v 0.0121632 -0.07722991 -0.06024203
v 0.0122042 -0.05674591 -0.04901903
v 0.0124082 -0.06650291 -0.05120703
v 0.0124802 -0.07648391 -0.06906003
v 0.0125222 -0.06932891 -0.04800803
v 0.0126292 -0.07889091 -0.07414903
v 0.0127132 -0.06084891 -0.02839503
v 0.0128032 -0.07570691 -0.05681603
v 0.0129432 -0.08142991 -0.07841403
v 0.0130072 -0.07301291 -0.06216603
v 0.0132782 -0.06956091 -0.05628003
v 0.0133362 -0.08306091 -0.06527803
v 0.0133472 -0.07362691 -0.05326303
v 0.0133842 -0.06820991 -0.04112203
v 0.0134282 -0.05916891 -0.04985803
v 0.0134852 -0.08531591 -0.08034203
v 0.0135422 -0.07165991 -0.05922003
v 0.0137472 -0.08333091 -0.08088203
v 0.0139742 -0.08078391 -0.05833403
v 0.0143022 -0.08698791 -0.07932003
v 0.0145512 -0.08611491 -0.07542603
v 0.0146452 -0.04608091 -0.04766203
v 0.0146922 -0.08570791 -0.08161803
v 0.0148572 -0.07926091 -0.05459703
v 0.0148862 -0.06269791 -0.05339703
v 0.0149112 -0.08484791 -0.08206603
v 0.0149772 -0.06422191 -0.03208303
v 0.0150502 -0.07193491 -0.04557603
v 0.0151062 -0.08747191 -0.07850003
v 0.0151342 -0.08767891 -0.07898903
v 0.0151602 -0.08803491 -0.07964403
v 0.0152382 -0.08519591 -0.07158703
v 0.0152652 -0.08773491 -0.07989003
v 0.0152732 -0.08614891 -0.07549903
v 0.0153142 -0.08728691 -0.07905503
v 0.0153462 -0.08742091 -0.07921803
v 0.0153872 -0.08618891 -0.07578603
v 0.0154082 -0.08729491 -0.07880503
v 0.0154872 -0.08853691 -0.08007103
v 0.0155092 -0.07665291 -0.05076403
v 0.0155682 -0.07958591 -0.07953903
v 0.0155732 -0.08633091 -0.07574603
v 0.0156002 -0.08852591 -0.07963803
v 0.0156492 -0.08792491 -0.08040703
v 0.0156632 -0.08808091 -0.08054703
v 0.0156632 -0.06722891 -0.05853103
v 0.0157932 -0.08434691 -0.08278903
v 0.0158022 -0.08822091 -0.07886003
v 0.0158132 -0.08802891 -0.07965703
v 0.0159112 -0.08809791 -0.08007903
v 0.0159392 -0.08715391 -0.07577203
v 0.0159562 -0.06660991 -0.03552503
v 0.0159632 -0.08523491 -0.07224703
v 0.0159782 -0.07650391 -0.07560003
v 0.0160242 -0.08194291 -0.08223003
v 0.0160632 -0.08791991 -0.07901503
v 0.0160702 -0.07336091 -0.07049203
v 0.0161182 -0.08611691 -0.08299303
v 0.0161372 -0.06914691 -0.06078703
v 0.0161912 -0.08546691 -0.07242203
v 0.0163262 -0.06973891 -0.06342603
v 0.0166912 -0.08589491 -0.07311103
v 0.0168512 -0.08925391 -0.08077603
v 0.0169172 -0.08459691 -0.06439103
v 0.0169562 -0.08957391 -0.08050103
v 0.0170282 -0.08882891 -0.08112203
v 0.0171872 -0.08951491 -0.08027903
v 0.0172572 -0.06941491 -0.03948303
v 0.0173902 -0.08891891 -0.08072103
v 0.0174072 -0.08894791 -0.08030303
v 0.0174502 -0.05101191 -0.04858303
v 0.0174892 -0.08565291 -0.07012803
v 0.0175002 -0.08918391 -0.07926103
v 0.0175522 -0.08535591 -0.07098503
v 0.0175522 -0.08531391 -0.07085803
v 0.0176232 -0.08288491 -0.05740303
v 0.0176752 -0.08883491 -0.07968203
v 0.0176922 -0.08561391 -0.07118903
v 0.0177602 -0.08578591 -0.07189703
v 0.0178362 -0.08843591 -0.07626403
v 0.0181122 -0.08115891 -0.05349203
v 0.0182972 -0.08726991 -0.07353603
v 0.0182992 -0.07325291 -0.04436203
v 0.0185852 -0.05486091 -0.05000303
v 0.0186482 -0.07827591 -0.04980403
v 0.0191832 -0.08627691 -0.07168403
v 0.0195472 -0.06272991 -0.03106903
v 0.0197392 -0.08555891 -0.07125303
v 0.0197642 -0.08546791 -0.07123303
v 0.0197652 -0.08568391 -0.07052003
v 0.0198582 -0.08583391 -0.07126303
v 0.0201302 -0.08144591 -0.08294303
v 0.0201492 -0.08469791 -0.06442103
v 0.0203822 -0.06610391 -0.03483803
v 0.0205302 -0.06004291 -0.05398203
v 0.0205622 -0.08325691 -0.08388803
v 0.0205902 -0.07881391 -0.08050303
v 0.0207202 -0.06774891 -0.06129603
v 0.0208552 -0.08885091 -0.08153303
v 0.0209152 -0.06925291 -0.03883503
v 0.0209322 -0.08846591 -0.08187403
v 0.0209842 -0.08875291 -0.08129503
v 0.0210072 -0.06546891 -0.05917203
v 0.0211012 -0.08591191 -0.08419903
v 0.0211662 -0.06873091 -0.06401003
v 0.0212062 -0.07550791 -0.07633703
v 0.0212312 -0.08800191 -0.08133203
v 0.0212562 -0.08802391 -0.08171303
v 0.0214012 -0.08777191 -0.08207003
v 0.0214222 -0.08828291 -0.08034103
v 0.0214492 -0.08777491 -0.08075203
v 0.0214662 -0.08318391 -0.05739603
v 0.0216252 -0.08769191 -0.07726203
v 0.0216552 -0.07311891 -0.04388703
v 0.0216702 -0.07232091 -0.07121003
v 0.0217082 -0.08557691 -0.07159403
v 0.0217222 -0.08586791 -0.07202203
v 0.0217622 -0.08658391 -0.07425703
v 0.0217662 -0.08374791 -0.08330503
v 0.0217962 -0.08535291 -0.07163703
v 0.0218282 -0.08526191 -0.07163503
v 0.0218282 -0.04943091 -0.04719003
v 0.0219262 -0.08117691 -0.05353403
v 0.0220642 -0.08537391 -0.07105403
v 0.0221312 -0.07806591 -0.04952803
v 0.0221632 -0.05384691 -0.04850703
v 0.0225622 -0.08519991 -0.08364103
v 0.0228312 -0.08701291 -0.08260903
v 0.0229062 -0.08772191 -0.08222303
v 0.0230312 -0.08764091 -0.08192103
v 0.0230442 -0.08682691 -0.08227203
v 0.0230692 -0.08650991 -0.08131003
v 0.0231032 -0.08657991 -0.08207503
v 0.0231032 -0.08194491 -0.08221103
v 0.0231262 -0.08682591 -0.08256103
v 0.0231612 -0.08713291 -0.08121403
v 0.0232252 -0.08406091 -0.06500203
v 0.0233152 -0.08511091 -0.07287603
v 0.0233682 -0.08657491 -0.08261303
v 0.0233922 -0.08709791 -0.08234803
v 0.0235442 -0.08598391 -0.07719403
v 0.0235902 -0.08646291 -0.08163103
v 0.0236052 -0.08596191 -0.08183403
v 0.0236782 -0.08468391 -0.07246603
v 0.0236962 -0.08555091 -0.08107703
v 0.0237372 -0.08494191 -0.07381403
v 0.0237582 -0.08596391 -0.08098703
v 0.0237672 -0.08625791 -0.08183603
v 0.0238352 -0.08445891 -0.07248803
v 0.0238662 -0.08435991 -0.07244603
v 0.0240002 -0.07994591 -0.07988403
v 0.0241602 -0.08422491 -0.07151703
v 0.0241752 -0.08453391 -0.08270703
v 0.0242222 -0.06468491 -0.03478903
v 0.0243102 -0.08598791 -0.08213603
v 0.0243512 -0.06822691 -0.03903403
v 0.0243732 -0.08476491 -0.07754903
v 0.0243892 -0.08460891 -0.07769203
v 0.0244802 -0.07246991 -0.04449503
v 0.0245532 -0.08246891 -0.05773703
v 0.0246532 -0.08455891 -0.07745103
v 0.0248632 -0.08382291 -0.07352503
v 0.0248792 -0.06867491 -0.06033003
v 0.0248912 -0.08044991 -0.05407703
v 0.0248932 -0.08367391 -0.07343003
v 0.0249092 -0.07733491 -0.05006903
v 0.0249892 -0.06677491 -0.05801003
v 0.0250142 -0.07710691 -0.07561003
v 0.0250362 -0.05302991 -0.04687003
v 0.0250472 -0.06097691 -0.05218903
v 0.0251482 -0.04942691 -0.04498403
v 0.0253302 -0.08435091 -0.07760803
v 0.0255672 -0.08275691 -0.06560203
v 0.0256312 -0.08322791 -0.07301703
v 0.0257052 -0.07005391 -0.06329603
v 0.0261022 -0.07431391 -0.07049703
v 0.0263492 -0.08261991 -0.07912503
v 0.0265362 -0.05514891 -0.04643503
v 0.0268992 -0.07039691 -0.04589603
v 0.0270192 -0.08039191 -0.05885003
v 0.0270872 -0.06542591 -0.04007503
v 0.0271722 -0.07510891 -0.05165603
v 0.0272062 -0.06346291 -0.05047503
v 0.0273092 -0.07986991 -0.07421803
v 0.0273222 -0.07822391 -0.05538603
v 0.0273572 -0.06910591 -0.05637703
v 0.0273742 -0.06164691 -0.03586403
v 0.0276082 -0.07123591 -0.05897603
v 0.0276622 -0.08081591 -0.06717603
v 0.0280842 -0.06687091 -0.04782803
v 0.0282502 -0.07225391 -0.05397603
v 0.0282512 -0.05776591 -0.04456903
v 0.0283252 -0.07342691 -0.06189703
v 0.0284272 -0.07779491 -0.06917203
v 0.0284422 -0.07478991 -0.05713903
v 0.0285662 -0.07719591 -0.06032603
v 0.0287452 -0.06132291 -0.04205403
