# Rest-skin points; MuJoCo computes the convex hull.
v -0.14009858 -0.1322221 -0.14180843
v -0.13841458 -0.1381601 -0.13739143
v -0.13751558 -0.1282411 -0.14672243
v -0.13581358 -0.1266901 -0.13704843
v -0.13492458 -0.1438551 -0.13390343
v -0.13442758 -0.1323631 -0.13192843
v -0.13320058 -0.1231011 -0.14219243
v -0.13249758 -0.1260681 -0.15128843
v -0.13133858 -0.1210331 -0.13196743
v -0.13115858 -0.1379031 -0.12784543
v -0.13102858 -0.1491251 -0.13076143
v -0.13018958 -0.1263221 -0.12629743
v -0.12903458 -0.1177431 -0.13712543
v -0.12845458 -0.1215431 -0.14663843
v -0.12698858 -0.1145761 -0.12683043
v -0.12689558 -0.1316901 -0.12169043
v -0.12687558 -0.1429711 -0.12459543
v -0.12643058 -0.1250381 -0.15536043
v -0.12642758 -0.1539671 -0.12828343
v -0.12617258 -0.1195961 -0.12094443
v -0.12494758 -0.1158721 -0.14151343
v -0.12494458 -0.1112491 -0.13181543
v -0.12308958 -0.1207651 -0.15065243
v -0.12291758 -0.1249591 -0.11577443
v -0.12230358 -0.1365951 -0.11824943
v -0.12213758 -0.1475091 -0.12224843
v -0.12200058 -0.1070211 -0.12082243
v -0.12162658 -0.1119471 -0.11487143
v -0.12112658 -0.1090941 -0.13626943
v -0.12100058 -0.1580831 -0.12710943
v -0.11995158 -0.1034871 -0.12618043
v -0.11988058 -0.1264751 -0.15765443
v -0.11986358 -0.1151061 -0.14552143
v -0.11881658 -0.1172601 -0.10954943
v -0.11841358 -0.1297201 -0.11205943
v -0.11740258 -0.1410151 -0.11592043
v -0.11703258 -0.1219911 -0.15326743
v -0.11681058 -0.1514511 -0.12112443
v -0.11635758 -0.0985831 -0.11362343
v -0.11625458 -0.1033021 -0.10783143
v -0.11587158 -0.1083001 -0.14022543
v -0.11585758 -0.1012801 -0.13089443
v -0.11466358 -0.1608041 -0.12790043
v -0.11443658 -0.1222461 -0.10547543
v -0.11403158 -0.1084441 -0.10254043
v -0.11402158 -0.0948781 -0.11927543
v -0.11378958 -0.1161501 -0.14855243
v -0.11347158 -0.1340841 -0.10971843
v -0.11327058 -0.1301031 -0.15837343
v -0.11228458 -0.1449051 -0.11502743
v -0.11066258 -0.1543041 -0.12203943
v -0.11066058 -0.1252271 -0.15418343
v -0.11016758 -0.1134771 -0.09829843
v -0.11015958 -0.1008261 -0.13474543
v -0.10991558 -0.0936811 -0.09968243
v -0.10957458 -0.0889711 -0.10577743
v -0.10955058 -0.1266121 -0.10301043
v -0.10951658 -0.0926891 -0.12427843
v -0.10949358 -0.1094831 -0.14323943
v -0.10854558 -0.1378321 -0.10899143
v -0.10851158 -0.1354041 -0.15700443
v -0.10806858 -0.0988551 -0.09414543
v -0.10788558 -0.1613131 -0.13122843
v -0.10711758 -0.1196261 -0.14958443
v -0.10670958 -0.0853341 -0.11194743
v -0.10648458 -0.1478331 -0.11619443
v -0.10535458 -0.1180911 -0.09557543
v -0.10530558 -0.1302451 -0.15259343
v -0.10486458 -0.1404541 -0.15492843
v -0.10459158 -0.1040521 -0.08969843
v -0.10453358 -0.1303611 -0.10222643
v -0.10418158 -0.1551211 -0.12560743
v -0.10343758 -0.1023351 -0.13745543
v -0.10324458 -0.0924201 -0.12829343
v -0.10303558 -0.1409521 -0.10997843
v -0.10275158 -0.1593311 -0.13616643
v -0.10272658 -0.1448301 -0.15231243
v -0.10265058 -0.1132081 -0.14435343
v -0.10232858 -0.0831031 -0.09011743
v -0.10190158 -0.1487171 -0.14890643
v -0.10162958 -0.0833441 -0.11735843
v -0.10154258 -0.0784261 -0.09687043
v -0.10153258 -0.1244941 -0.14813943
v -0.10107158 -0.1351311 -0.14995543
v -0.10096958 -0.1558351 -0.14086943
v -0.10090458 -0.0882391 -0.08432243
v -0.10086658 -0.1489331 -0.11962343
v -0.10017058 -0.1221081 -0.09446243
v -0.09989758 -0.1090961 -0.08678543
v -0.09965758 -0.1536011 -0.13055143
v -0.09921758 -0.1334771 -0.10304743
v -0.09886858 -0.1396711 -0.14680543
v -0.09820858 -0.0750331 -0.10370443
v -0.09805958 -0.1436861 -0.14318843
v -0.09785658 -0.0935811 -0.07982243
v -0.09781858 -0.1505891 -0.13529043
v -0.09777758 -0.1425581 -0.11301043
v -0.09769458 -0.1472411 -0.13942443
v -0.09724158 -0.1296561 -0.14534943
v -0.09685258 -0.1180771 -0.14283343
v -0.09666758 -0.1481021 -0.12440443
v -0.09664058 -0.1059281 -0.13820743
v -0.09616558 -0.0942581 -0.13077843
v -0.09491558 -0.0833521 -0.12145043
v -0.09486058 -0.1347321 -0.14184543
v -0.09476658 -0.1253391 -0.09505243
v -0.09444158 -0.1136151 -0.08564443
v -0.09440058 -0.1458421 -0.12936443
v -0.09398558 -0.1391591 -0.13787543
v -0.09391758 -0.1352761 -0.10561443
v -0.09378458 -0.1428311 -0.13381543
v -0.09349558 -0.0991331 -0.07679543
v -0.09337458 -0.1423311 -0.11762243
v -0.09336458 -0.0704431 -0.07968643
v -0.09269058 -0.0734551 -0.10956843
v -0.09252058 -0.0761001 -0.07322743
v -0.09243058 -0.1235321 -0.13979343
v -0.09208258 -0.0658881 -0.08726743
v -0.09092758 -0.1108441 -0.13671043
v -0.09046258 -0.1403601 -0.12285443
v -0.09005258 -0.1287751 -0.13609743
v -0.08989858 -0.0823401 -0.06827243
v -0.08941058 -0.0977811 -0.13131943
v -0.08932458 -0.1353721 -0.10979543
v -0.08928458 -0.1372071 -0.12763243
v -0.08926158 -0.1272731 -0.09739443
v -0.08924758 -0.1333871 -0.13186243
v -0.08857658 -0.1171101 -0.08632243
v -0.08845258 -0.0631361 -0.09485943
v -0.08801858 -0.1042801 -0.07565443
v -0.08769758 -0.0853281 -0.12380343
v -0.08668158 -0.1162781 -0.13363243
v -0.08596758 -0.1337831 -0.11492343
v -0.08586858 -0.0737361 -0.11382343
v -0.08574958 -0.0886651 -0.06516943
v -0.08429558 -0.1216881 -0.12962843
v -0.08418358 -0.1274931 -0.10135243
v -0.08416358 -0.1307011 -0.12007743
v -0.08384658 -0.0618181 -0.06166743
v -0.08369658 -0.1025451 -0.12984043
v -0.08364658 -0.1265481 -0.12494543
v -0.08362558 -0.0556351 -0.06897643
v -0.08273458 -0.1190221 -0.08874143
v -0.08272858 -0.0623071 -0.10127843
v -0.08210858 -0.0688511 -0.05617643
v -0.08181258 -0.1083001 -0.07646243
v -0.08123558 -0.0512091 -0.07754143
v -0.08096858 -0.0887891 -0.12414543
v -0.08039058 -0.0943671 -0.06421443
v -0.08020658 -0.1259781 -0.10644043
v -0.07958658 -0.1081351 -0.12659143
v -0.07880458 -0.0755771 -0.11617843
v -0.07838458 -0.0762281 -0.05260643
v -0.07775958 -0.1228991 -0.11193343
v -0.07734058 -0.1137041 -0.12229543
v -0.07731758 -0.1191691 -0.09267743
v -0.07699358 -0.0492851 -0.08585343
v -0.07681558 -0.1186441 -0.11735843
v -0.07585858 -0.0630901 -0.10591143
v -0.07547558 -0.1105601 -0.07914643
v -0.07519258 -0.0935101 -0.12244643
v -0.07509958 -0.0477551 -0.04928743
v -0.07409658 -0.0988511 -0.06528143
v -0.07401258 -0.0559991 -0.04300343
v -0.07381758 -0.0407631 -0.05761643
v -0.07288258 -0.1174821 -0.09774743
v -0.07260458 -0.0831871 -0.05125843
v -0.07212058 -0.0789011 -0.11650343
v -0.07139658 -0.0494631 -0.09284643
v -0.07105158 -0.0992081 -0.11873343
v -0.07040358 -0.0364271 -0.06724043
v -0.07017358 -0.0646581 -0.03879943
v -0.06988758 -0.1141961 -0.10333143
v -0.06969458 -0.1107671 -0.08333743
v -0.06893158 -0.1047741 -0.11397143
v -0.06869958 -0.0652701 -0.10847143
v -0.06854058 -0.1098051 -0.10884843
v -0.06736858 -0.1014451 -0.06822443
v -0.06627958 -0.0836521 -0.11474443
v -0.06587358 -0.0336401 -0.03832243
v -0.06579058 -0.0425771 -0.03058843
v -0.06543858 -0.0351161 -0.07627243
v -0.06525058 -0.0885521 -0.05232343
v -0.06492858 -0.1090181 -0.08853243
v -0.06482958 -0.0510081 -0.09806043
v -0.06364658 -0.0724351 -0.03714343
v -0.06338458 -0.0268841 -0.04747243
v -0.06206258 -0.0894751 -0.11083143
v -0.06197558 -0.0524601 -0.02502043
v -0.06178258 -0.0688931 -0.10864843
v -0.06156858 -0.1055481 -0.09428443
v -0.06104558 -0.1018181 -0.07272443
v -0.05998858 -0.0953541 -0.10568043
v -0.05987158 -0.1007941 -0.10014043
v -0.05942958 -0.0228531 -0.05744443
v -0.05938558 -0.0359591 -0.08376943
v -0.05760058 -0.0537561 -0.10097343
v -0.05750458 -0.0914851 -0.05568743
v -0.05583858 -0.0738491 -0.10633943
v -0.05578958 -0.1001031 -0.07834043
v -0.05536758 -0.0777771 -0.03828043
v -0.05462758 -0.0610661 -0.02269443
v -0.05373958 -0.0217741 -0.06665143
v -0.05270658 -0.0381501 -0.08927643
v -0.05209558 -0.0965501 -0.08453943
v -0.05181258 -0.0796841 -0.10199743
v -0.05053158 -0.0920361 -0.06082943
v -0.05039758 -0.0577831 -0.10087843
v -0.05018458 -0.0916291 -0.09071843
v -0.05003758 -0.0858371 -0.09657743
v -0.04815058 -0.0108801 -0.04847343
v -0.04682958 -0.0230301 -0.07426143
v -0.04674158 -0.0805011 -0.04179443
v -0.04542158 -0.0415271 -0.09233643
v -0.04539658 -0.0664251 -0.02385543
v -0.04487158 -0.0904801 -0.06707743
v -0.04418358 -0.0629781 -0.09782843
v -0.04120058 -0.0097381 -0.05759443
v -0.04091458 -0.0870781 -0.07380143
v -0.04000358 -0.0692171 -0.09273943
v -0.03988358 -0.0258151 -0.07967743
v -0.03906658 -0.0810531 -0.04733943
v -0.03877858 -0.0821471 -0.08041743
v -0.03838158 -0.0759701 -0.08671743
v -0.03795558 -0.0462071 -0.09187443
v -0.03646158 -0.0687291 -0.02772743
v -0.03399158 -0.0112161 -0.06450843
v -0.03276158 -0.0297991 -0.08238743
v -0.03270458 -0.0797931 -0.05432343
v -0.03151958 -0.0518321 -0.08798843
v -0.02886458 -0.0690681 -0.03364843
v -0.02819058 -0.0767191 -0.06202243
v -0.02746558 -0.0145151 -0.06945543
v -0.02724458 -0.0583001 -0.08229343
v -0.02587358 -0.0718631 -0.06949643
v -0.02555458 -0.0351151 -0.08134043
v -0.02552558 -0.0653931 -0.07615843
v -0.02210258 -0.0681311 -0.04107043
v -0.02080858 -0.0190421 -0.07209543
v -0.01942958 -0.0409871 -0.07717343
v -0.01675458 -0.0657431 -0.04940743
v -0.01522558 -0.0475591 -0.07130443
v -0.01399358 -0.0563231 -0.02929443
v -0.01393558 -0.0612891 -0.05756343
v -0.01382658 -0.0248111 -0.07088843
v -0.01343358 -0.0548861 -0.06481543
v -0.00813558 -0.0547491 -0.03721443
v -0.00781358 -0.0311811 -0.06647243
v -0.00416158 -0.0511941 -0.04549743
v -0.00409858 -0.0382661 -0.06005943
v -0.00300958 -0.0453291 -0.05307343
