# Rest-skin points; MuJoCo computes the convex hull.
v -0.02895233 -0.00468163 -0.02676017
v -0.02843233 -0.01313663 -0.01911817
v -0.02547233 -0.02069063 -0.01155417
v -0.02510033 0.00333537 -0.03081817
v -0.02096333 -0.02599063 -0.00380617
v -0.02082133 -0.01787763 -0.03146117
v -0.01882233 -0.01041863 -0.03754117
v -0.01875833 0.01025337 -0.03047617
v -0.01861433 -0.02509163 -0.02434917
v -0.01623333 -0.02779863 0.00308483
v -0.01436933 -0.00322863 -0.04135617
v -0.01425833 -0.03048363 -0.01669417
v -0.01177733 -0.02791063 0.00843083
v -0.01160333 0.01699037 -0.02778117
v -0.01127733 -0.02495863 -0.04376917
v -0.01079833 -0.03211363 -0.03696817
v -0.00876333 -0.03236163 -0.00902617
v -0.00869633 -0.01735563 -0.04999817
v -0.00839833 0.00357537 -0.04209517
v -0.00767433 -0.03762663 -0.02948617
v -0.00692033 -0.02771963 0.01298883
v -0.00397233 0.02430037 -0.02488117
v -0.00355433 -0.03227563 -0.00264617
v -0.00352633 -0.01038763 -0.05383917
v -0.00236233 -0.04040863 -0.02151217
v -0.00191533 0.00971337 -0.03990417
v -0.00104833 -0.02830863 0.01746083
v -0.00066033 -0.04160363 -0.04955817
v 0.00012467 -0.03414063 -0.05642117
v 0.00085067 -0.04747563 -0.04190817
v 0.00147567 -0.03229063 0.00319383
v 0.00281267 -0.00430163 -0.05446817
v 0.00355467 -0.02660263 -0.06252217
v 0.00383767 -0.04103263 -0.01415517
v 0.00417667 0.02778037 -0.01927917
v 0.00491367 -0.05088263 -0.03369417
v 0.00517067 0.01599537 -0.03661417
v 0.00661167 -0.02750063 0.02198283
v 0.00683367 -0.03336263 0.00897283
v 0.00914167 0.00117237 -0.05212817
v 0.00922167 -0.02002563 -0.06636717
v 0.00960267 -0.04120863 -0.00717817
v 0.01057167 -0.05244763 -0.06206117
v 0.01079567 -0.05217963 -0.02571917
v 0.01119067 -0.05882163 -0.05465617
v 0.01181067 0.02540837 -0.01174017
v 0.01216567 -0.04483963 -0.06858817
v 0.01324967 0.01900337 -0.03081717
v 0.01405067 -0.06292263 -0.04628717
v 0.01417467 -0.03266863 0.01433583
v 0.01512967 -0.01231063 0.03238383
v 0.01513967 -0.02384963 0.02518083
v 0.01529267 -0.04168063 -0.00036017
v 0.01558967 -0.01418663 -0.06697917
v 0.01573367 0.00608737 -0.04790717
v 0.01625767 -0.03781563 -0.07450017
v 0.01704567 -0.05233163 -0.01798717
v 0.01918467 0.01799537 -0.00252217
v 0.01922967 -0.06471263 -0.03775617
v 0.02108267 0.01638937 -0.02295817
v 0.02163567 -0.00931163 -0.06413917
v 0.02239367 -0.03164063 -0.07850317
v 0.02283267 -0.04003363 0.00544883
v 0.02314667 0.00823237 -0.04135417
v 0.02319267 -0.02894363 0.01798183
v 0.02367767 -0.05204263 -0.01070717
v 0.02378067 -0.01562363 0.02491583
v 0.02450767 -0.06474763 -0.07521217
v 0.02459367 -0.07106863 -0.06807317
v 0.02563967 -0.06502063 -0.02979617
v 0.02625467 -0.05744663 -0.08149117
v 0.02648167 -0.07531463 -0.05988617
v 0.02745567 0.00977937 0.00906183
v 0.02789967 -0.00534063 -0.05902517
v 0.02834667 0.00996337 -0.01273517
v 0.02879967 -0.00258463 0.01890583
v 0.02950267 -0.02612263 -0.07909517
v 0.03042667 -0.05066563 -0.08721417
v 0.03048067 -0.07751063 -0.05151817
v 0.03051967 0.00635637 -0.03286117
v 0.03187367 -0.01999063 0.01681183
v 0.03206067 -0.03525863 0.00888983
v 0.03212567 -0.04998463 -0.00526617
v 0.03285967 -0.06417263 -0.02295617
v 0.03498567 -0.00333463 -0.05162617
v 0.03576067 0.00301337 -0.00092617
v 0.03625167 -0.07795363 -0.04383317
v 0.03635367 -0.02165663 -0.07599617
v 0.03668867 -0.04464363 -0.09091417
v 0.03686867 -0.00746863 0.00931183
v 0.03725667 0.00153437 -0.02263517
v 0.03828267 -0.07623363 -0.08641317
v 0.03858867 -0.08237563 -0.07978617
v 0.03987367 -0.06934963 -0.09259617
v 0.04031567 -0.08678563 -0.07253317
v 0.04053467 -0.02632063 0.00712983
v 0.04155167 -0.04417663 -0.00288317
v 0.04160167 -0.06147163 -0.01814917
v 0.04168167 -0.00430963 -0.04225217
v 0.04274867 -0.01803363 -0.07032517
v 0.04332267 -0.00516263 -0.01123317
v 0.04348967 -0.07673763 -0.03737317
v 0.04370967 -0.08927363 -0.06493317
v 0.04374667 -0.03947563 -0.09080417
v 0.04399067 -0.06287663 -0.09779717
v 0.04480767 -0.01486163 -0.00054517
v 0.04686567 -0.00854663 -0.03186617
v 0.04868967 -0.01596463 -0.06216717
v 0.04872267 -0.08999163 -0.05792017
v 0.04898367 -0.03454763 -0.00486317
v 0.05012767 -0.05734363 -0.10076817
v 0.05040367 -0.08680963 -0.09646417
v 0.05042867 -0.03529763 -0.08699017
v 0.05061267 -0.09253763 -0.09023617
v 0.05077567 -0.05562363 -0.01643717
v 0.05131467 -0.01520063 -0.02101017
v 0.05202167 -0.07345563 -0.03302117
v 0.05213667 -0.08050263 -0.10219517
v 0.05245867 -0.02411963 -0.01118817
v 0.05247567 -0.09709963 -0.08364417
v 0.05359167 -0.01640763 -0.05214417
v 0.05516367 -0.08881963 -0.05214217
v 0.05593267 -0.10008163 -0.07701917
v 0.05612867 -0.07439363 -0.10670517
v 0.05666967 -0.03201163 -0.08066117
v 0.05712267 -0.05289863 -0.10044717
v 0.05741267 -0.02001963 -0.04167117
v 0.05796067 -0.04648563 -0.01862417
v 0.06037267 -0.06750363 -0.03150617
v 0.06057067 -0.09654263 -0.10588417
v 0.06058267 -0.10197063 -0.10020717
v 0.06064967 -0.10105763 -0.07099017
v 0.06073867 -0.02684063 -0.03222617
v 0.06136967 -0.03614463 -0.02428017
v 0.06198767 -0.06921663 -0.10896517
v 0.06219667 -0.03022463 -0.07217017
v 0.06234567 -0.10650263 -0.09414017
v 0.06246267 -0.09061763 -0.11115217
v 0.06254367 -0.08545163 -0.04825917
v 0.06387167 -0.04945563 -0.09685017
v 0.06573067 -0.10963563 -0.08811517
v 0.06632567 -0.03083263 -0.06231517
v 0.06637767 -0.09999863 -0.06612117
v 0.06653467 -0.08473663 -0.11520817
v 0.06684867 -0.05905963 -0.03312417
v 0.06868867 -0.06535763 -0.10858617
v 0.06916867 -0.03451663 -0.05237917
v 0.06931867 -0.11096463 -0.10915917
v 0.06957267 -0.10589463 -0.11434317
v 0.06970967 -0.07973163 -0.04681717
v 0.06988267 -0.04692663 -0.09078417
v 0.07036867 -0.04973363 -0.03754417
v 0.07041767 -0.11097063 -0.08276917
v 0.07075167 -0.04120763 -0.04407217
v 0.07078867 -0.11529463 -0.10353317
v 0.07155067 -0.10028963 -0.11918417
v 0.07233667 -0.07987063 -0.11706717
v 0.07272067 -0.09685563 -0.06283717
v 0.07391167 -0.11844463 -0.09793917
v 0.07482067 -0.04574263 -0.08284117
v 0.07537267 -0.06274063 -0.10570017
v 0.07543567 -0.07229063 -0.04791217
v 0.07556467 -0.09463963 -0.12300417
v 0.07595067 -0.11031163 -0.07853917
v 0.07707767 -0.11922563 -0.11748517
v 0.07753767 -0.11438563 -0.12218317
v 0.07813767 -0.12345863 -0.11230817
v 0.07817667 -0.04667363 -0.07379517
v 0.07832867 -0.11990763 -0.09294517
v 0.07891067 -0.09171963 -0.06149317
v 0.07900067 -0.07632363 -0.11672517
v 0.07905167 -0.06407263 -0.05150717
v 0.07963867 -0.10897863 -0.12660917
v 0.08003367 -0.05024763 -0.06490317
v 0.08043467 -0.05634063 -0.05731717
v 0.08075567 -0.12668263 -0.10701617
v 0.08127867 -0.08996563 -0.12479117
v 0.08155967 -0.06111063 -0.10068417
v 0.08182467 -0.10764663 -0.07572217
v 0.08360467 -0.11947663 -0.08904317
v 0.08374567 -0.12701963 -0.12483017
v 0.08380467 -0.10359863 -0.13016517
v 0.08421267 -0.08520363 -0.06236217
v 0.08432767 -0.12214563 -0.12937817
v 0.08443067 -0.13116463 -0.12014017
v 0.08479167 -0.12833863 -0.10213417
v 0.08589767 -0.07417863 -0.11428717
v 0.08646367 -0.13438963 -0.11523317
v 0.08658867 -0.11680563 -0.13348717
v 0.08660467 -0.06081063 -0.09379917
v 0.08758267 -0.10329263 -0.07463917
v 0.08804967 -0.08633263 -0.12457717
v 0.08807767 -0.07814363 -0.06557617
v 0.08926967 -0.13325263 -0.13206817
v 0.08927267 -0.11729163 -0.08659917
v 0.08928067 -0.13716763 -0.12797417
v 0.08958367 -0.09901063 -0.13194417
v 0.08968767 -0.06244163 -0.08573317
v 0.08983567 -0.12812363 -0.09826217
v 0.09003967 -0.13619063 -0.11039817
v 0.09004667 -0.12872763 -0.13601817
v 0.09024867 -0.07149363 -0.07084817
v 0.09049267 -0.14050363 -0.12331717
v 0.09079767 -0.06607963 -0.07774717
v 0.09094167 -0.11153463 -0.13686717
v 0.09237067 -0.12364063 -0.13967917
v 0.09237467 -0.07344463 -0.11000117
v 0.09279867 -0.09779363 -0.07556417
v 0.09353367 -0.14278763 -0.11825917
v 0.09371867 -0.14209763 -0.13493717
v 0.09399667 -0.14533063 -0.13075617
v 0.09416267 -0.13851863 -0.13859817
v 0.09477667 -0.13621563 -0.10646117
v 0.09494967 -0.11366263 -0.08589717
v 0.09501567 -0.13435063 -0.14203417
v 0.09521667 -0.08416163 -0.12229717
v 0.09534867 -0.12610063 -0.09585317
v 0.09603867 -0.14814563 -0.12578217
v 0.09636567 -0.09541063 -0.13167317
v 0.09680667 -0.10685963 -0.13872517
v 0.09688867 -0.11830763 -0.14294117
v 0.09699467 -0.09176363 -0.07855317
v 0.09722267 -0.12958563 -0.14525917
v 0.09747567 -0.07431963 -0.10405017
v 0.09763867 -0.14903963 -0.13782517
v 0.09798767 -0.14618663 -0.14158317
v 0.09813767 -0.14344663 -0.11388417
v 0.09836267 -0.15223963 -0.13315617
v 0.09868267 -0.14312763 -0.14479417
v 0.09956367 -0.13941363 -0.14785817
v 0.09982767 -0.08587263 -0.08328717
v 0.10010167 -0.13437863 -0.10398717
v 0.10023367 -0.10905163 -0.08699117
v 0.10039767 -0.14967063 -0.12092517
v 0.10042467 -0.07681863 -0.09692517
v 0.10085567 -0.12276863 -0.09520017
v 0.10108767 -0.08072063 -0.08960417
v 0.10123867 -0.15635363 -0.13956517
v 0.10157667 -0.12443763 -0.14813217
v 0.10166767 -0.13506063 -0.15039917
v 0.10169367 -0.08386563 -0.11825817
v 0.10196867 -0.15484263 -0.12792017
v 0.10304667 -0.11352463 -0.14465317
v 0.10344067 -0.09341763 -0.12936217
v 0.10365167 -0.14203663 -0.11101117
v 0.10369067 -0.10334963 -0.13834317
v 0.10408467 -0.15936563 -0.13371117
v 0.10478767 -0.10381663 -0.08984017
v 0.10547667 -0.13022563 -0.15279517
v 0.10550567 -0.13120063 -0.10324317
v 0.10586967 -0.14006763 -0.15599717
v 0.10609067 -0.11862963 -0.09632217
v 0.10631767 -0.14904063 -0.11732717
v 0.10658867 -0.08538463 -0.11285017
v 0.10735267 -0.11974463 -0.14974517
v 0.10812867 -0.09828163 -0.09432717
v 0.10863767 -0.15547763 -0.12327817
v 0.10929267 -0.13508663 -0.15768717
v 0.10932867 -0.13894763 -0.11009517
v 0.10937567 -0.08855663 -0.10654617
v 0.10973267 -0.09345663 -0.12548717
v 0.10978167 -0.09299563 -0.10011717
v 0.11002667 -0.11014363 -0.14380117
v 0.11043967 -0.10183463 -0.13585217
v 0.11060767 -0.16098763 -0.12909717
v 0.11066067 -0.12546263 -0.15436717
v 0.11068867 -0.12731163 -0.10418617
v 0.11088867 -0.11387763 -0.09912017
v 0.11267867 -0.14625963 -0.11607917
v 0.11385967 -0.13014363 -0.15884517
v 0.11415467 -0.11643663 -0.14879617
v 0.11431367 -0.09540163 -0.12044317
v 0.11445967 -0.13508663 -0.11096417
v 0.11465267 -0.10878863 -0.10341517
v 0.11554867 -0.12287563 -0.10675717
v 0.11619267 -0.15294363 -0.12174017
v 0.11623867 -0.10219463 -0.13205917
v 0.11638267 -0.10921763 -0.14098017
v 0.11670767 -0.09892663 -0.11460817
v 0.11671667 -0.10363163 -0.10870417
v 0.11694467 -0.12224163 -0.15351217
v 0.11817867 -0.14223563 -0.11704817
v 0.11886067 -0.15922563 -0.12715317
v 0.11941567 -0.13072163 -0.11338417
v 0.11974067 -0.11796863 -0.11078417
v 0.11991567 -0.12675263 -0.15793217
v 0.12030467 -0.11567863 -0.14604517
v 0.12043567 -0.10433463 -0.12731817
v 0.12156567 -0.11005663 -0.13733817
v 0.12226467 -0.14879463 -0.12288117
v 0.12232567 -0.11267463 -0.11599117
v 0.12256267 -0.10786063 -0.12184517
v 0.12306767 -0.12116863 -0.15115317
v 0.12319667 -0.13768263 -0.11947917
v 0.12382467 -0.12593763 -0.11706517
v 0.12526867 -0.11671163 -0.14260417
v 0.12539367 -0.11223963 -0.13306317
v 0.12578667 -0.15497263 -0.12813117
v 0.12604167 -0.12533363 -0.15601217
v 0.12694167 -0.12061063 -0.12204417
v 0.12737967 -0.14400463 -0.12542717
v 0.12767367 -0.11553663 -0.12794617
v 0.12774967 -0.13268563 -0.12294617
v 0.12848367 -0.12217363 -0.14764017
v 0.12940667 -0.11865063 -0.13846817
v 0.13100167 -0.12723963 -0.12753717
v 0.13111267 -0.14983263 -0.13095517
v 0.13185867 -0.13876663 -0.12885817
v 0.13202067 -0.12191363 -0.13322617
v 0.13217667 -0.12627063 -0.15241217
v 0.13341267 -0.12378263 -0.14351117
v 0.13519567 -0.13306663 -0.13305617
v 0.13534867 -0.14437763 -0.13456417
v 0.13640467 -0.12730463 -0.13832617
v 0.13740867 -0.12844063 -0.14812017
v 0.13897767 -0.13849863 -0.13835117
v 0.14048067 -0.13239063 -0.14307017
