# Rest-skin points; MuJoCo computes the convex hull.
v -0.07125123 0.06516909 -0.08790754
v -0.07036823 0.04432809 -0.09216254
v -0.07003123 -0.02927791 -0.09086654
v -0.06912323 -0.01043191 -0.12748154
v -0.06884323 -0.00931691 -0.09284654
v -0.06854423 -0.00890591 -0.11341754
v -0.06838123 -0.01195891 -0.14654454
v -0.06781823 -0.00822691 -0.09209754
v -0.06727323 0.01349109 -0.11772454
v -0.06700023 0.06772009 -0.09278054
v -0.06682523 -0.03367591 -0.12071754
v -0.06680023 0.01259209 -0.13177654
v -0.06678223 -0.02792491 -0.08935354
v -0.06674823 -0.00781291 -0.10278254
v -0.06669623 0.01351809 -0.10753454
v -0.06667623 0.05532509 -0.09415854
v -0.06638523 0.01059309 -0.09387854
v -0.06638023 0.09141609 -0.08204954
v -0.06616523 0.04664609 -0.09484154
v -0.06615223 -0.03538791 -0.08658054
v -0.06609323 -0.03084891 -0.10618354
v -0.06604723 -0.03593291 -0.14068754
v -0.06582423 -0.00774691 -0.09504854
v -0.06574223 0.02069609 -0.09443254
v -0.06540123 0.02884109 -0.09496754
v -0.06509923 0.01167709 -0.09890454
v -0.06479323 -0.02678991 -0.08800154
v -0.06477123 0.01141609 -0.15070754
v -0.06437523 -0.01289191 -0.17033554
v -0.06394623 -0.02807391 -0.09578954
v -0.06359223 -0.03401991 -0.08515854
v -0.06312823 -0.02649591 -0.08973054
v -0.06249523 0.03189909 -0.09995254
v -0.06204123 -0.03673591 -0.16576254
v -0.06195623 -0.03227491 -0.08570854
v -0.06122823 0.03412709 -0.10800854
v -0.06045523 0.03537709 -0.11852254
v -0.06034023 0.01043909 -0.17413454
v -0.05936623 0.03537309 -0.13302254
v -0.05916823 -0.03846691 -0.08139454
v -0.05906623 0.10991309 -0.06215154
v -0.05848523 -0.05120991 -0.09653854
v -0.05782523 -0.05569191 -0.11206154
v -0.05748423 -0.01260391 -0.19784554
v -0.05743223 -0.04668691 -0.08597154
v -0.05684423 0.03429509 -0.15216054
v -0.05643523 -0.04461391 -0.07709954
v -0.05564123 -0.05853291 -0.13344754
v -0.05499423 0.04895209 -0.09872254
v -0.05477523 -0.03577991 -0.19407954
v -0.05417623 0.01018109 -0.20120054
v -0.05228123 0.03272109 -0.17557154
v -0.05192423 0.07104709 -0.10071054
v -0.05139823 -0.05939191 -0.16089754
v -0.05044223 -0.01141791 -0.22748154
v -0.05023023 0.11712709 -0.03848654
v -0.05011623 0.05219109 -0.10647354
v -0.04847323 0.01037709 -0.23040354
v -0.04804923 -0.06157791 -0.07215154
v -0.04765623 -0.03335291 -0.22444454
v -0.04745223 0.05509609 -0.11766754
v -0.04692223 0.03167709 -0.20262954
v -0.04624623 0.09821009 -0.08977054
v -0.04578423 -0.01002491 -0.25721154
v -0.04557223 0.05582909 -0.13143654
v -0.04484123 -0.05774391 -0.19117554
v -0.04406623 0.01034609 -0.25931554
v -0.04394723 -0.06762991 -0.08381954
v -0.04337423 -0.03037791 -0.25489154
v -0.04287323 0.05499709 -0.15086354
v -0.04229723 -0.00880991 -0.28537354
v -0.04183723 0.03074209 -0.23151454
v -0.04057223 -0.07303691 -0.10222454
v -0.04040823 0.01016609 -0.28677354
v -0.04023523 -0.02750391 -0.28381054
v -0.03915223 -0.05422891 -0.22269254
v -0.03866223 0.05293109 -0.17476654
v -0.03830223 -0.00746791 -0.31299854
v -0.03819823 0.02981309 -0.26011054
v -0.03720823 -0.07650991 -0.12619554
v -0.03717423 0.01034309 -0.31391254
v -0.03639323 -0.04997991 -0.25357854
v -0.03638323 0.06971209 -0.10527254
v -0.03603623 -0.02475591 -0.31192254
v -0.03531723 0.01173109 -0.34111954
v -0.03511823 -0.07134591 -0.05366454
v -0.03486623 0.02852809 -0.28738054
v -0.03481223 -0.00553091 -0.34031954
v -0.03441423 0.11555409 -0.06546454
v -0.03424823 0.05071309 -0.20192854
v -0.03385323 0.01435809 -0.36683954
v -0.03380223 -0.04546291 -0.28279554
v -0.03332523 -0.07760091 -0.15613454
v -0.03241523 0.02762109 -0.31416854
v -0.03219123 -0.00262891 -0.36583354
v -0.03171123 -0.02185991 -0.33923354
v -0.03109723 0.02834409 -0.34098854
v -0.03106223 0.01683409 -0.38891954
v -0.02995623 0.04841009 -0.23071654
v -0.02975423 -0.04117991 -0.31122254
v -0.02963923 0.00043509 -0.38792454
v -0.02940823 0.03060309 -0.36634554
v -0.02924923 0.01881909 -0.40786854
v -0.02888923 -0.07594791 -0.18885254
v -0.02857923 0.07194409 -0.11292654
v -0.02830923 -0.01845691 -0.36439554
v -0.02701723 0.04655609 -0.25932254
v -0.02584323 -0.03742191 -0.33886454
v -0.02570323 0.03253009 -0.38803054
v -0.02567223 -0.07238091 -0.22164654
v -0.02547523 -0.07532391 -0.03133254
v -0.02541223 0.07318409 -0.12849854
v -0.02483023 -0.01463391 -0.38636854
v -0.02481123 0.04431409 -0.28688154
v -0.02433223 -0.06754891 -0.25298854
v -0.02430523 0.11995809 -0.03842454
v -0.02421023 0.09941409 -0.09451554
v -0.02262923 -0.03382691 -0.36417754
v -0.02262623 0.07160609 -0.14766454
v -0.02256823 0.03385509 -0.40642554
v -0.02255823 0.04178109 -0.31365454
v -0.02218723 -0.06169591 -0.28233054
v -0.02105323 -0.07885791 -0.06446254
v -0.02050623 0.04083109 -0.34016054
v -0.01964923 -0.03007191 -0.38685854
v -0.01874323 0.11916009 -0.01132854
v -0.01873323 -0.05592091 -0.31081554
v -0.01828923 0.06732309 -0.17205554
v -0.01802623 0.04207309 -0.36485154
v -0.01712623 -0.08449291 -0.09298154
v -0.01533523 -0.05113191 -0.33866354
v -0.01448923 0.06315609 -0.19935554
v -0.01436023 0.04342209 -0.38596454
v -0.01338523 -0.08817591 -0.12093954
v -0.01249523 -0.04767791 -0.36435254
v -0.01174223 0.06022409 -0.22841254
v -0.01168923 -0.07884891 -0.03391354
v -0.01042023 -0.08944191 -0.15267254
v -0.01010523 0.05753109 -0.25729254
v -0.01005323 -0.04420991 -0.38778554
v -0.00901223 0.05425909 -0.28531654
v -0.00826623 0.11329009 -0.06574154
v -0.00821523 -0.08819391 -0.18671754
v -0.00751923 0.05048809 -0.31254554
v -0.00751223 -0.07820591 -0.00819754
v -0.00690123 -0.08506191 -0.22016954
v -0.00617823 -0.08036291 -0.25206254
v -0.00553223 0.04806609 -0.33920154
v -0.00490723 -0.08020991 0.01606946
v -0.00486923 -0.07397591 -0.28188754
v -0.00290623 -0.06713791 -0.31037854
v -0.00286823 0.04772609 -0.36352854
v -0.00266023 -0.08207491 0.03785946
v -0.00037223 -0.06121691 -0.33808754
v 0.00048977 0.04813509 -0.38418754
v 0.00094377 0.11367909 -0.03628754
v 0.00195377 0.09419709 -0.09924254
v 0.00197177 -0.05760691 -0.36424054
v 0.00225277 0.08152509 -0.11965454
v 0.00310977 0.10733709 0.01873146
v 0.00366677 -0.08316991 0.07238846
v 0.00374677 0.11076509 -0.00830554
v 0.00436377 0.07780909 -0.14262554
v 0.00458877 -0.05327291 -0.38794154
v 0.00681677 0.07135409 -0.16790854
v 0.00709577 -0.08420791 -0.06113754
v 0.00786677 -0.08125091 0.05766746
v 0.00826077 -0.08057291 -0.03439454
v 0.00847077 -0.07767991 0.01601946
v 0.00867977 -0.07954291 0.03882146
v 0.00877377 0.06551109 -0.19557254
v 0.00897277 -0.07849691 -0.00865354
v 0.00912377 -0.08907091 -0.08861854
v 0.00988677 0.06249709 -0.22521654
v 0.01015877 0.05981009 -0.25478154
v 0.01026577 0.05640109 -0.28333554
v 0.01070977 0.05253609 -0.31105454
v 0.01173877 0.04987209 -0.33802254
v 0.01221977 -0.09278391 -0.11838254
v 0.01328577 0.04894109 -0.36243654
v 0.01427477 -0.09348991 -0.15101654
v 0.01540877 -0.09211991 -0.18488454
v 0.01561477 0.04967509 -0.38319154
v 0.01598277 -0.08918091 -0.21787254
v 0.01628277 -0.08479191 -0.24992554
v 0.01635277 -0.07862391 -0.28071254
v 0.01642877 -0.07185491 -0.30958354
v 0.01662777 0.09029109 0.04564546
v 0.01728677 0.10400409 -0.06201654
v 0.01737577 -0.06517591 -0.33721354
v 0.01849877 -0.07568491 0.08004946
v 0.01886077 -0.06063791 -0.36370154
v 0.01956877 0.09336209 0.02138246
v 0.02075977 -0.05505791 -0.38757254
v 0.02097877 -0.07502291 0.06257746
v 0.02114177 0.10005609 -0.03212254
v 0.02142377 0.09648909 -0.00466254
v 0.02242577 -0.07360691 0.04091346
v 0.02474577 -0.07363891 0.01613946
v 0.02800077 -0.07522891 -0.00928654
v 0.02902177 0.04491509 -0.36160254
v 0.02903977 0.04530309 -0.33675854
v 0.02907277 0.04723209 -0.30948254
v 0.02936177 0.05030509 -0.28135754
v 0.02969077 0.07463409 0.04906546
v 0.02987777 0.05327109 -0.25223454
v 0.03009077 0.04596809 -0.38293454
v 0.03047577 -0.07800791 -0.03484854
v 0.03053077 0.05604209 -0.22196354
v 0.03053477 0.05931909 -0.19185854
v 0.03074577 0.07259309 -0.13664654
v 0.03080777 0.06570009 -0.16370854
v 0.03084377 0.07776109 -0.10988854
v 0.03125977 0.07635609 0.02424246
v 0.03237677 -0.08155891 -0.06062754
v 0.03333277 -0.06223291 0.08325746
v 0.03381677 0.07917109 -0.00062054
v 0.03454477 0.08527409 -0.08340054
v 0.03490577 -0.05652491 -0.36296654
v 0.03497877 -0.06210891 -0.33623354
v 0.03498077 -0.06264991 0.06471746
v 0.03499477 -0.08514391 -0.08770154
v 0.03544477 -0.05122391 -0.38717754
v 0.03582377 0.08248109 -0.02671854
v 0.03586477 -0.06855991 -0.30831954
v 0.03621077 0.08551609 -0.05407454
v 0.03711477 -0.08777491 -0.11756654
v 0.03712677 -0.07448791 -0.27892854
v 0.03760577 -0.08830491 -0.15047454
v 0.03782677 -0.08690391 -0.18371654
v 0.03783777 -0.06281691 0.04176446
v 0.03796577 -0.08400591 -0.21590854
v 0.03798777 -0.07989891 -0.24769354
v 0.04030077 0.05741109 0.05262446
v 0.04107577 0.05854409 0.02797846
v 0.04245277 0.03666409 -0.38317954
v 0.04273477 0.03538009 -0.36110154
v 0.04315077 -0.06415491 0.01587246
v 0.04375377 0.06063409 0.00355746
v 0.04386777 0.03500909 -0.33573754
v 0.04451577 -0.04363591 0.08378346
v 0.04472877 0.03628809 -0.30821554
v 0.04547777 0.03859609 -0.27971854
v 0.04642077 0.04124909 -0.24995054
v 0.04742877 0.06318209 -0.02145154
v 0.04744977 -0.04482291 0.06451546
v 0.04759977 -0.04197191 -0.38652654
v 0.04775277 0.04419809 -0.21903154
v 0.04832077 -0.04712891 -0.36234754
v 0.04838077 -0.06624991 -0.00999154
v 0.04897077 0.03917309 0.05610146
v 0.04913877 0.04774609 -0.18856654
v 0.04978777 -0.05245491 -0.33531554
v 0.04997077 0.04000609 0.03186246
v 0.05061677 0.06531709 -0.04700754
v 0.05116777 -0.02223591 0.08335046
v 0.05128577 0.05346009 -0.15967354
v 0.05184477 -0.05790191 -0.30703954
v 0.05194977 -0.06832491 -0.03561254
v 0.05204677 0.06519409 -0.07411554
v 0.05213477 0.01869609 0.08183846
v 0.05248477 -0.04549491 0.04109846
v 0.05263777 0.05902009 -0.13145654
v 0.05280077 0.04124809 0.00745346
v 0.05286877 0.06315109 -0.10259554
v 0.05321777 -0.00127591 0.08264546
v 0.05332377 0.02601609 -0.38332954
v 0.05387977 -0.06299191 -0.27764554
v 0.05440377 -0.07054691 -0.06096954
v 0.05443777 0.02417709 -0.36074154
v 0.05458077 0.01973509 0.05896246
v 0.05496377 -0.02270291 0.06293646
v 0.05528277 -0.06747291 -0.24652254
v 0.05569777 0.02276609 -0.33505054
v 0.05585777 -0.07104191 -0.21469554
v 0.05630477 -0.07356291 -0.18265554
v 0.05637177 -0.02868691 -0.38559354
v 0.05652077 -0.07273391 -0.08765654
v 0.05664077 0.02287509 -0.30730254
v 0.05665777 0.02031909 0.03533146
v 0.05669877 -0.00086391 0.06112246
v 0.05725777 -0.07474791 -0.14985354
v 0.05759977 0.02416909 -0.27849854
v 0.05768277 -0.07429791 -0.11733154
v 0.05804077 -0.03362991 -0.36179954
v 0.05810877 0.04314409 -0.01718854
v 0.05899777 0.02622909 -0.24817054
v 0.05954777 -0.04688591 0.01561246
v 0.06018377 -0.03818991 -0.33477554
v 0.06035877 0.02079109 0.01091246
v 0.06058177 -0.00062391 0.03818546
v 0.06071477 -0.02306591 0.04010646
v 0.06092577 0.02881109 -0.21673454
v 0.06148377 0.01438909 -0.38344354
v 0.06200977 -0.01369791 -0.38460754
v 0.06256877 -0.04241191 -0.30622854
v 0.06272777 0.01154209 -0.36058154
v 0.06347777 0.03179309 -0.18580154
v 0.06347977 0.00921609 -0.33466454
v 0.06370177 -0.01811791 -0.36122554
v 0.06403677 0.00093109 -0.38384254
v 0.06418377 0.04507709 -0.04200654
v 0.06437377 0.00820009 -0.30664854
v 0.06501877 -0.04644091 -0.27689154
v 0.06532877 -0.04873091 -0.01024154
v 0.06545577 -0.00276491 -0.36075354
v 0.06559377 -0.02180491 -0.33453154
v 0.06570077 0.00831309 -0.27755054
v 0.06633177 -0.00076291 0.01377546
v 0.06634177 0.03571509 -0.15607754
v 0.06647577 -0.00569291 -0.33448954
v 0.06691977 -0.04994891 -0.24604054
v 0.06701577 0.02156409 -0.01396754
v 0.06764477 0.00930409 -0.24694354
v 0.06784677 -0.02400491 0.01532046
v 0.06788977 -0.02489191 -0.30596254
v 0.06817077 -0.00767291 -0.30615154
v 0.06821177 -0.05270891 -0.21418354
v 0.06824977 0.04534509 -0.06888354
v 0.06846877 0.03971409 -0.12708654
v 0.06915177 -0.05080391 -0.03597354
v 0.06923377 -0.05460791 -0.18206754
v 0.06936977 0.04333609 -0.09776654
v 0.06979577 0.01070309 -0.21531254
v 0.07008177 -0.00891291 -0.27680854
v 0.07021477 -0.02756291 -0.27656254
v 0.07091377 -0.05528291 -0.14967254
v 0.07118877 -0.05252091 -0.06151354
v 0.07202977 -0.05382591 -0.08849854
v 0.07208477 -0.05486191 -0.11797054
v 0.07225677 0.01221409 -0.18404054
v 0.07232177 -0.00947491 -0.24613654
v 0.07243677 -0.02974191 -0.24589054
v 0.07337877 -0.00143591 -0.01147254
v 0.07373977 0.02213609 -0.03896154
v 0.07415677 -0.02571291 -0.01044354
v 0.07434377 -0.03134491 -0.21421454
v 0.07461077 -0.00957391 -0.21454854
v 0.07517377 0.01420309 -0.15359954
v 0.07599377 -0.03245791 -0.18231554
v 0.07675777 -0.00952191 -0.18307154
v 0.07760977 0.01675409 -0.12363654
v 0.07810477 0.02166109 -0.06540954
v 0.07811177 -0.03263991 -0.15044454
v 0.07861577 -0.00260791 -0.03700254
v 0.07862877 -0.02777591 -0.03615854
v 0.07882277 0.01939109 -0.09411154
v 0.07900677 -0.00897291 -0.15183054
v 0.07980677 -0.03195291 -0.11930354
v 0.08044977 -0.03075891 -0.08966454
v 0.08048177 -0.02941291 -0.06204054
v 0.08113477 -0.00763091 -0.12107254
v 0.08164577 -0.00394591 -0.06311754
v 0.08164977 -0.00579191 -0.09130454
