# Rest-skin points; MuJoCo computes the convex hull.
v -0.06912323 -0.01043191 -0.12748154
v -0.06854423 -0.00890591 -0.11341754
v -0.06838123 -0.01195891 -0.14654454
v -0.06727323 0.01349109 -0.11772454
v -0.06682523 -0.03367591 -0.12071754
v -0.06680023 0.01259209 -0.13177654
v -0.06669623 0.01351809 -0.10753454
v -0.06609323 -0.03084891 -0.10618354
v -0.06604723 -0.03593291 -0.14068754
v -0.06477123 0.01141609 -0.15070754
v -0.06437523 -0.01289191 -0.17033554
v -0.06204123 -0.03673591 -0.16576254
v -0.06122823 0.03412709 -0.10800854
v -0.06045523 0.03537709 -0.11852254
v -0.06034023 0.01043909 -0.17413454
v -0.05936623 0.03537309 -0.13302254
v -0.05782523 -0.05569191 -0.11206154
v -0.05748423 -0.01260391 -0.19784554
v -0.05684423 0.03429509 -0.15216054
v -0.05564123 -0.05853291 -0.13344754
v -0.05477523 -0.03577991 -0.19407954
v -0.05417623 0.01018109 -0.20120054
v -0.05228123 0.03272109 -0.17557154
v -0.05139823 -0.05939191 -0.16089754
v -0.05044223 -0.01141791 -0.22748154
v -0.05011623 0.05219109 -0.10647354
v -0.04847323 0.01037709 -0.23040354
v -0.04765623 -0.03335291 -0.22444454
v -0.04745223 0.05509609 -0.11766754
v -0.04692223 0.03167709 -0.20262954
v -0.04578423 -0.01002491 -0.25721154
v -0.04557223 0.05582909 -0.13143654
v -0.04484123 -0.05774391 -0.19117554
v -0.04406623 0.01034609 -0.25931554
v -0.04337423 -0.03037791 -0.25489154
v -0.04287323 0.05499709 -0.15086354
v -0.04229723 -0.00880991 -0.28537354
v -0.04183723 0.03074209 -0.23151454
v -0.04040823 0.01016609 -0.28677354
v -0.04023523 -0.02750391 -0.28381054
v -0.03915223 -0.05422891 -0.22269254
v -0.03866223 0.05293109 -0.17476654
v -0.03830223 -0.00746791 -0.31299854
v -0.03819823 0.02981309 -0.26011054
v -0.03720823 -0.07650991 -0.12619554
v -0.03717423 0.01034309 -0.31391254
v -0.03639323 -0.04997991 -0.25357854
v -0.03638323 0.06971209 -0.10527254
v -0.03603623 -0.02475591 -0.31192254
v -0.03531723 0.01173109 -0.34111954
v -0.03486623 0.02852809 -0.28738054
v -0.03481223 -0.00553091 -0.34031954
v -0.03424823 0.05071309 -0.20192854
v -0.03385323 0.01435809 -0.36683954
v -0.03380223 -0.04546291 -0.28279554
v -0.03332523 -0.07760091 -0.15613454
v -0.03241523 0.02762109 -0.31416854
v -0.03219123 -0.00262891 -0.36583354
v -0.03171123 -0.02185991 -0.33923354
v -0.03109723 0.02834409 -0.34098854
v -0.03106223 0.01683409 -0.38891954
v -0.02995623 0.04841009 -0.23071654
v -0.02975423 -0.04117991 -0.31122254
v -0.02963923 0.00043509 -0.38792454
v -0.02940823 0.03060309 -0.36634554
v -0.02924923 0.01881909 -0.40786854
v -0.02888923 -0.07594791 -0.18885254
v -0.02857923 0.07194409 -0.11292654
v -0.02830923 -0.01845691 -0.36439554
v -0.02701723 0.04655609 -0.25932254
v -0.02584323 -0.03742191 -0.33886454
v -0.02570323 0.03253009 -0.38803054
v -0.02567223 -0.07238091 -0.22164654
v -0.02541223 0.07318409 -0.12849854
v -0.02483023 -0.01463391 -0.38636854
v -0.02481123 0.04431409 -0.28688154
v -0.02433223 -0.06754891 -0.25298854
v -0.02262923 -0.03382691 -0.36417754
v -0.02262623 0.07160609 -0.14766454
v -0.02256823 0.03385509 -0.40642554
v -0.02255823 0.04178109 -0.31365454
v -0.02218723 -0.06169591 -0.28233054
v -0.02050623 0.04083109 -0.34016054
v -0.01964923 -0.03007191 -0.38685854
v -0.01873323 -0.05592091 -0.31081554
v -0.01828923 0.06732309 -0.17205554
v -0.01802623 0.04207309 -0.36485154
v -0.01533523 -0.05113191 -0.33866354
v -0.01448923 0.06315609 -0.19935554
v -0.01436023 0.04342209 -0.38596454
v -0.01338523 -0.08817591 -0.12093954
v -0.01249523 -0.04767791 -0.36435254
v -0.01174223 0.06022409 -0.22841254
v -0.01042023 -0.08944191 -0.15267254
v -0.01010523 0.05753109 -0.25729254
v -0.01005323 -0.04420991 -0.38778554
v -0.00901223 0.05425909 -0.28531654
v -0.00821523 -0.08819391 -0.18671754
v -0.00751923 0.05048809 -0.31254554
v -0.00690123 -0.08506191 -0.22016954
v -0.00617823 -0.08036291 -0.25206254
v -0.00553223 0.04806609 -0.33920154
v -0.00486923 -0.07397591 -0.28188754
v -0.00290623 -0.06713791 -0.31037854
v -0.00286823 0.04772609 -0.36352854
v -0.00037223 -0.06121691 -0.33808754
v 0.00048977 0.04813509 -0.38418754
v 0.00197177 -0.05760691 -0.36424054
v 0.00225277 0.08152509 -0.11965454
v 0.00436377 0.07780909 -0.14262554
v 0.00458877 -0.05327291 -0.38794154
v 0.00681677 0.07135409 -0.16790854
v 0.00877377 0.06551109 -0.19557254
v 0.00988677 0.06249709 -0.22521654
v 0.01015877 0.05981009 -0.25478154
v 0.01026577 0.05640109 -0.28333554
v 0.01070977 0.05253609 -0.31105454
v 0.01173877 0.04987209 -0.33802254
v 0.01221977 -0.09278391 -0.11838254
v 0.01328577 0.04894109 -0.36243654
v 0.01427477 -0.09348991 -0.15101654
v 0.01540877 -0.09211991 -0.18488454
v 0.01561477 0.04967509 -0.38319154
v 0.01598277 -0.08918091 -0.21787254
v 0.01628277 -0.08479191 -0.24992554
v 0.01635277 -0.07862391 -0.28071254
v 0.01642877 -0.07185491 -0.30958354
v 0.01737577 -0.06517591 -0.33721354
v 0.01886077 -0.06063791 -0.36370154
v 0.02075977 -0.05505791 -0.38757254
v 0.02902177 0.04491509 -0.36160254
v 0.02903977 0.04530309 -0.33675854
v 0.02907277 0.04723209 -0.30948254
v 0.02936177 0.05030509 -0.28135754
v 0.02987777 0.05327109 -0.25223454
v 0.03009077 0.04596809 -0.38293454
v 0.03053077 0.05604209 -0.22196354
v 0.03053477 0.05931909 -0.19185854
v 0.03074577 0.07259309 -0.13664654
v 0.03080777 0.06570009 -0.16370854
v 0.03084377 0.07776109 -0.10988854
v 0.03490577 -0.05652491 -0.36296654
v 0.03497877 -0.06210891 -0.33623354
v 0.03544477 -0.05122391 -0.38717754
v 0.03586477 -0.06855991 -0.30831954
v 0.03711477 -0.08777491 -0.11756654
v 0.03712677 -0.07448791 -0.27892854
v 0.03760577 -0.08830491 -0.15047454
v 0.03782677 -0.08690391 -0.18371654
v 0.03796577 -0.08400591 -0.21590854
v 0.03798777 -0.07989891 -0.24769354
v 0.04245277 0.03666409 -0.38317954
v 0.04273477 0.03538009 -0.36110154
v 0.04386777 0.03500909 -0.33573754
v 0.04472877 0.03628809 -0.30821554
v 0.04547777 0.03859609 -0.27971854
v 0.04642077 0.04124909 -0.24995054
v 0.04759977 -0.04197191 -0.38652654
v 0.04775277 0.04419809 -0.21903154
v 0.04832077 -0.04712891 -0.36234754
v 0.04913877 0.04774609 -0.18856654
v 0.04978777 -0.05245491 -0.33531554
v 0.05128577 0.05346009 -0.15967354
v 0.05184477 -0.05790191 -0.30703954
v 0.05263777 0.05902009 -0.13145654
v 0.05286877 0.06315109 -0.10259554
v 0.05332377 0.02601609 -0.38332954
v 0.05387977 -0.06299191 -0.27764554
v 0.05443777 0.02417709 -0.36074154
v 0.05528277 -0.06747291 -0.24652254
v 0.05569777 0.02276609 -0.33505054
v 0.05585777 -0.07104191 -0.21469554
v 0.05630477 -0.07356291 -0.18265554
v 0.05637177 -0.02868691 -0.38559354
v 0.05664077 0.02287509 -0.30730254
v 0.05725777 -0.07474791 -0.14985354
v 0.05759977 0.02416909 -0.27849854
v 0.05768277 -0.07429791 -0.11733154
v 0.05804077 -0.03362991 -0.36179954
v 0.05899777 0.02622909 -0.24817054
v 0.06018377 -0.03818991 -0.33477554
v 0.06092577 0.02881109 -0.21673454
v 0.06148377 0.01438909 -0.38344354
v 0.06200977 -0.01369791 -0.38460754
v 0.06256877 -0.04241191 -0.30622854
v 0.06272777 0.01154209 -0.36058154
v 0.06347777 0.03179309 -0.18580154
v 0.06347977 0.00921609 -0.33466454
v 0.06370177 -0.01811791 -0.36122554
v 0.06403677 0.00093109 -0.38384254
v 0.06437377 0.00820009 -0.30664854
v 0.06501877 -0.04644091 -0.27689154
v 0.06545577 -0.00276491 -0.36075354
v 0.06559377 -0.02180491 -0.33453154
v 0.06570077 0.00831309 -0.27755054
v 0.06634177 0.03571509 -0.15607754
v 0.06647577 -0.00569291 -0.33448954
v 0.06691977 -0.04994891 -0.24604054
v 0.06764477 0.00930409 -0.24694354
v 0.06788977 -0.02489191 -0.30596254
v 0.06817077 -0.00767291 -0.30615154
v 0.06821177 -0.05270891 -0.21418354
v 0.06846877 0.03971409 -0.12708654
v 0.06923377 -0.05460791 -0.18206754
v 0.06936977 0.04333609 -0.09776654
v 0.06979577 0.01070309 -0.21531254
v 0.07008177 -0.00891291 -0.27680854
v 0.07021477 -0.02756291 -0.27656254
v 0.07091377 -0.05528291 -0.14967254
v 0.07208477 -0.05486191 -0.11797054
v 0.07225677 0.01221409 -0.18404054
v 0.07232177 -0.00947491 -0.24613654
v 0.07243677 -0.02974191 -0.24589054
v 0.07434377 -0.03134491 -0.21421454
v 0.07461077 -0.00957391 -0.21454854
v 0.07517377 0.01420309 -0.15359954
v 0.07599377 -0.03245791 -0.18231554
v 0.07675777 -0.00952191 -0.18307154
v 0.07760977 0.01675409 -0.12363654
v 0.07811177 -0.03263991 -0.15044454
v 0.07900677 -0.00897291 -0.15183054
v 0.07980677 -0.03195291 -0.11930354
v 0.08113477 -0.00763091 -0.12107254
