# Rest-skin points; MuJoCo computes the convex hull.
v -0.0816467 -0.0058187 -0.09130603
v -0.0816427 -0.0039727 -0.06311903
v -0.0811317 -0.0076577 -0.12107403
v -0.0804787 -0.0294397 -0.06204203
v -0.0804467 -0.0307857 -0.08966603
v -0.0798037 -0.0319797 -0.11930503
v -0.0790037 -0.0089997 -0.15183203
v -0.0788197 0.0193643 -0.09411303
v -0.0786257 -0.0278027 -0.03616003
v -0.0786127 -0.0026347 -0.03700403
v -0.0781087 -0.0326667 -0.15044603
v -0.0781017 0.0216343 -0.06541103
v -0.0776067 0.0167273 -0.12363803
v -0.0767547 -0.0095487 -0.18307303
v -0.0759907 -0.0324847 -0.18231703
v -0.0751707 0.0141763 -0.15360103
v -0.0746077 -0.0096007 -0.21455003
v -0.0743407 -0.0313717 -0.21421603
v -0.0741537 -0.0257397 -0.01044503
v -0.0737367 0.0221093 -0.03896303
v -0.0733757 -0.0014627 -0.01147403
v -0.0724337 -0.0297687 -0.24589203
v -0.0723187 -0.0095017 -0.24613803
v -0.0722537 0.0121873 -0.18404203
v -0.0720817 -0.0548887 -0.11797203
v -0.0720267 -0.0538527 -0.08850003
v -0.0711857 -0.0525477 -0.06151503
v -0.0709107 -0.0553097 -0.14967403
v -0.0702117 -0.0275897 -0.27656403
v -0.0700787 -0.0089397 -0.27681003
v -0.0697927 0.0106763 -0.21531403
v -0.0693667 0.0433093 -0.09776803
v -0.0692307 -0.0546347 -0.18206903
v -0.0691487 -0.0508307 -0.03597503
v -0.0684657 0.0396873 -0.12708803
v -0.0682467 0.0453183 -0.06888503
v -0.0682087 -0.0527357 -0.21418503
v -0.0681677 -0.0076997 -0.30615303
v -0.0678867 -0.0249187 -0.30596403
v -0.0678437 -0.0240317 0.01531897
v -0.0676417 0.0092773 -0.24694503
v -0.0670127 0.0215373 -0.01396903
v -0.0669167 -0.0499757 -0.24604203
v -0.0664727 -0.0057197 -0.33449103
v -0.0663387 0.0356883 -0.15607903
v -0.0663287 -0.0007897 0.01377397
v -0.0656977 0.0082863 -0.27755203
v -0.0655907 -0.0218317 -0.33453303
v -0.0654527 -0.0027917 -0.36075503
v -0.0653257 -0.0487577 -0.01024303
v -0.0650157 -0.0464677 -0.27689303
v -0.0643707 0.0081733 -0.30665003
v -0.0641807 0.0450503 -0.04200803
v -0.0640337 0.0009043 -0.38384403
v -0.0636987 -0.0181447 -0.36122703
v -0.0634767 0.0091893 -0.33466603
v -0.0634747 0.0317663 -0.18580303
v -0.0627247 0.0115153 -0.36058303
v -0.0625657 -0.0424387 -0.30623003
v -0.0620067 -0.0137247 -0.38460903
v -0.0614807 0.0143623 -0.38344503
v -0.0609227 0.0287843 -0.21673603
v -0.0607117 -0.0230927 0.04010497
v -0.0605787 -0.0006507 0.03818397
v -0.0603557 0.0207643 0.01091097
v -0.0601807 -0.0382167 -0.33477703
v -0.0595447 -0.0469127 0.01561097
v -0.0589947 0.0262023 -0.24817203
v -0.0581057 0.0431173 -0.01719003
v -0.0580377 -0.0336567 -0.36180103
v -0.0576797 -0.0743247 -0.11733303
v -0.0575967 0.0241423 -0.27850003
v -0.0572547 -0.0747747 -0.14985503
v -0.0566957 -0.0008907 0.06112097
v -0.0566547 0.0202923 0.03532997
v -0.0566377 0.0228483 -0.30730403
v -0.0565177 -0.0727607 -0.08765803
v -0.0563687 -0.0287137 -0.38559503
v -0.0563017 -0.0735897 -0.18265703
v -0.0558547 -0.0710687 -0.21469703
v -0.0556947 0.0227393 -0.33505203
v -0.0552797 -0.0674997 -0.24652403
v -0.0549607 -0.0227297 0.06293497
v -0.0545777 0.0197083 0.05896097
v -0.0544347 0.0241503 -0.36074303
v -0.0544007 -0.0705737 -0.06097103
v -0.0538767 -0.0630187 -0.27764703
v -0.0533207 0.0259893 -0.38333103
v -0.0532147 -0.0013027 0.08264397
v -0.0528657 0.0631243 -0.10259703
v -0.0527977 0.0412213 0.00745197
v -0.0526347 0.0589933 -0.13145803
v -0.0524817 -0.0455217 0.04109697
v -0.0521317 0.0186693 0.08183697
v -0.0520437 0.0651673 -0.07411703
v -0.0519467 -0.0683517 -0.03561403
v -0.0518417 -0.0579287 -0.30704103
v -0.0512827 0.0534333 -0.15967503
v -0.0511647 -0.0222627 0.08334897
v -0.0506137 0.0652903 -0.04700903
v -0.0499677 0.0399793 0.03186097
v -0.0497847 -0.0524817 -0.33531703
v -0.0491357 0.0477193 -0.18856803
v -0.0489677 0.0391463 0.05609997
v -0.0483777 -0.0662767 -0.00999303
v -0.0483177 -0.0471557 -0.36234903
v -0.0477497 0.0441713 -0.21903303
v -0.0475967 -0.0419987 -0.38652803
v -0.0474467 -0.0448497 0.06451397
v -0.0474257 0.0631553 -0.02145303
v -0.0464177 0.0412223 -0.24995203
v -0.0454747 0.0385693 -0.27972003
v -0.0447257 0.0362613 -0.30821703
v -0.0445127 -0.0436627 0.08378197
v -0.0438647 0.0349823 -0.33573903
v -0.0437507 0.0606073 0.00355597
v -0.0431477 -0.0641817 0.01587097
v -0.0427317 0.0353533 -0.36110303
v -0.0424497 0.0366373 -0.38318103
v -0.0410727 0.0585173 0.02797697
v -0.0402977 0.0573843 0.05262297
v -0.0379847 -0.0799257 -0.24769503
v -0.0379627 -0.0840327 -0.21591003
v -0.0378237 -0.0869307 -0.18371803
v -0.0378057 -0.0628057 0.04175697
v -0.0376027 -0.0883317 -0.15047603
v -0.0371237 -0.0745147 -0.27893003
v -0.0371117 -0.0878017 -0.11756803
v -0.0362077 0.0854893 -0.05407603
v -0.0358617 -0.0685867 -0.30832103
v -0.0358207 0.0824543 -0.02672003
v -0.0354417 -0.0512507 -0.38717903
v -0.0349917 -0.0851707 -0.08770303
v -0.0349757 -0.0621357 -0.33623503
v -0.0349367 -0.0627127 0.06483997
v -0.0349027 -0.0565517 -0.36296803
v -0.0345417 0.0852473 -0.08340203
v -0.0338137 0.0791443 -0.00062203
v -0.0332837 -0.0622957 0.08341297
v -0.0323737 -0.0815857 -0.06062903
v -0.0312567 0.0763293 0.02424097
v -0.0308407 0.0777343 -0.10989003
v -0.0308047 0.0656733 -0.16371003
v -0.0307427 0.0725663 -0.13664803
v -0.0305317 0.0592923 -0.19186003
v -0.0305277 0.0560153 -0.22196503
v -0.0304727 -0.0780347 -0.03485003
v -0.0300877 0.0459413 -0.38293603
v -0.0298747 0.0532443 -0.25223603
v -0.0296877 0.0746073 0.04906397
v -0.0293587 0.0502783 -0.28135903
v -0.0290697 0.0472053 -0.30948403
v -0.0290367 0.0452763 -0.33676003
v -0.0290187 0.0448883 -0.36160403
v -0.0279977 -0.0752557 -0.00928803
v -0.0247437 -0.0736997 0.01613197
v -0.0222507 -0.0737397 0.04083897
v -0.0214207 0.0964623 -0.00466403
v -0.0211387 0.1000293 -0.03212403
v -0.0209277 -0.0750857 0.06265297
v -0.0207567 -0.0550847 -0.38757403
v -0.0195657 0.0933353 0.02138097
v -0.0188577 -0.0606647 -0.36370303
v -0.0184957 -0.0757117 0.08004797
v -0.0173727 -0.0652027 -0.33721503
v -0.0172837 0.1039773 -0.06201803
v -0.0166247 0.0902643 0.04564397
v -0.0164257 -0.0718817 -0.30958503
v -0.0163497 -0.0786507 -0.28071403
v -0.0162797 -0.0848187 -0.24992703
v -0.0159797 -0.0892077 -0.21787403
v -0.0156117 0.0496483 -0.38319303
v -0.0154057 -0.0921467 -0.18488603
v -0.0142717 -0.0935167 -0.15101803
v -0.0132827 0.0489143 -0.36243803
v -0.0122167 -0.0928107 -0.11838403
v -0.0117357 0.0498453 -0.33802403
v -0.0107067 0.0525093 -0.31105603
v -0.0102627 0.0563743 -0.28333703
v -0.0101557 0.0597833 -0.25478303
v -0.0098837 0.0624703 -0.22521803
v -0.0091207 -0.0890977 -0.08862003
v -0.0089697 -0.0785237 -0.00865503
v -0.0087707 0.0654843 -0.19557403
v -0.0085827 -0.0782517 0.01613897
v -0.0085417 -0.0796187 0.03884197
v -0.0082577 -0.0805997 -0.03439603
v -0.0078207 -0.0813007 0.05777397
v -0.0070927 -0.0842347 -0.06113903
v -0.0068137 0.0713273 -0.16791003
v -0.0045857 -0.0532997 -0.38794303
v -0.0043607 0.0777823 -0.14262703
v -0.0037437 0.1107383 -0.00830703
v -0.0036337 -0.0832087 0.07244897
v -0.0031067 0.1073103 0.01872997
v -0.0022497 0.0814983 -0.11965603
v -0.0019687 -0.0576337 -0.36424203
v -0.0019507 0.0941703 -0.09924403
v -0.0009407 0.1136523 -0.03628903
v -0.0004867 0.0481083 -0.38418903
v 0.0003753 -0.0612437 -0.33808903
v 0.0027643 -0.0821267 0.03790797
v 0.0028713 0.0476993 -0.36353003
v 0.0029093 -0.0671647 -0.31038003
v 0.0048723 -0.0740027 -0.28188903
v 0.0050223 -0.0802707 0.01626397
v 0.0055353 0.0480393 -0.33920303
v 0.0061813 -0.0803897 -0.25206403
v 0.0069043 -0.0850887 -0.22017103
v 0.0075063 -0.0782457 -0.00821503
v 0.0075223 0.0504613 -0.31254703
v 0.0082183 -0.0882207 -0.18671903
v 0.0082693 0.1132633 -0.06574303
v 0.0090153 0.0542323 -0.28531803
v 0.0100563 -0.0442367 -0.38778703
v 0.0101083 0.0575043 -0.25729403
v 0.0104233 -0.0894687 -0.15267403
v 0.0116923 -0.0788757 -0.03391503
v 0.0117453 0.0601973 -0.22841403
v 0.0124983 -0.0477047 -0.36435403
v 0.0133883 -0.0882027 -0.12094103
v 0.0143633 0.0433953 -0.38596603
v 0.0144923 0.0631293 -0.19935703
v 0.0153383 -0.0511587 -0.33866503
v 0.0171293 -0.0845197 -0.09298303
v 0.0180293 0.0420463 -0.36485303
v 0.0182923 0.0672963 -0.17205703
v 0.0187363 -0.0559477 -0.31081703
v 0.0187463 0.1191333 -0.01133003
v 0.0196523 -0.0300987 -0.38686003
v 0.0205093 0.0408043 -0.34016203
v 0.0210563 -0.0788847 -0.06446403
v 0.0221903 -0.0617227 -0.28233203
v 0.0225613 0.0417543 -0.31365603
v 0.0225713 0.0338283 -0.40642703
v 0.0226293 0.0715793 -0.14766603
v 0.0226323 -0.0338537 -0.36417903
v 0.0242133 0.0993873 -0.09451703
v 0.0243083 0.1199313 -0.03842603
v 0.0243353 -0.0675757 -0.25299003
v 0.0248143 0.0442873 -0.28688303
v 0.0248333 -0.0146607 -0.38637003
v 0.0254153 0.0731573 -0.12850003
v 0.0254783 -0.0753507 -0.03133403
v 0.0256753 -0.0724077 -0.22164803
v 0.0257063 0.0325033 -0.38803203
v 0.0258463 -0.0374487 -0.33886603
v 0.0270203 0.0465293 -0.25932403
v 0.0283123 -0.0184837 -0.36439703
v 0.0285823 0.0719173 -0.11292803
v 0.0288923 -0.0759747 -0.18885403
v 0.0292523 0.0187923 -0.40787003
v 0.0294113 0.0305763 -0.36634703
v 0.0296423 0.0004083 -0.38792603
v 0.0297573 -0.0412067 -0.31122403
v 0.0299593 0.0483833 -0.23071803
v 0.0310653 0.0168073 -0.38892103
v 0.0311003 0.0283173 -0.34099003
v 0.0317143 -0.0218867 -0.33923503
v 0.0321943 -0.0026557 -0.36583503
v 0.0324183 0.0275943 -0.31417003
v 0.0333283 -0.0776277 -0.15613603
v 0.0338053 -0.0454897 -0.28279703
v 0.0338563 0.0143313 -0.36684103
v 0.0342513 0.0506863 -0.20193003
v 0.0344173 0.1155273 -0.06546603
v 0.0348153 -0.0055577 -0.34032103
v 0.0348693 0.0285013 -0.28738203
v 0.0351213 -0.0713727 -0.05366603
v 0.0353203 0.0117043 -0.34112103
v 0.0360393 -0.0247827 -0.31192403
v 0.0363863 0.0696853 -0.10527403
v 0.0363963 -0.0500067 -0.25358003
v 0.0371773 0.0103163 -0.31391403
v 0.0372113 -0.0765367 -0.12619703
v 0.0382013 0.0297863 -0.26011203
v 0.0383053 -0.0074947 -0.31300003
v 0.0386653 0.0529043 -0.17476803
v 0.0391553 -0.0542557 -0.22269403
v 0.0402383 -0.0275307 -0.28381203
v 0.0404113 0.0101393 -0.28677503
v 0.0405753 -0.0730637 -0.10222603
v 0.0418403 0.0307153 -0.23151603
v 0.0423003 -0.0088367 -0.28537503
v 0.0428763 0.0549703 -0.15086503
v 0.0433773 -0.0304047 -0.25489303
v 0.0439503 -0.0676567 -0.08382103
v 0.0440693 0.0103193 -0.25931703
v 0.0448443 -0.0577707 -0.19117703
v 0.0455753 0.0558023 -0.13143803
v 0.0457873 -0.0100517 -0.25721303
v 0.0462493 0.0981833 -0.08977203
v 0.0469253 0.0316503 -0.20263103
v 0.0474553 0.0550693 -0.11766903
v 0.0476593 -0.0333797 -0.22444603
v 0.0480523 -0.0616047 -0.07215303
v 0.0484763 0.0103503 -0.23040503
v 0.0501193 0.0521643 -0.10647503
v 0.0502333 0.1171003 -0.03848803
v 0.0504453 -0.0114447 -0.22748303
v 0.0514013 -0.0594187 -0.16089903
v 0.0519273 0.0710203 -0.10071203
v 0.0522843 0.0326943 -0.17557303
v 0.0541793 0.0101543 -0.20120203
v 0.0547783 -0.0358067 -0.19408103
v 0.0549973 0.0489253 -0.09872403
v 0.0556443 -0.0585597 -0.13344903
v 0.0564373 -0.0446407 -0.07710103
v 0.0568473 0.0342683 -0.15216203
v 0.0574353 -0.0467137 -0.08597303
v 0.0574873 -0.0126307 -0.19784703
v 0.0578283 -0.0557187 -0.11206303
v 0.0584883 -0.0512367 -0.09654003
v 0.0590693 0.1098863 -0.06215303
v 0.0591273 -0.0385887 -0.08133003
v 0.0593693 0.0353463 -0.13302403
v 0.0603433 0.0104123 -0.17413603
v 0.0604583 0.0353503 -0.11852403
v 0.0612303 0.0341003 -0.10801003
v 0.0620443 -0.0367627 -0.16576403
v 0.0621853 -0.0317967 -0.08606303
v 0.0624983 0.0318723 -0.09995403
v 0.0631293 -0.0265217 -0.08973203
v 0.0635943 -0.0340467 -0.08516003
v 0.0639493 -0.0281007 -0.09579103
v 0.0643783 -0.0129187 -0.17033703
v 0.0646663 -0.0156997 -0.08967903
v 0.0647743 0.0113893 -0.15070903
v 0.0647933 -0.0268167 -0.08800303
v 0.0651023 0.0116503 -0.09890603
v 0.0653323 0.0288193 -0.09496303
v 0.0656933 0.0206453 -0.09442903
v 0.0658273 -0.0077737 -0.09505003
v 0.0660503 -0.0359597 -0.14068903
v 0.0660923 -0.0070067 -0.08976803
v 0.0660963 -0.0308757 -0.10618503
v 0.0660993 0.0466243 -0.09483703
v 0.0663583 0.0105673 -0.09387903
v 0.0663833 0.0913893 -0.08205103
v 0.0666153 0.0545683 -0.09422403
v 0.0666993 0.0134913 -0.10753603
v 0.0667083 -0.0157227 -0.09116403
v 0.0667513 -0.0078397 -0.10278403
v 0.0668033 0.0125653 -0.13177803
v 0.0668283 -0.0337027 -0.12071903
v 0.0669273 -0.0281337 -0.08944603
v 0.0669823 0.0676943 -0.09278103
v 0.0672763 0.0134643 -0.11772603
v 0.0677493 -0.0184967 -0.09185703
v 0.0678133 -0.0082537 -0.09209803
v 0.0683843 -0.0119857 -0.14654603
v 0.0685473 -0.0089327 -0.11341903
v 0.0688383 -0.0093437 -0.09284803
v 0.0691263 -0.0104587 -0.12748303
v 0.0692413 0.0443233 -0.09242003
v 0.0693213 0.0009423 -0.09212503
v 0.0701083 0.0558583 -0.09081103
v 0.0703683 -0.0200987 -0.09282003
v 0.0707003 2.83e-05 -0.09254503
v 0.0708873 0.0653423 -0.08830503
v 0.0709393 -0.0101207 -0.09359803
v 0.0722543 -0.0008347 -0.09290503
v 0.0736823 -0.0105837 -0.09385303
v 0.0764153 -0.0071397 -0.09386403
v 0.0770103 -0.0071627 -0.09421103
