# Rest-skin points; MuJoCo computes the convex hull.
v -0.0811317 -0.0076577 -0.12107403
v -0.0798037 -0.0319797 -0.11930503
v -0.0790037 -0.0089997 -0.15183203
v -0.0781087 -0.0326667 -0.15044603
v -0.0776067 0.0167273 -0.12363803
v -0.0767547 -0.0095487 -0.18307303
v -0.0759907 -0.0324847 -0.18231703
v -0.0751707 0.0141763 -0.15360103
v -0.0746077 -0.0096007 -0.21455003
v -0.0743407 -0.0313717 -0.21421603
v -0.0724337 -0.0297687 -0.24589203
v -0.0723187 -0.0095017 -0.24613803
v -0.0722537 0.0121873 -0.18404203
v -0.0720817 -0.0548887 -0.11797203
v -0.0709107 -0.0553097 -0.14967403
v -0.0702117 -0.0275897 -0.27656403
v -0.0700787 -0.0089397 -0.27681003
v -0.0697927 0.0106763 -0.21531403
v -0.0693667 0.0433093 -0.09776803
v -0.0692307 -0.0546347 -0.18206903
v -0.0684657 0.0396873 -0.12708803
v -0.0682087 -0.0527357 -0.21418503
v -0.0681677 -0.0076997 -0.30615303
v -0.0678867 -0.0249187 -0.30596403
v -0.0676417 0.0092773 -0.24694503
v -0.0669167 -0.0499757 -0.24604203
v -0.0664727 -0.0057197 -0.33449103
v -0.0663387 0.0356883 -0.15607903
v -0.0656977 0.0082863 -0.27755203
v -0.0655907 -0.0218317 -0.33453303
v -0.0654527 -0.0027917 -0.36075503
v -0.0650157 -0.0464677 -0.27689303
v -0.0643707 0.0081733 -0.30665003
v -0.0640337 0.0009043 -0.38384403
v -0.0636987 -0.0181447 -0.36122703
v -0.0634767 0.0091893 -0.33466603
v -0.0634747 0.0317663 -0.18580303
v -0.0627247 0.0115153 -0.36058303
v -0.0625657 -0.0424387 -0.30623003
v -0.0620067 -0.0137247 -0.38460903
v -0.0614807 0.0143623 -0.38344503
v -0.0609227 0.0287843 -0.21673603
v -0.0601807 -0.0382167 -0.33477703
v -0.0589947 0.0262023 -0.24817203
v -0.0580377 -0.0336567 -0.36180103
v -0.0576797 -0.0743247 -0.11733303
v -0.0575967 0.0241423 -0.27850003
v -0.0572547 -0.0747747 -0.14985503
v -0.0566377 0.0228483 -0.30730403
v -0.0563687 -0.0287137 -0.38559503
v -0.0563017 -0.0735897 -0.18265703
v -0.0558547 -0.0710687 -0.21469703
v -0.0556947 0.0227393 -0.33505203
v -0.0552797 -0.0674997 -0.24652403
v -0.0544347 0.0241503 -0.36074303
v -0.0538767 -0.0630187 -0.27764703
v -0.0533207 0.0259893 -0.38333103
v -0.0528657 0.0631243 -0.10259703
v -0.0526347 0.0589933 -0.13145803
v -0.0518417 -0.0579287 -0.30704103
v -0.0512827 0.0534333 -0.15967503
v -0.0497847 -0.0524817 -0.33531703
v -0.0491357 0.0477193 -0.18856803
v -0.0483177 -0.0471557 -0.36234903
v -0.0477497 0.0441713 -0.21903303
v -0.0475967 -0.0419987 -0.38652803
v -0.0464177 0.0412223 -0.24995203
v -0.0454747 0.0385693 -0.27972003
v -0.0447257 0.0362613 -0.30821703
v -0.0438647 0.0349823 -0.33573903
v -0.0427317 0.0353533 -0.36110303
v -0.0424497 0.0366373 -0.38318103
v -0.0379847 -0.0799257 -0.24769503
v -0.0379627 -0.0840327 -0.21591003
v -0.0378237 -0.0869307 -0.18371803
v -0.0376027 -0.0883317 -0.15047603
v -0.0371237 -0.0745147 -0.27893003
v -0.0371117 -0.0878017 -0.11756803
v -0.0358617 -0.0685867 -0.30832103
v -0.0354417 -0.0512507 -0.38717903
v -0.0349757 -0.0621357 -0.33623503
v -0.0349027 -0.0565517 -0.36296803
v -0.0308407 0.0777343 -0.10989003
v -0.0308047 0.0656733 -0.16371003
v -0.0307427 0.0725663 -0.13664803
v -0.0305317 0.0592923 -0.19186003
v -0.0305277 0.0560153 -0.22196503
v -0.0300877 0.0459413 -0.38293603
v -0.0298747 0.0532443 -0.25223603
v -0.0293587 0.0502783 -0.28135903
v -0.0290697 0.0472053 -0.30948403
v -0.0290367 0.0452763 -0.33676003
v -0.0290187 0.0448883 -0.36160403
v -0.0207567 -0.0550847 -0.38757403
v -0.0188577 -0.0606647 -0.36370303
v -0.0173727 -0.0652027 -0.33721503
v -0.0164257 -0.0718817 -0.30958503
v -0.0163497 -0.0786507 -0.28071403
v -0.0162797 -0.0848187 -0.24992703
v -0.0159797 -0.0892077 -0.21787403
v -0.0156117 0.0496483 -0.38319303
v -0.0154057 -0.0921467 -0.18488603
v -0.0142717 -0.0935167 -0.15101803
v -0.0132827 0.0489143 -0.36243803
v -0.0122167 -0.0928107 -0.11838403
v -0.0117357 0.0498453 -0.33802403
v -0.0107067 0.0525093 -0.31105603
v -0.0102627 0.0563743 -0.28333703
v -0.0101557 0.0597833 -0.25478303
v -0.0098837 0.0624703 -0.22521803
v -0.0087707 0.0654843 -0.19557403
v -0.0068137 0.0713273 -0.16791003
v -0.0045857 -0.0532997 -0.38794303
v -0.0043607 0.0777823 -0.14262703
v -0.0022497 0.0814983 -0.11965603
v -0.0019687 -0.0576337 -0.36424203
v -0.0004867 0.0481083 -0.38418903
v 0.0003753 -0.0612437 -0.33808903
v 0.0028713 0.0476993 -0.36353003
v 0.0029093 -0.0671647 -0.31038003
v 0.0048723 -0.0740027 -0.28188903
v 0.0055353 0.0480393 -0.33920303
v 0.0061813 -0.0803897 -0.25206403
v 0.0069043 -0.0850887 -0.22017103
v 0.0075223 0.0504613 -0.31254703
v 0.0082183 -0.0882207 -0.18671903
v 0.0090153 0.0542323 -0.28531803
v 0.0100563 -0.0442367 -0.38778703
v 0.0101083 0.0575043 -0.25729403
v 0.0104233 -0.0894687 -0.15267403
v 0.0117453 0.0601973 -0.22841403
v 0.0124983 -0.0477047 -0.36435403
v 0.0133883 -0.0882027 -0.12094103
v 0.0143633 0.0433953 -0.38596603
v 0.0144923 0.0631293 -0.19935703
v 0.0153383 -0.0511587 -0.33866503
v 0.0180293 0.0420463 -0.36485303
v 0.0182923 0.0672963 -0.17205703
v 0.0187363 -0.0559477 -0.31081703
v 0.0196523 -0.0300987 -0.38686003
v 0.0205093 0.0408043 -0.34016203
v 0.0221903 -0.0617227 -0.28233203
v 0.0225613 0.0417543 -0.31365603
v 0.0225713 0.0338283 -0.40642703
v 0.0226293 0.0715793 -0.14766603
v 0.0226323 -0.0338537 -0.36417903
v 0.0243353 -0.0675757 -0.25299003
v 0.0248143 0.0442873 -0.28688303
v 0.0248333 -0.0146607 -0.38637003
v 0.0254153 0.0731573 -0.12850003
v 0.0256753 -0.0724077 -0.22164803
v 0.0257063 0.0325033 -0.38803203
v 0.0258463 -0.0374487 -0.33886603
v 0.0270203 0.0465293 -0.25932403
v 0.0283123 -0.0184837 -0.36439703
v 0.0285823 0.0719173 -0.11292803
v 0.0288923 -0.0759747 -0.18885403
v 0.0292523 0.0187923 -0.40787003
v 0.0294113 0.0305763 -0.36634703
v 0.0296423 0.0004083 -0.38792603
v 0.0297573 -0.0412067 -0.31122403
v 0.0299593 0.0483833 -0.23071803
v 0.0310653 0.0168073 -0.38892103
v 0.0311003 0.0283173 -0.34099003
v 0.0317143 -0.0218867 -0.33923503
v 0.0321943 -0.0026557 -0.36583503
v 0.0324183 0.0275943 -0.31417003
v 0.0333283 -0.0776277 -0.15613603
v 0.0338053 -0.0454897 -0.28279703
v 0.0338563 0.0143313 -0.36684103
v 0.0342513 0.0506863 -0.20193003
v 0.0348153 -0.0055577 -0.34032103
v 0.0348693 0.0285013 -0.28738203
v 0.0353203 0.0117043 -0.34112103
v 0.0360393 -0.0247827 -0.31192403
v 0.0363863 0.0696853 -0.10527403
v 0.0363963 -0.0500067 -0.25358003
v 0.0371773 0.0103163 -0.31391403
v 0.0372113 -0.0765367 -0.12619703
v 0.0382013 0.0297863 -0.26011203
v 0.0383053 -0.0074947 -0.31300003
v 0.0386653 0.0529043 -0.17476803
v 0.0391553 -0.0542557 -0.22269403
v 0.0402383 -0.0275307 -0.28381203
v 0.0404113 0.0101393 -0.28677503
v 0.0418403 0.0307153 -0.23151603
v 0.0423003 -0.0088367 -0.28537503
v 0.0428763 0.0549703 -0.15086503
v 0.0433773 -0.0304047 -0.25489303
v 0.0440693 0.0103193 -0.25931703
v 0.0448443 -0.0577707 -0.19117703
v 0.0455753 0.0558023 -0.13143803
v 0.0457873 -0.0100517 -0.25721303
v 0.0469253 0.0316503 -0.20263103
v 0.0474553 0.0550693 -0.11766903
v 0.0476593 -0.0333797 -0.22444603
v 0.0484763 0.0103503 -0.23040503
v 0.0501193 0.0521643 -0.10647503
v 0.0504453 -0.0114447 -0.22748303
v 0.0514013 -0.0594187 -0.16089903
v 0.0522843 0.0326943 -0.17557303
v 0.0541793 0.0101543 -0.20120203
v 0.0547783 -0.0358067 -0.19408103
v 0.0556443 -0.0585597 -0.13344903
v 0.0568473 0.0342683 -0.15216203
v 0.0574873 -0.0126307 -0.19784703
v 0.0578283 -0.0557187 -0.11206303
v 0.0593693 0.0353463 -0.13302403
v 0.0603433 0.0104123 -0.17413603
v 0.0604583 0.0353503 -0.11852403
v 0.0612303 0.0341003 -0.10801003
v 0.0620443 -0.0367627 -0.16576403
v 0.0643783 -0.0129187 -0.17033703
v 0.0647743 0.0113893 -0.15070903
v 0.0660503 -0.0359597 -0.14068903
v 0.0660963 -0.0308757 -0.10618503
v 0.0666993 0.0134913 -0.10753603
v 0.0668033 0.0125653 -0.13177803
v 0.0668283 -0.0337027 -0.12071903
v 0.0672763 0.0134643 -0.11772603
v 0.0683843 -0.0119857 -0.14654603
v 0.0685473 -0.0089327 -0.11341903
v 0.0691263 -0.0104587 -0.12748303
