# Rest-skin points; MuJoCo computes the convex hull.
v -0.150067 0.01797292 0.28934132
v -0.145196 0.03450692 0.30961432
v -0.141272 0.11260192 0.22032732
v -0.140651 0.00814992 0.27695632
v -0.140086 0.02010492 0.29930232
v -0.137286 0.10362392 0.20642532
v -0.135685 0.00117292 0.25267632
v -0.134716 0.08541792 0.19506032
v -0.132407 0.07077992 0.19213632
v -0.132366 0.00976492 0.28713132
v -0.131531 0.11615992 0.22278432
v -0.13049 0.00175192 0.26540332
v -0.129677 0.07074292 0.17986232
v -0.127025 0.10944192 0.20434132
v -0.12483 0.09574492 0.18304632
v -0.124757 0.05554392 0.18117932
v -0.124201 0.07020892 0.16227932
v -0.1242 -0.00688908 0.24327132
v -0.124185 -0.04895308 0.17100932
v -0.12417 -0.03767308 0.17047132
v -0.124162 -0.03140608 0.18290132
v -0.124017 -0.04323808 0.18293832
v -0.123318 0.00314892 0.27616932
v -0.123019 0.05397392 0.16433532
v -0.123007 -0.04459308 0.15837132
v -0.122699 -0.02757908 0.17024032
v -0.122415 -0.03849608 0.19509832
v -0.122312 -0.05589008 0.16066932
v -0.12224 0.04501792 0.18177332
v -0.122141 -0.02430708 0.19639632
v -0.121497 -0.05698008 0.18280132
v -0.121436 -0.03543508 0.15697932
v -0.121412 -0.02026908 0.18154932
v -0.121221 -0.06151708 0.17191332
v -0.121058 0.09907392 0.30393032
v -0.120984 -0.01808408 0.20852832
v -0.120613 0.04211792 0.16504732
v -0.120205 -0.00514608 0.25622032
v -0.119956 0.05205992 0.14437232
v -0.119912 0.12006392 0.24529632
v -0.119486 0.08967392 0.15982032
v -0.119475 0.03640892 0.18279732
v -0.119379 -0.02864608 0.15538532
v -0.119231 -0.05332008 0.19282532
v -0.119085 -0.01818908 0.16812732
v -0.119085 -0.01170208 0.19484132
v -0.119001 -0.06725208 0.16252432
v -0.118965 0.06751092 0.14294832
v -0.118726 -0.03424908 0.20642932
v -0.11829 0.03874692 0.14531132
v -0.118027 -0.05489708 0.14675132
v -0.117776 0.03204292 0.16635732
v -0.117636 -0.04727408 0.14488932
v -0.116918 -0.01002908 0.17969632
v -0.116882 -0.02191808 0.21980932
v -0.116685 -0.06568908 0.15085032
v -0.116448 -0.02313008 0.15313332
v -0.116377 0.02783092 0.18589532
v -0.116205 0.04882292 0.12428732
v -0.116179 -0.00246608 0.19229632
v -0.116061 0.11988892 0.22336832
v -0.115975 0.00361292 0.19091832
v -0.115965 -0.01165508 0.16610732
v -0.115717 0.02717492 0.14730632
v -0.115704 -0.04042408 0.14256132
v -0.115333 -0.00395908 0.17849432
v -0.115279 0.03471992 0.12551132
v -0.115138 -0.05158608 0.20226832
v -0.115134 -0.07431008 0.17367332
v -0.11498 0.00965092 0.19036532
v -0.114904 -0.07193008 0.18219732
v -0.114746 0.06351392 0.12322732
v -0.114611 0.02199292 0.16993132
v -0.114553 0.08408992 0.14056332
v -0.114065 -0.07467408 0.15446732
v -0.114054 0.00259092 0.17740632
v -0.113963 0.01648892 0.18947532
v -0.113838 0.02075892 0.12746532
v -0.113814 -0.00334608 0.26771632
v -0.113792 -0.00503808 0.16416932
v -0.113416 -0.03616708 0.21528032
v -0.11316 0.01569292 0.15183732
v -0.113117 -0.06906008 0.19068932
v -0.112963 0.11665092 0.20135332
v -0.112839 -0.07954608 0.16715632
v -0.112813 -0.01528508 0.14953032
v -0.112692 -0.03535608 0.13959932
v -0.112606 0.04311492 0.10377132
v -0.112514 -0.01718808 0.23602632
v -0.112454 0.02852892 0.10410632
v -0.112412 0.00972292 0.17595032
v -0.112306 0.00286192 0.16367132
v -0.111714 0.01231592 0.10512032
v -0.111285 0.05776592 0.10310632
v -0.11113 0.00724492 0.13273632
v -0.110878 0.07857392 0.12168432
v -0.110755 0.11104692 0.17924932
v -0.110256 0.02227292 0.08363232
v -0.110236 -0.06737908 0.14045732
v -0.110209 -0.06821508 0.19817832
v -0.110201 -0.05947208 0.13629732
v -0.109892 -0.00725208 0.14322332
v -0.109492 -0.08462208 0.16084532
v -0.109436 0.00452292 0.08344132
v -0.109336 0.03727492 0.08364532
v -0.109048 -0.07579208 0.14447232
v -0.109003 -0.02993908 0.13544032
v -0.108795 -0.05429608 0.20948132
v -0.108747 -0.01393708 0.24883932
v -0.108727 0.10511692 0.15783132
v -0.107905 -0.05278308 0.13208732
v -0.107767 -0.08474408 0.17722432
v -0.107315 -0.00897508 0.11014932
v -0.107094 0.05164492 0.08301832
v -0.10703 0.07202992 0.10206532
v -0.106832 0.01654292 0.06449832
v -0.10648 -0.08424908 0.18277532
v -0.10634 -0.08780208 0.17115732
v -0.106266 -0.02389008 0.12851632
v -0.106254 -0.08490408 0.14974732
v -0.105967 -0.00127108 0.06324832
v -0.105965 0.09881592 0.13885932
v -0.105799 -0.04840108 0.12869132
v -0.10569 0.03145792 0.06501332
v -0.105563 -0.02953708 0.22899132
v -0.105468 -0.07006608 0.20340432
v -0.105448 0.11724192 0.28427732
v -0.105088 -0.08375208 0.18800532
v -0.104463 0.12240192 0.26518932
v -0.104311 -0.01592908 0.08399832
v -0.103538 -0.01087908 0.26134832
v -0.103424 -0.08281408 0.19301632
v -0.10332 0.09229492 0.11995432
v -0.103175 -0.09231308 0.16787732
v -0.102812 -0.04566108 0.22216332
v -0.102762 0.04526292 0.06468132
v -0.102681 0.01197692 0.04642232
v -0.102585 -0.04354508 0.12481432
v -0.102368 0.06497892 0.08228332
v -0.102229 -0.09204708 0.15620732
v -0.10202 -0.00488208 0.04468132
v -0.101789 0.10907292 0.29899432
v -0.101716 0.02616492 0.04755132
v -0.101704 0.12439592 0.24471032
v -0.100734 -0.02074908 0.06236432
v -0.100653 -0.07249508 0.13151732
v -0.100611 -0.07930708 0.13610532
v -0.100308 -0.06014708 0.21444132
v -0.100155 -0.03669908 0.11907232
v -0.100012 0.00952492 0.02900432
v -0.099663 -0.09352608 0.17901432
v -0.099656 -0.06544608 0.12711332
v -0.099575 -0.08597208 0.14107232
v -0.099472 -0.08403808 0.19689132
v -0.099388 -0.09265708 0.18300032
v -0.099248 0.12453692 0.22264632
v -0.099222 -0.00633408 0.02785732
v -0.099202 0.08455892 0.10089632
v -0.09907 -0.09086908 0.18697632
v -0.099042 0.02321792 0.03025232
v -0.09904 -0.07424308 0.20686432
v -0.099016 0.03926092 0.04755232
v -0.098547 -0.09577208 0.17478632
v -0.098276 -0.05956008 0.12345232
v -0.098032 -0.09009608 0.19072132
v -0.097992 -0.09222408 0.14719632
v -0.097434 0.05817092 0.06402032
v -0.09732 -0.02296008 0.04350832
v -0.097146 0.12392592 0.19988032
v -0.096829 -0.09782308 0.16460332
v -0.096554 -0.03624708 0.10370332
v -0.096499 0.03604792 0.03082132
v -0.096462 -0.09797008 0.17148732
v -0.096057 -0.02278708 0.24383232
v -0.095693 -0.09708608 0.15416132
v -0.095562 -0.08575808 0.20002132
v -0.095259 0.12144992 0.17748332
v -0.095209 -0.09125508 0.19307732
v -0.094963 -0.09400608 0.18860432
v -0.094928 -0.02296508 0.02696132
v -0.094736 -0.03701208 0.08243832
v -0.094719 -0.09795008 0.17963532
v -0.094687 -0.09577408 0.18595732
v -0.094631 -0.05352608 0.12007632
v -0.094463 0.07665292 0.08153432
v -0.094365 0.11698792 0.15676832
v -0.094116 -0.04773608 0.11527532
v -0.09384 0.05201692 0.04715632
v -0.09374 -0.09994608 0.16919232
v -0.093562 -0.09868708 0.18251932
v -0.092965 -0.10040108 0.17757732
v -0.092944 0.11059992 0.13818232
v -0.092469 -0.10095608 0.17479432
v -0.092316 -0.01878908 0.25633032
v -0.092279 -0.09606508 0.18911532
v -0.091899 -0.07924008 0.20928932
v -0.091881 -0.10084208 0.16227432
v -0.091853 -0.10154808 0.17251332
v -0.091848 -0.09336908 0.19413232
v -0.091699 -0.03893408 0.06140932
v -0.09085 0.04842492 0.03084532
v -0.090714 0.10274492 0.11947532
v -0.090672 -0.10422608 0.18122632
v -0.090643 -0.10182008 0.16783132
v -0.090558 -0.06702408 0.21784132
v -0.090235 -0.08896108 0.20181032
v -0.090125 -0.10552308 0.17812432
v -0.089835 -0.10285408 0.17266032
v -0.089699 -0.10256208 0.18498932
v -0.089642 0.07000292 0.06325432
v -0.089396 -0.09847508 0.18978232
v -0.089242 -0.05376808 0.22597332
v -0.088993 -0.08991008 0.13421832
v -0.088938 -0.03916408 0.04267532
v -0.088903 -0.09834708 0.14638132
v -0.088684 -0.09491708 0.14028032
v -0.088453 -0.08487708 0.12898632
v -0.088307 -0.10113908 0.15329132
v -0.088211 -0.09570608 0.19473032
v -0.087912 -0.04093908 0.23324632
v -0.087701 -0.10332608 0.16679132
v -0.087552 -0.10419408 0.17177532
v -0.087512 -0.10270108 0.16043932
v -0.087488 -0.10851808 0.17834232
v -0.087326 -0.09924808 0.19099232
v -0.087318 -0.07927308 0.12435832
v -0.087155 0.09404192 0.10063632
v -0.086998 -0.03739908 0.02591432
v -0.086161 -0.07257108 0.12035832
v -0.085756 -0.10905608 0.18275532
v -0.085678 0.06343692 0.04664832
v -0.084981 -0.10524108 0.16968432
v -0.084839 -0.10711508 0.18624232
v -0.084694 -0.09279708 0.20161532
v -0.084277 -0.09835508 0.19418632
v -0.084259 -0.10981308 0.17769632
v -0.084198 -0.06499308 0.11789432
v -0.084131 0.12387992 0.28015432
v -0.084094 0.12884792 0.26227932
v -0.083598 -0.08509608 0.21007332
v -0.083552 -0.10508708 0.16599332
v -0.083326 -0.10638808 0.17157632
v -0.083302 0.08599092 0.08128932
v -0.082906 -0.05503208 0.09989632
v -0.082856 -0.10336508 0.18964732
v -0.082836 -0.10492608 0.16014132
v -0.082723 0.13018792 0.24241632
v -0.082419 0.05888592 0.03077132
v -0.082388 -0.10399708 0.15345432
v -0.081917 -0.03226508 0.24208632
v -0.081887 -0.06014708 0.11191932
v -0.081689 -0.05496508 0.08063632
v -0.081638 0.11546192 0.29633832
v -0.081564 -0.10963008 0.18195832
v -0.081506 -0.10809808 0.18525032
v -0.081504 0.13008892 0.22072532
v -0.081428 -0.10211508 0.14712032
v -0.080943 -0.10718808 0.17212032
v -0.080547 -0.02659308 0.25251932
v -0.07975 -0.07394208 0.21901532
v -0.079746 -0.10482608 0.18881632
v -0.079691 -0.10654808 0.16679732
v -0.079629 0.13049992 0.19845932
v -0.079611 -0.10111108 0.19279032
v -0.079568 -0.05388908 0.06088232
v -0.079437 -0.09964708 0.14130932
v -0.078788 0.07919892 0.06327132
v -0.078313 0.12959392 0.17623232
v -0.078195 -0.09707308 0.19957832
v -0.078162 -0.10781008 0.17236832
v -0.078068 0.12534592 0.15538432
v -0.077709 -0.10496108 0.18828132
v -0.077593 -0.10712608 0.16130232
v -0.077461 -0.10798308 0.17590032
v -0.077391 -0.09670908 0.13509532
v -0.077309 -0.10624608 0.18607432
v -0.077021 0.11694692 0.13789832
v -0.076794 -0.05161308 0.04251732
v -0.07676 -0.10764008 0.16806232
v -0.076089 -0.10333508 0.19102432
v -0.075911 0.10815592 0.11971732
v -0.07581 -0.10703308 0.18387432
v -0.075766 -0.10773808 0.17966032
v -0.075524 -0.10678608 0.15527332
v -0.075416 -0.06189408 0.22650332
v -0.075243 -0.04902808 0.02551132
v -0.075204 -0.09127208 0.20799432
v -0.075058 -0.09313708 0.12973232
v -0.074978 0.07248792 0.04678532
v -0.074174 -0.10856008 0.17004832
v -0.073957 -0.10741908 0.18186432
v -0.073607 -0.10475208 0.18857432
v -0.073451 0.09979092 0.10058132
v -0.073325 -0.10883008 0.16360132
v -0.073227 -0.10577808 0.14938532
v -0.072737 -0.10068908 0.19636232
v -0.072694 -0.08867108 0.12495532
v -0.072184 -0.10901108 0.17358932
v -0.072061 0.06798292 0.03071232
v -0.071446 -0.08274108 0.12039932
v -0.071418 -0.10626408 0.18559632
v -0.071292 -0.04989808 0.23362132
v -0.070657 -0.07488008 0.11763432
v -0.070438 0.09223092 0.08144632
v -0.070437 -0.10867308 0.17811932
v -0.070163 -0.10968908 0.16703832
v -0.069955 -0.10885008 0.15829632
v -0.069943 -0.10764408 0.18233032
v -0.069599 -0.10363908 0.14368932
v -0.069424 -0.06877608 0.10944332
v -0.069227 -0.08186908 0.21691832
v -0.068807 -0.04082108 0.24014732
v -0.068692 -0.06796408 0.09825132
v -0.068346 -0.10347108 0.19235332
v -0.068281 -0.03325208 0.24957132
v -0.067012 -0.06776708 0.07975732
v -0.0665 -0.11011908 0.17130432
v -0.066455 -0.09610708 0.20403732
v -0.06626 0.08533092 0.06341532
v -0.06609 -0.10832508 0.15314132
v -0.065334 -0.06482808 0.06098432
v -0.065295 -0.10085608 0.13788032
v -0.06468 -0.10596908 0.18784232
v -0.064673 -0.11015308 0.16285632
v -0.064069 -0.10974008 0.17665732
v -0.063381 0.13573692 0.24002432
v -0.063227 -0.10798108 0.18290032
v -0.063126 0.07974392 0.04639332
v -0.06304 0.13429392 0.26048932
v -0.063026 -0.06113508 0.04313732
v -0.062956 0.12814892 0.27846832
v -0.062912 0.13536892 0.21871432
v -0.062303 -0.05806008 0.02586232
v -0.062128 -0.07124708 0.22358332
v -0.061461 0.13534992 0.19690632
v -0.061085 0.11945292 0.29515832
v -0.061041 -0.09777208 0.13275332
v -0.06084 0.07587392 0.02967032
v -0.060793 0.13321592 0.17531132
v -0.060603 0.11798592 0.13804432
v -0.060571 0.12684592 0.15520132
v -0.060447 -0.10615608 0.14756532
v -0.060433 0.10983692 0.11971632
v -0.060177 -0.11026108 0.16829532
v -0.059562 -0.10012508 0.19811932
v -0.0588 -0.10922208 0.15806632
v -0.058785 0.10295292 0.10015032
v -0.058752 -0.08922308 0.21144732
v -0.056948 -0.10959608 0.17522432
v -0.056756 -0.09395008 0.12762132
v -0.056557 -0.04694108 0.23788932
v -0.056313 0.09585092 0.08098832
v -0.056019 -0.10396408 0.19088632
v -0.055766 -0.03862608 0.24714232
v -0.055258 -0.10714608 0.18333432
v -0.054722 -0.05948108 0.22934432
v -0.053692 -0.10242408 0.14227232
v -0.053218 -0.08745808 0.12224832
v -0.053112 0.09000592 0.06254632
v -0.052795 -0.10944908 0.16458532
v -0.052381 -0.08155408 0.11832332
v -0.051544 -0.10685008 0.15320532
v -0.051526 -0.07626908 0.09713632
v -0.051127 -0.07539608 0.07906532
v -0.050293 -0.09529108 0.20324132
v -0.050192 0.08525892 0.04476832
v -0.050161 -0.07276208 0.06087032
v -0.049737 -0.07821708 0.11183532
v -0.049074 -0.06639008 0.02611532
v -0.048854 -0.06909908 0.04347032
v -0.048336 -0.10831108 0.17348732
v -0.048056 -0.07818308 0.21764732
v -0.047646 -0.09876108 0.13736432
v -0.046383 -0.10046908 0.19359632
v -0.045734 -0.10497608 0.18351032
v -0.044154 -0.04957708 0.23502332
v -0.044079 -0.10673008 0.16143532
v -0.043994 -0.10251808 0.14841032
v -0.043077 0.11080792 0.11830432
v -0.042981 -0.04204208 0.24449932
v -0.042877 0.11672992 0.13723732
v -0.042721 0.12308092 0.15626232
v -0.042658 0.13472992 0.21723832
v -0.042642 -0.09485508 0.13203632
v -0.04259 0.12913392 0.17576332
v -0.042394 0.13248792 0.19621132
v -0.042252 0.13587992 0.23825332
v -0.04214 0.10434792 0.09898832
v -0.04178 0.12900492 0.27730932
v -0.040893 0.13462892 0.25909532
v -0.040425 0.09796992 0.07935532
v -0.040226 0.12135392 0.29463432
v -0.038535 -0.10525708 0.17140532
v -0.0385 -0.06787708 0.22145532
v -0.038497 -0.08691208 0.12736032
v -0.037942 0.09193892 0.06096532
v -0.037796 -0.08284808 0.12321632
v -0.037749 -0.08555008 0.20755432
v -0.035737 -0.09669008 0.14358532
v -0.035348 -0.07954208 0.11668132
v -0.035213 -0.10050308 0.18315632
v -0.034972 0.08609992 0.04334832
v -0.034734 -0.09353908 0.19490232
v -0.034368 -0.07992608 0.09810632
v -0.034225 -0.10195808 0.15814232
v -0.034103 -0.07930408 0.07911732
v -0.033935 -0.07306708 0.02614932
v -0.033302 -0.07705208 0.06084332
v -0.033191 -0.07466408 0.04367432
v -0.03096 -0.09223908 0.13965032
v -0.029961 -0.04965508 0.23243732
v -0.029803 -0.05872508 0.22418132
v -0.029496 -0.04398908 0.24217432
v -0.028355 -0.09984808 0.16883132
v -0.027757 -0.08710008 0.13485132
v -0.027202 -0.07509008 0.20928732
v -0.026742 -0.08313208 0.12989432
v -0.025688 -0.09491708 0.15412432
v -0.02534 -0.08038108 0.12580032
v -0.024699 -0.09384908 0.18114832
v -0.023582 -0.08451508 0.19358532
v -0.022772 0.10775492 0.11756232
v -0.022266 0.10138592 0.09822532
v -0.022092 0.12402292 0.17612932
v -0.022056 0.12728292 0.19598632
v -0.022033 0.11361692 0.13685332
v -0.021883 0.12987692 0.21633432
v -0.021779 0.11897792 0.15656732
v -0.021525 0.09456692 0.07876832
v -0.021354 0.13103992 0.23728832
v -0.020889 0.12958292 0.25805532
v -0.020643 0.12579292 0.27668632
v -0.020091 0.08765692 0.06015232
v -0.019964 -0.08920808 0.15031232
v -0.019828 0.12025192 0.29370332
v -0.019697 -0.06860308 0.21020232
v -0.019564 -0.09156408 0.16532332
v -0.018201 0.08202192 0.04237132
v -0.017903 -0.07945808 0.11770132
v -0.017429 -0.07996308 0.09900232
v -0.017312 -0.08591008 0.14561732
v -0.017005 -0.07998708 0.07972632
v -0.01698 -0.07689808 0.02588032
v -0.016974 -0.05607508 0.22054432
v -0.016647 -0.07766708 0.04363032
v -0.016481 -0.07902908 0.06110832
v -0.01603 -0.08194008 0.13858332
v -0.015719 -0.08570208 0.17696332
v -0.015263 -0.04442508 0.24045032
v -0.015139 -0.04988108 0.22972432
v -0.01507 -0.07845308 0.19130632
v -0.013721 -0.07902408 0.13187832
v -0.013529 -0.08467308 0.16146032
v -0.012206 -0.06459308 0.20783632
v -0.009947 -0.07938308 0.15097532
v -0.009845 -0.07969808 0.17258032
v -0.009576 -0.08008908 0.15759632
v -0.009116 -0.07847008 0.14430432
v -0.008963 -0.07369608 0.18801032
v -0.008477 -0.05434808 0.22055232
v -0.005518 -0.07638808 0.16966632
v -0.005475 -0.06244008 0.20481532
v -0.00419 -0.07040808 0.18542632
v -0.00042 0.12000492 0.17662532
v -0.000413 -0.07827608 0.08038332
v -0.000409 -0.07792508 0.06170732
v -0.000339 0.11528592 0.15705232
v -0.000257 0.12362592 0.19625332
v -0.000235 -0.05348708 0.22000932
v -0.000215 -0.07681208 0.04391932
v -0.000201 0.10977692 0.13749132
v -0.000193 -0.07387208 0.16931832
v -0.000176 0.12590592 0.21639232
v -0.000166 -0.04900508 0.22931732
v -0.000166 0.12307892 0.27618032
v -0.000144 -0.07799208 0.09949532
v -0.000125 0.10294892 0.11879232
v -8.5e-05 0.12599292 0.25837632
v 0 0.11789192 0.29281732
v 3.1e-05 0.07483692 0.04337032
v 4.1e-05 -0.04408908 0.23967432
v 4.9e-05 0.12734592 0.23740332
v 5.5e-05 0.09555792 0.09987232
v 5.9e-05 -0.07612208 0.02572732
v 6.1e-05 -0.06911308 0.18485832
v 7.6e-05 0.08162292 0.06117732
v 8.3e-05 0.08870992 0.08027532
v 0.000194 -0.07615808 0.16045232
v 0.000284 -0.07685308 0.15489432
v 0.000287 -0.07728008 0.11902032
v 0.000289 -0.07776008 0.13475232
v 0.000299 -0.07745108 0.14789332
v 0.000307 -0.06145508 0.20423732
v 0.004387 -0.07018908 0.18631432
v 0.004932 -0.07577208 0.17007632
v 0.006106 -0.06168108 0.20631832
v 0.007662 -0.05359208 0.22179932
v 0.008955 -0.07906808 0.17341132
v 0.009183 -0.07312308 0.18945132
v 0.009341 -0.07825408 0.14329832
v 0.00937 -0.08008108 0.15728732
v 0.01009 -0.07964708 0.15035132
v 0.012274 -0.06339608 0.20874132
v 0.01312 -0.08459108 0.16176032
v 0.014267 -0.07897908 0.13130732
v 0.014328 -0.05045508 0.23032432
v 0.014742 -0.08527108 0.17789832
v 0.014965 -0.07781708 0.19306532
v 0.015322 -0.04444408 0.24044232
v 0.016104 -0.07901808 0.06124032
v 0.016431 -0.08180608 0.13780432
v 0.016442 -0.05552008 0.22153532
v 0.016502 -0.07768808 0.04389832
v 0.016637 -0.07997608 0.07978632
v 0.017135 -0.07690608 0.02609032
v 0.017323 -0.07988308 0.09930032
v 0.017775 -0.08628908 0.14576832
v 0.018281 0.08204392 0.04240732
v 0.018403 -0.07940908 0.11784732
v 0.01905 -0.09126108 0.16538832
v 0.019577 -0.06789508 0.21147332
v 0.019828 0.12025192 0.29370232
v 0.020265 0.08773692 0.06021232
v 0.020346 -0.08915308 0.15003932
v 0.020788 0.12565792 0.27721432
v 0.021227 0.12965392 0.25861832
v 0.021734 0.12395992 0.17636932
v 0.021757 0.13111292 0.23768132
v 0.021825 0.09470092 0.07898232
v 0.021831 0.11907892 0.15693332
v 0.021929 0.12727192 0.19624532
v 0.021931 0.11365092 0.13703332
v 0.021934 0.12995292 0.21671932
v 0.022672 0.10150992 0.09844832
v 0.022713 0.10786592 0.11792332
v 0.023257 -0.08427108 0.19546932
v 0.023875 -0.09313408 0.18219232
v 0.025459 -0.09481108 0.15469232
v 0.025607 -0.08024308 0.12589132
v 0.026954 -0.08329708 0.12990232
v 0.027222 -0.07487108 0.21128032
v 0.027457 -0.09912508 0.16959532
v 0.027728 -0.08704108 0.13475132
v 0.029533 -0.05852208 0.22490332
v 0.029555 -0.04400608 0.24215932
v 0.029793 -0.05015608 0.23216232
v 0.030271 -0.09238108 0.14046632
v 0.033318 -0.07470308 0.04419632
v 0.033481 -0.10165908 0.15859532
v 0.033787 -0.07696908 0.06078032
v 0.03387 -0.07314108 0.02730332
v 0.03429 -0.09324308 0.19604932
v 0.034342 -0.09998508 0.18413332
v 0.034436 -0.07968708 0.09829532
v 0.034507 -0.09637208 0.14345632
v 0.034589 -0.07919408 0.07915032
v 0.035172 0.08611492 0.04335732
v 0.035359 -0.07906108 0.11679832
v 0.037169 -0.08492008 0.20886632
v 0.037482 -0.08278908 0.12338032
v 0.037602 -0.10471408 0.17212232
v 0.038074 0.09204392 0.06117032
v 0.038173 -0.08673308 0.12730832
v 0.038475 -0.06800608 0.22303532
v 0.040226 0.12135392 0.29463032
v 0.040655 0.09807892 0.08002532
v 0.04127 0.13454292 0.25985232
v 0.041799 -0.09471308 0.13230632
v 0.042015 -0.10200808 0.14873532
v 0.042053 0.12867292 0.27819032
v 0.042506 0.12918392 0.17603632
v 0.04254 0.13590392 0.23870832
v 0.04255 0.10462092 0.09927232
v 0.042623 0.13262692 0.19665932
v 0.042665 0.12315492 0.15651232
v 0.042783 0.13472192 0.21767132
v 0.042804 -0.10625308 0.16179132
v 0.042832 0.11676692 0.13740432
v 0.043049 -0.04205508 0.24452232
v 0.04317 0.11087692 0.11852132
v 0.044606 -0.10434308 0.18406032
v 0.044827 -0.04976908 0.23555532
v 0.045376 -0.09975908 0.19396232
v 0.046507 -0.09874908 0.13731132
v 0.047163 -0.10798808 0.17390732
v 0.047543 -0.07803108 0.21928232
v 0.048995 -0.06919808 0.04472432
v 0.049001 -0.06656908 0.02795132
v 0.04901 -0.09462308 0.20370032
v 0.049788 -0.10641108 0.15340132
v 0.049992 -0.07870908 0.11176932
v 0.050114 0.08527992 0.04470332
v 0.050356 -0.07272608 0.06159632
v 0.051271 -0.07526808 0.07966932
v 0.051468 -0.10899908 0.16510132
v 0.051525 -0.07615608 0.09810932
v 0.052302 -0.10265208 0.14259632
v 0.052619 -0.08249208 0.11810732
v 0.053088 0.09010492 0.06271432
v 0.053317 -0.08791308 0.12165232
v 0.054429 -0.05888308 0.23096032
v 0.054587 -0.10686408 0.18325032
v 0.055431 -0.10382408 0.19063832
v 0.055816 -0.03867808 0.24725832
v 0.055923 -0.10914708 0.17535732
v 0.056242 0.09606592 0.08134132
v 0.056322 -0.09378808 0.12700332
v 0.057075 -0.10899408 0.15840332
v 0.057222 -0.08887308 0.21214532
v 0.057377 -0.04741708 0.23791032
v 0.058622 -0.10602708 0.14771932
v 0.058705 -0.09995708 0.19791332
v 0.058778 -0.10990108 0.16806032
v 0.059071 0.10305392 0.10047732
v 0.060254 -0.09754308 0.13225332
v 0.060445 0.10984192 0.11992032
v 0.060487 0.12692092 0.15539832
v 0.060527 0.11806492 0.13822432
v 0.060652 0.07596692 0.02958032
v 0.06079 0.13325792 0.17562332
v 0.061086 0.11945292 0.29515332
v 0.061298 -0.07122708 0.22523832
v 0.06173 0.13531992 0.19741632
v 0.062187 -0.10766208 0.18285632
v 0.062328 -0.05820808 0.02731132
v 0.062687 0.13545292 0.21910232
v 0.062855 0.07986992 0.04630032
v 0.063058 -0.06130008 0.04429432
v 0.063202 0.13576292 0.24043532
v 0.063232 0.13411292 0.26130932
v 0.063237 -0.10979208 0.16262432
v 0.063253 -0.10934008 0.17680432
v 0.063486 -0.10562808 0.18784632
v 0.063838 0.12768192 0.27932532
v 0.064341 -0.10804508 0.15308132
v 0.064382 -0.10084508 0.13762532
v 0.064941 -0.09622108 0.20393732
v 0.065308 -0.06535208 0.06201532
v 0.065428 -0.10992008 0.17120132
v 0.065971 0.08541292 0.06344932
v 0.06657 -0.06792608 0.08087332
v 0.066635 -0.10291808 0.19271732
v 0.068197 -0.08161608 0.21824632
v 0.068302 -0.03329708 0.24968132
v 0.068532 -0.06823708 0.09913432
v 0.068549 -0.04093908 0.24081032
v 0.068637 -0.10363808 0.14332232
v 0.069046 -0.10849608 0.15764632
v 0.069753 -0.06978208 0.10919432
v 0.069859 0.09239892 0.08153732
v 0.069909 -0.10941008 0.16625932
v 0.069923 -0.05039608 0.23490532
v 0.070134 -0.10755908 0.18153332
v 0.070577 -0.10852608 0.17735432
v 0.07105 -0.10034508 0.19647032
v 0.071324 -0.10617108 0.18498432
v 0.071672 -0.07665408 0.11702432
v 0.071825 0.06811192 0.03054632
v 0.071922 -0.10888208 0.17293132
v 0.072173 -0.08401508 0.11966732
v 0.072236 -0.10548008 0.14878132
v 0.072869 -0.08894608 0.12457732
v 0.073143 -0.10456808 0.18813932
v 0.073257 -0.09154808 0.20852032
v 0.073361 0.09986092 0.10075132
v 0.073413 -0.10842508 0.16323332
v 0.073799 -0.10850508 0.16939132
v 0.07393 -0.10739808 0.18135632
v 0.074663 0.07262292 0.04659732
v 0.074716 -0.06251508 0.22774832
v 0.074784 -0.09307908 0.12958832
v 0.074855 -0.10635408 0.15464832
v 0.075266 -0.04904208 0.02609032
v 0.075779 -0.10317508 0.19037832
v 0.075783 -0.10791708 0.17907932
v 0.075793 0.10822692 0.11975832
v 0.075805 -0.10701608 0.18333432
v 0.07641 -0.10751008 0.16736132
v 0.076474 -0.09719908 0.19953532
v 0.076595 -0.09666708 0.13496432
v 0.07669 -0.10781608 0.17559832
v 0.076705 -0.10793908 0.17253332
v 0.076924 0.11703992 0.13796432
v 0.077007 -0.10603408 0.18545032
v 0.077038 -0.05152408 0.04338332
v 0.077255 -0.10688708 0.16093332
v 0.077519 -0.10485208 0.18761432
v 0.077825 0.12537992 0.15542432
v 0.078339 0.12969592 0.17641832
v 0.078372 -0.10003908 0.14103132
v 0.07852 0.07929492 0.06312932
v 0.079119 -0.10144908 0.19230932
v 0.079149 -0.07439108 0.21988532
v 0.079246 -0.10739108 0.17247632
v 0.079303 -0.10654008 0.16659832
v 0.079472 0.13055592 0.19867132
v 0.079732 -0.10476908 0.18806932
v 0.08013 -0.05398908 0.06214532
v 0.08018 -0.10208008 0.14675932
v 0.080543 -0.02660408 0.25258632
v 0.080767 0.13039892 0.22099732
v 0.080908 -0.10706008 0.18468832
v 0.08114 -0.10837008 0.18168332
v 0.081332 -0.10378208 0.15291232
v 0.08143 -0.05507508 0.08208832
v 0.081543 -0.10520708 0.16028932
v 0.08164 0.11546192 0.29633132
v 0.081843 -0.10664808 0.17195832
v 0.081879 -0.10887108 0.17831032
v 0.081984 -0.10545408 0.16586832
v 0.082043 0.13037692 0.24282232
v 0.082077 -0.08575508 0.21056332
v 0.082208 0.05901892 0.03058632
v 0.082675 -0.10451708 0.18858332
v 0.0827 -0.03188008 0.24274332
v 0.082743 0.08628192 0.08113232
v 0.082761 -0.09856608 0.19421932
v 0.082939 -0.05580208 0.10107832
v 0.083091 -0.06165908 0.11231432
v 0.08314 -0.09343408 0.20135532
v 0.083287 -0.10580408 0.16987732
v 0.084241 0.12866992 0.26301232
v 0.085296 -0.10635408 0.18595332
v 0.085438 0.06356992 0.04640532
v 0.085611 0.12315692 0.28109232
v 0.085772 -0.10407608 0.16644932
v 0.085881 -0.06739508 0.11765932
v 0.085897 -0.10483708 0.17175532
v 0.085981 -0.10821408 0.18259232
v 0.086 -0.10899808 0.17937732
v 0.086093 -0.09927308 0.19080332
v 0.086235 -0.10329508 0.16061532
v 0.086748 -0.09570908 0.19494532
v 0.086863 0.09414992 0.10057132
v 0.087028 -0.03744708 0.02610832
v 0.087617 -0.07433508 0.12036032
v 0.08769 -0.10101708 0.15273332
v 0.087722 -0.04140408 0.23422532
v 0.088225 -0.08017108 0.12465232
v 0.088494 -0.09471508 0.13988732
v 0.088518 -0.09003708 0.20158532
v 0.08864 -0.09796708 0.14566732
v 0.088665 -0.09864508 0.18941432
v 0.088871 -0.05479308 0.22667832
v 0.088957 -0.08531208 0.12924732
v 0.089031 -0.09006308 0.13424232
v 0.089175 -0.03898608 0.04334332
v 0.089422 0.07002492 0.06302132
v 0.089569 -0.10276108 0.17225832
v 0.089977 -0.10480208 0.17867532
v 0.090084 -0.06812108 0.21848532
v 0.090378 -0.10204108 0.16736932
v 0.090506 0.10284392 0.11942232
v 0.090525 -0.08048008 0.20993232
v 0.090719 0.04860792 0.03075432
v 0.090832 -0.10319308 0.18157232
v 0.090995 -0.09360208 0.19416932
v 0.091028 -0.10073408 0.18502632
v 0.091378 -0.10115108 0.16233632
v 0.091737 -0.03847008 0.06252432
v 0.092307 -0.01878308 0.25634632
v 0.092475 -0.10113408 0.17204432
v 0.092602 -0.09618708 0.18830732
v 0.092807 0.11069492 0.13818332
v 0.093501 -0.10005908 0.17441632
v 0.093694 0.05218992 0.04697032
v 0.094124 0.07680192 0.08129332
v 0.094259 0.11708092 0.15682132
v 0.094345 -0.09876208 0.17736932
v 0.094477 -0.09958008 0.16859832
v 0.094603 -0.08628808 0.20044932
v 0.094702 -0.09665608 0.18219032
v 0.094724 -0.03709408 0.08361032
v 0.094906 -0.02304308 0.02716932
v 0.094995 0.12159792 0.17761932
v 0.095056 -0.09157508 0.19273132
v 0.09509 -0.09560808 0.18514032
v 0.0952 -0.09725408 0.15392232
v 0.095244 -0.04904708 0.11591432
v 0.095396 -0.09395408 0.18772432
v 0.095843 -0.02252608 0.24410532
v 0.095964 -0.05532608 0.12031732
v 0.096312 -0.09629708 0.17966832
v 0.09648 0.03627192 0.03093732
v 0.096483 0.12428592 0.20010932
v 0.096793 -0.03703208 0.10472132
v 0.097176 -0.09759208 0.16390432
v 0.097315 0.05821792 0.06378032
v 0.097494 -0.02281908 0.04410532
v 0.097654 -0.09709508 0.17071632
v 0.097805 -0.09254108 0.14681932
v 0.098047 0.12508092 0.22308932
v 0.098131 -0.08997808 0.19014932
v 0.098148 -0.07546708 0.20735132
v 0.098638 -0.08466208 0.19711832
v 0.09888 0.08476892 0.10064432
v 0.098935 0.03938792 0.04753232
v 0.099043 0.02340592 0.03059432
v 0.099268 -0.00641208 0.02831032
v 0.099436 -0.08606908 0.14083932
v 0.099548 -0.09058008 0.18634432
v 0.099578 -0.06179508 0.12400432
v 0.099816 -0.09479708 0.17409232
v 0.099957 -0.06151808 0.21488732
v 0.100013 -0.06651808 0.12737932
v 0.100075 0.00962292 0.02953932
v 0.100356 0.12489892 0.24541832
v 0.100363 -0.09166708 0.18248432
v 0.100593 -0.07944908 0.13596432
v 0.100629 -0.03749608 0.11944532
v 0.100779 -0.07307208 0.13164732
v 0.100911 -0.09227908 0.17882732
v 0.101027 -0.02057708 0.06346832
v 0.101766 0.02635492 0.04785232
v 0.10179 0.10907292 0.29898532
v 0.101803 -0.09284408 0.15583732
v 0.102145 -0.04682908 0.22237032
v 0.102168 0.06515292 0.08201432
v 0.102179 -0.00475708 0.04550132
v 0.102435 -0.08338008 0.19300932
v 0.102763 0.04528392 0.06459232
v 0.102788 0.01213992 0.04707132
v 0.103138 0.09243192 0.11980732
v 0.103364 -0.04480908 0.12521232
v 0.103537 -0.01087708 0.26134232
v 0.103614 -0.09202208 0.16695532
v 0.104046 0.12243692 0.26591932
v 0.104402 -0.01611108 0.08538532
v 0.104434 -0.08408208 0.18832832
v 0.104932 -0.07109608 0.20359532
v 0.10539 -0.03093908 0.22889932
v 0.105658 0.11687992 0.28498732
v 0.105785 0.03162392 0.06540232
v 0.105866 0.09893492 0.13880132
v 0.106038 -0.08519608 0.14918032
v 0.106165 -0.08472808 0.18261132
v 0.1062 -0.04941308 0.12881532
v 0.106244 -0.00121608 0.06456832
v 0.106255 -0.02440708 0.12878932
v 0.106457 -0.08830508 0.17038632
v 0.106867 0.07223892 0.10180832
v 0.10698 -0.01484408 0.24856432
v 0.107007 0.05192892 0.08289332
v 0.107034 0.01664292 0.06550132
v 0.107387 -0.01007008 0.11124532
v 0.10764 -0.08531108 0.17688932
v 0.108038 -0.05369408 0.13213332
v 0.10843 -0.05542808 0.20996432
v 0.108622 -0.03026908 0.13531432
v 0.10864 0.10520692 0.15783232
v 0.108696 -0.07620808 0.14414132
v 0.109209 -0.08477608 0.16021032
v 0.109395 0.03766092 0.08411632
v 0.109538 0.00418892 0.08514832
v 0.109884 -0.06779708 0.14018732
v 0.109916 -0.06011708 0.13625832
v 0.110117 -0.06917008 0.19824932
v 0.1103 0.02232092 0.08492532
v 0.110684 0.11130092 0.17929832
v 0.110773 -0.00951608 0.14413432
v 0.11085 0.07867392 0.12153032
v 0.111069 0.00577692 0.13349632
v 0.111244 0.05791092 0.10298532
v 0.111595 -0.01716108 0.23607732
v 0.111832 -0.03521308 0.13920732
v 0.111873 0.01178692 0.10658932
v 0.112027 0.11717892 0.20187832
v 0.112239 0.00852592 0.17557432
v 0.112493 0.02823292 0.10524932
v 0.11255 0.00215292 0.16366132
v 0.112659 0.04309192 0.10420532
v 0.112721 -0.08002908 0.16651932
v 0.11305 -0.06980708 0.19070032
v 0.113146 -0.03663808 0.21502432
v 0.113158 0.01737092 0.19018632
v 0.113253 -0.01714408 0.14965932
v 0.113306 0.01457992 0.15212032
v 0.113673 -0.07511608 0.15386732
v 0.113814 -0.00334608 0.26770832
v 0.113856 0.02026192 0.12815932
v 0.113889 -0.00570108 0.16372732
v 0.114139 0.00128092 0.17659032
v 0.114459 0.08420292 0.14049332
v 0.114728 -0.05264108 0.20304132
v 0.114769 0.06350692 0.12314032
v 0.114778 -0.04021608 0.14211332
v 0.114783 0.00890592 0.18858332
v 0.114797 0.02134892 0.16970632
v 0.114834 -0.07224608 0.18224132
v 0.114869 0.12029992 0.22416232
v 0.115251 -0.07500608 0.17315832
v 0.115286 0.03441992 0.12608332
v 0.115649 -0.00518808 0.17754032
v 0.115714 0.02684192 0.14750932
v 0.11589 0.00273292 0.18930332
v 0.11592 -0.01214908 0.16550932
v 0.116124 -0.02375408 0.15289032
v 0.116224 0.04855992 0.12450432
v 0.116309 -0.06627108 0.15063732
v 0.116329 0.02753492 0.18586232
v 0.116481 -0.00361308 0.19092432
v 0.116574 -0.02253308 0.21922732
v 0.116744 -0.00699408 0.25541332
v 0.116878 -0.04720908 0.14451032
v 0.117304 -0.01128508 0.17873532
v 0.117541 -0.05504708 0.14644632
v 0.117746 0.03173192 0.16618832
v 0.117907 0.12047992 0.24645632
v 0.118259 0.03886792 0.14537532
v 0.118539 -0.02868008 0.15497632
v 0.118661 -0.01826608 0.16739732
v 0.118672 -0.05448408 0.19386432
v 0.11881 -0.06812808 0.16219832
v 0.118928 -0.03469108 0.20596432
v 0.119026 0.06767092 0.14284432
v 0.119381 -0.01277508 0.19400332
v 0.119443 0.03593992 0.18281132
v 0.119481 0.08977092 0.15977632
v 0.119924 0.05212992 0.14438232
v 0.120565 0.04205292 0.16498432
v 0.120581 -0.01839008 0.20775732
v 0.120723 -0.03606308 0.15654832
v 0.120802 -0.06250908 0.17193332
v 0.120992 -0.02072208 0.18062932
v 0.121047 -0.05811408 0.18346632
v 0.12106 0.09907392 0.30391732
v 0.121785 0.04492692 0.18199032
v 0.121794 -0.02769008 0.16931232
v 0.121978 -0.05740208 0.16075632
v 0.12199 -0.02528108 0.19545532
v 0.122192 -0.03900808 0.19507932
v 0.122231 -0.00801508 0.24290632
v 0.122855 -0.04601808 0.15821932
v 0.122985 0.05388792 0.16434832
v 0.123319 0.00314892 0.27615832
v 0.12343 -0.03169508 0.18222232
v 0.123768 -0.04427008 0.18299032
v 0.123952 -0.03842908 0.17014832
v 0.124179 0.07023792 0.16210932
v 0.124185 -0.05034508 0.17131632
v 0.12461 0.05507592 0.18105632
v 0.124661 0.09612492 0.18312332
v 0.125897 0.11081692 0.20486632
v 0.127871 0.00021692 0.26463332
v 0.129674 0.07058992 0.17953132
v 0.1297 0.11718992 0.22402332
v 0.132367 0.00976592 0.28711932
v 0.132412 0.07043592 0.19144832
v 0.133013 -0.00028508 0.25197332
v 0.133679 0.08456192 0.30984732
v 0.134535 0.08573092 0.19493732
v 0.136153 0.10543592 0.20789532
v 0.13924 0.11384092 0.22218432
v 0.139455 0.00701492 0.27552932
v 0.140087 0.02010492 0.29928932
v 0.141121 0.06850392 0.31349932
v 0.145198 0.03450792 0.30960032
v 0.14929 0.01661092 0.28825332
