# Rest-skin points; MuJoCo computes the convex hull.
v -0.127728 -0.014473 0.05536712
v -0.127066 0.004914 0.05700812
v -0.125952 -0.010144 0.06606012
v -0.125841 -0.033282 0.05308812
v -0.124349 0.008793 0.06631512
v -0.124343 -0.03016 0.06648012
v -0.12315 0.02439 0.05777812
v -0.121071 -0.050841 0.05011112
v -0.119329 0.027148 0.06719112
v -0.118702 -0.011343 0.08451012
v -0.117448 -0.050113 0.06694812
v -0.117242 -0.030032 0.08441212
v -0.11681 0.006407 0.08443512
v -0.11224 -0.067328 0.04572612
v -0.111585 0.023319 0.08512912
v -0.111043 -0.048464 0.08468412
v -0.110975 -0.011824 0.10319912
v -0.109592 0.043494 0.06824912
v -0.109583 -0.028948 0.10339912
v -0.108857 0.004248 0.10334012
v -0.106414 -0.067368 0.06595312
v -0.104132 -0.012485 0.12014912
v -0.103962 0.01899 0.10390212
v -0.103652 -0.046222 0.10335612
v -0.102679 0.038257 0.08610612
v -0.102578 -0.02857 0.12035312
v -0.102425 0.002243 0.12056112
v -0.100671 -0.064312 0.08386812
v -0.100344 -0.012677 0.13648112
v -0.099199 -0.028575 0.13610712
v -0.098982 0.001292 0.13742412
v -0.098 0.015719 0.12152912
v -0.097446 -0.044804 0.12029012
v -0.096325 0.032278 0.10470412
v -0.095585 0.013955 0.13850912
v -0.094804 -0.044607 0.13556712
v -0.093761 -0.060781 0.10217412
v -0.091161 -0.080453 0.06237812
v -0.090955 0.027803 0.12241612
v -0.090576 0.050265 0.08615012
v -0.089427 0.025412 0.13896412
v -0.088914 -0.058932 0.11900812
v -0.086681 -0.058388 0.13446812
v -0.086455 -0.076185 0.08127112
v -0.085802 0.043551 0.10434412
v -0.082096 0.038067 0.12247312
v -0.081207 -0.072006 0.10027912
v -0.081072 0.035326 0.13918312
v -0.077128 -0.069817 0.11743112
v -0.076473 0.058543 0.08438012
v -0.075178 -0.069406 0.13350612
v -0.073454 0.051466 0.10281112
v -0.073191 -0.089034 0.05978412
v -0.071488 0.046336 0.12163012
v -0.071162 0.044309 0.13864212
v -0.070515 -0.085144 0.07923212
v -0.067215 -0.081259 0.09840812
v -0.064076 -0.078763 0.11610812
v -0.062523 -0.078425 0.13305012
v -0.061049 0.063188 0.08101812
v -0.059231 0.056388 0.10031212
v -0.059219 0.051619 0.13705412
v -0.058682 0.052347 0.11955512
v -0.055808 -0.096405 0.05811212
v -0.054734 -0.093189 0.07711812
v -0.05262 -0.089811 0.09626712
v -0.050338 -0.08764 0.11494712
v -0.049531 -0.087187 0.13267612
v -0.047529 0.058575 0.15191912
v -0.045677 0.055612 0.13518212
v -0.044917 0.0557 0.11757012
v -0.044247 0.059244 0.09831012
v -0.044024 0.065532 0.07879412
v -0.038409 -0.102448 0.05628312
v -0.038404 -0.100009 0.07492012
v -0.036728 -0.097243 0.09435212
v -0.036393 -0.102946 0.03326412
v -0.035202 -0.095244 0.11365912
v -0.034644 -0.094647 0.13209812
v -0.032503 0.059569 0.15044512
v -0.030871 0.056921 0.13369512
v -0.030216 0.056436 0.11610212
v -0.029655 0.059968 0.09685212
v -0.028537 0.066822 0.07774812
v -0.01974 -0.103308 0.07394812
v -0.019614 -0.105374 0.05513112
v -0.019182 -0.100738 0.09253312
v -0.018131 -0.105845 0.03360312
v -0.018083 -0.099118 0.11215912
v -0.017616 -0.098601 0.13128212
v -0.016689 0.055679 0.14941512
v -0.015668 0.05323 0.13264112
v -0.015485 0.053628 0.11488712
v -0.015451 0.057999 0.09580012
v -0.014473 0.065734 0.07640912
v -0.013825 -0.103788 0.06554112
v -0.00945 -0.098597 0.09509112
v -0.007825 -0.100541 0.07686712
v -0.006921 -0.098941 0.08430412
v -0.004594 -0.098214 0.08739012
v -0.003358 -0.096916 0.08272012
v -0.003141 -0.0975 0.07925912
v -0.002482 -0.096528 0.08495512
v -0.001933 -0.09193 0.08215312
v -0.001821 -0.0925 0.08040212
v -0.001598 -0.092454 0.08367212
v -0.000411 -0.099819 0.07388312
v -0.000383 -0.097364 0.07769812
v -0.000357 -0.102923 0.06421712
v -0.000352 -0.092131 0.07991112
v -0.000342 -0.090901 0.08193112
v -0.000341 -0.096278 0.08556212
v -0.000335 -0.097607 0.08794012
v -0.000335 -0.097541 0.09307912
v -0.000334 -0.09215 0.08383612
v -0.000149 -0.097127 0.11082512
v -0.000148 0.05466 0.09431112
v -0.000103 0.048815 0.11364412
v -5.4e-05 0.046571 0.13232212
v -1.9e-05 0.048039 0.15031012
v 2.1e-05 -0.105034 0.05454712
v 2.1e-05 -0.097507 0.13041912
v 6e-05 0.063763 0.07532112
v 0.000208 -0.106013 0.03396612
v 0.0009 -0.092401 0.08356212
v 0.001091 -0.092442 0.08027512
v 0.001225 -0.091879 0.08202712
v 0.00181 -0.096495 0.08478912
v 0.002417 -0.097464 0.07904912
v 0.002677 -0.096895 0.08251012
v 0.003985 -0.098226 0.08712612
v 0.00632 -0.098993 0.08393212
v 0.007158 -0.100589 0.07643212
v 0.008744 -0.098572 0.09419212
v 0.013211 -0.103833 0.06501512
v 0.014338 0.065763 0.07633812
v 0.015218 0.053564 0.11480812
v 0.015231 0.057964 0.09569112
v 0.015499 0.053183 0.13267812
v 0.016618 0.055683 0.14940212
v 0.017674 -0.098487 0.13154312
v 0.018009 -0.099152 0.11213112
v 0.018557 -0.105799 0.03345212
v 0.019212 -0.100862 0.09252412
v 0.019492 -0.105385 0.05512612
v 0.020003 -0.103338 0.07364712
v 0.028351 0.06684 0.07766412
v 0.029402 0.059993 0.09677612
v 0.02984 0.056451 0.11597412
v 0.0307 0.05689 0.13366912
v 0.03248 0.059562 0.15031612
v 0.034747 -0.094508 0.13345012
v 0.035437 -0.095131 0.11449412
v 0.036911 -0.097151 0.09471312
v 0.038165 -0.100037 0.07489112
v 0.038185 -0.10253 0.05609612
v 0.04389 0.065498 0.07892412
v 0.043951 0.059235 0.09836112
v 0.04445 0.055724 0.11757412
v 0.045419 0.055663 0.13510212
v 0.047427 0.058569 0.15181312
v 0.049631 -0.087349 0.13453512
v 0.050458 -0.087505 0.11593612
v 0.052417 -0.08982 0.09671412
v 0.054629 -0.093161 0.07750312
v 0.055562 -0.09649 0.05805712
v 0.058313 0.052405 0.11957912
v 0.058907 0.051791 0.13696212
v 0.059065 0.056456 0.10039412
v 0.060602 0.063083 0.08126512
v 0.062602 -0.078427 0.13437812
v 0.064082 -0.078618 0.11672912
v 0.067159 -0.081155 0.09867812
v 0.070614 -0.084971 0.07953312
v 0.07082 0.04455 0.13856712
v 0.071349 0.046426 0.12169912
v 0.073092 -0.089077 0.05975212
v 0.073537 0.05136 0.10296712
v 0.075196 -0.069341 0.13372812
v 0.076555 0.058331 0.08466012
v 0.077256 -0.069813 0.11726212
v 0.080824 0.03563 0.13912912
v 0.081151 -0.072021 0.10029012
v 0.082045 0.038107 0.12258412
v 0.085991 0.043231 0.10464212
v 0.086494 -0.076123 0.08132712
v 0.086505 -0.058552 0.13416112
v 0.089138 -0.059015 0.11830112
v 0.089286 0.025618 0.13904912
v 0.09064 0.04983 0.08681812
v 0.090803 0.027863 0.12278512
v 0.091085 -0.080531 0.06229012
v 0.093947 -0.06074 0.10166912
v 0.094691 -0.044709 0.13540112
v 0.095516 0.014055 0.13874112
v 0.096191 0.032034 0.10524312
v 0.09767 -0.044791 0.11972712
v 0.097832 0.015625 0.12212912
v 0.09901 0.001313 0.13795012
v 0.099154 -0.028765 0.13637312
v 0.100272 -0.012859 0.13714912
v 0.100795 -0.064315 0.08361012
v 0.102217 0.002083 0.12154712
v 0.10247 0.037847 0.08726012
v 0.102538 -0.028796 0.12051912
v 0.103619 0.018715 0.10480512
v 0.103729 -0.012879 0.12102612
v 0.103818 -0.04631 0.10269912
v 0.10649 -0.067371 0.06564512
v 0.108415 0.00383 0.10479112
v 0.108769 0.042796 0.06976612
v 0.109466 -0.029309 0.10344412
v 0.110666 -0.012421 0.10411412
v 0.11106 0.022965 0.08652812
v 0.111353 -0.048452 0.08390012
v 0.112501 -0.067163 0.04529812
v 0.11615 0.00601 0.08635512
v 0.117327 -0.030241 0.08429312
v 0.117957 -0.049922 0.06595412
v 0.118068 0.026729 0.06905612
v 0.11844 -0.011929 0.08515612
v 0.121231 -0.050596 0.04962912
v 0.123347 0.008596 0.06803612
v 0.123729 0.024908 0.05684712
v 0.124317 -0.029934 0.06632312
v 0.125571 -0.010139 0.06683812
v 0.126146 -0.033037 0.05247912
v 0.127604 0.005273 0.05612312
v 0.128023 -0.014232 0.05460412
