# Rest-skin points; MuJoCo computes the convex hull.
v -0.02032937 -0.03857766 -0.0566079
v -0.01966037 -0.02830266 -0.0608409
v -0.01825337 -0.04498266 -0.0561709
v -0.01673437 -0.02090966 -0.0646369
v -0.01616237 -0.05065366 -0.0556339
v -0.01409337 -0.05585466 -0.0520719
v -0.01385437 0.05594634 0.0059781
v -0.01375737 -0.01297666 -0.0671229
v -0.01247637 -0.06805966 -0.0326259
v -0.01216937 -0.06243966 -0.0461909
v -0.01162337 -0.01694066 -0.0521909
v -0.01133937 -0.02421166 -0.0479749
v -0.00930537 -0.00956366 -0.0575859
v -0.00900037 -0.00367366 -0.0692939
v -0.00887737 -0.03211466 -0.0458289
v -0.00626337 -0.00208766 -0.0613119
v -0.00571837 0.04519034 0.0276631
v -0.00436237 0.05589434 -0.0169659
v -0.00357237 -0.04117766 -0.0449209
v -0.00261137 0.00852634 -0.0629979
v -0.00168337 -0.00917566 -0.0553859
v -0.00160737 -0.01647466 -0.0528359
v -0.00019437 -0.00106666 -0.0596849
v 0.00021563 0.02253234 -0.0607929
v 0.00073263 -0.02280466 -0.0516319
v 0.00103763 0.00939334 -0.0631439
v 0.00154063 -0.05894166 -0.0226969
v 0.00207863 0.04148634 -0.0532579
v 0.00268663 0.05106034 0.0024861
v 0.00317063 -0.02874766 -0.0489479
v 0.00329063 0.02267634 -0.0629269
v 0.00415163 -0.00046066 -0.0647199
v 0.00513963 0.00998834 -0.0667819
v 0.00526463 -0.05202266 -0.0365279
v 0.00532963 0.04002434 -0.0567159
v 0.00588463 -0.00896166 -0.0622069
v 0.00605563 0.02149234 -0.0660359
v 0.00659363 0.05269134 -0.0218249
v 0.00711863 0.05028834 -0.0425689
v 0.00776063 -0.00930566 0.0526561
v 0.00814763 0.02537034 0.0420031
v 0.00825763 -0.03560666 -0.0476989
v 0.00838763 -0.05410266 0.0012921
v 0.00848763 -0.01595666 -0.0611559
v 0.00870363 0.03612434 -0.0625229
v 0.00979263 0.01966634 -0.0734669
v 0.01013763 0.00964934 -0.0744179
v 0.01114663 -0.02247566 -0.0604049
v 0.01158363 0.00080334 -0.0758149
v 0.01242463 0.04110434 0.0207511
v 0.01250363 0.04828834 -0.0476149
v 0.01276663 0.03392234 -0.0723669
v 0.01438963 -0.02831666 -0.0595379
v 0.01485963 -0.00746966 -0.0755049
v 0.01488363 0.05047934 -0.0284579
v 0.01516563 -0.05255566 -0.0120139
v 0.01543963 0.04768434 -0.0049749
v 0.01682563 0.00733234 0.0460311
v 0.01709463 -0.04289266 -0.0456449
v 0.01785063 0.04670334 -0.0548619
v 0.01855763 -0.01531866 -0.0742819
v 0.01878963 -0.02984266 0.0391901
v 0.01911063 0.02255834 -0.0877469
v 0.01993663 0.01166934 -0.0893879
v 0.02010363 -0.03345866 -0.0581839
v 0.02014363 -0.04488766 0.0137381
v 0.02090763 0.00175134 -0.0913409
v 0.02098563 -0.01174766 0.0459741
v 0.02135563 0.03420734 -0.0848569
v 0.02157863 -0.02279566 -0.0732189
v 0.02182563 -0.04956066 -0.0253859
v 0.02230463 0.04572734 -0.0660819
v 0.02248963 0.04853234 -0.0361249
v 0.02257363 0.02573534 0.0329681
v 0.02524863 -0.00691066 -0.0915369
v 0.02547763 0.04568534 -0.0146799
v 0.02573963 -0.02864066 -0.0723599
v 0.02651563 0.03841734 0.0103611
v 0.02831663 -0.04404466 -0.0007229
v 0.02833663 -0.03085666 0.0261281
v 0.02879463 -0.03816466 -0.0557329
v 0.02898863 -0.01542166 -0.0901299
v 0.02971863 0.00715634 0.0367781
v 0.03003563 0.04440734 -0.0791179
v 0.03006263 -0.04508666 -0.0387049
v 0.03012563 0.04686334 -0.0453299
v 0.03159263 -0.03311166 -0.0711169
v 0.03176563 0.01351834 -0.1080339
v 0.03184963 0.02408334 -0.1059319
v 0.03203363 -0.01311566 0.0348311
v 0.03230363 -0.02380966 -0.0885639
v 0.03266763 0.00298734 -0.1091639
v 0.03436863 0.04356034 -0.0256899
v 0.03442563 0.03441234 -0.1015889
v 0.03566663 0.02422634 0.0199231
v 0.03642563 -0.04198666 -0.0155499
v 0.03674063 -0.00663566 -0.1088659
v 0.03682763 -0.02990566 -0.0872589
v 0.03699163 0.03633534 -0.0031589
v 0.03734163 0.04592634 -0.0569939
v 0.03748263 -0.03060866 0.0105041
v 0.03954363 -0.04039166 -0.0511749
v 0.03957663 -0.03624766 -0.0687389
v 0.04052463 -0.01562566 -0.1073969
v 0.04089163 0.00587634 0.0226101
v 0.04143363 -0.01343066 0.0189421
v 0.04155463 0.04313434 -0.0945559
v 0.04265663 0.04075234 -0.0375019
v 0.04279063 -0.03409566 -0.0858639
v 0.04373763 -0.02472166 -0.1057689
v 0.04424063 -0.03944366 -0.0299579
v 0.04489463 0.00538734 -0.1277359
v 0.04531563 0.01512834 -0.1272989
v 0.04540763 0.04550034 -0.0702659
v 0.04596963 0.02248434 0.0037381
v 0.04607063 0.03393834 -0.0173569
v 0.04642463 -0.02946766 -0.0055839
v 0.04664063 0.02364634 -0.1252609
v 0.04773663 -0.00477566 -0.1267739
v 0.04863663 -0.03170366 -0.1035369
v 0.04889963 -0.03657766 -0.0647829
v 0.04925263 0.03191934 -0.1210719
v 0.05040063 -0.03662366 -0.0832899
v 0.05068163 -0.01294766 0.0020361
v 0.05071063 0.03840234 -0.0502099
v 0.05072863 0.00506934 0.0054231
v 0.05143363 -0.03673566 -0.0446419
v 0.05188763 -0.01452666 -0.1254059
v 0.05422863 -0.02812666 -0.0217039
v 0.05424763 0.03103934 -0.0318569
v 0.05480963 0.02044834 -0.0125609
v 0.05504863 -0.03596666 -0.1012759
v 0.05516663 0.04480634 -0.0862129
v 0.05539263 0.03999934 -0.1138829
v 0.05572163 -0.02460466 -0.1236819
v 0.05856363 -0.03374966 -0.0593959
v 0.05872463 -0.03576366 -0.0793209
v 0.05898763 0.00720934 -0.1450469
v 0.05933063 -0.01243066 -0.0149369
v 0.05952663 0.00444334 -0.0117779
v 0.05978663 0.03727434 -0.0640469
v 0.05991163 -0.00321566 -0.1432609
v 0.06060063 0.01586634 -0.1458819
v 0.06079963 -0.02661666 -0.0377069
v 0.06105463 -0.03282566 -0.1205679
v 0.06185163 0.02774134 -0.0459849
v 0.06259663 0.01856334 -0.0285579
v 0.06265263 -0.03795366 -0.0981189
v 0.06273863 0.02287234 -0.1448019
v 0.06387463 -0.01400166 -0.1416919
v 0.06591063 0.02955734 -0.1411939
v 0.06624963 -0.01171066 -0.0316639
v 0.06646863 -0.02492666 -0.0536839
v 0.06672663 -0.03165166 -0.0741929
v 0.06693163 0.00406534 -0.0285219
v 0.06724263 0.04311134 -0.1052419
v 0.06802163 -0.03745966 -0.1172639
v 0.06815163 -0.02478066 -0.1398339
v 0.06908463 0.01632034 -0.0439269
v 0.07026663 0.03764134 -0.0797249
v 0.07035263 0.02702334 -0.0609859
v 0.07081063 -0.03618166 -0.0937259
v 0.07124563 -0.01095866 -0.0481329
v 0.07144663 0.03656834 -0.1345119
v 0.07209463 -0.00241866 -0.1582959
v 0.07221663 0.00801134 -0.1605779
v 0.07235563 0.00343334 -0.0446919
v 0.07342563 -0.02300666 -0.0687329
v 0.07365663 -0.03351066 -0.1366549
v 0.07419863 0.01562634 -0.1621269
v 0.07524863 -0.01397966 -0.1564889
v 0.07599763 -0.03866466 -0.1134659
v 0.07636463 0.01578434 -0.0596189
v 0.07662763 0.02167334 -0.1621599
v 0.07774963 -0.01025266 -0.0639819
v 0.07817763 -0.03080366 -0.0887279
v 0.07869663 0.00344034 -0.0607209
v 0.08004963 -0.02501966 -0.1544779
v 0.08023863 0.02773834 -0.1599169
v 0.08082763 -0.03813966 -0.1329499
v 0.08131263 0.04050634 -0.1262179
v 0.08146863 0.02737934 -0.0759429
v 0.08188963 0.03931934 -0.0985829
v 0.08323863 -0.00413466 -0.1718629
v 0.08347163 -0.02122866 -0.0838749
v 0.08372263 0.00544734 -0.1746479
v 0.08409963 -0.03632566 -0.1090539
v 0.08573963 0.01215634 -0.1766209
v 0.08578163 -0.03383066 -0.1514209
v 0.08582763 0.03447734 -0.1546689
v 0.08615263 -0.01579366 -0.1699729
v 0.08683663 0.01519934 -0.0750299
v 0.08703563 -0.01004366 -0.0796279
v 0.08832463 0.01811634 -0.1774609
v 0.08842063 0.00253234 -0.0764119
v 0.08877863 -0.03910066 -0.1290519
v 0.09117763 -0.02621266 -0.1675819
v 0.09129863 -0.03060066 -0.1044479
v 0.09222963 0.02472034 -0.1762559
v 0.09311063 -0.03836966 -0.1475939
v 0.09371963 0.02915234 -0.0943789
v 0.09422563 -0.00705266 -0.1842579
v 0.09449863 0.03879834 -0.1190989
v 0.09487663 0.00207934 -0.1877049
v 0.09496063 0.03874334 -0.1471859
v 0.09645063 -0.02078366 -0.1001449
v 0.09665863 -0.01826766 -0.1814359
v 0.09676963 0.00893034 -0.1898569
v 0.09680763 -0.03649366 -0.1248069
v 0.09687063 -0.03389566 -0.1646099
v 0.09818863 0.03171734 -0.1723059
v 0.09919563 0.01542434 -0.1909499
v 0.09985163 -0.00899666 -0.0964389
v 0.10030963 0.01671734 -0.0928369
v 0.10112763 -0.03878166 -0.1434649
v 0.10178163 -0.02750966 -0.1782169
v 0.10183763 0.00369934 -0.0936419
v 0.10306163 0.02255434 -0.1898829
v 0.10386963 -0.03053966 -0.1205779
v 0.10406063 -0.03798366 -0.1605929
v 0.10454063 -0.01050166 -0.1955749
v 0.10495463 -0.00162366 -0.1998099
v 0.10636463 0.03068334 -0.1142909
v 0.10664463 0.03750034 -0.1394899
v 0.10676263 -0.02048066 -0.1916309
v 0.10720563 -0.03392766 -0.1748609
v 0.10727963 0.03590434 -0.1658729
v 0.10730063 0.00561534 -0.2024149
v 0.10885063 -0.03618466 -0.1392899
v 0.10903263 0.02926934 -0.1865289
v 0.10918263 -0.02059266 -0.1167269
v 0.10989463 0.01243234 -0.2034149
v 0.11141363 -0.02853266 -0.1875629
v 0.11141463 -0.03827366 -0.1561959
v 0.11238463 0.02012834 -0.2019369
v 0.11266063 -0.00866566 -0.1136219
v 0.11315463 0.01830334 -0.1119779
v 0.11354463 -0.00554866 -0.2128149
v 0.11363463 -0.03711666 -0.1708689
v 0.11372663 -0.01420566 -0.2072509
v 0.11477563 0.00451834 -0.1117059
v 0.11550963 -0.03017066 -0.1352139
v 0.11591863 0.00336034 -0.2167499
v 0.11592663 -0.02258666 -0.2018109
v 0.11649063 0.02684634 -0.1976609
v 0.11663963 -0.03381766 -0.1835699
v 0.11699163 0.03082734 -0.1328399
v 0.11762863 0.03334534 -0.1808849
v 0.11802563 0.03509234 -0.1582949
v 0.11853063 -0.03538566 -0.1517639
v 0.12029563 -0.03716466 -0.1666159
v 0.12040963 -0.02045866 -0.1315699
v 0.12046463 -0.02934966 -0.1967449
v 0.12050363 -0.00784666 -0.2270789
v 0.12064463 0.01044134 -0.2173539
v 0.12167063 -0.01635466 -0.2197749
v 0.12215663 -0.03611066 -0.1795899
v 0.12268363 0.00169834 -0.2318399
v 0.12357463 0.01935634 -0.1285539
v 0.12366463 -0.00865066 -0.1284819
v 0.12378663 -0.02386866 -0.2129299
v 0.12440963 0.03134534 -0.1932429
v 0.12503363 -0.02910966 -0.1477559
v 0.12508963 0.01890934 -0.2166709
v 0.12526163 -0.03335366 -0.1918469
v 0.12553163 0.00516834 -0.1272289
v 0.12710763 -0.03420166 -0.1624819
v 0.12741063 0.03270734 -0.1742849
v 0.12766663 0.02947934 -0.1510099
v 0.12812163 -0.03579666 -0.1757079
v 0.12827563 -0.02961266 -0.2063839
v 0.12893263 0.00896234 -0.2313129
v 0.12989463 -0.03484666 -0.1876259
v 0.13041463 -0.02008366 -0.1445899
v 0.13074363 0.02639034 -0.2128569
v 0.13303763 -0.03233666 -0.2005779
v 0.13391963 -0.02835666 -0.1590399
v 0.13414363 0.01919634 -0.1451359
v 0.13445363 -0.00841466 -0.1424749
v 0.13470663 -0.03303966 -0.1720949
v 0.13494463 0.03135434 -0.1878869
v 0.13499663 -0.03418766 -0.1839919
v 0.13545563 0.01677534 -0.2294629
v 0.13647063 0.00522834 -0.1423549
v 0.13694363 0.02747234 -0.1670869
v 0.13735163 -0.03297666 -0.1959259
v 0.13735963 0.03019234 -0.2068849
v 0.13999963 -0.02010366 -0.1564339
v 0.14114163 -0.03214966 -0.1806869
v 0.14183363 -0.02789766 -0.1687639
v 0.14198563 -0.03246766 -0.1921049
v 0.14218163 0.02474734 -0.2265489
v 0.14441763 0.01763634 -0.1600809
v 0.14459663 -0.00928266 -0.1548379
v 0.14594863 0.02951934 -0.2003799
v 0.14629963 0.02618634 -0.1809359
v 0.14693763 0.00370234 -0.1555289
v 0.14799163 -0.03161966 -0.1884049
v 0.14844463 -0.02098666 -0.1660389
v 0.14858563 -0.02842166 -0.1770419
v 0.14934763 0.02849134 -0.2208849
v 0.15397163 -0.01168466 -0.1649029
v 0.15452863 0.01552434 -0.1732719
v 0.15561763 -0.02962166 -0.1844909
v 0.15604363 -0.02311966 -0.1741109
v 0.15632563 0.02370234 -0.1937009
v 0.15708463 0.02657934 -0.2135799
v 0.15714863 0.00060234 -0.1667789
v 0.16268663 -0.01455066 -0.1735559
v 0.16354663 -0.02548966 -0.1815909
v 0.16506963 0.01276934 -0.1847029
v 0.16568263 0.01933334 -0.2056849
v 0.16708163 -0.00239466 -0.1767119
v 0.17461663 0.00934534 -0.1950099
v 0.17652063 -0.00480166 -0.1859829
