# Rest-skin points; MuJoCo computes the convex hull.
v -0.1752066 0.00737689 -0.19248033
v -0.1746006 -0.00838611 -0.18383333
v -0.1686636 -0.02035611 -0.18090833
v -0.1665236 0.01845389 -0.20421133
v -0.1656346 0.01009889 -0.18255833
v -0.1654886 -0.00604211 -0.17533733
v -0.1606616 -0.02720911 -0.18205033
v -0.1605356 -0.01773511 -0.17337833
v -0.1588566 0.02200889 -0.19241233
v -0.1575986 0.02704489 -0.21358633
v -0.1558276 0.01118689 -0.17093033
v -0.1556956 -0.00369611 -0.16547333
v -0.1535556 -0.02513611 -0.17484633
v -0.1529036 -0.03051811 -0.18500833
v -0.1515036 -0.01565011 -0.16451833
v -0.1503696 0.02330389 -0.17910433
v -0.1497796 0.02864389 -0.20128633
v -0.1474596 0.02883589 -0.22033033
v -0.1462526 -0.02980911 -0.17778233
v -0.1456756 -0.03199311 -0.18859433
v -0.1455026 0.01174789 -0.15724333
v -0.1452236 -0.02435211 -0.16673933
v -0.1449086 -0.00193311 -0.15396633
v -0.1417646 0.03018689 -0.18755933
v -0.1412456 0.02344289 -0.16376933
v -0.1410676 -0.01408311 -0.15367733
v -0.1406056 0.03009289 -0.20827233
v -0.1400496 -0.03269611 -0.19194033
v -0.1393336 0.02406689 -0.22503233
v -0.1392726 -0.03279611 -0.18113433
v -0.1384916 -0.03033611 -0.16951233
v -0.1359146 -0.02377411 -0.15575833
v -0.1353546 -0.03328511 -0.19536433
v -0.1342176 0.01342389 -0.14156733
v -0.1339956 0.00020889 -0.13962233
v -0.1335526 0.01614389 -0.22853433
v -0.1332106 -0.03469411 -0.18455233
v -0.1330046 0.03105289 -0.17162433
v -0.1325026 0.02663189 -0.21335833
v -0.1320156 0.03190689 -0.19483633
v -0.1318136 -0.03436211 -0.17233733
v -0.1309486 -0.03227511 -0.19949333
v -0.1306926 -0.01231611 -0.14008233
v -0.1302506 0.02524189 -0.14623133
v -0.1299016 -0.03097811 -0.15827233
v -0.1278736 0.00860489 -0.23065533
v -0.1278226 -0.03484911 -0.18808233
v -0.1262706 -0.02933911 -0.20473633
v -0.1261146 0.01996289 -0.21574433
v -0.1259846 -0.02299411 -0.14197733
v -0.1256206 -0.03645311 -0.17565033
v -0.1233746 -0.03585911 -0.16124833
v -0.1231416 0.02905589 -0.20000533
v -0.1226266 -0.03276911 -0.19208333
v -0.1225036 0.03356589 -0.17916933
v -0.1220686 -0.02310311 -0.21119933
v -0.1219606 0.00232489 -0.23034133
v -0.1219076 0.00092389 -0.12272433
v -0.1219076 0.01393289 -0.12338333
v -0.1218436 0.03338589 -0.15322333
v -0.1208556 0.01324489 -0.21627733
v -0.1200406 -0.01514811 -0.21837333
v -0.1200396 -0.03131611 -0.14463433
v -0.1195916 -0.03623611 -0.17922433
v -0.1194066 -0.00648611 -0.22527633
v -0.1189756 -0.01141511 -0.12376133
v -0.1177136 -0.02797111 -0.19664933
v -0.1175946 0.02646389 -0.12648333
v -0.1164356 -0.03796211 -0.16471633
v -0.1163426 0.02299889 -0.20260033
v -0.1161686 0.00708489 -0.21537233
v -0.1144826 -0.02241011 -0.12581733
v -0.1138046 -0.03318211 -0.18297233
v -0.1134686 -0.01974511 -0.20210733
v -0.1128646 -0.03650311 -0.14787533
v -0.1127366 0.03119289 -0.18527933
v -0.1126426 -0.00033011 -0.21272233
v -0.1119646 -0.00967511 -0.20783533
v -0.1114156 0.01672189 -0.20322833
v -0.1106116 0.03633689 -0.16101933
v -0.1093986 -0.03737811 -0.16839133
v -0.1086566 -0.02675211 -0.18734133
v -0.1083716 -0.03154111 -0.12870933
v -0.1082796 0.03556389 -0.13231433
v -0.1082696 0.00134089 -0.10291033
v -0.1079766 0.01394389 -0.10286033
v -0.1078956 0.01082389 -0.20215133
v -0.1056126 -0.01054011 -0.10491933
v -0.1055166 0.02567689 -0.18901833
v -0.1052076 0.00409089 -0.20005133
v -0.1050666 -0.03858011 -0.15111233
v -0.1045546 -0.01676411 -0.19226533
v -0.1037026 -0.00520711 -0.19653133
v -0.1033286 0.02655189 -0.10557933
v -0.1029536 -0.03329311 -0.17211533
v -0.1016206 -0.02164211 -0.10777733
v -0.1006816 -0.03687411 -0.13195333
v -0.1005776 0.01980589 -0.19016933
v -0.1002946 0.03378389 -0.16833133
v -0.0979226 -0.02525311 -0.17613233
v -0.0973086 -0.03781311 -0.15455733
v -0.0972226 0.01421389 -0.18946433
v -0.0965536 0.03898189 -0.14009633
v -0.0956686 -0.03114811 -0.11108733
v -0.0947516 0.00754489 -0.18758233
v -0.0941836 -0.01430011 -0.18082133
v -0.0937546 0.03670789 -0.11139733
v -0.0937286 0.00112589 -0.08370233
v -0.0934216 -0.00215911 -0.18439433
v -0.0933736 0.01388989 -0.08297633
v -0.0932006 0.02830689 -0.17347733
v -0.0919526 -0.03905511 -0.13482433
v -0.0911446 -0.01105011 -0.08655433
v -0.0905426 -0.03310911 -0.15822933
v -0.0892436 0.02634789 -0.08517433
v -0.0887406 0.02263889 -0.17556833
v -0.0874456 -0.02186511 -0.08991833
v -0.0873966 -0.03664211 -0.11435233
v -0.0864426 0.03644889 -0.14828633
v -0.0857816 -0.02421211 -0.16214433
v -0.0857196 0.01683489 -0.17540733
v -0.0834356 -0.03789611 -0.13744233
v -0.0833386 0.00938789 -0.17377833
v -0.0827076 -0.01300311 -0.16674133
v -0.0819416 -0.00096211 -0.17079633
v -0.0816356 -0.03120011 -0.09305333
v -0.0815226 0.00236589 -0.06599533
v -0.0809836 0.04071589 -0.11906833
v -0.0801036 0.01466789 -0.06554933
v -0.0800566 -0.01071211 -0.06891233
v -0.0797386 0.03726689 -0.09085733
v -0.0796416 0.03109389 -0.15498233
v -0.0781636 -0.03882911 -0.11702033
v -0.0761416 -0.03307911 -0.14054833
v -0.0758016 0.02629889 -0.06776233
v -0.0756346 -0.02231611 -0.07296933
v -0.0755736 0.02507989 -0.15842633
v -0.0735546 0.00295289 -0.04763633
v -0.0732486 -0.03628311 -0.09666433
v -0.0726846 0.01836189 -0.15921633
v -0.0725086 -0.01095911 -0.05083433
v -0.0714746 -0.02409411 -0.14460933
v -0.0709536 0.01575689 -0.04766333
v -0.0702786 0.00961889 -0.15797833
v -0.0701136 0.03845589 -0.12737733
v -0.0695966 -0.01290011 -0.14949833
v -0.0693596 -0.03749211 -0.11947933
v -0.0689996 -0.00137711 -0.15462533
v -0.0687746 -0.03139011 -0.07651733
v -0.0677216 -0.02404811 -0.05514433
v -0.0674166 0.00392189 -0.02962133
v -0.0667476 -0.01168411 -0.03253033
v -0.0664946 0.03716389 -0.07295433
v -0.0655946 0.04327989 -0.09859233
v -0.0647656 0.02720189 -0.05118233
v -0.0640516 -0.03808811 -0.09972633
v -0.0634796 0.01837889 -0.03049333
v -0.0633616 0.03238289 -0.13468933
v -0.0620816 -0.03272911 -0.12221433
v -0.0613446 -0.02616411 -0.03776133
v -0.0600076 -0.03579011 -0.08039533
v -0.0597016 0.02542489 -0.13903133
v -0.0596696 0.00472689 -0.01200533
v -0.0594446 -0.03313411 -0.06018333
v -0.0594436 -0.01214911 -0.01481533
v -0.0571256 0.01774589 -0.14073233
v -0.0571176 -0.02427411 -0.12576533
v -0.0561806 0.03036289 -0.03519633
v -0.0556236 -0.03609911 -0.10204633
v -0.0554906 0.03749589 -0.05703633
v -0.0552156 0.02066489 -0.01370033
v -0.0550756 -0.01356411 -0.13018633
v -0.0548636 0.00820289 -0.14003333
v -0.0543476 -0.02776611 -0.02112633
v -0.0541146 -0.00280211 -0.13600733
v -0.0527456 0.04163189 -0.10618433
v -0.0526636 0.04479989 -0.08071633
v -0.0520316 -0.03625111 -0.04437233
v -0.0508016 -0.03667411 -0.08345033
v -0.0505786 0.00562489 0.00569667
v -0.0505456 -0.01232611 0.00272167
v -0.0493496 -0.03666511 -0.06498633
v -0.0488586 -0.03164611 -0.10401933
v -0.0474846 0.03353089 -0.01997233
v -0.0464616 -0.02891811 -0.00468833
v -0.0461226 0.03966689 -0.04275433
v -0.0460936 0.02275289 0.00324267
v -0.0447996 0.03445889 -0.11283533
v -0.0445576 -0.03915911 -0.02918833
v -0.0440916 -0.02448411 -0.10651233
v -0.0430416 0.04546789 -0.06510233
v -0.0428456 -0.03422811 -0.08556333
v -0.0417396 -0.01512711 -0.10960133
v -0.0412956 -0.01233711 0.01967367
v -0.0407516 0.02556389 -0.11724733
v -0.0405416 0.00679289 0.02299467
v -0.0398036 -0.04040911 -0.05059633
v -0.0397756 -0.00544511 -0.11394633
v -0.0393166 -0.03617711 -0.06865133
v -0.0389746 0.01574789 -0.11874333
v -0.0381626 0.03618489 -0.00517233
v -0.0381206 0.00505789 -0.11790433
v -0.0375986 -0.02971611 0.01152067
v -0.0375006 0.04390189 -0.08890833
v -0.0373716 0.04267789 -0.02993733
v -0.0368766 -0.04149811 -0.01470933
v -0.0368216 -0.03009611 -0.08688133
v -0.0355556 0.02462089 0.01967367
v -0.0345386 0.04629389 -0.05158433
v -0.0324516 -0.02418311 -0.08833833
v -0.0321726 -0.01151111 0.03494767
v -0.0309496 -0.03300711 -0.07070633
v -0.0303706 -0.04523811 -0.03771933
v -0.0296726 -0.01626311 -0.09038633
v -0.0289006 -0.04328811 0.00041367
v -0.0287516 -0.02958111 0.02677567
v -0.0286536 0.00779989 0.03766867
v -0.0285206 -0.03845811 -0.05529233
v -0.0282296 0.04500789 -0.01811533
v -0.0274686 0.04526889 -0.07389933
v -0.0274286 0.03469689 -0.09335433
v -0.0273366 0.03845189 0.00906267
v -0.0268806 -0.00750711 -0.09333933
v -0.0263666 0.04775489 -0.04085733
v -0.0252356 -0.02854811 -0.07190933
v -0.0240516 0.01259389 -0.09613733
v -0.0239586 0.00214589 -0.09602633
v -0.0239146 0.02342289 -0.09584333
v -0.0226126 0.02613889 0.03254967
v -0.0224566 -0.04941311 -0.02469733
v -0.0213986 0.04641889 -0.06069733
v -0.0213526 -0.02275611 -0.07287633
v -0.0211486 -0.01050311 0.04600067
v -0.0207196 -0.04385211 0.01503867
v -0.0197926 -0.03351511 -0.05777733
v -0.0196156 -0.02831511 0.03927867
v -0.0186226 -0.01536311 -0.07420233
v -0.0184216 0.04974489 -0.03210133
v -0.0177966 0.04720489 -0.00738233
v -0.0169706 -0.04316311 -0.04526933
v -0.0163696 -0.05189911 -0.01121033
v -0.0159006 0.03389689 -0.07817533
v -0.0154766 -0.00744611 -0.07625133
v -0.0154026 0.04741089 -0.05139333
v -0.0152046 0.00720489 0.04724267
v -0.0142296 -0.02815311 -0.05924133
v -0.0132756 0.04134089 0.01958867
v -0.0130916 0.00123189 -0.07808933
v -0.0124516 0.02054789 -0.07789033
v -0.0123016 0.01029589 -0.07783233
v -0.0109976 -0.02226411 -0.06042933
v -0.0103956 0.03501589 -0.06622233
v -0.0098786 -0.05315311 0.00236067
v -0.0097306 0.05188389 -0.02466533
v -0.0094356 0.04910789 -0.04512733
v -0.0089566 0.02606189 0.04075467
v -0.0087366 -0.01561511 -0.06128433
v -0.0081976 -0.03559211 -0.04765333
v -0.0077566 -0.00930511 0.05267567
v -0.0069886 0.02117889 -0.06725033
v -0.0066246 0.03838189 -0.05919133
v -0.0064906 -0.00875511 -0.06336733
v -0.0055156 -0.05222311 -0.03627333
v -0.0052566 0.01021089 -0.06701333
v -0.0050456 -0.00057211 -0.06644233
v -0.0045766 0.05068189 0.00070267
v -0.0036146 0.00769889 0.05208367
v -0.0035106 0.02227589 -0.06360433
v -0.0032566 0.03970889 -0.05506233
v -0.0031986 -0.02864011 -0.04896933
v -0.0027306 -0.05834511 -0.02228833
v -0.0019556 0.00951689 -0.06329833
v -0.0010876 -0.02259911 -0.05186033
v -0.0005366 0.02213089 -0.06115033
v -0.0004856 -0.00060711 -0.06031633
v 0.0012564 -0.01647311 -0.05317833
v 0.0016854 0.05513189 -0.01901633
v 0.0017534 0.00872589 -0.06307633
v 0.0020814 -0.00920511 -0.05587733
v 0.0031854 -0.04058411 -0.04487633
v 0.0038274 0.02375689 0.04842967
v 0.0050274 0.04535589 0.02675267
v 0.0060924 -0.00142811 -0.06139933
v 0.0075584 -0.03089911 -0.04537433
v 0.0088384 -0.00331211 -0.06873533
v 0.0094374 -0.02331111 -0.04747933
v 0.0095074 -0.00939611 -0.05724733
v 0.0101704 -0.01635811 -0.05135533
v 0.0115434 -0.06116511 -0.04784633
v 0.0116504 -0.06786111 -0.03299033
v 0.0125064 0.05577089 0.00486967
v 0.0135354 -0.01307711 -0.06675933
v 0.0142094 -0.05349411 -0.05274233
v 0.0163264 -0.04851511 -0.05575833
v 0.0166764 -0.02075411 -0.06428733
v 0.0183224 -0.04340911 -0.05566833
v 0.0194184 -0.02791911 -0.06066633
v 0.0199094 -0.03651811 -0.05617533
